<?xml version="1.0" encoding="iso-8859-1"?>
<!-- Generator: Adobe Illustrator 19.1.0, SVG Export Plug-In . SVG Version: 6.00 Build 0)  -->
<svg version="1.1" id="Layer_1" xmlns="http://www.w3.org/2000/svg" xmlns:xlink="http://www.w3.org/1999/xlink" x="0px" y="0px"
	 viewBox="0 0 291.993 186.22" style="enable-background:new 0 0 291.993 186.22;" xml:space="preserve">
<g>
	<defs>
		<rect id="SVGID_1_" x="12.752" y="11.917" width="263.805" height="170.613"/>
	</defs>
	<clipPath id="SVGID_2_">
		<use xlink:href="#SVGID_1_"  style="overflow:visible;"/>
	</clipPath>
	<path style="clip-path:url(#SVGID_2_);fill:#D5D5D4;" d="M145.166,41.535c-2.856,0-5.172,2.316-5.172,5.172
		s2.316,5.172,5.172,5.172s5.172-2.316,5.172-5.172S148.022,41.535,145.166,41.535"/>
	<path style="clip-path:url(#SVGID_2_);fill:#D5D5D4;" d="M145.166,27.9c-3.114,0-5.643,2.526-5.643,5.643
		c0,3.114,2.529,5.64,5.643,5.64s5.643-2.526,5.643-5.64C150.809,30.426,148.28,27.9,145.166,27.9"/>
	<path style="clip-path:url(#SVGID_2_);fill:#D5D5D4;" d="M145.166,11.915c-3.633,0-6.582,2.949-6.582,6.582
		c0,3.633,2.949,6.582,6.582,6.582s6.582-2.949,6.582-6.582C151.748,14.864,148.799,11.915,145.166,11.915"/>
	<path style="clip-path:url(#SVGID_2_);fill:#D5D5D4;" d="M145.166,108.296c-2.856,0-5.172-2.316-5.172-5.172
		c0-2.856,2.316-5.172,5.172-5.172s5.172,2.316,5.172,5.172C150.338,105.98,148.022,108.296,145.166,108.296"/>
	<path style="clip-path:url(#SVGID_2_);fill:#D5D5D4;" d="M145.166,121.931c-3.114,0-5.643-2.526-5.643-5.643
		c0-3.114,2.529-5.64,5.643-5.64s5.643,2.526,5.643,5.64C150.809,119.405,148.28,121.931,145.166,121.931"/>
	<path style="clip-path:url(#SVGID_2_);fill:#D5D5D4;" d="M145.166,137.915c-3.633,0-6.582-2.949-6.582-6.582
		c0-3.633,2.949-6.582,6.582-6.582s6.582,2.949,6.582,6.582C151.748,134.966,148.799,137.915,145.166,137.915"/>
	<path style="clip-path:url(#SVGID_2_);fill:#D5D5D4;" d="M132.392,44.075c-2.64,1.092-3.894,4.119-2.799,6.759
		c1.092,2.637,4.119,3.891,6.756,2.796c2.64-1.092,3.894-4.116,2.802-6.756C138.056,44.237,135.032,42.983,132.392,44.075"/>
	<path style="clip-path:url(#SVGID_2_);fill:#D5D5D4;" d="M127.175,31.479c-2.877,1.191-4.245,4.494-3.054,7.371
		c1.191,2.88,4.494,4.245,7.371,3.054c2.88-1.191,4.245-4.494,3.054-7.371S130.052,30.288,127.175,31.479"/>
	<path style="clip-path:url(#SVGID_2_);fill:#D5D5D4;" d="M121.057,16.711c-3.357,1.392-4.953,5.241-3.561,8.598
		c1.389,3.36,5.241,4.956,8.598,3.564c3.357-1.389,4.953-5.241,3.564-8.601C128.266,16.915,124.414,15.322,121.057,16.711"/>
	<path style="clip-path:url(#SVGID_2_);fill:#D5D5D4;" d="M157.94,105.755c-2.64,1.092-5.664-0.162-6.759-2.799
		c-1.092-2.64,0.162-5.664,2.802-6.756c2.637-1.095,5.664,0.159,6.756,2.796C161.831,101.636,160.58,104.663,157.94,105.755"/>
	<path style="clip-path:url(#SVGID_2_);fill:#D5D5D4;" d="M163.157,118.352c-2.877,1.191-6.18-0.177-7.371-3.054
		s0.174-6.18,3.054-7.371c2.877-1.191,6.18,0.174,7.371,3.054C167.402,113.858,166.034,117.161,163.157,118.352"/>
	<path style="clip-path:url(#SVGID_2_);fill:#D5D5D4;" d="M169.276,133.12c-3.357,1.389-7.209-0.204-8.601-3.561
		c-1.389-3.36,0.207-7.212,3.564-8.601c3.357-1.392,7.209,0.204,8.598,3.564C174.229,127.879,172.633,131.728,169.276,133.12"/>
	<path style="clip-path:url(#SVGID_2_);fill:#D5D5D4;" d="M121.562,51.312c-2.019,2.019-2.019,5.295,0,7.314
		c2.022,2.019,5.295,2.019,7.314,0c2.019-2.019,2.019-5.292,0-7.314C126.857,49.293,123.581,49.293,121.562,51.312"/>
	<path style="clip-path:url(#SVGID_2_);fill:#D5D5D4;" d="M111.922,41.671c-2.202,2.202-2.202,5.775,0,7.98
		c2.202,2.202,5.778,2.202,7.98,0c2.202-2.202,2.202-5.778,0-7.98C117.697,39.469,114.124,39.469,111.922,41.671"/>
	<path style="clip-path:url(#SVGID_2_);fill:#D5D5D4;" d="M100.619,30.368c-2.568,2.568-2.571,6.738,0,9.309
		c2.568,2.568,6.738,2.568,9.309,0c2.568-2.571,2.568-6.741,0-9.309C107.357,27.797,103.187,27.8,100.619,30.368"/>
	<path style="clip-path:url(#SVGID_2_);fill:#D5D5D4;" d="M168.77,98.519c-2.019,2.019-5.295,2.019-7.314,0
		c-2.019-2.022-2.019-5.295,0-7.314c2.019-2.019,5.292-2.019,7.314,0C170.789,93.224,170.789,96.5,168.77,98.519"/>
	<path style="clip-path:url(#SVGID_2_);fill:#D5D5D4;" d="M178.411,108.16c-2.202,2.202-5.775,2.202-7.98,0
		c-2.202-2.202-2.202-5.778,0-7.98c2.202-2.202,5.778-2.202,7.98,0C180.613,102.385,180.613,105.958,178.411,108.16"/>
	<path style="clip-path:url(#SVGID_2_);fill:#D5D5D4;" d="M189.714,119.463c-2.568,2.571-6.738,2.571-9.309,0
		c-2.568-2.568-2.568-6.738,0-9.309c2.571-2.568,6.741-2.568,9.309,0C192.285,112.725,192.282,116.895,189.714,119.463"/>
	<path style="clip-path:url(#SVGID_2_);fill:#D5D5D4;" d="M114.326,62.141c-1.092,2.64,0.162,5.664,2.799,6.759
		c2.64,1.092,5.664-0.162,6.756-2.802c1.095-2.637-0.159-5.664-2.796-6.756C118.445,58.247,115.418,59.501,114.326,62.141"/>
	<path style="clip-path:url(#SVGID_2_);fill:#D5D5D4;" d="M101.73,56.924c-1.191,2.877,0.174,6.18,3.054,7.371
		c2.877,1.191,6.18-0.174,7.371-3.054c1.191-2.877-0.174-6.18-3.054-7.371C106.224,52.679,102.924,54.047,101.73,56.924"/>
	<path style="clip-path:url(#SVGID_2_);fill:#D5D5D4;" d="M86.963,50.806c-1.392,3.357,0.204,7.209,3.561,8.601
		c3.357,1.389,7.209-0.207,8.601-3.564c1.392-3.357-0.204-7.209-3.564-8.598C92.204,45.853,88.352,47.449,86.963,50.806"/>
	<path style="clip-path:url(#SVGID_2_);fill:#D5D5D4;" d="M176.006,87.689c-1.092,2.64-4.119,3.894-6.759,2.799
		c-2.637-1.092-3.891-4.119-2.796-6.756c1.092-2.64,4.116-3.894,6.756-2.802C175.844,82.025,177.098,85.049,176.006,87.689"/>
	<path style="clip-path:url(#SVGID_2_);fill:#D5D5D4;" d="M188.603,92.907c-1.194,2.88-4.494,4.245-7.371,3.054
		c-2.88-1.191-4.245-4.494-3.054-7.371c1.191-2.88,4.494-4.245,7.371-3.054C188.429,86.727,189.794,90.03,188.603,92.907"/>
	<path style="clip-path:url(#SVGID_2_);fill:#D5D5D4;" d="M203.37,99.025c-1.389,3.357-5.241,4.953-8.598,3.561
		c-3.36-1.389-4.956-5.241-3.564-8.598c1.392-3.357,5.244-4.953,8.601-3.564C203.166,91.816,204.762,95.668,203.37,99.025"/>
	<path style="clip-path:url(#SVGID_2_);fill:#7A7A7A;" d="M111.785,74.915c0,2.856,2.316,5.172,5.172,5.172s5.172-2.316,5.172-5.172
		s-2.316-5.172-5.172-5.172S111.785,72.059,111.785,74.915"/>
	<path style="clip-path:url(#SVGID_2_);fill:#7A7A7A;" d="M98.151,74.915c0,3.114,2.526,5.643,5.643,5.643
		c3.114,0,5.64-2.529,5.64-5.643s-2.526-5.643-5.64-5.643C100.677,69.272,98.151,71.801,98.151,74.915"/>
	<path style="clip-path:url(#SVGID_2_);fill:#7A7A7A;" d="M82.166,74.915c0,3.633,2.949,6.582,6.582,6.582
		c3.633,0,6.582-2.949,6.582-6.582c0-3.633-2.949-6.582-6.582-6.582C85.115,68.333,82.166,71.282,82.166,74.915"/>
	<path style="clip-path:url(#SVGID_2_);fill:#7A7A7A;" d="M178.547,74.915c0,2.856-2.316,5.172-5.172,5.172
		s-5.172-2.316-5.172-5.172s2.316-5.172,5.172-5.172S178.547,72.059,178.547,74.915"/>
	<path style="clip-path:url(#SVGID_2_);fill:#7A7A7A;" d="M192.182,74.915c0,3.114-2.526,5.643-5.643,5.643
		c-3.114,0-5.64-2.529-5.64-5.643s2.526-5.643,5.64-5.643C189.656,69.272,192.182,71.801,192.182,74.915"/>
	<path style="clip-path:url(#SVGID_2_);fill:#7A7A7A;" d="M208.166,74.915c0,3.633-2.949,6.582-6.582,6.582
		c-3.633,0-6.582-2.949-6.582-6.582c0-3.633,2.949-6.582,6.582-6.582C205.217,68.333,208.166,71.282,208.166,74.915"/>
	<path style="clip-path:url(#SVGID_2_);fill:#7A7A7A;" d="M114.326,87.689c1.092,2.64,4.119,3.894,6.759,2.799
		c2.637-1.092,3.891-4.119,2.796-6.756c-1.092-2.64-4.116-3.894-6.756-2.802C114.488,82.025,113.234,85.049,114.326,87.689"/>
	<path style="clip-path:url(#SVGID_2_);fill:#7A7A7A;" d="M101.73,92.907c1.191,2.88,4.494,4.245,7.371,3.054
		c2.88-1.191,4.245-4.494,3.054-7.371c-1.191-2.88-4.494-4.245-7.371-3.054C101.904,86.727,100.539,90.03,101.73,92.907"/>
	<path style="clip-path:url(#SVGID_2_);fill:#7A7A7A;" d="M86.962,99.025c1.392,3.357,5.241,4.953,8.598,3.561
		c3.36-1.389,4.956-5.241,3.564-8.598c-1.389-3.357-5.241-4.953-8.601-3.564C87.166,91.816,85.573,95.668,86.962,99.025"/>
	<path style="clip-path:url(#SVGID_2_);fill:#7A7A7A;" d="M176.006,62.141c1.092,2.64-0.162,5.664-2.799,6.759
		c-2.64,1.092-5.664-0.162-6.756-2.802c-1.095-2.637,0.159-5.664,2.796-6.756C171.887,58.25,174.914,59.501,176.006,62.141"/>
	<path style="clip-path:url(#SVGID_2_);fill:#7A7A7A;" d="M188.603,56.924c1.191,2.877-0.174,6.18-3.054,7.371
		c-2.877,1.191-6.18-0.174-7.371-3.054c-1.191-2.877,0.174-6.18,3.054-7.371C184.109,52.679,187.412,54.047,188.603,56.924"/>
	<path style="clip-path:url(#SVGID_2_);fill:#7A7A7A;" d="M203.371,50.806c1.389,3.357-0.204,7.209-3.561,8.601
		c-3.36,1.389-7.212-0.207-8.601-3.564c-1.392-3.357,0.204-7.209,3.564-8.598C198.13,45.853,201.979,47.449,203.371,50.806"/>
	<path style="clip-path:url(#SVGID_2_);fill:#7A7A7A;" d="M121.562,98.519c2.019,2.019,5.295,2.019,7.314,0
		c2.019-2.022,2.019-5.295,0-7.314c-2.019-2.019-5.292-2.019-7.314,0C119.543,93.224,119.543,96.5,121.562,98.519"/>
	<path style="clip-path:url(#SVGID_2_);fill:#7A7A7A;" d="M111.922,108.16c2.202,2.202,5.775,2.202,7.98,0
		c2.202-2.202,2.202-5.778,0-7.98s-5.778-2.202-7.98,0C109.72,102.385,109.72,105.958,111.922,108.16"/>
	<path style="clip-path:url(#SVGID_2_);fill:#7A7A7A;" d="M100.619,119.463c2.568,2.571,6.738,2.571,9.309,0
		c2.568-2.568,2.568-6.738,0-9.309c-2.571-2.568-6.741-2.568-9.309,0C98.048,112.725,98.051,116.895,100.619,119.463"/>
	<path style="clip-path:url(#SVGID_2_);fill:#7A7A7A;" d="M168.77,51.312c2.019,2.019,2.019,5.295,0,7.314
		c-2.022,2.019-5.295,2.019-7.314,0c-2.019-2.019-2.019-5.292,0-7.314C163.475,49.293,166.751,49.293,168.77,51.312"/>
	<path style="clip-path:url(#SVGID_2_);fill:#7A7A7A;" d="M178.411,41.671c2.202,2.202,2.202,5.775,0,7.98
		c-2.202,2.202-5.778,2.202-7.98,0c-2.202-2.202-2.202-5.778,0-7.98C172.636,39.469,176.209,39.469,178.411,41.671"/>
	<path style="clip-path:url(#SVGID_2_);fill:#7A7A7A;" d="M189.714,30.368c2.568,2.568,2.571,6.738,0,9.309
		c-2.568,2.568-6.738,2.568-9.309,0c-2.568-2.571-2.568-6.741,0-9.309C182.976,27.797,187.146,27.8,189.714,30.368"/>
	<path style="clip-path:url(#SVGID_2_);fill:#7A7A7A;" d="M132.392,105.755c2.64,1.092,5.664-0.162,6.759-2.799
		c1.092-2.64-0.162-5.664-2.802-6.756c-2.637-1.095-5.664,0.159-6.756,2.796C128.498,101.636,129.752,104.663,132.392,105.755"/>
	<path style="clip-path:url(#SVGID_2_);fill:#7A7A7A;" d="M127.175,118.352c2.877,1.191,6.18-0.177,7.371-3.054
		s-0.174-6.18-3.054-7.371c-2.877-1.191-6.18,0.174-7.371,3.054C122.93,113.858,124.298,117.158,127.175,118.352"/>
	<path style="clip-path:url(#SVGID_2_);fill:#7A7A7A;" d="M121.057,133.119c3.357,1.392,7.209-0.204,8.601-3.561
		c1.389-3.357-0.207-7.209-3.564-8.601c-3.357-1.392-7.209,0.204-8.598,3.564C116.104,127.878,117.7,131.73,121.057,133.119"/>
	<path style="clip-path:url(#SVGID_2_);fill:#7A7A7A;" d="M157.94,44.075c2.64,1.092,3.894,4.119,2.799,6.759
		c-1.092,2.637-4.119,3.891-6.756,2.796c-2.64-1.092-3.894-4.116-2.802-6.756C152.276,44.237,155.3,42.983,157.94,44.075"/>
	<path style="clip-path:url(#SVGID_2_);fill:#7A7A7A;" d="M163.157,31.479c2.877,1.194,4.245,4.494,3.054,7.371
		c-1.191,2.88-4.494,4.245-7.371,3.054c-2.88-1.191-4.245-4.494-3.054-7.371S160.28,30.288,163.157,31.479"/>
	<path style="clip-path:url(#SVGID_2_);fill:#7A7A7A;" d="M169.276,16.712c3.357,1.389,4.953,5.241,3.561,8.598
		c-1.389,3.36-5.241,4.956-8.598,3.564s-4.953-5.244-3.564-8.601C162.067,16.916,165.919,15.32,169.276,16.712"/>
	<path style="clip-path:url(#SVGID_2_);fill:#615757;" d="M154.616,74.915c0-5.22-4.23-9.45-9.45-9.45c-5.22,0-9.45,4.23-9.45,9.45
		s4.23,9.45,9.45,9.45C150.386,84.365,154.616,80.135,154.616,74.915"/>
</g>
<g>
	<path style="fill:#58595B;" d="M19.199,158.933h6.971c1.932,0,2.729,0.126,3.59,0.525c1.071,0.504,1.722,1.701,1.722,3.128
		c0,1.323-0.567,2.226-1.743,2.876c1.575,0.651,2.331,1.764,2.331,3.359c0,1.617-0.819,3.023-2.142,3.59
		c-0.903,0.42-1.701,0.525-3.653,0.525h-7.076V158.933z M26.695,164.749c1.869,0,2.729-0.63,2.729-1.995s-0.861-1.995-2.729-1.995
		h-5.333v3.989H26.695z M27.01,171.111c1.071,0,1.617-0.126,2.1-0.483c0.504-0.378,0.798-1.008,0.798-1.785
		s-0.294-1.407-0.798-1.785c-0.483-0.357-1.029-0.483-2.1-0.483h-5.648v4.535H27.01z"/>
	<path style="fill:#58595B;" d="M34.949,172.938v-14.004h11.464v1.953h-9.301v3.926h8.755v1.953h-8.755v4.22h9.49v1.953H34.949z"/>
	<path style="fill:#58595B;" d="M53.575,172.938v-12.052h-5.354v-1.953h12.913v1.953h-5.396v12.052H53.575z"/>
	<path style="fill:#58595B;" d="M67.75,172.938v-12.052h-5.354v-1.953h12.913v1.953h-5.396v12.052H67.75z"/>
	<path style="fill:#58595B;" d="M77.368,172.938v-14.004h11.464v1.953h-9.301v3.926h8.755v1.953h-8.755v4.22h9.49v1.953H77.368z"/>
	<path style="fill:#58595B;" d="M93.958,172.938h-2.163v-14.004h7.727c3.086,0,4.682,1.323,4.682,3.926
		c0,1.533-0.546,2.415-1.974,3.275c1.47,0.714,1.701,1.323,1.827,4.514c0.105,1.575,0.231,1.869,0.861,1.827v0.462h-2.688
		c-0.21-0.84-0.231-1.008-0.357-2.792c-0.147-2.352-0.819-3.107-2.729-3.107h-5.186V172.938z M99.333,165.211
		c0.861,0,1.386-0.105,1.806-0.336c0.567-0.336,0.903-1.029,0.903-1.89s-0.336-1.554-0.903-1.89
		c-0.42-0.231-0.945-0.336-1.806-0.336h-5.375v4.451H99.333z"/>
	<path style="fill:#58595B;" d="M127.408,172.938l-4.01-11.632l-3.926,11.632h-2.499l-4.703-14.004h2.436l3.59,11.548l3.926-11.548
		h2.436l3.947,11.548l3.695-11.548h2.205l-4.724,14.004H127.408z"/>
	<path style="fill:#58595B;" d="M151.348,166.03c0,1.974-0.777,3.905-2.1,5.186c-1.386,1.344-3.401,2.079-5.795,2.079
		c-4.724,0-7.874-2.939-7.874-7.37c0-4.409,3.149-7.349,7.853-7.349C148.261,158.576,151.348,161.495,151.348,166.03z
		 M137.742,165.925c0,3.338,2.268,5.543,5.711,5.543c3.422,0,5.732-2.205,5.732-5.459c0-3.422-2.247-5.606-5.732-5.606
		C140.01,160.403,137.742,162.607,137.742,165.925z"/>
	<path style="fill:#58595B;" d="M156.369,172.938h-2.163v-14.004h7.727c3.086,0,4.682,1.323,4.682,3.926
		c0,1.533-0.546,2.415-1.974,3.275c1.47,0.714,1.701,1.323,1.827,4.514c0.105,1.575,0.231,1.869,0.861,1.827v0.462h-2.688
		c-0.21-0.84-0.231-1.008-0.357-2.792c-0.147-2.352-0.819-3.107-2.729-3.107h-5.186V172.938z M161.744,165.211
		c0.861,0,1.386-0.105,1.806-0.336c0.567-0.336,0.903-1.029,0.903-1.89s-0.336-1.554-0.903-1.89
		c-0.42-0.231-0.945-0.336-1.806-0.336h-5.375v4.451H161.744z"/>
	<path style="fill:#58595B;" d="M180.559,172.938l-5.732-6.866l-2.52,2.121v4.745h-2.163v-14.004h2.163v6.929l7.916-6.929h3.002
		l-6.74,5.732l6.971,8.272H180.559z"/>
	<path style="fill:#58595B;" d="M185.453,172.938v-14.004h7.601c2.855,0,4.514,1.533,4.514,4.157c0,2.562-1.701,4.157-4.43,4.157
		h-5.522v5.69H185.453z M192.508,165.421c1.071,0,1.617-0.126,2.1-0.504c0.504-0.378,0.798-1.05,0.798-1.827
		c0-0.798-0.294-1.449-0.798-1.827c-0.483-0.378-1.029-0.504-2.1-0.504h-4.892v4.661H192.508z"/>
	<path style="fill:#58595B;" d="M200.006,172.938v-14.004h2.163v12.052h8.755v1.953H200.006z"/>
	<path style="fill:#58595B;" d="M216.658,168.906l-1.827,4.031h-2.457l6.509-14.004h2.436l6.551,14.004h-2.604l-1.827-4.031H216.658
		z M220.018,161.348l-2.562,5.732h5.165L220.018,161.348z"/>
	<path style="fill:#58595B;" d="M243.222,167.416c-0.693,3.842-3.191,5.879-7.181,5.879c-4.598,0-7.496-2.834-7.496-7.349
		s2.918-7.37,7.538-7.37c2.247,0,4.094,0.672,5.354,1.953c0.882,0.903,1.365,1.89,1.659,3.422h-2.184
		c-0.483-2.289-2.226-3.548-4.85-3.548c-3.212,0-5.354,2.205-5.354,5.543c0,3.275,2.184,5.522,5.375,5.522
		c1.701,0,3.128-0.63,4.031-1.764c0.504-0.651,0.714-1.197,0.924-2.289H243.222z"/>
	<path style="fill:#58595B;" d="M245.723,172.938v-14.004h11.464v1.953h-9.301v3.926h8.755v1.953h-8.755v4.22h9.49v1.953H245.723z"
		/>
	<path style="fill:#58595B;" d="M269.493,163.006c-0.063-0.861-0.294-1.323-0.861-1.764c-0.714-0.567-1.701-0.84-3.002-0.84
		c-2.268,0-3.758,0.882-3.758,2.205c0,0.567,0.315,1.071,0.882,1.365c0.483,0.273,0.903,0.399,2.205,0.63l2.876,0.504
		c1.512,0.273,2.331,0.546,3.023,1.05c0.819,0.588,1.302,1.575,1.302,2.688c0,1.449-0.798,2.771-2.121,3.527
		c-1.113,0.651-2.352,0.924-4.115,0.924c-2.688,0-4.577-0.63-5.606-1.869c-0.693-0.84-0.945-1.638-1.008-3.212h2.247
		c0.021,1.05,0.231,1.638,0.819,2.163c0.777,0.735,1.995,1.092,3.632,1.092c2.394,0,3.905-0.924,3.905-2.415
		c0-1.029-0.756-1.596-2.541-1.911l-2.667-0.441c-1.344-0.252-2.478-0.546-3.17-0.861c-1.113-0.525-1.827-1.722-1.827-3.065
		c0-2.625,2.247-4.199,5.942-4.199c1.911,0,3.422,0.378,4.409,1.113c1.029,0.777,1.449,1.638,1.617,3.317H269.493z"/>
</g>
</svg>
