<?xml version="1.0" encoding="UTF-8" standalone="no"?>
<!-- Generator: Adobe Illustrator 18.0.0, SVG Export Plug-In . SVG Version: 6.00 Build 0)  -->

<svg
   xmlns:dc="http://purl.org/dc/elements/1.1/"
   xmlns:cc="http://creativecommons.org/ns#"
   xmlns:rdf="http://www.w3.org/1999/02/22-rdf-syntax-ns#"
   xmlns:svg="http://www.w3.org/2000/svg"
   xmlns="http://www.w3.org/2000/svg"
   xmlns:sodipodi="http://sodipodi.sourceforge.net/DTD/sodipodi-0.dtd"
   xmlns:inkscape="http://www.inkscape.org/namespaces/inkscape"
   version="1.1"
   x="0px"
   y="0px"
   viewBox="0 0 52.199997 67.499998"
   xml:space="preserve"
   id="svg4026"
   inkscape:version="0.91 r13725"
   sodipodi:docname="challenge_icon.svg"
   width="0.57999998in"
   height="0.75in"><metadata
     id="metadata4262"><rdf:RDF><cc:Work
         rdf:about=""><dc:format>image/svg+xml</dc:format><dc:type
           rdf:resource="http://purl.org/dc/dcmitype/StillImage" /><dc:title></dc:title></cc:Work></rdf:RDF></metadata><defs
     id="defs4260" /><sodipodi:namedview
     pagecolor="#ffffff"
     bordercolor="#666666"
     borderopacity="1"
     objecttolerance="10"
     gridtolerance="10"
     guidetolerance="10"
     inkscape:pageopacity="0"
     inkscape:pageshadow="2"
     inkscape:window-width="1680"
     inkscape:window-height="1031"
     id="namedview4258"
     showgrid="false"
     units="in"
     inkscape:showpageshadow="false"
     inkscape:zoom="0.38562092"
     inkscape:cx="396"
     inkscape:cy="306"
     inkscape:window-x="-4"
     inkscape:window-y="-4"
     inkscape:window-maximized="1"
     inkscape:current-layer="svg4026" /><g
     id="challenge_art"
     transform="matrix(0.33037138,0,0,0.32766831,-103.82383,-67.152016)"><g
       id="g4029"><path
         style="fill:none"
         d="m 462.894,265.806 c -0.62,0.013 -1.241,0.035 -1.864,0.058 l 0,1.762 c 3.803,-0.217 7.571,-0.376 11.236,-0.457 l 0,-1.309 c -3.022,-0.102 -6.147,-0.124 -9.372,-0.054 z"
         id="path4031"
         inkscape:connector-curvature="0" /><path
         style="fill:none"
         d="m 468.586,277.694 c 0,39.849 0,80.112 0,120.142 0,1.378 0.191,2.858 0,4.009 -0.014,0.083 0.083,0.223 -0.135,0.181 -51.374,-0.03 -102.873,0.05 -154.186,-0.039 l 0,8.953 158,0 0,-132.636 c -1.226,-0.21 -2.452,-0.416 -3.679,-0.61 z"
         id="path4033"
         inkscape:connector-curvature="0" /><path
         style="fill:none"
         d="m 448.299,262.855 c -2.971,0.298 -5.83,0.634 -8.592,1.003 l 16.877,0 c 5.318,-0.422 10.592,-0.635 15.682,-0.672 l 0,-1.07 c -0.222,-0.006 -0.439,-0.016 -0.661,-0.022 -7.201,-0.176 -15.068,-0.066 -23.306,0.761 z"
         id="path4035"
         inkscape:connector-curvature="0" /><path
         style="fill:#ffffff"
         d="m 329.221,314.135 c -0.436,1.209 -0.602,2.553 -0.583,3.896 -0.007,0.003 -0.013,0.005 -0.019,0.008 0.012,-0.005 0.025,-0.009 0.037,-0.014 0.002,-10e-4 0.005,-0.002 0.007,-0.004 10e-4,0.037 0.007,0.073 0.008,0.11 -0.031,-1.386 0.125,-2.771 0.573,-4.017 0.622,-1.729 1.691,-3.094 3.011,-4.212 -1.332,1.122 -2.41,2.494 -3.034,4.233 z"
         id="path4037"
         inkscape:connector-curvature="0" /><path
         style="fill:#ffffff"
         d="m 329.339,322.392 c 0.036,0.126 0.069,0.254 0.107,0.377 -0.038,-0.122 -0.071,-0.252 -0.107,-0.377 z"
         id="path4039"
         inkscape:connector-curvature="0" /><path
         style="fill:#ffffff"
         d="m 328.127,319.356 c -0.025,-0.356 -0.039,-0.725 -0.051,-1.096 0,0.001 -0.001,0.001 -0.001,0.001 0.013,0.37 0.027,0.739 0.052,1.095 z"
         id="path4041"
         inkscape:connector-curvature="0" /><path
         style="fill:#ffffff"
         d="m 328.992,320.965 c 0.03,0.152 0.061,0.301 0.095,0.45 -0.033,-0.148 -0.065,-0.299 -0.095,-0.45 z"
         id="path4043"
         inkscape:connector-curvature="0" /><path
         style="fill:#ffffff"
         d="m 328.764,319.5 c 0.015,0.141 0.036,0.277 0.056,0.417 -0.02,-0.139 -0.042,-0.277 -0.056,-0.417 z"
         id="path4045"
         inkscape:connector-curvature="0" /><path
         style="fill:#ffffff"
         d="m 349.172,312.359 c 0.097,-0.026 0.193,-0.054 0.29,-0.08 -0.035,10e-4 -0.067,-0.008 -0.104,0.01 -0.06,0.027 -0.124,0.048 -0.186,0.07 z"
         id="path4047"
         inkscape:connector-curvature="0" /><path
         style="fill:#ffffff"
         d="m 348,284.41 c 3.688,0 7.231,0.107 10.719,0.36 3.389,0.245 6.691,0.647 10.043,0.991 13.517,1.385 29.412,0.743 40.668,-2.252 1.473,-0.393 2.888,-0.801 4.278,-1.262 1.381,-0.457 2.711,-0.975 4.099,-1.44 5.435,-1.825 12.139,-2.873 19.5,-2.522 3.541,0.168 6.928,0.537 9.953,1.081 6.203,1.115 14.764,1.594 19.275,-1.261 0.104,0.522 0.017,1.235 0.045,1.833 0.009,-0.002 0.017,-0.004 0.025,-0.007 -0.031,-0.6 0.059,-1.321 -0.045,-1.847 -4.513,2.855 -13.073,2.376 -19.277,1.261 -3.024,-0.544 -6.412,-0.913 -9.951,-1.081 -7.363,-0.351 -14.066,0.697 -19.502,2.522 -1.387,0.465 -2.717,0.984 -4.098,1.441 -1.391,0.461 -2.805,0.869 -4.278,1.261 -11.255,2.996 -27.151,3.637 -40.669,2.252 -3.35,-0.343 -6.654,-0.745 -10.041,-0.991 -3.488,-0.252 -7.032,-0.359 -10.719,-0.359 -12.738,0 -24.051,1.931 -33.012,5.719 -0.249,0.105 -0.499,0.21 -0.748,0.315 l 0,0.01 c 0.241,-0.102 0.482,-0.203 0.723,-0.305 8.963,-3.787 20.276,-5.719 33.012,-5.719 z"
         id="path4049"
         inkscape:connector-curvature="0" /><path
         style="fill:#ffffff"
         d="m 350.477,289.589 c -0.036,0.002 -0.071,0.004 -0.106,0.006 -7.117,1.307 -14.123,2.875 -20.722,4.794 -5.455,1.586 -10.715,3.334 -15.384,5.74 l 0,0.008 c 4.663,-2.4 9.913,-4.145 15.359,-5.729 6.64,-1.929 13.69,-3.508 20.853,-4.819 z"
         id="path4051"
         inkscape:connector-curvature="0" /><path
         style="fill:#ffffff"
         d="m 359.574,286.842 c -0.039,-0.005 -0.08,-0.007 -0.119,-0.012 -9.109,0.43 -17.923,1.304 -26.203,2.965 -6.756,1.354 -13.345,3.133 -18.986,5.762 l 0,0.008 c 5.637,-2.622 12.216,-4.397 18.963,-5.75 8.322,-1.67 17.185,-2.545 26.345,-2.973 z"
         id="path4053"
         inkscape:connector-curvature="0" /><path
         style="clip-rule:evenodd;fill:#cec9c4;fill-rule:evenodd"
         d="m 325.957,387.883 c 0.061,0.314 -0.088,0.962 -0.135,1.486 -0.051,0.549 -0.137,1.256 -0.18,1.576 0.611,0.949 1.291,1.83 1.936,2.747 -1.272,1.76 -2.676,3.697 -3.918,5.45 -0.172,0.242 -0.48,0.568 -0.406,0.766 l 3.469,0 c 1.598,-1.779 3.156,-3.599 4.639,-5.494 -0.781,-1.172 -1.637,-2.268 -2.387,-3.469 0.314,-0.827 0.598,-1.683 0.855,-2.566 -0.733,-1.027 -1.678,-1.873 -2.521,-2.838 -0.84,-0.957 -1.637,-1.98 -2.432,-3.018 -4.657,-6.06 -8.764,-13.383 -9.818,-22.878 -0.799,-7.196 0.549,-13.678 3.691,-17.654 3.22,-4.071 8.141,-6.39 14.277,-7.521 0.26,-1.197 0.487,-2.426 0.721,-3.648 0.428,-0.084 0.764,-0.258 1.171,-0.36 -2.086,-1.569 -3.901,-3.694 -5.044,-6.485 -0.153,-0.375 -0.295,-0.783 -0.429,-1.208 -0.038,-0.123 -0.071,-0.251 -0.107,-0.377 -0.092,-0.317 -0.176,-0.641 -0.252,-0.977 -0.034,-0.149 -0.064,-0.298 -0.095,-0.45 -0.068,-0.344 -0.125,-0.692 -0.173,-1.048 -0.02,-0.14 -0.041,-0.276 -0.056,-0.417 -0.051,-0.453 -0.083,-0.91 -0.093,-1.368 -0.001,-0.037 -0.007,-0.073 -0.008,-0.11 -0.002,0.002 -0.005,0.003 -0.007,0.004 -0.013,0.005 -0.025,0.009 -0.037,0.014 -0.182,0.074 -0.362,0.148 -0.543,0.222 0.012,0.37 0.025,0.739 0.051,1.096 0.026,0.37 0.064,0.729 0.127,1.064 -4.642,1.313 -9.312,2.598 -13.988,3.877 l 0,46.197 c 2.48,6.392 6.047,11.744 10.476,16.173 0.394,0.392 1.155,0.906 1.216,1.214 z"
         id="path4055"
         inkscape:connector-curvature="0" /><path
         style="clip-rule:evenodd;fill:#dcddde;fill-rule:evenodd;stroke:#cec9c4;stroke-width:0.2"
         d="m 348.988,312.427 c -0.206,0.064 -0.418,0.11 -0.63,0.158 0.028,0.193 0.059,0.388 0.116,0.583 1.398,1.26 2.881,2.434 4.279,3.693 -0.306,0.388 -0.613,0.699 -0.992,1.126 -0.237,0.269 -0.921,0.825 -0.945,1.216 -0.012,0.201 0.226,0.666 0.315,0.946 0.32,0.996 0.642,1.917 0.9,2.882 1.382,0.375 2.722,0.791 4.144,1.126 1.689,1.413 3.367,2.773 5.045,4.144 0.514,0.42 1.451,0.957 1.756,1.441 1.004,1.6 2.18,3.166 3.287,4.773 3.266,4.735 6.729,9.586 9.908,14.276 2.093,0.399 3.68,1.304 4.595,2.882 0.989,0.24 1.692,0.77 2.431,1.262 1.228,-0.646 3.051,-1.275 4.91,-0.855 0.16,-0.605 0.359,-1.172 0.494,-1.803 -1.596,-0.521 -2.79,-1.514 -3.513,-3.017 -0.722,-1.505 -1.151,-3.479 -0.45,-5.27 1.159,-2.96 4.329,-4.819 7.702,-4.908 0.14,0.286 0.186,0.735 0.271,1.126 0.781,0.406 2.298,0.781 2.881,1.305 0.326,0.293 0.176,1.072 0.451,1.532 0.934,0.582 2.113,0.919 3.017,1.53 -0.014,0.609 -0.763,1.018 -0.721,1.622 0.026,0.388 0.78,0.96 1.035,1.261 0.332,0.39 0.971,0.994 0.946,1.352 -0.019,0.264 -0.603,0.771 -0.811,0.99 -0.911,0.967 -1.978,1.74 -3.198,2.252 0.118,0.723 0.355,1.326 0.496,2.027 0.471,0.159 0.973,0.287 1.441,0.449 0.292,0.85 0.592,1.689 0.9,2.523 0,0.046 0.037,0.054 0.045,0.091 1.801,0.941 3.723,2.037 5.494,3.018 0.618,0.342 1.361,0.596 1.847,0.99 0.278,0.226 0.379,0.615 0.585,0.9 0.943,-0.604 1.925,-1.168 2.928,-1.711 0.074,-0.234 0.213,-0.486 0.36,-0.721 0.14,-0.221 0.402,-0.453 0.36,-0.586 -2.072,0.544 -4.496,-0.233 -5.314,-1.666 1.029,-0.096 1.663,-0.301 1.892,-1.036 0.3,-0.966 -0.556,-2.095 -0.946,-2.792 -0.429,-0.766 -0.916,-1.564 -1.035,-2.566 -0.25,-2.108 1.083,-4.089 2.116,-5.18 1.039,-1.096 2.974,-2.434 5.179,-2.027 1.323,0.244 2.377,1.148 2.974,1.982 0.228,0.318 0.327,0.713 0.585,1.08 0.236,0.336 0.748,0.756 1.171,0.992 0.253,0.14 1.214,0.279 1.306,0.63 0.08,0.298 -0.42,0.625 -0.404,0.945 0.011,0.258 0.57,0.909 0.72,1.171 0.237,0.416 0.626,0.969 0.585,1.352 -0.022,0.211 -0.409,0.602 -0.585,0.811 -0.726,0.867 -1.419,1.426 -2.251,2.072 0.292,0.863 0.551,1.761 0.811,2.656 1.463,0.158 2.294,0.948 2.883,1.983 2.041,0.734 3.947,1.605 5.989,2.341 2.438,2.968 3.743,7.066 4.819,11.393 6.654,-2.185 13.416,-4.268 20.086,-6.439 0.336,0.895 0.688,1.775 0.99,2.702 -2.234,0.707 -4.438,1.448 -6.666,2.162 1.564,4.878 3.057,9.825 4.684,14.637 2.261,-0.712 4.601,-1.345 6.89,-2.026 0.334,0.913 0.659,1.834 0.991,2.747 -3.706,1.099 -7.43,2.178 -11.124,3.287 0,0.747 -0.16,1.563 -0.811,1.892 -0.225,0.113 -0.527,0.058 -0.855,0.18 -0.486,0.183 -0.791,0.795 -1.441,0.406 -0.404,0.275 -1.009,0.477 -1.53,0.18 -0.439,0.313 -0.814,0.406 -1.308,0.316 -0.584,-0.107 -0.861,-0.811 -1.305,-0.856 -0.251,-0.026 -0.905,0.287 -1.307,0.405 -3.158,0.927 -6.437,1.836 -9.322,2.792 0.976,2.117 1.755,4.43 2.793,6.485 l 34.678,0 0,-117.814 c -38.58,10.6 -77.076,21.285 -115.609,31.931 -0.426,-0.3 -1.043,-0.587 -1.44,-0.991 -0.102,-0.102 -0.202,-0.281 -0.315,-0.404 -0.087,-0.095 -0.352,-0.209 -0.231,-0.346 -0.006,0.002 -0.011,0.003 -0.018,0.005 -0.003,0 -0.003,0.002 -0.004,0.003 z m 86.182,38.798 c 2.797,-0.671 5.547,-1.389 8.332,-2.072 0.307,0.07 -0.018,0.549 0.09,0.855 -2.789,0.709 -5.617,1.379 -8.377,2.117 -0.104,-0.211 -0.016,-0.615 -0.045,-0.9 z m 15.177,-6.577 c -1.354,0.281 -2.651,0.621 -3.964,0.946 l 0,2.747 c -0.235,0.049 -0.439,0.131 -0.675,0.18 l 0,-2.701 c -1.679,0.213 -3.351,0.822 -5.089,1.125 0.022,-0.307 -0.022,-0.549 -0.045,-0.811 3.19,-0.848 6.509,-1.567 9.728,-2.387 0.104,0.212 0.015,0.616 0.045,0.901 z m -3.152,8.288 c -2.391,0.521 -4.635,1.191 -7.027,1.711 -0.01,-0.29 -0.072,-0.527 -0.045,-0.856 2.358,-0.57 4.699,-1.156 7.025,-1.756 0.186,0.124 0.079,0.697 0.047,0.901 z m 9.862,-6.305 c -3.041,0.771 -6.096,1.529 -9.142,2.297 l 0,-0.902 c 3.037,-0.729 6.03,-1.504 9.052,-2.25 0.202,0.112 0.037,0.593 0.09,0.855 z m -0.36,-18.871 c -2.935,0.818 -6.005,1.502 -8.962,2.297 -0.039,1.193 -0.059,2.403 -0.046,3.648 -0.248,0.037 -0.422,0.149 -0.676,0.18 l 0,-3.648 c -4.494,1.105 -8.977,2.224 -13.42,3.379 l 0,3.422 c -0.213,0.073 -0.412,0.158 -0.676,0.181 l 0,-3.423 c -3.792,0.877 -7.772,1.957 -11.664,2.883 l 0,-0.856 c 11.746,-3.01 23.571,-5.942 35.353,-8.917 0.203,0.112 0.038,0.592 0.091,0.854 z m -61.115,-9.502 c 1.684,-0.435 3.281,-0.953 4.955,-1.397 l 0,-3.197 c -0.847,0.159 -1.914,0.488 -2.792,0.766 -0.061,-0.268 -0.106,-0.645 -0.046,-0.901 2.994,-0.833 5.986,-1.671 8.963,-2.522 0.104,-1.111 0.016,-2.415 0.045,-3.602 0.181,-0.09 0.4,-0.14 0.585,-0.226 0.105,1.11 0.016,2.417 0.045,3.603 8.559,-2.311 17.302,-4.827 25.896,-7.25 l 0,-3.424 c 0.211,-0.014 0.354,-0.096 0.541,-0.135 0.25,0.123 0.135,0.523 0.135,0.766 l 0,2.567 c 3.59,-0.885 7.3,-2.038 10.944,-3.019 l 0,0.902 c -1.35,0.375 -2.678,0.775 -4.054,1.125 l 0,2.928 c 3.676,-1.009 7.248,-2.121 10.943,-3.107 l 0,0.855 c -10.443,3.083 -21.026,6.024 -31.478,9.097 l 0,2.929 c 7.4,-2.042 14.676,-4.209 22.066,-6.261 l 0,0.856 c -5.072,1.547 -10.325,2.914 -15.402,4.457 l 0,3.288 c 8.492,-2.286 16.875,-4.683 25.311,-7.025 l 0,0.9 c -12.709,3.595 -25.52,7.085 -38.235,10.674 l 0,3.243 c 11.676,-3.066 23.553,-6.321 35.263,-9.503 0.103,0.211 0.016,0.614 0.045,0.9 -0.785,0.251 -1.632,0.44 -2.432,0.675 l 0,3.334 c 2.539,-0.645 4.985,-1.38 7.566,-1.982 0.035,0.35 -0.068,0.562 -0.045,0.9 -4.747,1.244 -9.473,2.508 -14.188,3.783 l 0,3.379 c 3.504,-0.851 6.879,-1.828 10.404,-2.658 0.037,0.383 -0.047,0.645 -0.135,0.9 -11.969,3.12 -23.928,6.248 -35.939,9.323 l 0,-0.856 c 8.309,-2.199 16.685,-4.33 24.995,-6.529 l 0,-3.379 c -11.288,2.96 -22.466,6.027 -33.777,8.963 l 0,-0.855 c 4.956,-1.318 9.892,-2.658 14.862,-3.963 l 0,-3.242 c -3.539,0.858 -7.242,1.944 -10.853,2.882 l 0,-0.901 c 1.207,-0.293 2.364,-0.637 3.557,-0.945 l 0,-3.242 c -3.23,0.746 -6.68,1.904 -9.906,2.656 l 0,-0.811 c 7.567,-2.174 15.227,-4.258 22.833,-6.395 l 0,-3.333 c -9.112,2.552 -18.151,5.179 -27.247,7.746 -0.097,-0.204 -0.022,-0.579 -0.045,-0.855 6.858,-1.983 13.747,-3.937 20.627,-5.899 0.003,-0.801 -0.004,-1.978 0,-2.928 -7.943,2.16 -16.01,4.588 -24.006,6.846 l 0,-0.901 z M 374.1,328.976 c -0.096,-0.203 -0.02,-0.579 -0.045,-0.855 3.862,-1.138 7.742,-2.256 11.619,-3.378 0.203,0.113 0.037,0.595 0.091,0.855 -3.895,1.119 -7.769,2.259 -11.665,3.378 z m 19.367,-1.486 c -1.315,0.382 -2.625,0.769 -3.964,1.125 l 0,3.063 c -0.28,-0.009 -0.402,0.139 -0.676,0.136 l 0,-2.973 c -1.682,0.436 -3.298,0.936 -4.954,1.395 -0.01,-0.305 -0.063,-0.566 -0.09,-0.855 3.2,-0.913 6.396,-1.828 9.594,-2.746 0.2,0.113 0.035,0.594 0.09,0.855 z m -20.763,-6.89 c 3.053,-0.911 6.153,-1.773 9.278,-2.612 0.103,-1.112 0.016,-2.415 0.045,-3.603 0.177,-0.064 0.498,-0.222 0.631,-0.18 0.103,1.08 0.014,2.355 0.045,3.512 2.938,-0.74 6.075,-1.67 9.053,-2.521 0.103,0.211 0.014,0.614 0.045,0.9 -0.916,0.241 -1.831,0.481 -2.703,0.766 l 0,3.063 c -0.217,0.054 -0.402,0.139 -0.631,0.18 -0.1,-0.935 -0.018,-2.053 -0.045,-3.063 -4.041,1.109 -8.037,2.261 -12.069,3.379 l 0,3.242 c -0.253,0.018 -0.408,0.132 -0.675,0.135 l 0,-3.152 c -1.032,0.199 -1.902,0.561 -2.928,0.766 -0.096,-0.191 -0.023,-0.551 -0.046,-0.812 z"
         id="path4057"
         inkscape:connector-curvature="0" /><path
         style="fill:#939598"
         d="m 419.588,315.24 c -6.88,1.963 -13.77,3.916 -20.627,5.899 0.023,0.276 -0.052,0.651 0.045,0.855 9.096,-2.567 18.135,-5.194 27.247,-7.746 l 0,3.333 c -7.606,2.137 -15.266,4.221 -22.833,6.395 l 0,0.811 c 3.227,-0.752 6.676,-1.91 9.906,-2.656 l 0,3.242 c -1.192,0.309 -2.35,0.652 -3.557,0.945 l 0,0.901 c 3.611,-0.938 7.315,-2.023 10.853,-2.882 l 0,3.242 c -4.971,1.305 -9.906,2.645 -14.862,3.963 l 0,0.855 c 11.312,-2.935 22.489,-6.003 33.777,-8.963 l 0,3.379 c -8.31,2.199 -16.686,4.33 -24.995,6.529 l 0,0.856 c 12.012,-3.075 23.971,-6.203 35.939,-9.323 0.088,-0.256 0.172,-0.518 0.135,-0.9 -3.525,0.83 -6.9,1.808 -10.404,2.658 l 0,-3.379 c 4.715,-1.275 9.44,-2.539 14.188,-3.783 -0.023,-0.339 0.08,-0.551 0.045,-0.9 -2.581,0.603 -5.027,1.338 -7.566,1.982 l 0,-3.334 c 0.8,-0.235 1.647,-0.424 2.432,-0.675 -0.029,-0.286 0.059,-0.689 -0.045,-0.9 -11.71,3.182 -23.587,6.436 -35.263,9.503 l 0,-3.243 c 12.715,-3.589 25.526,-7.079 38.235,-10.674 l 0,-0.9 c -8.436,2.343 -16.818,4.739 -25.311,7.025 l 0,-3.288 c 5.077,-1.543 10.33,-2.91 15.402,-4.457 l 0,-0.856 c -7.391,2.052 -14.666,4.219 -22.066,6.261 l 0,-2.929 c 10.452,-3.072 21.035,-6.014 31.478,-9.097 l 0,-0.855 c -3.695,0.986 -7.268,2.099 -10.943,3.107 l 0,-2.928 c 1.376,-0.35 2.703,-0.75 4.054,-1.125 l 0,-0.902 c -3.644,0.98 -7.354,2.134 -10.944,3.019 l 0,-2.567 c 0,-0.242 0.115,-0.643 -0.135,-0.766 -0.186,0.039 -0.33,0.121 -0.541,0.135 l 0,3.424 c -8.594,2.423 -17.337,4.939 -25.896,7.25 -0.029,-1.186 0.061,-2.492 -0.045,-3.603 -0.185,0.086 -0.404,0.136 -0.585,0.226 -0.029,1.187 0.059,2.49 -0.045,3.602 -2.977,0.852 -5.969,1.689 -8.963,2.522 -0.06,0.257 -0.016,0.634 0.046,0.901 0.878,-0.277 1.945,-0.607 2.792,-0.766 l 0,3.197 c -1.674,0.443 -3.271,0.962 -4.955,1.397 l 0,0.9 c 7.996,-2.258 16.063,-4.685 24.006,-6.846 -0.003,0.951 0.004,2.129 0.001,2.929 z m 13.87,5.584 c 4.251,-1.122 8.483,-2.266 12.7,-3.423 0.105,1.021 0.016,2.237 0.045,3.333 -4.25,1.124 -8.449,2.299 -12.745,3.378 0,-1.096 0,-2.192 0,-3.288 z m -12.159,3.288 c 3.803,-1.017 7.588,-2.05 11.395,-3.063 0.176,0.841 0.09,2.237 0.045,3.197 -0.853,0.365 -1.834,0.595 -2.793,0.856 -2.81,0.766 -5.778,1.469 -8.602,2.297 -0.113,-0.854 -0.011,-2.215 -0.045,-3.287 z m 6.529,-18.149 c 4.077,-1.134 8.145,-2.275 12.205,-3.424 0.193,0.789 0.072,2.2 0.045,2.928 -4.094,1.16 -8.148,2.359 -12.25,3.514 0,-1.006 0,-2.012 0,-3.018 z m -26.661,10.674 c 0,-1.066 0,-2.133 0,-3.198 3.91,-1.089 7.821,-2.178 11.71,-3.288 0.238,0.844 -0.027,2.189 0.135,3.107 -3.957,1.119 -7.848,2.301 -11.845,3.379 z m 12.476,-3.559 c 0,-1.035 0,-2.072 0,-3.107 4.436,-1.299 8.946,-2.523 13.421,-3.783 0.237,0.799 -0.027,2.1 0.135,2.973 -4.502,1.322 -9.042,2.607 -13.556,3.917 z"
         id="path4059"
         inkscape:connector-curvature="0" /><path
         style="clip-rule:evenodd;fill:#dcddde;fill-rule:evenodd;stroke:#cec9c4;stroke-width:0.2"
         d="m 440.033,302.539 c -4.061,1.148 -8.128,2.29 -12.205,3.424 0,1.006 0,2.012 0,3.018 4.102,-1.154 8.156,-2.353 12.25,-3.514 0.027,-0.728 0.149,-2.139 -0.045,-2.928 z"
         id="path4061"
         inkscape:connector-curvature="0" /><path
         style="clip-rule:evenodd;fill:#dcddde;fill-rule:evenodd;stroke:#cec9c4;stroke-width:0.2"
         d="m 427.063,306.188 c -4.475,1.26 -8.985,2.484 -13.421,3.783 0,1.035 0,2.072 0,3.107 4.515,-1.31 9.055,-2.595 13.556,-3.918 -0.162,-0.873 0.103,-2.174 -0.135,-2.972 z"
         id="path4063"
         inkscape:connector-curvature="0" /><path
         d="m 342.395,307.719 c 0.031,-0.015 0.239,-0.077 0.181,-0.18 -0.143,-0.012 -0.122,0.035 -0.226,0.045 -4.139,0.393 -7.704,2.042 -9.548,4.999 -1.964,3.149 -2.609,7.971 -0.181,10.989 -0.44,-3.986 0.649,-7.403 2.206,-9.818 0.131,1.297 0.463,2.391 0.992,3.287 -0.147,-5.281 3.027,-7.643 6.576,-9.322 z"
         id="path4065"
         inkscape:connector-curvature="0" /><path
         style="fill:#b59775"
         d="m 339.242,314.023 c 0.438,0.66 1.024,1.168 1.846,1.441 -0.358,0.506 -0.725,1.053 -0.72,1.756 0.007,0.997 0.722,1.628 1.217,2.162 -0.54,0.707 -1.029,1.464 -1.622,2.117 -1.065,-0.645 -2.909,-1.014 -3.873,-0.18 -2.254,1.947 0.398,5.287 2.748,5.449 0.009,0.291 0.039,0.561 0.09,0.811 -0.9,0.856 -2.1,1.652 -1.892,3.467 2.962,1.393 5.946,2.76 8.962,4.1 0.946,1.575 1.908,3.137 2.883,4.684 0.025,-1.611 0.064,-3.208 0.09,-4.819 1.314,1.674 2.559,3.416 3.873,5.089 0.202,-1.418 0.314,-2.928 0.586,-4.278 2.334,0.638 4.516,1.429 6.439,2.477 -0.188,-0.698 -0.412,-1.359 -0.631,-2.027 -2.555,-0.012 -4.217,-0.918 -5.719,-1.982 -2.064,1.217 -5.688,-1.979 -4.279,-4.099 -0.487,-0.52 -0.457,-1.71 0.181,-2.026 -0.108,-0.221 -0.148,-0.513 -0.136,-0.855 -0.299,0.294 -0.828,0.321 -1.125,0.675 -0.459,0.545 -0.092,1.535 0.27,1.982 -0.919,0.564 -0.35,2.238 0.136,2.838 -2.335,-1.554 -4.653,-3.124 -7.025,-4.64 2.372,-0.63 4.847,-1.157 6.665,-2.341 0.152,-0.044 0.308,0.137 0.405,0 -0.655,-0.248 -1.237,-0.564 -1.892,-0.812 -0.264,-0.395 -0.637,-0.835 -0.676,-1.486 -0.045,-0.732 0.49,-1.769 1.082,-1.847 0.525,-0.068 0.945,0.438 1.575,0.406 -0.653,-1.609 -0.02,-4.951 -1.981,-5.09 -0.683,-0.048 -0.964,0.381 -1.621,0.45 -0.377,-1.349 0.074,-2.327 0.765,-3.017 0.26,-0.26 0.841,-0.656 0.901,-0.901 0.155,-0.628 -0.363,-1.521 -0.271,-2.161 -0.457,-0.369 -0.908,-0.783 -1.396,-1.172 -0.487,-0.387 -1.033,-0.898 -1.531,-1.125 -1.921,1.172 -3.552,2.634 -4.324,4.954 z m -2.566,9.008 c 0.074,-0.854 1.197,-1.042 2.071,-0.676 0.065,0.199 -0.259,0.331 -0.36,0.586 -0.451,1.131 0.595,1.729 1.307,2.071 0.021,0.265 0.088,0.483 0.135,0.722 -1.533,0.102 -3.292,-1.111 -3.153,-2.703 z"
         id="path4067"
         inkscape:connector-curvature="0" /><path
         style="clip-rule:evenodd;fill:#dcddde;fill-rule:evenodd;stroke:#cec9c4;stroke-width:0.2"
         d="m 412.877,310.15 c -3.889,1.11 -7.8,2.199 -11.71,3.288 0,1.065 0,2.132 0,3.198 3.997,-1.078 7.888,-2.26 11.845,-3.379 -0.162,-0.917 0.103,-2.263 -0.135,-3.107 z"
         id="path4069"
         inkscape:connector-curvature="0" /><path
         style="fill:#939598"
         d="m 372.75,321.41 c 1.025,-0.205 1.895,-0.566 2.928,-0.766 l 0,3.152 c 0.267,-0.003 0.422,-0.117 0.675,-0.135 l 0,-3.242 c 4.032,-1.118 8.028,-2.27 12.069,-3.379 0.027,1.01 -0.055,2.128 0.045,3.063 0.228,-0.041 0.414,-0.126 0.631,-0.18 l 0,-3.063 c 0.872,-0.284 1.787,-0.524 2.703,-0.766 -0.031,-0.286 0.059,-0.689 -0.045,-0.9 -2.978,0.852 -6.115,1.781 -9.053,2.521 -0.031,-1.156 0.059,-2.432 -0.045,-3.512 -0.133,-0.042 -0.454,0.115 -0.631,0.18 -0.029,1.188 0.059,2.49 -0.045,3.603 -3.125,0.839 -6.226,1.701 -9.278,2.612 0.023,0.263 -0.05,0.623 0.046,0.812 z"
         id="path4071"
         inkscape:connector-curvature="0" /><path
         style="fill:#b59775"
         d="m 350.861,317.176 c -0.707,-0.854 -1.605,-1.515 -2.387,-2.296 -0.27,0.089 -0.478,0.241 -0.63,0.45 0.766,0.825 1.463,1.72 1.757,3.018 0.445,-0.366 0.786,-0.836 1.26,-1.172 z"
         id="path4073"
         inkscape:connector-curvature="0" /><path
         style="clip-rule:evenodd;fill:#dcddde;fill-rule:evenodd;stroke:#cec9c4;stroke-width:0.2"
         d="m 446.158,317.401 c -4.217,1.157 -8.449,2.301 -12.7,3.423 0,1.096 0,2.191 0,3.288 4.296,-1.079 8.495,-2.254 12.745,-3.378 -0.029,-1.095 0.061,-2.312 -0.045,-3.333 z"
         id="path4075"
         inkscape:connector-curvature="0" /><path
         style="clip-rule:evenodd;fill:#dcddde;fill-rule:evenodd;stroke:#cec9c4;stroke-width:0.2"
         d="m 421.344,327.4 c 2.823,-0.828 5.792,-1.531 8.602,-2.297 0.959,-0.262 1.94,-0.491 2.793,-0.856 0.045,-0.96 0.131,-2.357 -0.045,-3.197 -3.807,1.013 -7.592,2.046 -11.395,3.063 0.034,1.071 -0.068,2.432 0.045,3.287 z"
         id="path4077"
         inkscape:connector-curvature="0" /><path
         d="m 338.387,322.941 c 0.102,-0.255 0.426,-0.387 0.36,-0.586 -0.874,-0.366 -1.997,-0.178 -2.071,0.676 -0.139,1.592 1.62,2.805 3.152,2.703 -0.047,-0.238 -0.114,-0.457 -0.135,-0.722 -0.712,-0.342 -1.758,-0.94 -1.306,-2.071 z"
         id="path4079"
         inkscape:connector-curvature="0" /><path
         style="fill:#b59775"
         d="m 347.215,323.932 c 0.153,0.418 1.066,0.608 1.576,0.811 1.716,0.682 3.611,1.492 5.088,2.072 -0.46,0.367 -0.672,1.248 -0.449,2.026 -0.25,0.349 -0.586,0.569 -0.631,1.036 -0.025,0.267 0.168,0.546 0.18,0.855 0.016,0.415 -0.119,0.688 -0.045,0.991 0.238,0.976 1.373,1.604 2.387,2.071 1.553,0.714 3.211,1.302 5.225,0.945 2.322,9.101 4.563,18.636 8.781,25.852 0.592,1.01 1.161,2.084 2.117,2.747 3.026,-0.642 5.354,-2.331 5.855,-5.495 0.224,-1.413 0.178,-3.266 -0.406,-4.594 -0.203,-0.463 -0.617,-0.906 -0.945,-1.396 -4.426,-6.608 -8.688,-13.259 -13.061,-19.815 -0.325,-0.488 -0.612,-1.057 -0.946,-1.441 -0.399,-0.461 -1.017,-0.876 -1.53,-1.307 -1.067,-0.893 -2.074,-1.664 -3.153,-2.566 -0.542,-0.454 -1.091,-1.072 -1.576,-1.307 -0.585,-0.283 -1.353,-0.43 -2.026,-0.631 -2.086,-0.62 -4.218,-1.226 -6.215,-1.801 -0.183,0.094 -0.339,0.647 -0.226,0.947 z"
         id="path4081"
         inkscape:connector-curvature="0" /><path
         style="fill:#939598"
         d="m 385.674,324.742 c -3.877,1.122 -7.757,2.24 -11.619,3.378 0.024,0.276 -0.051,0.652 0.045,0.855 3.897,-1.118 7.771,-2.259 11.665,-3.378 -0.054,-0.26 0.112,-0.742 -0.091,-0.855 z"
         id="path4083"
         inkscape:connector-curvature="0" /><path
         style="fill:#939598"
         d="m 383.873,330.236 c 1.656,-0.459 3.272,-0.96 4.954,-1.395 l 0,2.973 c 0.273,0.003 0.396,-0.145 0.676,-0.136 l 0,-3.063 c 1.339,-0.356 2.649,-0.743 3.964,-1.125 -0.055,-0.262 0.11,-0.742 -0.09,-0.855 -3.197,0.918 -6.394,1.833 -9.594,2.746 0.027,0.289 0.08,0.551 0.09,0.855 z"
         id="path4085"
         inkscape:connector-curvature="0" /><path
         style="fill:#939598"
         d="m 421.254,336.678 c 3.893,-0.926 7.872,-2.006 11.664,-2.883 l 0,3.423 c 0.264,-0.022 0.463,-0.107 0.676,-0.181 l 0,-3.422 c 4.443,-1.155 8.926,-2.273 13.42,-3.379 l 0,3.648 c 0.254,-0.03 0.428,-0.143 0.676,-0.18 -0.013,-1.245 0.007,-2.455 0.046,-3.648 2.957,-0.795 6.027,-1.479 8.962,-2.297 -0.054,-0.262 0.111,-0.742 -0.091,-0.855 -11.781,2.975 -23.606,5.907 -35.353,8.917 l 0,0.857 z"
         id="path4087"
         inkscape:connector-curvature="0" /><path
         style="fill:#61aba8"
         d="m 345.547,336.857 c -3.473,-1.525 -6.874,-3.123 -10.357,-4.639 -0.166,0.961 -0.385,1.867 -0.586,2.792 3.677,2.704 7.379,5.383 11.124,8.017 -0.021,-2.096 -0.128,-4.105 -0.181,-6.17 z"
         id="path4089"
         inkscape:connector-curvature="0" /><path
         style="fill:#61aba8"
         d="m 349.421,385.586 c -0.604,0.115 -1.198,0.498 -1.847,0.676 -0.684,0.189 -1.43,0.324 -2.162,0.405 -2.797,0.312 -5.119,-0.875 -5.539,-3.152 -3.472,0.034 -5,-1.874 -5.135,-5.179 -0.23,-0.234 -0.438,-0.493 -0.766,-0.631 -0.945,1.697 -1.951,3.572 -2.926,5.089 -0.004,-2.435 0.125,-4.979 0.045,-7.341 -0.772,1.616 -1.566,3.207 -2.389,4.773 -0.123,-2.503 -0.119,-5.134 -0.314,-7.565 -0.669,1.597 -1.385,3.149 -2.116,4.684 -0.03,-2.146 0.06,-4.413 -0.045,-6.485 -0.736,1.275 -1.529,2.735 -2.298,3.828 0.201,-1.598 0.288,-3.215 0.45,-4.818 0.05,-0.49 0.263,-1.189 0.181,-1.621 -0.053,-0.285 -0.459,-0.769 -0.676,-1.127 -1.662,-2.736 -3.031,-5.652 -4.188,-8.736 0.045,0 0.053,0.037 0.09,0.045 0,0.03 0,0.06 0,0.09 2.18,3.586 4.74,6.826 7.477,9.863 2.742,3.046 5.619,5.975 8.826,8.557 5.816,-2.141 10.938,-5.279 13.24,-10.988 0.225,-0.557 0.816,-2.113 0.721,-2.748 -0.05,-0.338 -0.614,-0.965 -0.9,-1.396 -4.609,-6.931 -10.318,-13.322 -15.492,-19.275 5.204,3.835 9.828,8.564 14.052,13.512 1.013,1.188 2.092,2.485 3.106,3.783 0.271,0.346 0.828,1.201 1.081,1.261 0.315,0.073 0.756,-0.135 1.036,-0.136 2.336,-0.004 3.244,1.658 3.422,3.873 0.353,-0.1 0.664,-0.23 1.036,-0.225 1.468,0.025 2.122,1.52 2.522,2.566 1.455,-4.916 0.508,-11.533 -1.125,-15.537 -1.65,-4.041 -4.21,-7.242 -7.297,-9.772 -0.178,-0.146 -0.316,-0.423 -0.586,-0.405 1.418,4.406 2.811,8.84 4.189,13.285 -1.656,-2.998 -3.406,-6.012 -5.045,-8.961 -0.555,-1.002 -1.031,-2.055 -1.711,-2.974 -0.412,1.255 -0.933,2.401 -1.35,3.648 -4.161,-3.188 -8.278,-6.557 -12.431,-9.817 -0.279,-0.219 -0.683,-0.589 -0.855,-0.631 -0.527,-0.13 -1.704,0.149 -2.342,0.27 -8.045,1.522 -13.209,6.594 -14.727,14.457 -0.571,2.958 -0.503,6.824 0,9.818 2.02,12.032 8.049,20.389 15.132,27.291 -0.345,0.841 -0.57,1.802 -0.9,2.657 0.347,0.534 0.724,0.966 1.171,1.531 0.247,0.313 0.903,1.38 1.261,1.486 0.497,0.148 1.679,-0.046 2.433,-0.091 12.011,-0.705 23.063,-3.012 32.83,-5.674 -4.507,-1.6 -10.272,-2.252 -16.528,-2.252 -0.876,-0.001 -1.848,-0.056 -2.611,0.089 z"
         id="path4091"
         inkscape:connector-curvature="0" /><path
         style="fill:#90887f"
         d="m 386.935,345.054 c 0.145,-1.282 0.971,-2.129 1.757,-2.792 -0.745,-0.113 -1.411,0.479 -1.982,0.54 0.906,-1.974 2.422,-3.342 4.504,-4.144 -0.02,-0.206 0.023,-0.473 -0.182,-0.494 -0.002,-0.028 -0.006,-0.055 -0.045,-0.045 -2.785,0.844 -5.779,2.752 -5.629,5.988 0.094,2.016 1.053,3.725 2.838,4.594 -0.617,-0.989 -1.441,-2.028 -1.261,-3.647 z"
         id="path4093"
         inkscape:connector-curvature="0" /><path
         style="fill:#f6dbcb"
         d="m 390.448,348.566 c -0.356,1.264 -0.501,2.742 -0.72,4.144 1.996,1.321 3.467,3.169 4.368,5.585 1.237,-1.774 1.296,-5.44 0,-7.296 -0.386,-0.554 -1.081,-0.954 -1.216,-1.577 1.703,0.922 3.471,-0.273 4.504,-1.216 -0.301,-0.489 -0.71,-1.008 -0.767,-1.801 -0.058,-0.824 0.06,-1.648 0,-2.433 -0.048,-0.626 -0.392,-1.775 -0.9,-1.846 -0.341,-0.048 -0.852,0.396 -1.126,0.585 -0.378,0.261 -0.685,0.582 -1.035,0.631 -0.415,-1.26 0.268,-2.452 0.811,-3.288 -0.65,-0.361 -1.557,-0.802 -2.252,-0.945 -0.096,-0.02 -0.137,0.063 -0.18,0.09 -0.665,0.432 -1.432,1.156 -1.668,2.072 0.382,0.324 0.971,0.44 1.353,0.765 -0.185,1.192 0.172,1.876 0.585,2.612 -0.205,0.32 -0.402,0.648 -0.721,0.855 -0.518,-0.271 -1.041,-0.805 -1.756,-0.855 -0.689,-0.049 -1.393,0.346 -1.576,0.991 -0.424,1.49 1.208,2.468 2.296,2.927 z"
         id="path4095"
         inkscape:connector-curvature="0" /><path
         style="fill:#b2805a"
         d="m 411.931,342.982 c -1.562,-0.1 -2.794,0.587 -3.782,1.441 -1.102,0.951 -1.928,2.318 -1.938,3.828 -0.008,1.405 0.572,2.243 1.126,3.242 0.388,0.697 1.146,1.619 1.217,2.387 0.107,1.161 -0.798,1.71 -1.442,2.072 1.209,0.4 2.42,-0.391 2.568,-1.486 0.177,-1.313 -0.799,-2.217 -1.307,-3.107 -0.443,-0.779 -0.831,-1.697 -0.855,-2.703 -0.016,-0.659 0.17,-1.621 0.72,-1.98 0.067,1.885 0.651,3.252 1.667,4.188 -0.552,-1.602 -0.301,-3.722 0.541,-5.179 0.532,-0.923 1.95,-1.369 1.485,-2.703 z"
         id="path4097"
         inkscape:connector-curvature="0" /><path
         style="fill:#f6dbcb"
         d="m 412.651,351.359 c 0.41,0.73 1.126,1.699 1.126,2.566 0,1.43 -1.354,2.137 -2.342,2.838 1.674,0.938 3.295,1.928 4.999,2.836 0.16,-0.604 0.262,-1.268 0.45,-1.846 -0.277,-1.076 -0.622,-2.297 -0.9,-3.332 -0.109,-0.408 -0.128,-0.852 -0.27,-1.172 -0.275,-0.615 -0.977,-0.913 -1.127,-1.485 1.607,-0.044 2.691,-0.612 3.377,-1.577 -0.055,-0.246 -0.264,-0.57 -0.359,-0.855 -0.25,-0.742 -0.484,-2.545 -1.307,-2.701 -0.699,-0.135 -1.418,0.48 -2.115,0.404 -0.151,-1.067 0.645,-1.574 1.125,-2.162 -0.41,-0.82 -0.883,-1.578 -1.802,-1.891 -0.002,0.058 -0.058,0.063 -0.045,0.135 0,0.12 0,0.24 0,0.36 -0.349,1.893 -1.851,2.48 -1.981,4.413 -0.101,1.514 0.61,2.467 1.171,3.469 z"
         id="path4099"
         inkscape:connector-curvature="0" /><path
         style="fill:#939598"
         d="m 450.302,343.748 c -3.219,0.819 -6.538,1.539 -9.728,2.387 0.022,0.262 0.066,0.504 0.045,0.811 1.738,-0.303 3.41,-0.912 5.089,-1.125 l 0,2.701 c 0.236,-0.049 0.439,-0.131 0.675,-0.18 l 0,-2.747 c 1.313,-0.325 2.609,-0.665 3.964,-0.946 -0.03,-0.286 0.059,-0.69 -0.045,-0.901 z"
         id="path4101"
         inkscape:connector-curvature="0" /><path
         style="fill:#939598"
         d="m 447.915,348.928 c 3.046,-0.767 6.101,-1.525 9.142,-2.297 -0.053,-0.262 0.112,-0.743 -0.09,-0.855 -3.022,0.746 -6.015,1.521 -9.052,2.25 l 0,0.902 z"
         id="path4103"
         inkscape:connector-curvature="0" /><path
         style="fill:#939598"
         d="m 443.502,349.152 c -2.785,0.684 -5.535,1.401 -8.332,2.072 0.029,0.285 -0.059,0.689 0.045,0.9 2.76,-0.738 5.588,-1.408 8.377,-2.117 -0.108,-0.306 0.217,-0.784 -0.09,-0.855 z"
         id="path4105"
         inkscape:connector-curvature="0" /><path
         style="fill:#939598"
         d="m 440.123,353.791 c -0.027,0.328 0.035,0.565 0.045,0.856 2.392,-0.52 4.637,-1.19 7.027,-1.711 0.032,-0.203 0.139,-0.776 -0.047,-0.9 -2.326,0.599 -4.668,1.185 -7.025,1.755 z"
         id="path4107"
         inkscape:connector-curvature="0" /><path
         style="fill:#f0a565"
         d="m 393.196,361.898 c 0.304,0.033 0.468,-0.073 0.765,-0.047 -0.919,-3.913 -2.607,-8.352 -7.115,-8.602 -0.867,-0.048 -1.494,0.086 -2.117,0.315 5.499,-0.076 7.368,3.862 8.467,8.334 z"
         id="path4109"
         inkscape:connector-curvature="0" /><path
         style="fill:#f0a565"
         d="m 391.439,362.032 c 0.305,0.034 0.469,-0.072 0.766,-0.045 -0.859,-3.517 -2.438,-7.397 -6.621,-7.431 -0.029,0 -0.06,0 -0.09,0 3.51,0.785 5.288,3.69 5.945,7.476 z"
         id="path4111"
         inkscape:connector-curvature="0" /><path
         style="fill:#9cc87b"
         d="m 399.185,365.23 c 1.221,0.596 2.402,1.23 3.649,1.801 0.387,-1.174 0.808,-2.314 1.261,-3.422 0.014,1.758 0.351,3.191 0.901,4.413 0.53,0.22 0.995,0.505 1.53,0.721 0.893,-0.451 2.256,-0.597 3.513,-0.54 -1.471,-2.732 -2.89,-5.518 -4.323,-8.287 -1.217,0.025 -2.005,0.617 -2.566,1.306 -0.159,0.194 -0.244,0.563 -0.495,0.63 -0.109,-1.303 -0.293,-2.529 -0.451,-3.782 -0.67,0.591 -1.442,1.71 -2.117,2.297 -0.063,-1.228 -0.123,-2.458 -0.18,-3.692 -0.751,0.6 -1.451,1.641 -2.252,2.342 -0.172,-1.314 -0.287,-2.685 -0.539,-3.918 -0.729,1.944 -1.547,3.798 -2.253,5.764 1.953,0.942 3.44,2.353 4.322,4.367 z"
         id="path4113"
         inkscape:connector-curvature="0" /><path
         style="fill:#2bb5d7"
         d="m 412.877,361.898 c 1.299,0.488 2.808,-0.025 3.107,-1.352 -1.588,-0.979 -3.285,-1.85 -4.864,-2.838 -1.11,1.72 0.542,3.732 1.757,4.19 z"
         id="path4115"
         inkscape:connector-curvature="0" /><path
         style="fill:#2bb5d7"
         d="m 416.525,361.807 c -0.384,0.255 -0.647,0.682 -1.082,0.947 -1.26,0.764 -3.052,0.04 -3.918,-0.586 -0.177,-0.129 -0.318,-0.405 -0.54,-0.361 -0.434,2.15 -0.072,4.73 0.495,6.441 1.435,0.621 2.359,1.754 2.568,3.603 1.135,0.739 1.74,2.39 1.44,4.278 2.653,-0.754 5.142,-1.674 7.79,-2.432 1.761,-1.371 2.207,-4.784 1.713,-7.836 1.139,2.013 2.074,4.23 3.242,6.215 0.582,-0.168 1.143,-0.358 1.711,-0.541 -0.568,-3.066 -1.435,-5.91 -2.702,-8.377 -0.367,-0.715 -0.88,-1.814 -1.485,-2.207 -0.353,-0.228 -0.889,-0.362 -1.307,-0.54 -1.353,-0.574 -2.597,-1.097 -3.918,-1.667 -0.176,1.754 -1.223,2.852 -3.288,2.568 0.117,1.398 0.413,2.859 0.495,4.143 -0.395,-1.225 -0.833,-2.408 -1.214,-3.648 z"
         id="path4117"
         inkscape:connector-curvature="0" /><path
         style="fill:#9cc87b"
         d="m 380.451,378.967 c 0.324,1.65 0.956,3.068 2.656,3.242 1.654,0.169 2.898,-0.895 3.738,-1.847 2.264,-2.567 3.37,-6.948 3.647,-11.079 -0.388,-0.205 -0.862,-0.809 -0.495,-1.351 -0.529,-0.343 -0.76,-1.161 -0.18,-1.667 -0.725,-0.229 -0.51,-1.477 -0.181,-1.981 -0.31,-0.682 0.068,-1.377 0.405,-1.802 -0.667,-1.509 -1.685,-2.908 -3.602,-3.018 0.034,0.011 0.052,0.038 0.045,0.09 0.741,4.137 -0.566,7.555 -2.208,9.953 -0.582,0.853 -1.305,1.528 -1.846,2.298 0.384,0.599 0.239,1.73 -0.226,2.116 0.214,0.209 0.344,0.508 0.36,0.81 0.038,0.697 -0.449,0.943 -0.54,1.397 -0.031,0.156 0.06,0.391 0.045,0.54 -0.112,1.147 -1.118,1.703 -1.618,2.299 z"
         id="path4119"
         inkscape:connector-curvature="0" /><path
         style="fill:#f6dbcb"
         d="m 396.438,368.652 c 2.18,2.734 4.793,5.922 7.838,8.107 1.002,0.719 2.223,1.562 3.646,1.666 2.08,0.152 3.104,-1.822 2.883,-3.783 -0.183,-1.637 -1.434,-2.309 -2.567,-2.973 -3.3,-1.935 -6.725,-3.887 -9.907,-5.809 -0.726,-1.723 -1.822,-3.313 -3.559,-3.874 0.084,0.277 0.283,0.678 0.226,0.946 -1.093,-0.383 -3.155,-0.257 -2.431,1.261 -0.509,0.292 -0.404,1.247 0,1.576 -0.459,0.314 -0.332,1.179 0,1.531 -0.584,2.05 2.474,1.618 3.871,1.352 z"
         id="path4121"
         inkscape:connector-curvature="0" /><path
         style="fill:#61aba8"
         d="m 345.053,381.803 c 1,0.449 2.191,0.773 3.422,0.767 4.413,-0.024 6.984,-3.595 8.377,-7.026 0.514,-1.262 1.217,-2.32 1.306,-3.828 0.144,-2.408 -1.306,-3.297 -2.837,-4.053 -0.247,-1.93 -1.092,-3.262 -3.242,-3.287 -2.267,6.98 -7.023,11.473 -14.142,13.6 0.28,0.563 0.941,0.904 1.576,1.217 2.95,1.449 5.898,-0.3 7.702,-1.981 1.44,-1.345 2.522,-3.026 3.512,-4.368 -1.038,3.84 -2.567,7.187 -5.674,8.959 z"
         id="path4123"
         inkscape:connector-curvature="0" /><path
         style="fill:#9cc87b"
         d="m 407.473,369.959 c 0.525,0.275 1.045,0.582 1.576,0.9 0.486,0.293 1.078,0.566 1.531,0.946 0.899,0.755 1.651,2.472 1.531,3.917 -0.1,1.199 -0.718,2.064 -1.352,2.883 1.523,-0.801 3.036,-1.844 2.838,-4.008 -0.086,-0.93 -0.652,-1.452 -0.812,-2.162 -0.036,-0.166 0.019,-0.326 0,-0.495 -0.267,-2.475 -3.527,-3.704 -5.312,-1.981 z"
         id="path4125"
         inkscape:connector-curvature="0" /><path
         style="fill:#f0a565"
         d="m 394.097,380.633 c 1.169,-2.975 1.727,-6.723 1.756,-10.719 -0.175,-0.024 -0.534,0.155 -0.765,0.225 -0.311,7.66 -1.855,14.088 -7.297,16.619 3.408,-0.654 5.162,-3.215 6.306,-6.125 z"
         id="path4127"
         inkscape:connector-curvature="0" /><path
         style="fill:#f0a565"
         d="m 383.469,384.775 c 0.201,0.02 0.603,0.017 0.81,0 3.073,-0.236 4.979,-2.994 6.08,-5.449 1.294,-2.882 1.815,-6.162 2.208,-9.367 -0.246,0.034 -0.351,-0.071 -0.586,-0.045 -0.054,0.007 -0.049,0.07 -0.045,0.135 -0.369,2.857 -0.99,5.93 -2.207,8.647 -1.08,2.414 -2.705,5.019 -5.585,5.27 -2.693,0.235 -3.647,-1.549 -4.459,-3.287 0.094,2.456 1.573,3.884 3.784,4.096 z"
         id="path4129"
         inkscape:connector-curvature="0" /><path
         style="fill:#bb6087"
         d="m 448.051,384.73 c 0.436,-0.074 0.891,-0.129 1.215,-0.315 -1.533,-4.576 -2.889,-9.332 -4.459,-13.872 -0.041,0.619 -0.751,1.163 -0.765,1.847 -0.007,0.368 0.334,1.05 0.495,1.531 1.207,3.595 2.418,7.433 3.514,10.809 z"
         id="path4131"
         inkscape:connector-curvature="0" /><path
         style="clip-rule:evenodd;fill:#cec9c4;fill-rule:evenodd;stroke:#cec9c4;stroke-width:0.2"
         d="m 436.477,380.407 c 0.195,0.368 0.707,0.753 1.08,1.126 1.166,1.166 2.291,2.299 3.422,3.332 1.21,-0.462 2.789,-0.158 3.693,0.361 0.257,0.146 0.469,0.385 0.676,0.404 0.285,0.027 0.66,-0.186 0.945,-0.27 0.31,-0.091 0.606,-0.172 0.945,-0.27 -1.594,-4.816 -3.16,-9.66 -4.772,-14.457 -0.03,0 -0.06,0 -0.09,0 -2.706,0.897 -5.425,1.781 -8.152,2.656 0.53,1.844 1.134,3.568 1.712,5.315 0.191,0.582 0.269,1.296 0.541,1.803 z"
         id="path4133"
         inkscape:connector-curvature="0" /><path
         style="fill:#bb6087"
         d="m 437.872,387.793 c -1.403,-4.586 -2.865,-9.115 -4.368,-13.601 -0.289,0.792 -0.652,1.509 -0.946,2.296 1.388,3.852 2.612,7.867 4.054,11.666 0.39,-0.15 0.829,-0.251 1.26,-0.361 z"
         id="path4135"
         inkscape:connector-curvature="0" /><path
         style="fill:#9cc87b"
         d="m 391.395,387.162 c 2.52,0.076 5.389,0.143 7.521,-0.314 0.313,-4.873 -0.675,-9.155 -2.117,-12.565 -0.623,4.994 -1.941,9.805 -4.908,12.384 -0.209,0.181 -0.524,0.326 -0.496,0.495 z"
         id="path4137"
         inkscape:connector-curvature="0" /><path
         style="fill:#2bb5d7"
         d="m 426.793,375.723 c -1.258,0.713 -2.412,3.468 -1.441,5.225 0.488,-1.524 1.481,-2.781 2.567,-3.557 -0.459,1.251 -1.001,2.852 -0.721,4.548 1.012,-2.081 2.597,-3.589 4.775,-4.503 -0.439,-0.958 -0.684,-2.109 -1.171,-3.018 -0.628,0.207 -1.349,0.445 -2.072,0.675 -0.671,0.214 -1.448,0.353 -1.937,0.63 z"
         id="path4139"
         inkscape:connector-curvature="0" /><path
         style="fill:#bb6087"
         d="m 425.532,391.262 c 0.549,-0.098 0.976,-0.316 1.531,-0.406 -1.549,-4.381 -3.118,-8.742 -4.729,-13.061 -0.106,0.45 -0.982,1.479 -0.99,1.938 -0.006,0.311 0.342,1.024 0.495,1.441 1.235,3.339 2.575,6.95 3.693,10.088 z"
         id="path4141"
         inkscape:connector-curvature="0" /><path
         style="fill:#2bb5d7"
         d="m 411.48,382.028 c 0.357,0.647 1.045,1.132 1.621,1.757 1.131,1.225 2.211,2.391 3.424,3.602 0.341,0.341 1.324,1.625 1.801,1.712 0.339,0.061 0.99,-0.103 1.396,-0.181 1.359,-0.263 2.572,-0.698 3.377,-1.396 -1.143,-3.136 -2.24,-6.318 -3.377,-9.458 -1.753,0.485 -3.682,1.183 -5.494,1.757 -0.708,0.945 -1.458,1.845 -2.748,2.207 z"
         id="path4143"
         inkscape:connector-curvature="0" /><path
         style="fill:#f6dbcb"
         d="m 429.63,382.389 c 1.452,1.341 3.231,2.594 5.089,3.378 -0.85,-2.167 -1.497,-4.537 -2.387,-6.665 -1.479,0.517 -2.471,1.521 -2.702,3.287 z"
         id="path4145"
         inkscape:connector-curvature="0" /><path
         style="clip-rule:evenodd;fill:#cec9c4;fill-rule:evenodd;stroke:#cec9c4;stroke-width:0.2"
         d="m 376.713,384.28 c 0.075,-0.668 0.527,-1.284 0.495,-1.937 -0.033,-0.674 -0.54,-1.244 -0.63,-1.892 -1.878,0.387 -4.133,0.125 -4.819,-1.216 -0.554,0.092 -1.263,0.418 -1.892,0.586 1.302,5.318 2.496,10.744 3.873,15.987 1.29,-3.14 2.713,-6.145 4.008,-9.277 -0.33,-0.764 -0.721,-1.468 -1.035,-2.251 z"
         id="path4147"
         inkscape:connector-curvature="0" /><path
         style="fill:#2bb5d7"
         d="m 405.221,386.037 c 0.189,-1.807 1.085,-2.908 2.026,-3.964 -1.247,-0.452 -2.267,-1.384 -3.107,-2.206 -0.089,-0.086 -0.23,-0.287 -0.361,-0.226 -0.484,1.723 -1.003,3.411 -1.44,5.18 0.686,0.583 1.044,-0.489 1.395,-1.036 0.352,-0.549 0.69,-1.019 0.9,-1.262 -0.528,0.894 -1.097,3.479 0.587,3.514 z"
         id="path4149"
         inkscape:connector-curvature="0" /><path
         style="fill:#f6dbcb"
         d="m 407.788,383.56 c -0.487,0.491 -1.253,1.54 -1.171,2.071 0.037,0.248 0.679,0.82 0.945,1.082 2.44,2.389 5.852,4.148 8.782,5.719 0.282,1.293 0.679,2.474 1.53,3.197 0.054,-0.555 0.852,-0.664 1.262,-0.359 0.059,-0.584 0.85,-0.713 1.307,-0.406 0.084,-0.533 0.655,-0.811 1.306,-0.63 0.129,-0.472 0.556,-0.646 1.036,-0.767 -0.369,-0.605 -0.852,-1.1 -1.307,-1.62 0.045,0 0.054,0.036 0.09,0.045 0.485,0.171 0.885,0.476 1.441,0.226 -0.637,-1.263 -2.713,-1.627 -4.549,-1.262 -2.818,-2.75 -5.52,-5.618 -8.331,-8.377 -1.092,0.025 -1.715,0.448 -2.341,1.081 z"
         id="path4151"
         inkscape:connector-curvature="0" /><path
         style="fill:#f6dbcb"
         d="m 440.619,385.857 c -1.053,-0.9 -2.027,-1.876 -3.107,-2.748 0.426,1.451 0.902,2.85 1.306,4.323 1.761,-0.431 3.44,-0.943 5.134,-1.44 -0.757,-0.558 -2.428,-0.568 -3.333,-0.135 z"
         id="path4153"
         inkscape:connector-curvature="0" /><path
         style="clip-rule:evenodd;fill:#cec9c4;fill-rule:evenodd;stroke:#cec9c4;stroke-width:0.2"
         d="m 430.307,384.416 c -1.521,0.816 -3.892,0.329 -4.234,-1.217 -0.029,0 -0.061,0 -0.09,0 -0.166,0.105 -0.381,0.16 -0.676,0.135 0.849,2.484 1.768,4.897 2.657,7.342 2.618,-0.701 5.117,-1.518 7.745,-2.207 -0.133,-0.422 -0.295,-0.814 -0.449,-1.217 -1.643,-0.955 -3.33,-1.863 -4.953,-2.836 z"
         id="path4155"
         inkscape:connector-curvature="0" /><path
         style="fill:#f6dbcb"
         d="m 444.042,390.09 c 1.076,0.273 1.042,-1.363 0.855,-2.207 -1.049,-0.527 -0.704,1.396 -0.855,2.207 z"
         id="path4157"
         inkscape:connector-curvature="0" /><path
         style="fill:#f6dbcb"
         d="m 445.843,387.838 c -0.365,0.289 -0.133,1.155 -0.316,1.711 0.711,0.249 1.15,-0.935 0.991,-1.486 -0.079,-0.272 -0.433,-0.416 -0.675,-0.225 z"
         id="path4159"
         inkscape:connector-curvature="0" /><path
         style="fill:#2bb5d7"
         d="m 408.914,388.919 c -0.541,-0.36 -1.08,-0.721 -1.622,-1.081 -0.761,0.386 -2.265,0.44 -3.061,0.045 -0.205,0.338 -0.458,0.624 -0.631,0.991 1.598,0.443 3.381,0.702 5.449,0.675 -0.029,-0.225 -0.084,-0.425 -0.135,-0.63 z"
         id="path4161"
         inkscape:connector-curvature="0" /><path
         style="fill:#f6dbcb"
         d="m 442.736,390.406 c 1.025,0.271 0.919,-1.271 0.721,-1.982 -0.947,-0.565 -0.789,1.244 -0.721,1.982 z"
         id="path4163"
         inkscape:connector-curvature="0" /><path
         style="fill:#61aba8"
         d="m 396.482,388.829 c 1.055,1.753 2.549,3.696 3.603,5.449 -0.002,-0.028 -0.006,-0.054 -0.045,-0.045 -2.393,-0.804 -5.066,-1.567 -8.06,-1.622 3.225,1.038 6.25,2.519 8.602,4.279 -1.682,-0.27 -3.666,-0.477 -5.404,-0.541 1.8,0.666 3.384,1.602 4.908,2.657 0.46,0.318 1.07,0.936 1.486,1.036 0.809,0.194 1.842,0 2.748,0 0.915,0 1.814,0 2.746,0 -1.865,-4.215 -4.182,-7.977 -6.529,-11.709 -1.203,0.314 -2.639,0.396 -4.055,0.496 z"
         id="path4165"
         inkscape:connector-curvature="0" /><path
         style="fill:#7b756b"
         d="m 376.758,400.043 c 0.285,0 0.57,0 0.855,0 0.768,-4.324 2.441,-8.023 4.459,-11.078 0.137,-0.209 0.377,-0.448 0.314,-0.586 -0.24,0 -0.48,0 -0.72,0 -2.482,3.041 -4,7.048 -4.908,11.664 z"
         id="path4167"
         inkscape:connector-curvature="0" /><path
         style="fill:#f6dbcb"
         d="m 441.159,390.495 c 0.14,0.085 0.485,0.052 0.632,0 0.225,-0.18 0.248,-0.562 0.224,-0.991 -0.507,-0.721 -1.048,0.189 -0.856,0.991 z"
         id="path4169"
         inkscape:connector-curvature="0" /><path
         style="fill:#90887f"
         d="m 360.14,391.981 c -7.441,1.642 -15.517,2.843 -24.14,3.333 -0.691,0.039 -1.869,-0.065 -2.432,0.09 -0.363,0.1 -0.814,0.798 -1.126,1.126 -1.072,1.129 -2.111,2.14 -3.063,3.243 -0.043,0.051 -0.224,0.162 -0.135,0.27 0.404,-0.091 0.872,0.119 1.307,0 0.238,-0.065 0.74,-0.584 0.99,-0.811 1.01,-0.916 1.946,-1.863 2.883,-2.521 -0.492,1.1 -0.959,2.224 -1.441,3.332 0.45,0 0.9,0 1.352,0 1.185,-1.127 2.341,-2.523 3.513,-3.513 -0.465,1.157 -0.905,2.337 -1.351,3.513 0.569,0 1.141,0 1.711,0 1.008,-1.064 1.942,-2.441 2.928,-3.377 -0.279,1.131 -0.568,2.255 -0.858,3.377 7.313,0 14.623,0 21.934,0 2.951,-2.469 4.774,-6.066 6.125,-10.133 -0.029,0 -0.06,0 -0.09,0 -2.624,0.738 -5.331,1.459 -8.107,2.071 z"
         id="path4171"
         inkscape:connector-curvature="0" /><path
         style="fill:#bb6087"
         d="m 411.976,395.18 c 0.481,-0.061 0.854,-0.228 1.306,-0.316 -0.316,-1.019 -0.673,-1.998 -0.99,-3.017 -0.617,-0.373 -1.131,-0.851 -1.756,-1.216 0.468,1.527 0.997,2.994 1.44,4.549 z"
         id="path4173"
         inkscape:connector-curvature="0" /><path
         style="fill:#939598"
         d="m 423.279,395.99 c -0.195,0.1 -0.492,0.061 -0.766,0.18 -0.282,0.123 -0.446,0.408 -0.72,0.496 -0.282,0.089 -0.6,0.096 -0.9,0.045 -0.316,0.344 -0.954,0.436 -1.485,0.225 -0.348,0.266 -0.561,0.391 -0.947,0.405 -0.46,0.019 -0.889,-0.317 -1.306,-0.315 -0.256,0.002 -0.651,0.217 -0.991,0.315 -2.445,0.711 -4.988,1.462 -7.295,2.116 0.08,0.221 0.215,0.386 0.315,0.586 4.594,0 9.188,0 13.781,0 1.405,-1.717 2.945,-3.539 3.648,-5.81 -0.853,0.274 -1.72,0.532 -2.613,0.766 -0.137,0.396 -0.323,0.788 -0.721,0.991 z"
         id="path4175"
         inkscape:connector-curvature="0" /><path
         style="fill:#bb6087"
         d="m 415.669,395.764 c -2.618,0.594 -5.255,1.17 -7.881,1.758 0.167,0.327 0.318,0.672 0.54,0.945 2.098,-0.748 4.461,-1.651 6.53,-2.387 0.272,-0.097 0.888,-0.213 0.811,-0.316 z"
         id="path4177"
         inkscape:connector-curvature="0" /><path
         d="m 359.455,286.83 c -8.665,-1.073 -18.375,-0.414 -26.182,0.867 -6.874,1.129 -13.259,2.894 -19.008,5.089 l 0,2.771 c 5.642,-2.629 12.23,-4.407 18.986,-5.762 8.281,-1.661 17.095,-2.535 26.204,-2.965 z"
         id="path4179"
         inkscape:connector-curvature="0" /><path
         d="m 468.451,402.025 c 0.218,0.042 0.121,-0.098 0.135,-0.181 0.191,-1.151 0,-2.631 0,-4.009 0,-40.029 0,-80.293 0,-120.142 -1.633,-0.258 -3.27,-0.495 -4.922,-0.685 -6.893,-0.793 -14.775,-1.26 -23.075,-1.029 -8.443,0.233 -17.376,1.092 -25.018,2.613 -3.629,0.722 -7.104,1.465 -10.144,2.493 -5.92,1.998 -14.403,3.233 -23.385,3.549 -8.539,0.301 -15.925,-0.254 -22.934,-1.14 -3.48,-0.439 -6.907,-0.98 -10.58,-1.272 -6.647,-0.524 -15.761,-0.442 -22.593,1.124 -0.368,0.084 -0.774,0.231 -1.225,0.238 -0.319,-0.429 -0.433,-1.022 -0.674,-1.513 4.82,-1.5 12.726,-2.02 18.44,-1.907 3.094,0.061 5.876,0.238 8.586,0.528 2.696,0.286 5.188,0.799 7.766,1.156 5.223,0.725 10.836,1.214 16.783,1.351 5.933,0.136 12.658,-0.06 19.266,-1.097 -7.079,0.617 -13.493,0.372 -19.371,-0.107 -5.85,-0.477 -11.338,-1.274 -16.493,-2.359 -4.925,-1.038 -10.733,-1.807 -16.866,-2.033 -5.732,-0.21 -14.181,0.118 -19.212,1.713 l -1.268,-3.165 c 2.534,-0.851 5.484,-1.558 8.714,-2.128 l -4.985,0 0,-0.668 c -3.71,0 -7.427,0 -11.132,0 l 0,17.068 c 0.249,-0.105 0.499,-0.21 0.748,-0.315 8.961,-3.788 20.273,-5.719 33.012,-5.719 3.686,0 7.23,0.107 10.719,0.359 3.387,0.246 6.691,0.648 10.041,0.991 13.518,1.385 29.414,0.744 40.669,-2.252 1.474,-0.392 2.888,-0.8 4.278,-1.261 1.381,-0.457 2.711,-0.976 4.098,-1.441 5.436,-1.825 12.139,-2.873 19.502,-2.522 3.539,0.168 6.927,0.537 9.951,1.081 6.204,1.115 14.765,1.594 19.277,-1.261 0.104,0.526 0.014,1.246 0.045,1.847 -0.009,0.003 -0.017,0.005 -0.025,0.007 0,0.004 0,0.009 0,0.013 -39.006,10.777 -78.012,21.566 -117.037,32.32 -0.024,-0.007 -0.055,0.007 -0.081,0.008 -0.097,0.026 -0.193,0.054 -0.29,0.08 -0.045,0.017 -0.089,0.036 -0.135,0.051 -0.01,0.002 -0.018,0.005 -0.028,0.008 -0.12,0.137 0.145,0.251 0.231,0.346 0.113,0.123 0.214,0.303 0.315,0.404 0.397,0.404 1.015,0.691 1.44,0.991 38.533,-10.646 77.029,-21.331 115.609,-31.931 l 0,117.814 -34.678,0 c -1.038,-2.056 -1.817,-4.368 -2.793,-6.485 2.886,-0.956 6.164,-1.865 9.322,-2.792 0.401,-0.118 1.056,-0.432 1.307,-0.405 0.443,0.046 0.721,0.749 1.305,0.856 0.494,0.09 0.869,-0.004 1.308,-0.316 0.521,0.297 1.126,0.096 1.53,-0.18 0.65,0.389 0.955,-0.223 1.441,-0.406 0.328,-0.122 0.631,-0.067 0.855,-0.18 0.65,-0.328 0.811,-1.145 0.811,-1.892 3.694,-1.109 7.418,-2.188 11.124,-3.287 -0.332,-0.913 -0.657,-1.834 -0.991,-2.747 -2.289,0.682 -4.629,1.314 -6.89,2.026 -1.628,-4.812 -3.12,-9.759 -4.684,-14.637 2.228,-0.714 4.432,-1.455 6.666,-2.162 -0.303,-0.927 -0.654,-1.808 -0.99,-2.702 -6.67,2.172 -13.432,4.254 -20.086,6.439 -1.076,-4.327 -2.381,-8.426 -4.819,-11.393 -2.042,-0.735 -3.948,-1.607 -5.989,-2.341 -0.589,-1.034 -1.42,-1.824 -2.883,-1.983 -0.26,-0.896 -0.519,-1.793 -0.811,-2.656 0.832,-0.647 1.525,-1.205 2.251,-2.072 0.176,-0.209 0.563,-0.6 0.585,-0.811 0.041,-0.383 -0.348,-0.936 -0.585,-1.352 -0.149,-0.262 -0.709,-0.913 -0.72,-1.171 -0.016,-0.32 0.484,-0.648 0.404,-0.945 -0.092,-0.351 -1.053,-0.49 -1.306,-0.63 -0.423,-0.236 -0.935,-0.656 -1.171,-0.992 -0.258,-0.367 -0.357,-0.762 -0.585,-1.08 -0.597,-0.834 -1.65,-1.738 -2.974,-1.982 -2.205,-0.406 -4.14,0.932 -5.179,2.027 -1.033,1.091 -2.366,3.072 -2.116,5.18 0.119,1.002 0.607,1.801 1.035,2.566 0.391,0.697 1.246,1.826 0.946,2.792 -0.229,0.735 -0.862,0.94 -1.892,1.036 0.818,1.433 3.242,2.21 5.314,1.666 0.042,0.133 -0.221,0.365 -0.36,0.586 -0.148,0.234 -0.286,0.486 -0.36,0.721 -1.003,0.543 -1.984,1.107 -2.928,1.711 -0.206,-0.285 -0.307,-0.675 -0.585,-0.9 -0.485,-0.395 -1.228,-0.648 -1.847,-0.99 -1.771,-0.98 -3.693,-2.076 -5.494,-3.018 -0.008,-0.037 -0.045,-0.045 -0.045,-0.091 -0.309,-0.833 -0.608,-1.673 -0.9,-2.523 -0.469,-0.162 -0.971,-0.29 -1.441,-0.449 -0.141,-0.701 -0.378,-1.305 -0.496,-2.027 1.221,-0.512 2.287,-1.285 3.198,-2.252 0.207,-0.219 0.792,-0.727 0.811,-0.99 0.024,-0.357 -0.614,-0.962 -0.946,-1.352 -0.255,-0.301 -1.009,-0.873 -1.035,-1.261 -0.042,-0.604 0.707,-1.013 0.721,-1.622 -0.904,-0.611 -2.084,-0.948 -3.017,-1.53 -0.275,-0.46 -0.125,-1.239 -0.451,-1.532 -0.583,-0.523 -2.1,-0.898 -2.881,-1.305 -0.084,-0.391 -0.131,-0.84 -0.271,-1.126 -3.373,0.089 -6.543,1.948 -7.702,4.908 -0.701,1.79 -0.272,3.765 0.45,5.27 0.723,1.503 1.917,2.496 3.513,3.017 -0.135,0.631 -0.334,1.197 -0.494,1.803 -1.859,-0.42 -3.682,0.209 -4.91,0.855 -0.738,-0.492 -1.441,-1.021 -2.431,-1.262 -0.915,-1.578 -2.502,-2.482 -4.595,-2.882 -3.179,-4.69 -6.643,-9.541 -9.908,-14.276 -1.107,-1.607 -2.283,-3.174 -3.287,-4.773 -0.305,-0.484 -1.242,-1.022 -1.756,-1.441 -1.678,-1.371 -3.355,-2.73 -5.045,-4.144 -1.422,-0.335 -2.762,-0.751 -4.144,-1.126 -0.259,-0.965 -0.58,-1.886 -0.9,-2.882 -0.09,-0.28 -0.327,-0.745 -0.315,-0.946 0.024,-0.391 0.708,-0.947 0.945,-1.216 0.379,-0.427 0.686,-0.738 0.992,-1.126 -1.398,-1.26 -2.882,-2.434 -4.279,-3.693 -0.058,-0.195 -0.088,-0.39 -0.116,-0.583 -0.011,0.002 -0.022,0.005 -0.032,0.008 -0.108,-0.747 -0.068,-1.466 -0.326,-2.062 -0.119,-0.273 -0.555,-0.525 -0.855,-0.766 -0.867,-0.693 -1.828,-1.466 -2.656,-2.117 0.391,-0.657 0.072,-1.613 -0.451,-1.891 -3.754,-0.104 -6.688,1 -9.188,2.387 -0.927,0.515 -1.805,1.093 -2.595,1.758 -1.32,1.118 -2.389,2.483 -3.011,4.212 -0.448,1.246 -0.604,2.632 -0.573,4.017 0.01,0.458 0.042,0.915 0.093,1.368 0.015,0.14 0.036,0.278 0.056,0.417 0.048,0.356 0.104,0.704 0.173,1.048 0.03,0.151 0.061,0.302 0.095,0.45 0.076,0.336 0.16,0.659 0.252,0.977 0.036,0.125 0.069,0.255 0.107,0.377 0.134,0.425 0.275,0.833 0.429,1.208 1.143,2.791 2.958,4.916 5.044,6.485 -0.407,0.103 -0.743,0.276 -1.171,0.36 -0.233,1.223 -0.461,2.451 -0.721,3.648 -6.137,1.131 -11.058,3.449 -14.277,7.521 -3.143,3.977 -4.49,10.458 -3.691,17.654 1.055,9.495 5.161,16.818 9.818,22.878 0.795,1.037 1.592,2.061 2.432,3.018 0.844,0.965 1.788,1.811 2.521,2.838 -0.258,0.884 -0.542,1.739 -0.855,2.566 0.75,1.201 1.605,2.297 2.387,3.469 -1.482,1.896 -3.041,3.715 -4.639,5.494 l -3.469,0 c -0.074,-0.197 0.234,-0.523 0.406,-0.766 1.242,-1.753 2.646,-3.69 3.918,-5.45 -0.645,-0.917 -1.324,-1.798 -1.936,-2.747 0.043,-0.32 0.129,-1.027 0.18,-1.576 0.047,-0.524 0.195,-1.173 0.135,-1.486 -0.061,-0.308 -0.822,-0.822 -1.216,-1.216 -4.429,-4.429 -7.995,-9.781 -10.476,-16.173 l 0,31.492 c 51.314,0.092 102.813,0.012 154.187,0.042 z M 347.215,377.21 c -1.804,1.682 -4.752,3.431 -7.702,1.981 -0.636,-0.313 -1.296,-0.654 -1.576,-1.217 7.118,-2.127 11.875,-6.619 14.142,-13.6 2.15,0.025 2.995,1.357 3.242,3.287 1.531,0.756 2.98,1.645 2.837,4.053 -0.089,1.508 -0.792,2.566 -1.306,3.828 -1.393,3.432 -3.964,7.002 -8.377,7.026 -1.23,0.007 -2.422,-0.317 -3.422,-0.767 3.107,-1.771 4.637,-5.119 5.674,-8.961 -0.991,1.344 -2.073,3.025 -3.512,4.37 z m 4.908,6.305 c 3.828,-2.701 7.199,-5.861 7.611,-11.979 3.697,-0.035 7.264,0.061 10.943,0.045 1.307,1.707 3.151,3.428 6.125,3.197 1.432,-0.109 2.521,-0.782 3.603,-1.352 0.761,0.549 0.116,1.693 -0.316,2.117 0.605,3.065 -3.246,2.634 -5.359,2.117 -0.679,-0.166 -1.467,-0.589 -1.891,-0.586 -0.246,0.002 -0.748,0.346 -1.172,0.541 -5.727,2.637 -13.17,4.301 -19.59,5.99 -0.062,-0.017 -0.003,-0.08 0.046,-0.09 z m 29.904,-7.386 c 0.091,-0.453 0.578,-0.699 0.54,-1.397 -0.017,-0.303 -0.146,-0.601 -0.36,-0.81 0.465,-0.387 0.609,-1.518 0.226,-2.116 0.541,-0.77 1.264,-1.444 1.846,-2.298 1.642,-2.398 2.949,-5.816 2.208,-9.953 0.007,-0.052 -0.011,-0.079 -0.045,-0.09 1.917,0.109 2.935,1.509 3.602,3.018 -0.337,0.425 -0.715,1.12 -0.405,1.802 -0.329,0.504 -0.544,1.752 0.181,1.981 -0.58,0.506 -0.35,1.324 0.18,1.667 -0.367,0.542 0.108,1.145 0.495,1.351 -0.277,4.131 -1.384,8.512 -3.647,11.079 -0.84,0.952 -2.084,2.016 -3.738,1.847 -1.7,-0.174 -2.332,-1.592 -2.656,-3.242 0.5,-0.596 1.506,-1.152 1.621,-2.298 0.012,-0.15 -0.079,-0.385 -0.048,-0.541 z m 3.467,-21.572 c 0.03,0 0.061,0 0.09,0 4.183,0.033 5.762,3.914 6.621,7.431 -0.297,-0.027 -0.461,0.079 -0.766,0.045 -0.657,-3.787 -2.435,-6.692 -5.945,-7.476 z m -1.35,29.408 c 2.88,-0.251 4.505,-2.855 5.585,-5.27 1.217,-2.717 1.838,-5.79 2.207,-8.647 -0.004,-0.064 -0.009,-0.128 0.045,-0.135 0.235,-0.026 0.34,0.079 0.586,0.045 -0.393,3.205 -0.914,6.485 -2.208,9.367 -1.102,2.455 -3.007,5.213 -6.08,5.449 -0.207,0.017 -0.608,0.02 -0.81,0 -2.211,-0.213 -3.689,-1.641 -3.784,-4.098 0.811,1.74 1.765,3.524 4.459,3.289 z m 8.422,-16.663 c -0.332,-0.353 -0.459,-1.218 0,-1.531 -0.404,-0.329 -0.509,-1.284 0,-1.576 -0.725,-1.517 1.338,-1.643 2.431,-1.261 0.058,-0.269 -0.142,-0.669 -0.226,-0.946 1.736,0.561 2.833,2.151 3.559,3.874 3.183,1.922 6.607,3.873 9.907,5.809 1.134,0.664 2.385,1.336 2.567,2.973 0.221,1.961 -0.803,3.935 -2.883,3.783 -1.424,-0.104 -2.645,-0.947 -3.646,-1.666 -3.045,-2.186 -5.658,-5.373 -7.838,-8.107 -1.396,0.264 -4.454,0.696 -3.871,-1.352 z m 22.292,11.303 c 0.204,-0.44 0.357,-0.933 0.495,-1.441 3.283,-0.814 6.5,-1.695 9.773,-2.521 -3.402,1.341 -6.8,2.686 -10.268,3.962 z m 7.476,-0.81 c 1.611,4.318 3.181,8.68 4.729,13.061 -0.556,0.09 -0.982,0.309 -1.531,0.406 -1.118,-3.138 -2.458,-6.749 -3.693,-10.089 -0.153,-0.417 -0.501,-1.13 -0.495,-1.441 0.008,-0.459 0.884,-1.487 0.99,-1.937 z m -2.611,0.27 c 1.137,3.14 2.234,6.322 3.377,9.458 -0.805,0.697 -2.018,1.133 -3.377,1.396 -0.406,0.078 -1.058,0.241 -1.396,0.181 -0.477,-0.087 -1.46,-1.371 -1.801,-1.712 -1.213,-1.212 -2.293,-2.377 -3.424,-3.602 -0.576,-0.625 -1.264,-1.109 -1.621,-1.757 1.289,-0.362 2.039,-1.263 2.748,-2.206 1.812,-0.575 3.741,-1.272 5.494,-1.758 z m -1.262,12.79 c 1.836,-0.365 3.912,-0.001 4.549,1.262 -0.557,0.25 -0.956,-0.055 -1.441,-0.226 -0.036,-0.009 -0.045,-0.045 -0.09,-0.045 0.455,0.521 0.938,1.015 1.307,1.62 -0.48,0.121 -0.907,0.295 -1.036,0.767 -0.65,-0.182 -1.222,0.097 -1.306,0.63 -0.457,-0.307 -1.248,-0.178 -1.307,0.406 -0.41,-0.305 -1.208,-0.195 -1.262,0.359 -0.852,-0.724 -1.248,-1.904 -1.53,-3.197 -2.931,-1.57 -6.342,-3.33 -8.782,-5.719 -0.267,-0.262 -0.908,-0.834 -0.945,-1.082 -0.082,-0.531 0.684,-1.58 1.171,-2.071 0.626,-0.633 1.249,-1.056 2.342,-1.081 2.809,2.759 5.512,5.627 8.33,8.377 z m -5.18,4.008 c -0.451,0.089 -0.824,0.256 -1.306,0.316 -0.442,-1.555 -0.972,-3.022 -1.44,-4.549 0.625,0.365 1.139,0.843 1.756,1.216 0.317,1.019 0.674,1.999 0.99,3.017 z m -9.547,-11.078 c -0.352,0.547 -0.709,1.619 -1.395,1.036 0.438,-1.769 0.956,-3.457 1.44,-5.18 0.131,-0.061 0.272,0.14 0.361,0.226 0.84,0.822 1.859,1.754 3.107,2.206 -0.941,1.056 -1.837,2.157 -2.026,3.964 -1.684,-0.035 -1.114,-2.62 -0.586,-3.514 -0.21,0.244 -0.549,0.713 -0.901,1.262 z m 0.496,4.098 c 0.797,0.396 2.301,0.341 3.061,-0.045 0.542,0.36 1.081,0.721 1.622,1.081 0.051,0.205 0.105,0.405 0.135,0.63 -2.068,0.027 -3.852,-0.231 -5.449,-0.675 0.173,-0.367 0.426,-0.653 0.631,-0.991 z m -7.431,-13.6 c 1.442,3.409 2.43,7.691 2.117,12.565 -2.133,0.457 -5.002,0.391 -7.521,0.314 -0.027,-0.169 0.287,-0.314 0.496,-0.495 2.966,-2.579 4.285,-7.39 4.908,-12.384 z m 7.521,25.76 c -0.906,0 -1.939,0.194 -2.748,0 -0.416,-0.101 -1.026,-0.718 -1.486,-1.036 -1.524,-1.056 -3.108,-1.991 -4.908,-2.657 1.738,0.064 3.723,0.271 5.404,0.541 -2.352,-1.761 -5.377,-3.241 -8.602,-4.279 2.994,0.055 5.667,0.818 8.06,1.622 0.039,-0.009 0.043,0.017 0.045,0.045 -1.055,-1.753 -2.549,-3.696 -3.603,-5.449 1.416,-0.101 2.852,-0.182 4.055,-0.495 2.348,3.732 4.664,7.494 6.529,11.709 -0.932,-10e-4 -1.831,-10e-4 -2.746,-10e-4 z m 3.468,-2.521 c 2.626,-0.588 5.263,-1.164 7.881,-1.758 0.077,0.104 -0.539,0.22 -0.81,0.316 -2.069,0.735 -4.433,1.639 -6.53,2.387 -0.223,-0.274 -0.374,-0.618 -0.541,-0.945 z m 15.177,2.521 c -4.594,0 -9.188,0 -13.781,0 -0.1,-0.2 -0.234,-0.365 -0.315,-0.586 2.307,-0.654 4.85,-1.405 7.295,-2.116 0.34,-0.099 0.735,-0.314 0.991,-0.315 0.417,-0.002 0.846,0.334 1.306,0.315 0.387,-0.015 0.6,-0.14 0.947,-0.405 0.531,0.211 1.169,0.119 1.485,-0.225 0.3,0.051 0.618,0.044 0.9,-0.045 0.273,-0.088 0.438,-0.373 0.72,-0.496 0.273,-0.119 0.57,-0.08 0.766,-0.18 0.397,-0.203 0.584,-0.596 0.721,-0.991 0.894,-0.233 1.761,-0.491 2.613,-0.766 -0.703,2.271 -2.243,4.093 -3.648,5.81 z m 11.124,-9.548 c -3.292,1.149 -6.816,2.433 -10.134,3.558 -0.045,-0.36 -0.371,-0.679 -0.405,-0.9 3.66,-0.965 7.333,-1.916 11.034,-2.838 0.242,-0.043 -0.326,0.121 -0.495,0.18 z m -6.125,0.181 c -0.89,-2.444 -1.809,-4.857 -2.657,-7.342 0.295,0.025 0.51,-0.029 0.676,-0.135 0.029,0 0.061,0 0.09,0 0.343,1.546 2.713,2.033 4.234,1.217 1.623,0.973 3.311,1.881 4.953,2.836 0.154,0.402 0.316,0.795 0.449,1.217 -2.628,0.689 -5.127,1.506 -7.745,2.207 z m 13.827,-0.181 c -0.146,0.052 -0.492,0.085 -0.632,0 -0.192,-0.802 0.349,-1.712 0.855,-0.991 0.025,0.43 0.002,0.811 -0.223,0.991 z m 0.945,-0.089 c -0.068,-0.738 -0.227,-2.547 0.721,-1.982 0.198,0.711 0.305,2.254 -0.721,1.982 z m -3.919,-2.973 c -0.403,-1.474 -0.88,-2.872 -1.306,-4.323 1.08,0.872 2.055,1.848 3.107,2.748 0.905,-0.434 2.576,-0.424 3.332,0.135 -1.692,0.496 -3.372,1.009 -5.133,1.44 z m 5.225,2.657 c 0.151,-0.811 -0.194,-2.733 0.855,-2.207 0.187,0.844 0.221,2.48 -0.855,2.207 z m 1.485,-0.541 c 0.183,-0.556 -0.05,-1.422 0.316,-1.711 0.242,-0.19 0.597,-0.047 0.676,0.225 0.159,0.55 -0.281,1.735 -0.992,1.486 z m -0.72,-19.005 c 1.57,4.54 2.926,9.296 4.459,13.872 -0.324,0.186 -0.779,0.24 -1.215,0.315 -1.096,-3.377 -2.307,-7.215 -3.514,-10.809 -0.161,-0.482 -0.502,-1.163 -0.495,-1.531 0.014,-0.684 0.724,-1.228 0.765,-1.847 z m -2.431,0.091 c 0.029,0 0.059,0 0.09,0 1.612,4.797 3.179,9.641 4.772,14.457 -0.339,0.098 -0.635,0.179 -0.945,0.27 -0.285,0.084 -0.66,0.297 -0.945,0.27 -0.207,-0.02 -0.419,-0.258 -0.676,-0.404 -0.904,-0.52 -2.483,-0.823 -3.693,-0.361 -1.131,-1.033 -2.256,-2.166 -3.422,-3.332 -0.373,-0.373 -0.885,-0.758 -1.08,-1.126 -0.272,-0.507 -0.35,-1.222 -0.541,-1.802 -0.578,-1.746 -1.182,-3.471 -1.712,-5.315 2.727,-0.876 5.446,-1.76 8.152,-2.657 z m -8.872,3.557 c 1.503,4.485 2.965,9.015 4.368,13.601 -0.431,0.11 -0.87,0.211 -1.261,0.361 -1.441,-3.799 -2.666,-7.814 -4.054,-11.666 0.295,-0.787 0.658,-1.504 0.947,-2.296 z m 1.215,11.575 c -1.857,-0.784 -3.637,-2.037 -5.089,-3.378 0.231,-1.766 1.224,-2.77 2.702,-3.287 0.89,2.127 1.537,4.498 2.387,6.665 z m -2.746,-8.331 c -2.178,0.914 -3.763,2.422 -4.775,4.503 -0.28,-1.696 0.262,-3.297 0.721,-4.548 -1.086,0.775 -2.079,2.032 -2.567,3.557 -0.971,-1.757 0.184,-4.512 1.441,-5.225 0.489,-0.276 1.266,-0.416 1.936,-0.63 0.724,-0.229 1.444,-0.468 2.072,-0.675 0.488,0.908 0.732,2.06 1.172,3.018 z m -11.44,-18.692 c 1.321,0.57 2.565,1.093 3.918,1.667 0.418,0.178 0.953,0.312 1.307,0.54 0.605,0.393 1.118,1.492 1.485,2.207 1.267,2.467 2.134,5.311 2.702,8.377 -0.568,0.183 -1.129,0.373 -1.711,0.541 -1.168,-1.985 -2.103,-4.202 -3.242,-6.215 0.494,3.052 0.048,6.465 -1.713,7.836 -2.648,0.758 -5.137,1.678 -7.79,2.432 0.3,-1.889 -0.306,-3.539 -1.44,-4.278 -0.209,-1.849 -1.134,-2.982 -2.568,-3.603 -0.567,-1.711 -0.929,-4.291 -0.495,-6.441 0.222,-0.044 0.363,0.232 0.54,0.361 0.866,0.626 2.658,1.35 3.918,0.586 0.435,-0.266 0.698,-0.692 1.082,-0.947 0.381,1.24 0.818,2.424 1.215,3.648 -0.082,-1.283 -0.378,-2.744 -0.495,-4.143 2.064,0.284 3.111,-0.814 3.287,-2.568 z m -9.413,-1.035 c 1.579,0.988 3.276,1.858 4.864,2.838 -0.299,1.326 -1.809,1.84 -3.107,1.352 -1.215,-0.459 -2.867,-2.471 -1.757,-4.19 z m 2.342,-14.231 c 0,-0.12 0,-0.24 0,-0.36 -0.013,-0.072 0.043,-0.077 0.045,-0.135 0.919,0.313 1.392,1.07 1.802,1.891 -0.48,0.588 -1.276,1.095 -1.125,2.162 0.697,0.076 1.416,-0.539 2.115,-0.404 0.822,0.156 1.057,1.959 1.307,2.701 0.096,0.285 0.305,0.609 0.359,0.855 -0.685,0.965 -1.77,1.533 -3.377,1.577 0.149,0.572 0.852,0.87 1.127,1.485 0.142,0.32 0.16,0.764 0.27,1.172 0.278,1.035 0.623,2.256 0.9,3.332 -0.189,0.578 -0.29,1.241 -0.45,1.846 -1.704,-0.908 -3.325,-1.898 -4.999,-2.836 0.987,-0.701 2.342,-1.408 2.342,-2.838 0,-0.867 -0.716,-1.836 -1.126,-2.566 -0.562,-1.002 -1.273,-1.955 -1.171,-3.469 0.13,-1.933 1.632,-2.521 1.981,-4.413 z m -3.017,2.207 c -0.842,1.457 -1.093,3.577 -0.541,5.179 -1.016,-0.936 -1.6,-2.303 -1.667,-4.188 -0.55,0.359 -0.735,1.321 -0.72,1.98 0.024,1.006 0.412,1.924 0.855,2.703 0.508,0.891 1.483,1.794 1.307,3.107 -0.148,1.096 -1.359,1.887 -2.568,1.486 0.645,-0.362 1.549,-0.911 1.442,-2.072 -0.071,-0.768 -0.829,-1.69 -1.217,-2.387 -0.554,-0.999 -1.134,-1.837 -1.126,-3.242 0.01,-1.51 0.836,-2.877 1.938,-3.828 0.988,-0.854 2.221,-1.541 3.782,-1.441 0.466,1.334 -0.952,1.78 -1.485,2.703 z m 2.341,26.255 c 0.019,0.169 -0.036,0.329 0,0.495 0.159,0.71 0.726,1.232 0.812,2.162 0.198,2.164 -1.314,3.207 -2.838,4.008 0.634,-0.818 1.252,-1.684 1.352,-2.883 0.12,-1.445 -0.632,-3.162 -1.531,-3.917 -0.453,-0.38 -1.045,-0.653 -1.531,-0.946 -0.531,-0.318 -1.051,-0.625 -1.576,-0.9 1.784,-1.723 5.044,-0.494 5.312,1.981 z m -15.671,-16.842 c 0.252,1.232 0.367,2.603 0.539,3.918 0.801,-0.701 1.501,-1.742 2.252,-2.342 0.057,1.234 0.117,2.465 0.18,3.692 0.675,-0.587 1.447,-1.706 2.117,-2.297 0.158,1.253 0.342,2.479 0.451,3.782 0.251,-0.067 0.336,-0.436 0.495,-0.63 0.561,-0.689 1.35,-1.28 2.566,-1.306 1.434,2.77 2.853,5.555 4.323,8.287 -1.257,-0.057 -2.619,0.089 -3.513,0.54 -0.535,-0.216 -1,-0.501 -1.53,-0.721 -0.551,-1.222 -0.888,-2.655 -0.901,-4.413 -0.453,1.107 -0.874,2.248 -1.261,3.422 -1.246,-0.57 -2.428,-1.205 -3.649,-1.801 -0.883,-2.015 -2.369,-3.426 -4.323,-4.369 0.707,-1.964 1.526,-3.818 2.254,-5.762 z m -11.756,-10.991 c -0.15,-3.236 2.844,-5.145 5.629,-5.988 0.039,-0.01 0.043,0.017 0.045,0.045 0.205,0.021 0.162,0.288 0.182,0.494 -2.082,0.802 -3.598,2.17 -4.504,4.144 0.57,-0.061 1.236,-0.653 1.982,-0.54 -0.786,0.663 -1.612,1.51 -1.757,2.792 -0.181,1.619 0.644,2.658 1.262,3.647 -1.786,-0.869 -2.745,-2.578 -2.839,-4.594 z m 2.793,1.533 c 0.184,-0.646 0.887,-1.04 1.576,-0.991 0.715,0.051 1.238,0.584 1.756,0.855 0.318,-0.207 0.516,-0.535 0.721,-0.855 -0.413,-0.736 -0.77,-1.42 -0.585,-2.612 -0.382,-0.324 -0.971,-0.44 -1.353,-0.765 0.236,-0.916 1.003,-1.641 1.668,-2.072 0.043,-0.027 0.084,-0.109 0.18,-0.09 0.695,0.143 1.602,0.584 2.252,0.945 -0.543,0.836 -1.226,2.028 -0.811,3.288 0.351,-0.049 0.657,-0.37 1.035,-0.631 0.274,-0.189 0.785,-0.633 1.126,-0.585 0.509,0.07 0.852,1.22 0.9,1.846 0.06,0.784 -0.058,1.608 0,2.433 0.057,0.793 0.466,1.311 0.767,1.801 -1.033,0.942 -2.801,2.138 -4.504,1.216 0.135,0.623 0.83,1.023 1.216,1.577 1.296,1.855 1.237,5.522 0,7.296 -0.901,-2.416 -2.372,-4.264 -4.368,-5.585 0.219,-1.401 0.363,-2.88 0.72,-4.144 -1.088,-0.46 -2.72,-1.438 -2.296,-2.927 z m -1.306,7.61 c 4.508,0.25 6.196,4.689 7.115,8.602 -0.297,-0.026 -0.461,0.08 -0.765,0.047 -1.1,-4.473 -2.968,-8.41 -8.468,-8.333 0.624,-0.23 1.25,-0.364 2.118,-0.316 z m -8.737,-1.485 c 2.415,0.632 3.46,3.024 4.008,5.675 0.285,-0.477 0.223,-2.261 0.945,-2.342 0.488,-0.056 0.793,0.902 0.99,1.44 0.63,1.713 1.098,3.836 0.901,6.216 -0.458,5.555 -3.218,9.793 -9.773,8.736 3.029,-1.008 4.871,-3.205 5.224,-6.891 -1.114,1.789 -3.316,3.773 -6.306,3.468 -1.754,-0.18 -3.029,-1.515 -3.691,-2.928 0.008,-0.051 0.045,-0.024 0.045,0 1.047,0.276 1.832,0.519 3.061,0.45 3.784,-0.209 5.831,-3.557 6.08,-7.565 0.162,-2.565 -0.399,-4.713 -1.484,-6.259 z m -24.455,-26.978 c 0.674,0.201 1.441,0.348 2.026,0.631 0.485,0.234 1.034,0.853 1.576,1.307 1.079,0.902 2.086,1.674 3.153,2.566 0.514,0.431 1.131,0.846 1.53,1.307 0.334,0.385 0.621,0.953 0.946,1.441 4.373,6.557 8.635,13.207 13.061,19.815 0.328,0.489 0.742,0.933 0.945,1.396 0.584,1.328 0.63,3.181 0.406,4.594 -0.502,3.164 -2.829,4.854 -5.855,5.495 -0.956,-0.663 -1.525,-1.737 -2.117,-2.747 -4.219,-7.216 -6.459,-16.751 -8.781,-25.852 -2.014,0.357 -3.672,-0.231 -5.225,-0.945 -1.014,-0.467 -2.148,-1.096 -2.387,-2.071 -0.074,-0.304 0.06,-0.576 0.045,-0.991 -0.012,-0.31 -0.205,-0.588 -0.18,-0.855 0.045,-0.467 0.381,-0.688 0.631,-1.036 -0.223,-0.778 -0.011,-1.659 0.449,-2.026 -1.477,-0.58 -3.372,-1.391 -5.088,-2.072 -0.511,-0.202 -1.423,-0.393 -1.576,-0.811 -0.112,-0.3 0.043,-0.853 0.225,-0.945 1.998,0.573 4.13,1.179 6.216,1.799 z m -5.179,-9.907 c 0.781,0.781 1.68,1.442 2.387,2.296 -0.475,0.336 -0.815,0.807 -1.26,1.172 -0.294,-1.298 -0.991,-2.192 -1.757,-3.018 0.151,-0.209 0.359,-0.361 0.63,-0.45 z m -3.377,-4.685 c 0.487,0.389 0.938,0.803 1.396,1.172 -0.093,0.641 0.426,1.533 0.271,2.161 -0.061,0.245 -0.642,0.642 -0.901,0.901 -0.69,0.689 -1.142,1.668 -0.765,3.017 0.657,-0.069 0.938,-0.498 1.621,-0.45 1.962,0.139 1.328,3.48 1.981,5.09 -0.63,0.031 -1.05,-0.475 -1.575,-0.406 -0.592,0.078 -1.127,1.114 -1.082,1.847 0.039,0.651 0.412,1.091 0.676,1.486 0.654,0.247 1.236,0.564 1.892,0.812 -0.098,0.137 -0.253,-0.044 -0.405,0 -1.818,1.184 -4.293,1.711 -6.665,2.341 2.372,1.516 4.69,3.086 7.025,4.64 -0.485,-0.6 -1.055,-2.273 -0.136,-2.838 -0.361,-0.447 -0.728,-1.438 -0.27,-1.982 0.297,-0.353 0.826,-0.381 1.125,-0.675 -0.012,0.343 0.027,0.635 0.136,0.855 -0.638,0.316 -0.668,1.507 -0.181,2.026 -1.409,2.12 2.215,5.315 4.279,4.099 1.502,1.064 3.164,1.97 5.719,1.982 0.219,0.668 0.443,1.329 0.631,2.027 -1.924,-1.049 -4.105,-1.84 -6.439,-2.477 -0.271,1.351 -0.384,2.86 -0.586,4.278 -1.314,-1.673 -2.559,-3.415 -3.873,-5.089 -0.025,1.611 -0.064,3.208 -0.09,4.819 -0.975,-1.547 -1.937,-3.108 -2.883,-4.684 -3.016,-1.34 -6,-2.707 -8.962,-4.1 -0.208,-1.814 0.991,-2.61 1.892,-3.467 -0.051,-0.25 -0.081,-0.52 -0.09,-0.811 -2.35,-0.162 -5.002,-3.502 -2.748,-5.449 0.964,-0.834 2.809,-0.465 3.873,0.18 0.593,-0.653 1.082,-1.41 1.622,-2.117 -0.495,-0.534 -1.21,-1.165 -1.217,-2.162 -0.005,-0.703 0.361,-1.25 0.72,-1.756 -0.821,-0.273 -1.408,-0.781 -1.846,-1.441 0.772,-2.32 2.402,-3.782 4.324,-4.953 0.497,0.226 1.043,0.738 1.531,1.124 z m -10.27,3.559 c -1.557,2.415 -2.646,5.832 -2.206,9.818 -2.429,-3.019 -1.783,-7.84 0.181,-10.989 1.844,-2.957 5.409,-4.606 9.548,-4.999 0.104,-0.01 0.083,-0.057 0.226,-0.045 0.059,0.103 -0.149,0.165 -0.181,0.18 -3.55,1.68 -6.724,4.041 -6.575,9.322 -0.53,-0.896 -0.862,-1.99 -0.993,-3.287 z m 0.361,18.465 c 3.483,1.516 6.885,3.113 10.357,4.639 0.053,2.064 0.16,4.073 0.181,6.17 -3.745,-2.634 -7.447,-5.313 -11.124,-8.017 0.202,-0.925 0.42,-1.831 0.586,-2.792 z m 27.022,67.824 c -7.31,0 -14.621,0 -21.934,0 0.289,-1.122 0.578,-2.246 0.858,-3.377 -0.985,0.936 -1.92,2.313 -2.928,3.377 -0.57,0 -1.142,0 -1.711,0 0.445,-1.176 0.886,-2.355 1.351,-3.513 -1.172,0.989 -2.328,2.386 -3.513,3.513 -0.451,0 -0.901,0 -1.352,0 0.482,-1.108 0.949,-2.232 1.441,-3.332 -0.936,0.658 -1.873,1.605 -2.883,2.521 -0.25,0.227 -0.752,0.745 -0.99,0.811 -0.435,0.119 -0.902,-0.091 -1.307,0 -0.089,-0.107 0.092,-0.219 0.135,-0.27 0.952,-1.104 1.991,-2.114 3.063,-3.243 0.312,-0.328 0.763,-1.026 1.126,-1.126 0.563,-0.154 1.74,-0.051 2.432,-0.09 8.623,-0.49 16.698,-1.692 24.14,-3.333 2.776,-0.612 5.483,-1.333 8.107,-2.071 0.029,0 0.06,0 0.09,0 -1.352,4.067 -3.174,7.664 -6.125,10.133 z m -26.481,-6.621 c -0.754,0.045 -1.936,0.238 -2.433,0.091 -0.357,-0.106 -1.014,-1.173 -1.261,-1.486 -0.447,-0.565 -0.824,-0.997 -1.171,-1.531 0.33,-0.855 0.556,-1.816 0.9,-2.657 -7.083,-6.902 -13.112,-15.259 -15.132,-27.291 -0.503,-2.994 -0.571,-6.86 0,-9.818 1.517,-7.863 6.682,-12.935 14.727,-14.457 0.638,-0.12 1.814,-0.399 2.342,-0.27 0.173,0.042 0.576,0.412 0.855,0.631 4.152,3.261 8.27,6.63 12.431,9.817 0.418,-1.247 0.938,-2.394 1.35,-3.648 0.68,0.919 1.156,1.972 1.711,2.974 1.639,2.949 3.389,5.963 5.045,8.961 -1.379,-4.445 -2.772,-8.879 -4.189,-13.285 0.27,-0.018 0.408,0.26 0.586,0.405 3.087,2.53 5.647,5.732 7.297,9.772 1.633,4.004 2.58,10.621 1.125,15.537 -0.4,-1.047 -1.055,-2.541 -2.522,-2.566 -0.372,-0.006 -0.684,0.125 -1.036,0.225 -0.178,-2.215 -1.086,-3.877 -3.422,-3.873 -0.28,0.001 -0.721,0.209 -1.036,0.136 -0.253,-0.06 -0.81,-0.915 -1.081,-1.261 -1.015,-1.298 -2.094,-2.596 -3.106,-3.783 -4.224,-4.947 -8.848,-9.677 -14.052,-13.512 5.174,5.953 10.883,12.345 15.492,19.275 0.286,0.432 0.851,1.059 0.9,1.396 0.096,0.635 -0.496,2.191 -0.721,2.748 -2.303,5.709 -7.425,8.848 -13.24,10.988 -3.207,-2.582 -6.084,-5.511 -8.826,-8.557 -2.736,-3.037 -5.297,-6.277 -7.477,-9.863 0,-0.029 0,-0.06 0,-0.09 -0.037,-0.008 -0.045,-0.045 -0.09,-0.045 1.156,3.084 2.525,6 4.188,8.736 0.217,0.357 0.623,0.842 0.676,1.127 0.082,0.432 -0.131,1.131 -0.181,1.621 -0.162,1.604 -0.249,3.221 -0.45,4.818 0.768,-1.093 1.561,-2.553 2.298,-3.828 0.105,2.072 0.015,4.339 0.045,6.485 0.731,-1.534 1.447,-3.087 2.116,-4.684 0.195,2.432 0.191,5.063 0.314,7.565 0.822,-1.566 1.617,-3.157 2.389,-4.773 0.08,2.362 -0.049,4.906 -0.045,7.341 0.975,-1.517 1.98,-3.392 2.926,-5.089 0.328,0.138 0.535,0.396 0.766,0.631 0.135,3.305 1.663,5.213 5.135,5.179 0.42,2.277 2.742,3.464 5.539,3.152 0.732,-0.081 1.479,-0.216 2.162,-0.405 0.648,-0.178 1.243,-0.561 1.847,-0.676 0.763,-0.145 1.735,-0.09 2.611,-0.09 6.256,0 12.021,0.651 16.528,2.252 -9.766,2.663 -20.819,4.97 -32.83,5.675 z m 34.137,-13.6 c 0.629,-0.168 1.338,-0.494 1.892,-0.586 0.686,1.341 2.941,1.603 4.819,1.216 0.09,0.647 0.597,1.218 0.63,1.892 0.032,0.652 -0.42,1.269 -0.495,1.937 0.314,0.782 0.705,1.486 1.035,2.252 -1.295,3.133 -2.718,6.138 -4.008,9.277 -1.377,-5.244 -2.571,-10.669 -3.873,-15.988 z m 12.205,9.143 c -2.018,3.055 -3.691,6.754 -4.459,11.078 -0.285,0 -0.57,0 -0.855,0 0.908,-4.616 2.426,-8.623 4.909,-11.664 0.239,0 0.479,0 0.72,0 0.062,0.138 -0.178,0.377 -0.315,0.586 z m -3.062,-6.125 c 0.986,2.088 4.273,3.965 7.432,2.701 2.496,-0.998 3.993,-3.455 5.089,-6.17 1.135,-2.814 1.716,-6.122 2.116,-9.143 0.211,-0.029 0.409,-0.07 0.631,-0.09 -0.53,5.486 -1.85,11.158 -5,14.367 -1.005,1.023 -2.535,2.057 -4.233,2.207 -3.213,0.283 -5.365,-1.304 -6.035,-3.872 z m 16.078,-12.701 c 0.23,-0.069 0.59,-0.249 0.765,-0.225 -0.029,3.996 -0.587,7.744 -1.756,10.719 -1.144,2.91 -2.897,5.471 -6.306,6.125 5.441,-2.531 6.985,-8.959 7.297,-16.619 z"
         id="path4181"
         inkscape:connector-curvature="0" /><path
         d="m 383.993,274.407 c 3.102,0.018 6.435,-0.127 9.794,-0.382 l -18.086,0 c 2.629,0.231 5.376,0.364 8.292,0.382 z"
         id="path4183"
         inkscape:connector-curvature="0" /><path
         d="m 350.371,289.595 c -14.006,0.596 -25.66,3.863 -36.105,8.187 l 0,2.348 c 4.669,-2.406 9.929,-4.154 15.384,-5.74 6.598,-1.92 13.604,-3.489 20.721,-4.795 z"
         id="path4185"
         inkscape:connector-curvature="0" /><path
         d="m 328.127,319.356 c -0.025,-0.356 -0.039,-0.725 -0.052,-1.095 -0.008,0.003 -0.017,0.007 -0.024,0.01 0,-0.013 -0.002,-0.025 -0.002,-0.039 -4.612,1.242 -9.183,2.526 -13.783,3.781 l 0,2.283 c 4.677,-1.279 9.347,-2.564 13.988,-3.877 -0.063,-0.334 -0.101,-0.692 -0.127,-1.063 z"
         id="path4187"
         inkscape:connector-curvature="0" /><path
         style="fill:#61aba8"
         d="m 373.515,365.59 c -1.229,0.068 -2.015,-0.174 -3.061,-0.45 0,-0.024 -0.037,-0.051 -0.045,0 0.662,1.413 1.938,2.748 3.691,2.928 2.99,0.306 5.191,-1.679 6.306,-3.468 -0.353,3.686 -2.194,5.883 -5.224,6.891 6.555,1.057 9.315,-3.182 9.773,-8.736 0.196,-2.38 -0.272,-4.503 -0.901,-6.216 -0.197,-0.538 -0.502,-1.496 -0.99,-1.44 -0.723,0.081 -0.66,1.865 -0.945,2.342 -0.548,-2.65 -1.593,-5.043 -4.008,-5.675 1.085,1.546 1.645,3.694 1.485,6.26 -0.25,4.007 -2.297,7.355 -6.081,7.564 z"
         id="path4189"
         inkscape:connector-curvature="0" /><path
         style="fill:#f0a565"
         d="m 394.277,370.139 c -0.222,0.02 -0.42,0.061 -0.631,0.09 -0.4,3.02 -0.981,6.328 -2.116,9.143 -1.096,2.715 -2.593,5.172 -5.089,6.17 -3.158,1.264 -6.445,-0.613 -7.432,-2.701 0.67,2.568 2.822,4.155 6.034,3.873 1.698,-0.15 3.229,-1.184 4.233,-2.207 3.152,-3.21 4.471,-8.882 5.001,-14.368 z"
         id="path4191"
         inkscape:connector-curvature="0" /><path
         style="fill:#b59775"
         d="m 371.668,377.615 c 0.424,-0.195 0.926,-0.539 1.172,-0.541 0.424,-0.003 1.212,0.42 1.891,0.586 2.113,0.517 5.964,0.948 5.359,-2.117 0.432,-0.424 1.076,-1.568 0.316,-2.117 -1.081,0.569 -2.171,1.242 -3.603,1.352 -2.974,0.23 -4.818,-1.49 -6.125,-3.197 -3.68,0.017 -7.246,-0.08 -10.943,-0.045 -0.412,6.118 -3.783,9.278 -7.611,11.979 -0.049,0.011 -0.108,0.073 -0.045,0.091 6.419,-1.69 13.862,-3.354 19.589,-5.991 z"
         id="path4193"
         inkscape:connector-curvature="0" /><path
         style="fill:#bb6087"
         d="m 415.353,377.164 c -0.138,0.509 -0.291,1.002 -0.495,1.441 3.468,-1.276 6.865,-2.621 10.268,-3.963 -3.273,0.827 -6.489,1.708 -9.773,2.522 z"
         id="path4195"
         inkscape:connector-curvature="0" /><path
         style="fill:#bb6087"
         d="m 423.55,393.152 c 0.034,0.222 0.36,0.54 0.405,0.9 3.318,-1.125 6.842,-2.408 10.134,-3.558 0.169,-0.059 0.737,-0.224 0.495,-0.181 -3.701,0.923 -7.374,1.875 -11.034,2.839 z"
         id="path4197"
         inkscape:connector-curvature="0" /><path
         style="clip-rule:evenodd;fill:#2bb5d7;fill-rule:evenodd"
         d="m 328.051,318.272 c 0.008,-0.003 0.017,-0.007 0.024,-0.01 0,0 0.001,0 0.001,-10e-4 0.181,-0.073 0.361,-0.147 0.543,-0.222 0.006,-0.003 0.012,-0.005 0.019,-0.008 -0.019,-1.344 0.147,-2.688 0.583,-3.896 0.624,-1.739 1.702,-3.11 3.034,-4.232 0.79,-0.665 1.668,-1.243 2.595,-1.758 2.5,-1.387 5.434,-2.49 9.188,-2.387 0.523,0.277 0.842,1.233 0.451,1.891 0.828,0.651 1.789,1.424 2.656,2.117 0.301,0.24 0.736,0.492 0.855,0.766 0.258,0.596 0.218,1.314 0.326,2.062 0.011,-0.003 0.021,-0.006 0.032,-0.008 0.212,-0.048 0.424,-0.094 0.63,-0.158 10e-4,-10e-4 10e-4,-0.003 0.003,-0.004 0.007,-0.002 0.012,-0.003 0.018,-0.005 0.01,-0.003 0.018,-0.006 0.028,-0.008 0.046,-0.015 0.09,-0.034 0.135,-0.051 0.063,-0.022 0.126,-0.043 0.185,-0.07 0.037,-0.018 0.069,-0.009 0.104,-0.01 0.026,-10e-4 0.057,-0.015 0.081,-0.008 39.025,-10.754 78.031,-21.543 117.037,-32.32 0,-0.004 0,-0.009 0,-0.013 -0.027,-0.598 0.059,-1.311 -0.045,-1.833 -4.512,2.855 -13.072,2.376 -19.275,1.261 -3.025,-0.544 -6.412,-0.913 -9.953,-1.081 -7.361,-0.351 -14.065,0.697 -19.5,2.522 -1.388,0.466 -2.718,0.983 -4.099,1.44 -1.391,0.461 -2.806,0.869 -4.278,1.262 -11.256,2.995 -27.151,3.637 -40.668,2.252 -3.352,-0.344 -6.654,-0.746 -10.043,-0.991 -3.487,-0.253 -7.031,-0.36 -10.719,-0.36 -12.736,0 -24.049,1.932 -33.012,5.72 -0.24,0.102 -0.481,0.203 -0.723,0.305 l 0,2.352 c 5.749,-2.195 12.134,-3.96 19.008,-5.089 7.807,-1.281 17.517,-1.94 26.182,-0.867 0.039,0.005 0.08,0.007 0.119,0.012 -9.16,0.428 -18.023,1.303 -26.346,2.973 -6.747,1.353 -13.326,3.128 -18.963,5.75 l 0,2.217 c 10.445,-4.323 22.1,-7.591 36.105,-8.187 0.035,-0.002 0.07,-0.004 0.106,-0.006 -7.163,1.312 -14.214,2.89 -20.852,4.819 -5.446,1.584 -10.696,3.328 -15.359,5.729 l 0,21.877 c 4.601,-1.255 9.171,-2.539 13.783,-3.781 0.002,0.011 0.004,0.024 0.004,0.037 z"
         id="path4199"
         inkscape:connector-curvature="0" /><path
         d="m 342.422,272.634 c 7.737,-0.487 15.269,-0.355 21.822,0.091 1.614,0.111 3.35,0.207 4.841,0.461 2.117,0.362 4.322,0.637 6.616,0.839 l 18.086,0 c 4.499,-0.342 9.046,-0.888 13.16,-1.56 6.792,-1.11 12.633,-2.827 19.022,-4.219 6.486,-1.412 13.424,-2.437 21.228,-3.428 3.125,-0.396 6.263,-0.712 9.387,-0.96 l -16.877,0 c -8.615,1.153 -16.239,2.651 -23.019,4.478 -6.048,1.632 -13.017,2.876 -21.103,3.582 -8.142,0.711 -15.713,0.522 -22.055,-0.202 -3.217,-0.367 -6.245,-0.914 -9.511,-1.266 -6.335,-0.684 -13.835,-0.956 -21.567,-0.572 -6.138,0.305 -11.916,1.088 -17.056,2.149 l 0,1.329 0,0.668 4.985,0 c 3.693,-0.65 7.754,-1.12 12.041,-1.39 z"
         id="path4201"
         inkscape:connector-curvature="0" /><path
         d="m 363.65,268.419 c 2.317,0.129 4.64,0.26 6.845,0.581 6.468,0.944 13.728,1.152 21.909,0.641 8.386,-0.524 15.822,-1.962 22.108,-3.439 3.544,-0.833 7.207,-1.617 11.021,-2.343 l -100.136,0 0,7.633 c 6.225,-1.767 14.312,-2.957 23.328,-3.242 5.316,-0.169 10.228,-0.094 14.925,0.169 z"
         id="path4203"
         inkscape:connector-curvature="0" /><path
         d="m 453.265,266.287 c -6.133,0.383 -12.393,1.349 -17.337,2.302 -5.27,1.015 -9.986,2.203 -14.064,3.392 11.608,-2.011 25.618,-3.583 39.166,-4.355 l 0,-1.762 c -2.515,0.093 -5.065,0.253 -7.765,0.423 z"
         id="path4205"
         inkscape:connector-curvature="0" /><path
         style="fill:#8bcde4"
         d="m 467.475,259.638 c -9.921,0.113 -21.728,0.977 -32.159,2.549 -3.385,0.51 -6.634,1.071 -9.782,1.671 -3.814,0.727 -7.477,1.51 -11.021,2.343 -6.286,1.477 -13.723,2.915 -22.108,3.439 -8.182,0.512 -15.441,0.304 -21.909,-0.641 -2.205,-0.321 -4.527,-0.452 -6.845,-0.581 -4.697,-0.262 -9.609,-0.338 -14.925,-0.17 -9.017,0.286 -17.103,1.476 -23.328,3.242 -1.78,0.505 -3.417,1.055 -4.87,1.647 0.045,0.044 0.051,-0.009 0.122,-0.011 1.51,-0.392 3.097,-0.76 4.748,-1.101 5.14,-1.061 10.918,-1.844 17.056,-2.149 7.732,-0.383 15.232,-0.112 21.567,0.572 3.266,0.352 6.294,0.898 9.511,1.266 6.342,0.725 13.913,0.913 22.055,0.202 8.086,-0.707 15.055,-1.95 21.103,-3.582 6.779,-1.828 14.403,-3.325 23.019,-4.478 2.762,-0.37 5.621,-0.706 8.592,-1.003 8.238,-0.827 16.105,-0.937 23.306,-0.76 0.222,0.005 0.439,0.015 0.661,0.022 l 0,-2.462 c -1.584,-0.023 -3.177,-0.033 -4.793,-0.015 z"
         id="path4207"
         inkscape:connector-curvature="0" /><path
         style="fill:#8bcde4"
         d="m 447.197,264.818 c -7.804,0.991 -14.741,2.017 -21.228,3.428 -6.39,1.392 -12.23,3.109 -19.022,4.219 -4.114,0.672 -8.661,1.218 -13.16,1.56 -3.359,0.255 -6.692,0.4 -9.794,0.382 -2.916,-0.017 -5.663,-0.151 -8.292,-0.382 -2.294,-0.202 -4.499,-0.477 -6.616,-0.839 -1.491,-0.254 -3.227,-0.35 -4.841,-0.461 -6.553,-0.445 -14.085,-0.578 -21.822,-0.091 -4.287,0.27 -8.348,0.74 -12.039,1.391 -3.229,0.569 -6.18,1.276 -8.714,2.128 l 1.268,3.165 c 5.031,-1.595 13.479,-1.922 19.212,-1.713 6.133,0.226 11.941,0.995 16.866,2.033 5.155,1.085 10.644,1.882 16.493,2.359 5.878,0.479 12.292,0.724 19.371,0.107 -6.607,1.037 -13.333,1.232 -19.266,1.097 -5.947,-0.137 -11.561,-0.626 -16.783,-1.351 -2.578,-0.357 -5.069,-0.871 -7.766,-1.156 -2.71,-0.29 -5.492,-0.466 -8.586,-0.528 -5.715,-0.113 -13.62,0.407 -18.44,1.907 0.241,0.491 0.354,1.084 0.674,1.513 0.45,-0.006 0.857,-0.153 1.225,-0.238 6.832,-1.565 15.946,-1.647 22.593,-1.124 3.673,0.291 7.1,0.832 10.58,1.272 7.009,0.887 14.394,1.441 22.934,1.14 8.981,-0.316 17.465,-1.552 23.385,-3.549 3.039,-1.028 6.515,-1.771 10.144,-2.493 7.642,-1.521 16.574,-2.38 25.018,-2.613 8.3,-0.231 16.183,0.235 23.075,1.029 1.652,0.19 3.289,0.427 4.922,0.685 1.228,0.194 2.453,0.399 3.68,0.609 l 0,-11.135 c -3.665,0.081 -7.434,0.24 -11.236,0.457 -13.548,0.772 -27.558,2.345 -39.166,4.355 4.078,-1.188 8.795,-2.377 14.064,-3.392 4.943,-0.954 11.204,-1.919 17.337,-2.302 2.7,-0.17 5.25,-0.331 7.765,-0.423 0.623,-0.023 1.244,-0.045 1.864,-0.058 3.225,-0.069 6.35,-0.048 9.372,0.054 l 0,-2.674 c -5.09,0.037 -10.363,0.25 -15.682,0.672 -3.126,0.247 -6.264,0.563 -9.389,0.96 z"
         id="path4209"
         inkscape:connector-curvature="0" /></g></g><g
     id="frame"
     transform="matrix(0.33037138,0,0,0.32766831,-103.82383,-67.152016)"><path
       style="fill:#008e86"
       d="m 472.266,410.94 -158,0 0,-206.001 158,0 0,206.001 z m -12,-145.195 -134,0 0,134 134,0 0,-134 z"
       id="path4212"
       inkscape:connector-curvature="0" /><rect
       x="320.267"
       y="210.94"
       style="fill:none;stroke:#ffffff;stroke-width:2"
       width="146"
       height="194"
       id="rect4214" /><g
       id="g4216"><path
         style="fill:#ffffff"
         d="m 330.797,230.657 0,-0.038 c 0,-3.781 2.83,-6.877 6.858,-6.877 2.451,0 3.932,0.855 5.205,2.071 l -1.501,1.728 c -1.064,-0.988 -2.204,-1.653 -3.723,-1.653 -2.527,0 -4.389,2.09 -4.389,4.692 l 0,0.038 c 0,2.602 1.843,4.711 4.389,4.711 1.634,0 2.679,-0.646 3.818,-1.71 l 1.5,1.519 c -1.387,1.444 -2.906,2.356 -5.395,2.356 -3.874,0.002 -6.762,-3.019 -6.762,-6.837 z"
         id="path4218"
         inkscape:connector-curvature="0" /><path
         style="fill:#ffffff"
         d="m 346.054,223.97 2.336,0 0,5.528 6.345,0 0,-5.528 2.337,0 0,13.298 -2.337,0 0,-5.604 -6.345,0 0,5.604 -2.336,0 0,-13.298 z"
         id="path4220"
         inkscape:connector-curvature="0" /><path
         style="fill:#ffffff"
         d="m 365.851,223.875 2.166,0 5.851,13.393 -2.47,0 -1.349,-3.21 -6.288,0 -1.368,3.21 -2.393,0 5.851,-13.393 z m 3.344,8.111 -2.299,-5.319 -2.28,5.319 4.579,0 z"
         id="path4222"
         inkscape:connector-curvature="0" /><path
         style="fill:#ffffff"
         d="m 376.796,223.97 2.336,0 0,11.17 6.991,0 0,2.128 -9.328,0 0,-13.298 z"
         id="path4224"
         inkscape:connector-curvature="0" /><path
         style="fill:#ffffff"
         d="m 389.203,223.97 2.337,0 0,11.17 6.991,0 0,2.128 -9.328,0 0,-13.298 z"
         id="path4226"
         inkscape:connector-curvature="0" /><path
         style="fill:#ffffff"
         d="m 401.609,223.97 9.859,0 0,2.089 -7.523,0 0,3.458 6.668,0 0,2.09 -6.668,0 0,3.571 7.618,0 0,2.09 -9.954,0 0,-13.298 z"
         id="path4228"
         inkscape:connector-curvature="0" /><path
         style="fill:#ffffff"
         d="m 414.985,223.97 2.165,0 7.125,9.194 0,-9.194 2.298,0 0,13.298 -1.956,0 -7.334,-9.46 0,9.46 -2.298,0 0,-13.298 z"
         id="path4230"
         inkscape:connector-curvature="0" /><path
         style="fill:#ffffff"
         d="m 430.052,230.657 0,-0.038 c 0,-3.724 2.85,-6.877 6.858,-6.877 2.317,0 3.742,0.646 5.109,1.805 l -1.48,1.767 c -1.026,-0.874 -2.033,-1.425 -3.725,-1.425 -2.45,0 -4.312,2.147 -4.312,4.692 l 0,0.038 c 0,2.735 1.805,4.749 4.521,4.749 1.254,0 2.395,-0.399 3.211,-1.007 l 0,-2.488 -3.4,0 0,-2.033 5.661,0 0,5.585 c -1.31,1.121 -3.191,2.071 -5.548,2.071 -4.16,0 -6.895,-2.964 -6.895,-6.839 z"
         id="path4232"
         inkscape:connector-curvature="0" /><path
         style="fill:#ffffff"
         d="m 446.184,223.97 9.859,0 0,2.089 -7.523,0 0,3.458 6.668,0 0,2.09 -6.668,0 0,3.571 7.617,0 0,2.09 -9.953,0 0,-13.298 z"
         id="path4234"
         inkscape:connector-curvature="0" /></g><g
       id="g4236"><path
         style="fill:#ffffff"
         d="m 334.022,246.607 -3.33,0 0,-1.71 8.52,0 0,1.71 -3.33,0 0,8.79 -1.86,0 0,-8.79 z"
         id="path4238"
         inkscape:connector-curvature="0" /><path
         style="fill:#ffffff"
         d="m 342.887,244.897 1.845,0 0,4.365 5.01,0 0,-4.365 1.845,0 0,10.5 -1.845,0 0,-4.425 -5.01,0 0,4.425 -1.845,0 0,-10.5 z"
         id="path4240"
         inkscape:connector-curvature="0" /><path
         style="fill:#ffffff"
         d="m 356.012,244.897 7.785,0 0,1.65 -5.94,0 0,2.73 5.265,0 0,1.65 -5.265,0 0,2.82 6.015,0 0,1.65 -7.859,0 0,-10.5 z"
         id="path4242"
         inkscape:connector-curvature="0" /><path
         style="fill:#ffffff"
         d="m 374.012,244.897 4.14,0 c 2.46,0 3.99,1.395 3.99,3.51 l 0,0.03 c 0,2.355 -1.89,3.585 -4.2,3.585 l -2.085,0 0,3.375 -1.845,0 0,-10.5 z m 3.989,5.459 c 1.395,0 2.265,-0.78 2.265,-1.875 l 0,-0.03 c 0,-1.23 -0.885,-1.875 -2.265,-1.875 l -2.145,0 0,3.78 2.145,0 z"
         id="path4244"
         inkscape:connector-curvature="0" /><path
         style="fill:#ffffff"
         d="m 385.757,244.897 4.68,0 c 1.32,0 2.355,0.39 3.03,1.05 0.555,0.57 0.87,1.35 0.87,2.265 l 0,0.03 c 0,1.725 -1.035,2.76 -2.49,3.18 l 2.835,3.975 -2.19,0 -2.58,-3.66 -2.31,0 0,3.66 -1.845,0 0,-10.5 z m 4.544,5.205 c 1.32,0 2.16,-0.69 2.16,-1.755 l 0,-0.03 c 0,-1.125 -0.81,-1.74 -2.175,-1.74 l -2.685,0 0,3.525 2.7,0 z"
         id="path4246"
         inkscape:connector-curvature="0" /><path
         style="fill:#ffffff"
         d="m 397.861,250.177 0,-0.03 c 0,-2.955 2.28,-5.43 5.505,-5.43 3.226,0 5.476,2.445 5.476,5.4 l 0,0.03 c 0,2.955 -2.281,5.43 -5.506,5.43 -3.225,0 -5.475,-2.446 -5.475,-5.4 z m 9.045,0 0,-0.03 c 0,-2.04 -1.484,-3.735 -3.57,-3.735 -2.084,0 -3.539,1.665 -3.539,3.705 l 0,0.03 c 0,2.04 1.484,3.72 3.569,3.72 2.085,0 3.54,-1.65 3.54,-3.69 z"
         id="path4248"
         inkscape:connector-curvature="0" /><path
         style="fill:#ffffff"
         d="m 412.336,250.177 0,-0.03 c 0,-2.985 2.236,-5.43 5.416,-5.43 1.934,0 3.104,0.675 4.109,1.635 l -1.186,1.365 c -0.84,-0.78 -1.739,-1.305 -2.939,-1.305 -1.994,0 -3.465,1.65 -3.465,3.705 l 0,0.03 c 0,2.055 1.455,3.72 3.465,3.72 1.29,0 2.115,-0.51 3.016,-1.35 l 1.183,1.2 c -1.094,1.14 -2.295,1.86 -4.26,1.86 -3.058,0 -5.339,-2.386 -5.339,-5.4 z"
         id="path4250"
         inkscape:connector-curvature="0" /><path
         style="fill:#ffffff"
         d="m 425.596,244.897 7.785,0 0,1.65 -5.94,0 0,2.73 5.264,0 0,1.65 -5.264,0 0,2.82 6.014,0 0,1.65 -7.859,0 0,-10.5 z"
         id="path4252"
         inkscape:connector-curvature="0" /><path
         style="fill:#ffffff"
         d="m 436.666,253.867 1.109,-1.32 c 1.006,0.87 2.025,1.365 3.315,1.365 1.14,0 1.86,-0.54 1.86,-1.32 l 0,-0.03 c 0,-0.75 -0.42,-1.155 -2.371,-1.605 -2.234,-0.54 -3.494,-1.2 -3.494,-3.135 l 0,-0.03 c 0,-1.8 1.5,-3.045 3.585,-3.045 1.53,0 2.745,0.465 3.81,1.32 l -0.99,1.395 c -0.944,-0.705 -1.89,-1.08 -2.85,-1.08 -1.08,0 -1.71,0.555 -1.71,1.245 l 0,0.03 c 0,0.81 0.479,1.17 2.505,1.65 2.221,0.54 3.359,1.335 3.359,3.075 l 0,0.03 c 0,1.965 -1.545,3.135 -3.749,3.135 -1.604,-0.001 -3.119,-0.555 -4.379,-1.68 z"
         id="path4254"
         inkscape:connector-curvature="0" /><path
         style="fill:#ffffff"
         d="m 447.842,253.867 1.109,-1.32 c 1.005,0.87 2.025,1.365 3.314,1.365 1.141,0 1.86,-0.54 1.86,-1.32 l 0,-0.03 c 0,-0.75 -0.42,-1.155 -2.37,-1.605 -2.234,-0.54 -3.494,-1.2 -3.494,-3.135 l 0,-0.03 c 0,-1.8 1.5,-3.045 3.584,-3.045 1.53,0 2.745,0.465 3.811,1.32 l -0.99,1.395 c -0.945,-0.705 -1.891,-1.08 -2.85,-1.08 -1.08,0 -1.711,0.555 -1.711,1.245 l 0,0.03 c 0,0.81 0.48,1.17 2.506,1.65 2.22,0.54 3.359,1.335 3.359,3.075 l 0,0.03 c 0,1.965 -1.545,3.135 -3.75,3.135 -1.604,-0.001 -3.118,-0.555 -4.378,-1.68 z"
         id="path4256"
         inkscape:connector-curvature="0" /></g></g></svg>