<?xml version="1.0" encoding="UTF-8" standalone="no"?>
<!-- Generator: Adobe Illustrator 18.0.0, SVG Export Plug-In . SVG Version: 6.00 Build 0)  -->

<svg
   xmlns:dc="http://purl.org/dc/elements/1.1/"
   xmlns:cc="http://creativecommons.org/ns#"
   xmlns:rdf="http://www.w3.org/1999/02/22-rdf-syntax-ns#"
   xmlns:svg="http://www.w3.org/2000/svg"
   xmlns="http://www.w3.org/2000/svg"
   xmlns:sodipodi="http://sodipodi.sourceforge.net/DTD/sodipodi-0.dtd"
   xmlns:inkscape="http://www.inkscape.org/namespaces/inkscape"
   version="1.1"
   x="0px"
   y="0px"
   viewBox="0 0 52.199997 67.499998"
   xml:space="preserve"
   id="svg4264"
   inkscape:version="0.91 r13725"
   sodipodi:docname="enable_icon.svg"
   width="0.57999998in"
   height="0.75in"><metadata
     id="metadata4398"><rdf:RDF><cc:Work
         rdf:about=""><dc:format>image/svg+xml</dc:format><dc:type
           rdf:resource="http://purl.org/dc/dcmitype/StillImage" /><dc:title></dc:title></cc:Work></rdf:RDF></metadata><defs
     id="defs4396" /><sodipodi:namedview
     pagecolor="#ffffff"
     bordercolor="#666666"
     borderopacity="1"
     objecttolerance="10"
     gridtolerance="10"
     guidetolerance="10"
     inkscape:pageopacity="0"
     inkscape:pageshadow="2"
     inkscape:window-width="1680"
     inkscape:window-height="1031"
     id="namedview4394"
     showgrid="false"
     inkscape:showpageshadow="false"
     units="in"
     inkscape:zoom="2.1814013"
     inkscape:cx="119.01373"
     inkscape:cy="45.318513"
     inkscape:window-x="-4"
     inkscape:window-y="-4"
     inkscape:window-maximized="1"
     inkscape:current-layer="svg4264" /><g
     id="enable_art"
     transform="matrix(0.33037975,0,0,0.32766831,-103.82712,-67.152016)"><g
       id="g4267"><path
         style="fill:none"
         d="m 465.408,403.339 c -41.292,0 -82.791,0 -123.955,0 -0.138,-0.19 -0.274,-0.382 -0.411,-0.572 l -17.748,0 0,-138.526 138.526,0 0,30.808 c 1.138,0.228 2.445,0.284 3.588,0.506 0,35.927 0,71.851 0,107.784 z"
         id="path4269"
         inkscape:connector-curvature="0" /><path
         style="fill:#e0b6c7"
         d="m 335.961,392.508 c -0.092,-0.263 -0.477,-0.587 -0.677,-0.827 -1.539,-1.858 -2.729,-4.475 -2.22,-7.973 0.044,-0.3 -0.086,-0.825 -0.149,-1.241 -0.055,-0.35 -0.095,-0.774 -0.188,-1.016 -0.109,-0.283 -0.486,-0.486 -0.752,-0.752 -0.536,-0.537 -0.912,-0.994 -1.316,-1.693 -0.173,-0.299 -0.476,-0.71 -0.489,-1.016 -0.01,-0.223 0.218,-0.56 0.339,-0.863 0.593,-1.483 0.97,-2.816 1.278,-4.59 0.115,-0.659 0.326,-1.425 0.263,-2.067 -0.034,-0.368 -0.275,-0.797 -0.413,-1.204 -0.273,-0.805 -0.489,-1.614 -0.602,-2.632 -0.054,-0.492 -0.144,-1.077 -0.075,-1.542 0.057,-0.39 0.289,-0.895 0.451,-1.316 1.137,-2.957 2.696,-5.614 4.249,-8.125 -0.166,-0.685 -0.353,-1.35 -0.525,-2.029 0.442,-0.047 0.817,-0.161 1.278,-0.189 -0.065,-0.348 -0.123,-0.704 -0.188,-1.051 -1.319,-1.137 -2.624,-2.01 -3.009,-3.875 -0.432,-2.087 0.659,-3.301 2.03,-3.873 0.18,-0.076 0.425,-0.115 0.603,-0.227 0.234,-0.146 0.404,-0.568 0.601,-0.751 1.152,-1.069 3.554,-1.447 4.514,-0.038 0.099,0.145 0.164,0.326 0.235,0.509 7.563,-21.955 28.388,-37.737 52.913,-37.737 1.842,0 3.661,0.095 5.458,0.268 0.108,-0.329 0.211,-0.66 0.325,-0.986 0.133,-0.376 0.242,-0.841 0.414,-1.093 0.158,-0.23 0.492,-0.414 0.752,-0.639 1.742,-1.497 3.449,-3.041 5.378,-4.324 -0.108,-0.217 -0.315,-0.335 -0.451,-0.525 -0.449,0.189 -0.846,0.758 -1.278,1.09 -0.607,-0.33 -1.31,-0.749 -1.918,-1.242 -0.192,-0.155 -0.404,-0.428 -0.603,-0.45 -0.395,-0.046 -0.782,0.257 -1.277,0.263 -0.009,-0.383 -0.1,-0.772 -0.151,-1.203 -0.049,-0.412 0.007,-0.93 -0.112,-1.241 -0.145,-0.382 -0.63,-0.349 -0.865,-0.64 -0.197,-1.643 -0.596,-3.236 0,-4.437 0.73,-1.476 2.786,-3.063 4.738,-3.234 1.83,-0.161 3.313,0.585 4.25,1.504 0.999,0.98 1.555,2.383 1.467,4.213 0.454,0.473 0.941,0.915 1.467,1.316 0.99,-0.254 1.956,0.108 2.406,0.639 2.91,-1.167 6.066,-2.208 9.44,-3.047 0.475,-0.117 1.069,-0.352 1.43,-0.338 0.432,0.016 1.17,0.467 1.654,0.678 3.814,1.654 7.197,3.682 10.228,6.055 1.985,-0.357 3.166,0.713 3.648,2.105 1.685,-0.029 2.715,0.594 3.122,1.842 0.626,-0.299 1.129,-0.838 1.692,-1.277 3.627,-2.833 7.461,-5.736 11.545,-8.236 0.333,-0.203 0.743,-0.482 0.978,-0.527 0.811,-0.154 1.701,0.289 2.218,0.641 0.617,0.418 0.995,0.937 1.43,1.428 0.103,0.024 0.217,0.039 0.323,0.06 l 0,-30.808 -138.526,0 0,138.526 17.748,0 c -1.858,-2.585 -3.649,-5.253 -4.705,-8.603 -0.16,-0.515 -0.181,-1.102 -0.376,-1.66 z"
         id="path4271"
         inkscape:connector-curvature="0" /><path
         style="fill:#f9d7b8"
         d="m 341.198,344.126 c 0.032,0.082 0.061,0.164 0.102,0.243 0.228,0.441 0.519,0.814 0.829,1.278 0.137,0.208 0.37,0.44 0.413,0.64 0.066,0.31 -0.105,0.617 -0.038,0.978 0.063,0.336 0.536,0.662 0.79,0.902 0.319,0.301 0.603,0.515 0.865,0.789 -0.133,0.499 -0.766,0.675 -0.789,1.129 -0.026,0.494 0.339,0.9 0.376,1.504 2.33,-0.994 4.771,-1.699 7.484,-2.03 0.546,-0.067 1.289,0.813 1.879,0.901 0.517,0.076 1.154,-0.092 1.692,-0.15 0.574,-0.061 1.131,-0.152 1.656,-0.188 0.332,-1.029 1.623,-1.789 2.97,-1.316 0.276,-0.188 0.481,-0.522 0.829,-0.714 1.141,-0.633 2.748,0.014 3.308,0.864 1.582,-2.314 3.214,-4.837 4.854,-7.295 0.226,-0.34 0.611,-0.796 0.676,-1.129 0.23,-1.18 0.562,-2.449 0.902,-3.61 0.113,-0.386 0.175,-0.858 0.339,-1.165 0.159,-0.301 0.657,-0.637 0.978,-0.903 0.376,-0.313 0.696,-0.539 1.053,-0.79 0.698,-0.489 1.684,-1.198 2.482,-1.242 0.563,-0.028 1.309,0.246 1.881,0.452 0.507,0.183 1.248,0.505 1.316,0.978 0.083,0.588 -0.481,0.961 -0.828,1.241 -0.364,0.294 -0.903,0.601 -1.091,0.979 -0.297,0.603 -0.177,1.044 -0.263,1.954 0.468,-0.152 0.985,-0.412 1.768,-0.488 0.679,-0.066 1.602,-0.004 1.693,0.566 0.131,0.829 -1.157,1.294 -1.506,1.691 -0.268,0.305 -0.378,0.728 -0.639,1.052 -0.696,0.866 -1.792,1.613 -3.196,1.768 -1.239,3.234 -2.561,6.928 -3.799,10.342 -0.182,0.499 -0.292,1.122 -0.527,1.468 -0.184,0.271 -0.697,0.523 -1.054,0.751 -1.102,0.715 -2.168,1.369 -3.27,2.031 -0.416,1.199 -1.398,2.398 -3.085,1.955 -0.282,1.145 -1.814,1.99 -3.158,1.353 -1.363,0.781 -2.722,1.565 -4.1,2.332 -0.508,5.446 -1.833,10.076 -3.385,14.481 3.068,-0.205 6.457,-0.087 9.439,-0.377 2.442,-7.211 7.441,-11.865 14.217,-14.742 4.755,2.832 9.901,5.848 14.78,8.8 0.313,0.189 0.757,0.53 0.977,0.564 0.225,0.035 0.522,-0.075 0.828,-0.111 0.284,-0.035 0.648,-0.006 0.865,-0.076 0.343,-0.109 0.741,-0.711 1.091,-0.977 1.173,-0.896 2.708,-1.4 4.438,-1.769 -0.398,-0.454 -1.132,-0.862 -1.204,-1.617 -0.031,-0.33 0.183,-0.964 0.302,-1.466 2.857,-12.091 6.48,-23.593 11.17,-34.036 0.521,-1.159 1.117,-2.194 1.654,-3.535 0.138,-0.345 0.298,-0.761 0.488,-1.241 0.156,-0.392 0.495,-1.048 0.489,-1.24 -0.006,-0.188 -0.361,-0.605 -0.526,-0.828 -1.302,-1.76 -2.714,-3.664 -3.949,-5.378 -0.194,0.243 -0.34,0.536 -0.526,0.789 0.705,1.87 -0.732,2.958 -2.256,3.197 -0.133,1.353 -1.375,2.409 -2.858,1.806 -2.255,1.693 -4.752,3.487 -7.183,5.19 -0.331,0.23 -0.94,0.505 -1.129,0.791 -0.597,0.899 -1.087,1.83 -1.844,2.857 -0.295,0.4 -0.661,0.849 -1.052,1.316 -0.307,0.364 -0.831,1.22 -1.166,1.279 -1.175,0.208 -2.377,0.29 -3.761,0.339 -0.642,0.021 -1.332,-0.022 -1.955,-0.113 -1.086,-0.158 -2.226,-0.372 -1.919,-1.655 -0.277,-0.345 -0.741,-0.479 -0.715,-1.054 0.034,-0.717 1.018,-0.938 1.805,-0.977 0.538,-0.028 1.19,0.122 1.618,-0.038 0.455,-0.172 0.552,-0.821 0.827,-1.165 -0.523,-0.051 -0.881,-0.211 -1.278,-0.489 -0.295,-0.208 -0.793,-0.546 -0.828,-0.94 -0.037,-0.431 0.283,-0.822 0.564,-1.016 0.554,-0.381 1.324,-0.135 2.069,-0.301 0.294,-0.065 0.676,-0.438 1.015,-0.678 0.969,-0.686 2.044,-1.474 3.535,-1.502 1.558,-2.216 3.025,-4.523 4.513,-6.811 -0.167,-0.521 -0.485,-0.991 -0.489,-1.578 -0.005,-0.919 0.697,-1.754 1.354,-2.068 -0.127,-0.336 -0.078,-0.785 0,-1.09 0.249,-0.979 1.336,-1.631 2.294,-1.918 0.805,-2.337 1.476,-4.803 2.269,-7.212 -1.797,-0.174 -3.616,-0.268 -5.458,-0.268 -24.524,-10e-4 -45.349,15.781 -52.912,37.736 z m 9.618,-3.818 c -1.026,-0.077 -2.066,-0.142 -3.084,-0.226 -0.073,-0.173 0.086,-0.314 0.15,-0.451 4.956,-10.459 13.161,-18.088 24.633,-22.076 0.052,0.089 -0.186,0.15 -0.338,0.226 -4.739,2.345 -8.941,5.507 -12.411,9.176 -3.61,3.818 -6.7,8.248 -8.95,13.351 z m 20.346,-14.48 c -5.096,4.275 -9.287,9.635 -12.223,16.06 -1.927,-0.305 -3.881,-0.583 -5.792,-0.903 -0.05,-0.216 0.138,-0.396 0.225,-0.564 4.92,-9.426 11.798,-17.032 22.113,-21.174 4.203,-1.686 8.991,-2.787 14.743,-2.631 -7.711,1.641 -13.95,4.92 -19.066,9.212 z"
         id="path4273"
         inkscape:connector-curvature="0" /><path
         style="fill:#7c736e"
         d="m 408.281,290.928 c -0.624,-1.021 -1.777,-1.961 -3.422,-2.031 -0.961,-0.039 -1.777,0.256 -2.294,0.678 -0.133,0.107 -0.384,0.275 -0.301,0.376 2.099,-0.909 4.715,0.156 6.017,0.977 z"
         id="path4275"
         inkscape:connector-curvature="0" /><path
         style="fill:#f6dbcb"
         d="m 406.891,297.32 c 0.326,-0.639 0.152,-1.508 0.525,-2.218 0.006,0.769 0.533,1.613 0.526,2.331 -0.004,0.504 -0.343,0.936 -0.375,1.467 0.504,0.625 0.91,1.346 1.767,1.617 0.907,-1.273 1.294,-3.068 1.768,-4.776 -0.815,-0.564 -1.434,-1.324 -2.708,-1.429 0.365,-0.794 0.454,-2.132 -0.188,-2.67 -0.87,-0.73 -2.371,-0.017 -1.955,1.391 -0.359,0.131 -0.661,0.316 -1.016,0.453 -0.225,-0.791 -0.909,-1.558 -1.993,-1.129 0.303,-1.862 -2.13,-1.305 -2.633,-0.49 -0.239,0.391 -0.262,1.094 -0.263,1.58 0,0.556 0.103,1.116 0.226,1.58 0.202,0.123 0.422,0.229 0.601,0.377 0.585,-0.602 1.456,-1.251 2.709,-0.94 -0.566,0.544 -1.746,1.105 -1.392,2.218 0.324,1.02 2.036,1.254 2.18,2.445 0.387,-0.183 0.685,-0.531 1.093,-0.865 0.324,-0.268 0.933,-0.563 1.128,-0.942 z"
         id="path4277"
         inkscape:connector-curvature="0" /><path
         style="fill:#9cc87b"
         d="m 423.663,321.128 c -2.744,-1.53 -5.229,-3.321 -6.957,-5.868 2.777,1.949 5.748,3.705 9.363,4.814 0.166,-0.098 0.362,-0.166 0.528,-0.264 -2.712,-1.375 -5.136,-3.238 -6.694,-5.641 2.623,1.863 5.508,3.468 8.874,4.589 0.24,-0.124 0.498,-0.23 0.715,-0.376 -2.714,-1.26 -4.787,-3.161 -6.468,-5.454 2.198,1.486 4.524,2.847 7.183,3.874 0.075,-0.188 0.038,-0.49 0.113,-0.678 -0.464,-0.264 -1.047,-0.407 -1.467,-0.715 0.008,-0.795 -0.051,-1.302 -0.076,-1.955 -0.017,-0.479 0.064,-1.032 -0.037,-1.467 -0.053,-0.234 -0.338,-0.515 -0.526,-0.789 -1.278,-1.87 -3.032,-3.336 -4.551,-4.664 2.461,0.975 5.186,1.684 7.822,2.482 0.003,-0.35 0.087,-0.615 0.114,-0.941 -2.538,-0.795 -5.155,-1.512 -7.673,-2.331 1.087,-3.275 3.558,-5.167 6.393,-6.694 -1.197,1.323 -2.035,3.005 -2.745,4.814 1.204,-0.902 2.194,-2.344 4.061,-2.707 -1.046,1.027 -0.361,2.932 0.902,3.233 0.722,-1.972 1.942,-3.448 3.31,-4.776 -2.692,-2.072 -5.788,-3.74 -8.875,-5.416 -2.046,1.489 -2.565,4.505 -3.16,7.446 -0.827,-2.673 -0.206,-5.957 0.753,-7.822 0.053,-0.103 0.145,-0.255 0.112,-0.376 -3.737,0.9 -7.235,2.041 -10.455,3.459 -0.323,2.372 -0.745,4.646 -1.128,6.959 -0.517,-0.324 -1.003,-0.678 -1.504,-1.016 -1.621,2.936 -2.626,6.968 -2.107,11.508 0.464,4.052 1.959,7.459 3.536,10.306 3.932,-0.795 7.238,-2.217 10.644,-3.534 z"
         id="path4279"
         inkscape:connector-curvature="0" /><path
         style="fill:#9cc87b"
         d="m 412.493,302.361 c 0.166,-1.307 0.624,-2.902 0.79,-4.363 0.06,-0.517 0.176,-1.298 0.038,-1.617 -0.198,-0.457 -1.222,-0.557 -1.617,-0.151 -0.273,1.759 -0.788,3.274 -1.203,4.89 0.581,0.497 1.344,0.814 1.992,1.241 z"
         id="path4281"
         inkscape:connector-curvature="0" /><path
         style="fill:#9cc87b"
         d="m 432.952,309.844 c 0.447,0.294 0.796,0.686 1.58,0.639 0.37,-3.176 1.658,-5.636 3.874,-6.844 -1.065,1.944 -2.688,4.081 -2.445,7.223 0.034,0.428 0.158,0.777 0.264,1.201 0.431,0.322 0.898,0.607 1.654,0.603 -0.042,-2.317 0.444,-4.106 1.242,-5.754 0.744,-1.538 1.813,-2.909 3.384,-3.423 -0.11,-1.205 -1.798,-1.791 -2.819,-1.166 -0.216,-1.131 -0.567,-2.379 -1.919,-2.256 -0.833,0.076 -1.677,0.881 -2.219,1.504 -1.655,1.908 -3.235,4.972 -2.596,8.273 z"
         id="path4283"
         inkscape:connector-curvature="0" /><path
         style="fill:#48afa2"
         d="m 406.966,300.48 c -0.088,0.1 -0.234,0.141 -0.264,0.301 0.548,1.206 1.17,2.339 1.918,3.348 0.104,-0.563 0.249,-1.08 0.376,-1.619 -0.673,-0.679 -1.245,-1.461 -2.03,-2.03 z"
         id="path4285"
         inkscape:connector-curvature="0" /><path
         style="fill:#939598"
         d="m 369.847,377.014 c 0.101,0.336 0.223,0.652 0.225,1.09 2.59,-0.098 5.215,-0.221 7.598,-0.264 -3.178,0.809 -6.365,1.607 -9.554,2.408 0.326,0.547 0.746,0.428 1.431,0.301 1.92,-0.359 4.037,-0.779 5.791,-1.092 -1.727,0.83 -3.485,1.629 -5.266,2.407 0.232,0.434 0.881,0.772 1.278,1.167 -0.449,0.553 -0.856,1.079 -1.353,1.654 -0.347,0.4 -1.043,1.347 -1.578,1.467 -0.445,0.099 -1.06,0.004 -1.506,-0.038 -1.41,-0.132 -2.619,-0.521 -3.572,-1.053 -0.502,-0.825 -1.011,-1.646 -1.541,-2.444 -0.439,0.188 -1.009,0.246 -1.393,0.488 -0.094,1.084 0.723,1.878 1.354,2.557 4.541,4.888 10.561,8.263 13.953,14.217 26.086,0 52.175,0 78.263,0 -7.886,-10.16 -16.044,-20.447 -23.994,-30.613 -1.138,-1.455 -2.346,-2.846 -3.384,-4.361 5.975,-2.122 11.942,-4.254 17.938,-6.357 4.449,2.64 8.957,5.48 13.352,8.123 0.102,0.065 0.27,0.194 0.413,0.15 -0.111,-0.791 -0.244,-1.561 -0.338,-2.369 -2.186,-1.301 -4.468,-2.703 -6.507,-4.023 2.008,0.248 3.99,0.522 5.979,0.79 0.011,-0.552 -0.177,-1.226 -0.225,-1.843 -1.797,-0.938 -3.839,-1.853 -5.455,-2.821 1.709,0.071 3.472,0.091 5.078,0.264 -0.105,-0.547 -0.164,-1.14 -0.264,-1.692 -1.433,-0.785 -3.134,-1.506 -4.438,-2.295 1.331,-0.085 2.682,-0.15 4.061,-0.188 -0.056,-0.709 -0.221,-1.309 -0.264,-2.031 -1.09,-0.601 -2.473,-1.111 -3.422,-1.728 1.008,-0.05 2.132,-0.17 3.122,-0.113 0.033,-0.695 -0.361,-1.324 -0.301,-1.994 0.025,-0.299 0.301,-0.707 0.45,-1.09 0.913,-2.328 1.762,-4.465 2.671,-6.732 0.152,-0.379 0.407,-0.897 0.413,-1.166 0.005,-0.229 -0.177,-0.561 -0.263,-0.864 -0.463,-1.636 -0.846,-3.019 -1.278,-4.551 -0.149,-0.528 -0.472,-1.376 -0.489,-1.843 -0.013,-0.346 0.174,-0.778 0.263,-1.203 1.33,-6.28 2.578,-12.269 3.911,-18.392 -0.482,-0.079 -0.905,-0.222 -1.429,-0.263 -1.332,5.965 -2.71,12.536 -4.062,18.578 -0.097,0.433 -0.261,0.91 -0.263,1.279 -0.003,0.347 0.143,0.717 0.188,1.092 0.683,5.558 -0.901,10.197 -3.497,13.049 -0.282,0.311 -1.005,1.115 -1.393,1.204 -0.52,0.116 -1.281,0.036 -1.917,0.036 -4.588,0 -9.094,0.26 -13.576,0.264 -0.586,0.92 -0.994,2.016 -1.167,3.348 1.184,-0.572 2.432,-1.405 3.686,-2.03 -0.838,0.962 -1.924,2.095 -2.858,3.12 -0.222,0.244 -0.846,0.811 -0.902,1.092 -0.107,0.525 0.2,1.07 0.189,1.617 1.845,-1.064 3.709,-2.107 5.565,-3.158 -1.203,1.387 -2.648,2.917 -3.948,4.361 -0.264,0.292 -1.204,1.148 -1.278,1.506 -0.069,0.328 0.073,0.59 0.112,0.863 2.341,-1.357 4.712,-2.686 7.07,-4.023 -2.118,2.459 -4.228,4.653 -6.432,7.107 -0.265,0.295 -0.667,0.932 -0.939,1.016 -0.208,0.063 -0.654,0.023 -0.979,0.037 -0.355,0.017 -0.728,0 -1.053,0 -4.256,0 -8.29,-0.021 -12.373,0.151 -0.692,0.028 -1.512,-0.108 -2.03,0.075 -0.274,0.095 -0.466,0.433 -0.639,0.676 -0.637,0.893 -0.651,2.021 -0.302,3.234 0.372,1.298 1.17,2.674 1.278,4.1 0.099,1.309 -0.315,2.268 -0.902,2.82 -0.568,0.535 -1.302,0.944 -1.918,1.392 -1.969,1.434 -3.732,2.776 -5.755,4.176 -1.506,-1.275 -2.951,-2.478 -4.476,-3.762 -0.333,-0.28 -1.132,-1.155 -1.542,-1.241 -0.496,-0.104 -1.298,0.053 -1.955,0.076 -10.029,0.35 -19.459,0.855 -28.732,1.354 2.21,-0.486 4.292,-1.098 6.506,-1.58 -0.242,-0.446 -0.469,-0.909 -0.79,-1.277 -1.938,0.124 -3.83,0.268 -5.678,0.337 1.744,-0.485 3.468,-0.995 5.228,-1.466 -0.088,-0.477 -0.284,-0.844 -0.376,-1.316 -1.572,0.07 -3.274,0.211 -4.776,0.225 1.504,-0.426 2.95,-0.91 4.476,-1.316 -0.226,-0.361 -0.358,-1.332 -0.79,-1.467 -0.209,-0.063 -0.6,0.057 -0.902,0.075 -0.962,0.063 -1.936,0.132 -2.707,0.151 1.004,-0.322 1.992,-0.664 3.008,-0.977 -0.256,-0.473 -0.88,-0.902 -1.43,-1.205 -5.565,2.847 -10.307,6.517 -12.373,12.863 0.679,-0.5 1.521,-0.908 2.558,-0.903 1.829,0.005 3.349,1.066 5.116,0.787 z m 74.388,14.327 c 2.113,2.272 4.268,4.676 6.393,6.997 0.02,0.021 0.175,0.117 0.075,0.187 -21.288,0 -42.571,0 -63.858,0 0.519,-0.349 1.194,-0.25 1.767,-0.263 9.599,-0.23 19.198,-1.001 28.32,-1.881 7.354,-0.708 14.421,-1.678 20.946,-3.233 2.182,-0.521 4.359,-1.162 6.357,-1.807 z m -30.049,0.564 c 8.593,-1.728 16.933,-3.712 23.053,-7.784 1.433,1.6 2.938,3.33 4.251,4.927 -15.472,4.602 -33.852,7.467 -54.344,6.544 9.183,-0.866 18.425,-1.953 27.04,-3.687 z"
         id="path4287"
         inkscape:connector-curvature="0" /><path
         style="fill:#9cc87b"
         d="m 400.158,316.088 c -0.621,-0.43 -1.425,-0.841 -2.182,-0.902 -1.022,-0.084 -1.354,0.208 -1.429,1.09 1.142,0.275 2.208,0.796 2.933,1.505 0.249,0.242 0.552,0.567 0.603,0.94 -0.942,0.045 -1.832,-1.049 -2.783,-1.055 -0.198,0 -0.624,0.098 -0.978,0.152 -0.89,0.138 -1.564,0.572 -1.392,1.541 0.245,-0.088 0.393,-0.286 0.677,-0.377 0.736,-0.231 1.98,-0.023 2.633,0.189 0.405,0.132 0.911,0.502 1.315,0.789 1.225,0.871 2.33,2.17 2.596,3.799 0.188,-0.05 0.296,-0.18 0.527,-0.188 0.183,-1.171 -0.372,-2.104 -0.452,-3.01 0.828,0.113 0.938,0.943 1.542,1.279 0.129,-0.222 0.311,-0.392 0.414,-0.64 -0.48,-2.078 -2.339,-3.95 -4.024,-5.112 z"
         id="path4289"
         inkscape:connector-curvature="0" /><path
         d="m 375.486,319.246 c -10.315,4.142 -17.193,11.748 -22.113,21.174 -0.088,0.168 -0.275,0.349 -0.225,0.564 1.911,0.32 3.865,0.599 5.792,0.903 2.936,-6.425 7.127,-11.784 12.223,-16.06 5.116,-4.292 11.355,-7.571 19.067,-9.213 -5.753,-0.155 -10.541,0.947 -14.744,2.632 z"
         id="path4291"
         inkscape:connector-curvature="0" /><path
         style="fill:#f6dbcb"
         d="m 391.81,329.891 c 2.706,-2.685 5.486,-5.293 8.124,-8.049 -0.85,-1.032 -2.145,-1.617 -3.987,-1.655 -1.857,2.349 -3.505,4.972 -5.228,7.523 -0.224,0.332 -0.552,0.949 -0.865,0.977 -0.205,0.02 -0.485,-0.17 -0.64,-0.187 -0.903,-0.107 -1.605,0.374 -2.105,0.789 -0.524,0.435 -0.856,0.787 -1.506,1.016 -0.612,0.216 -1.249,0.31 -2.104,0.45 0.762,0.875 2.355,0.965 3.761,0.641 0.757,-0.176 1.417,-0.631 2.031,-0.227 -0.218,0.723 -0.714,1.288 -1.092,1.881 -0.392,0.617 -0.71,1.267 -1.166,1.842 -0.318,0.324 -2.295,0.458 -2.068,1.242 0.072,0.249 0.606,0.275 0.941,0.301 2.572,0.201 3.525,-1.83 4.436,-3.346 0.498,-0.828 0.978,-1.793 1.617,-2.334 0.306,-0.256 0.733,-0.424 1.092,-0.677 0.343,-0.241 0.678,-0.505 1.015,-0.751 2.023,-1.479 3.96,-3.316 6.018,-4.588 0.519,-0.32 1.006,-0.543 0.639,-1.316 -2.991,2.11 -5.982,4.422 -8.913,6.468 z"
         id="path4293"
         inkscape:connector-curvature="0" /><path
         style="fill:#f9d7b8"
         d="m 437.465,335.156 c -0.19,-0.477 -0.791,-0.705 -0.826,-1.394 -0.013,-0.229 0.088,-0.466 0.188,-0.714 0.12,-0.299 0.274,-0.467 0.076,-0.602 -0.035,-0.023 -0.113,0.034 -0.151,0.038 -3.64,0.337 -8.217,0.683 -11.846,1.165 -2.789,3.531 -5.441,7.267 -7.937,11.095 -0.358,0.55 -0.96,1.198 -1.054,1.692 -0.146,0.772 0.218,1.568 0,2.294 -0.084,0.288 -0.626,0.664 -0.901,0.94 -0.267,0.266 -0.818,0.574 -0.903,0.939 -0.12,0.526 0.208,1.229 0.076,1.806 -0.049,0.214 -0.422,0.532 -0.64,0.789 -3.37,3.99 -4.754,9.8 -6.055,15.721 -0.482,0.408 -1.183,0.599 -1.843,0.829 -0.028,0.477 0.061,0.84 0.037,1.314 0.726,-0.014 1.179,0.091 1.844,0.076 2.587,-3.756 5.063,-7.623 7.709,-11.321 3.504,-0.067 7.044,-0.101 10.605,-0.112 1.505,-4.915 3.577,-9.904 6.019,-14.065 0.197,-0.339 0.835,-1.634 1.164,-1.73 0.194,-0.057 0.643,0.04 0.941,0.074 0.953,0.114 1.898,0.286 2.708,0.302 0,-1.796 0,-3.942 0,-5.79 0,-0.671 -0.113,-1.42 0,-1.957 0.105,-0.494 0.667,-0.934 0.789,-1.389 z"
         id="path4295"
         inkscape:connector-curvature="0" /><path
         style="fill:#b59775"
         d="m 364.355,350.688 c 0.595,1.523 1.009,3.228 1.053,5.303 1.167,-0.563 2.242,-1.217 3.385,-1.806 1.416,-4.036 2.849,-8.058 4.325,-12.034 1.717,-0.091 2.714,-0.531 3.384,-1.506 0.184,-0.266 0.269,-0.613 0.489,-0.863 0.405,-0.462 1.117,-0.424 1.354,-1.055 -0.573,-0.349 -1.249,0.074 -1.729,0.302 -0.549,0.261 -1.099,0.555 -1.542,0.827 -0.332,-0.811 0.007,-2.012 0.038,-2.781 -0.258,0.117 -0.537,0.215 -0.828,0.301 -0.299,-0.254 -0.43,-0.674 -0.752,-0.903 -0.342,0.171 -0.636,0.392 -0.978,0.564 -0.176,-0.287 -0.387,-0.541 -0.602,-0.789 -0.237,0.088 -0.485,0.166 -0.752,0.226 -0.317,1.034 -0.625,2.003 -0.864,3.046 -0.084,0.365 -0.072,0.778 -0.189,1.127 -0.103,0.315 -0.394,0.645 -0.601,0.98 -1.454,2.343 -2.884,4.701 -4.25,6.992 1.567,0.728 2.754,2.035 2.595,4.363 -0.791,-1.154 -1.61,-2.279 -3.536,-2.294 z"
         id="path4297"
         inkscape:connector-curvature="0" /><path
         style="fill:#2e0c00"
         d="m 336.6,348.318 c 0.163,-2.282 0.903,-3.988 3.009,-4.326 -1.121,-0.932 -2.824,0.176 -3.121,1.167 -1.309,0.296 -2.597,1.121 -2.406,2.819 0.05,0.45 0.236,0.841 0.488,1.168 -0.132,-1.662 0.485,-2.866 1.805,-3.199 -0.198,0.748 -0.219,1.869 0.225,2.371 z"
         id="path4299"
         inkscape:connector-curvature="0" /><path
         style="fill:#b59775"
         d="m 337.277,353.32 c 1.042,0.074 1.935,0.297 2.82,0.526 0,-0.164 0,-0.326 0,-0.489 -0.809,-0.393 -1.62,-0.986 -1.917,-1.768 1.129,0.381 2.93,0.723 4.174,0.225 0.053,-1.292 -0.08,-2.402 -0.489,-3.233 -0.57,0.108 -1.163,0.19 -1.691,0.338 -0.058,-1.285 0.779,-1.675 1.429,-2.256 -0.467,-0.601 -0.846,-1.285 -1.353,-1.843 -1.335,-0.147 -2.716,0.961 -1.656,1.843 -0.815,0.585 -0.555,1.694 0.038,2.294 -0.385,0.217 -0.686,0.518 -1.053,0.753 -0.645,-0.82 -2.162,-0.505 -2.143,0.601 0.016,0.896 0.858,1.289 1.692,1.468 0.01,0.553 0.134,0.991 0.149,1.541 z"
         id="path4301"
         inkscape:connector-curvature="0" /><path
         style="fill:#8bcde4"
         d="m 344.234,355.803 c -0.258,3.098 -0.441,6.768 -0.301,10.266 0.948,0.808 1.842,1.832 2.632,2.896 0.238,0.32 0.687,0.791 0.753,1.129 0.11,0.555 -0.037,1.037 0.038,1.617 0.523,0.795 1.158,1.557 1.767,2.405 0.595,0.83 1.303,1.627 1.354,2.821 0.011,0.252 -0.135,0.56 0.075,0.678 0.227,-0.025 0.221,-0.35 0.264,-0.488 0.987,-3.207 2.059,-6.59 2.594,-10.156 0.606,-4.026 0.372,-8.594 -0.713,-11.959 1.162,1.482 1.923,3.367 2.557,5.378 0.761,-0.354 1.696,-0.858 2.481,-1.315 0.517,-2.205 0.373,-5.564 -0.338,-7.296 1.622,1.449 2.401,4.058 2.105,7.183 0.267,0.398 1.018,0.565 1.581,0.339 0.42,-2.329 -0.207,-4.973 -0.264,-7.183 0.475,1.775 0.869,3.301 1.654,4.889 0.198,0.398 0.594,1.248 1.016,1.203 0.398,-0.042 0.746,-1.088 0.789,-1.655 0.024,-0.309 0.037,-0.855 0,-1.278 -0.064,-0.723 -0.44,-1.953 -0.715,-3.009 -0.275,-1.064 -0.608,-2.075 -1.015,-2.632 -0.763,-1.048 -2.288,-0.834 -2.708,0.488 -0.855,-0.986 -2.685,-0.267 -2.821,0.902 -1.076,0.168 -2.2,0.27 -3.271,0.414 -0.357,0.047 -0.81,0.198 -1.091,0.15 -0.246,-0.041 -0.571,-0.367 -0.827,-0.526 -0.289,-0.181 -0.609,-0.46 -0.902,-0.489 -0.481,-0.047 -1.156,0.247 -1.653,0.377 -1.707,0.441 -3.056,0.969 -4.476,1.616 0.911,0.98 1.887,1.899 2.293,3.385 -0.937,-0.041 -1.993,-0.162 -2.858,-0.15 z"
         id="path4303"
         inkscape:connector-curvature="0" /><path
         style="fill:#8bcde4"
         d="m 346.266,355.275 c -0.473,-0.721 -1.293,-1.621 -2.031,-2.256 -0.222,-0.191 -0.561,-0.588 -0.827,-0.603 -0.295,-0.016 -0.539,0.326 -0.865,0.302 0.184,0.594 0.392,1.162 0.526,1.805 1.179,0.113 2.276,0.508 3.197,0.752 z"
         id="path4305"
         inkscape:connector-curvature="0" /><path
         style="fill:#8bcde4"
         d="m 334.945,372.086 c 0.111,0.244 0.115,0.595 0.189,0.865 0.546,2.027 1.356,3.641 2.481,5.115 1.193,-1.176 2.518,-2.221 4.138,-2.971 -1.154,-1.429 -3.348,-2.145 -5.304,-2.896 2.354,-0.277 4.28,0.402 5.905,1.09 0.053,-0.128 -0.118,-0.201 -0.189,-0.263 -1.656,-1.482 -3.591,-2.782 -5.717,-3.724 2.505,0.104 4.191,1.023 5.905,1.92 -0.016,-0.292 0.236,-0.627 0.188,-0.979 -0.051,-0.365 -0.628,-1.058 -0.903,-1.43 -0.964,-1.311 -2.333,-2.649 -4.21,-2.783 -1.598,-0.114 -2.927,0.104 -3.763,0.789 -0.194,0.162 -0.288,0.418 -0.564,0.49 -0.346,-0.671 -0.5,-1.531 -0.451,-2.596 0.823,-0.705 2.547,-0.855 3.986,-0.602 0.104,-0.521 -0.272,-0.607 -0.565,-0.827 -0.629,-0.475 -1.319,-0.962 -1.73,-1.354 0.817,0.199 1.624,0.408 2.483,0.564 0.089,-0.161 0.158,-0.344 0.226,-0.525 -0.598,-0.545 -1.332,-0.951 -1.918,-1.506 0.813,0.203 1.622,0.408 2.481,0.564 0.129,-0.01 0.324,-0.277 0.452,-0.412 -0.682,-0.512 -1.532,-1.053 -2.069,-1.581 0.793,0.171 1.752,0.418 2.558,0.603 0.264,0.061 0.587,0.178 0.752,-0.076 -0.748,-0.73 -1.834,-1.326 -2.52,-1.994 1.028,0.252 2.058,0.5 3.122,0.715 -0.15,-1.518 -1.329,-2.006 -2.482,-2.519 2.503,0.04 4.121,0.968 5.64,1.992 -0.12,-0.681 -0.203,-1.399 -0.301,-2.106 -1.776,-0.727 -3.822,-1.713 -6.394,-1.277 0.089,0.5 0.202,0.977 0.301,1.467 -1.525,2.472 -3.069,4.92 -4.212,7.785 -0.168,0.42 -0.395,0.897 -0.45,1.279 -0.086,0.57 -0.031,0.928 0,1.466 0.118,2.103 0.884,3.436 1.88,4.587 0.243,0.28 0.913,0.817 1.055,1.13 z"
         id="path4307"
         inkscape:connector-curvature="0" /><path
         style="fill:#939598"
         d="m 436.488,369.98 c 3.006,-2.184 5.898,-4.482 8.913,-6.656 -0.577,-0.564 -1.254,-1.027 -1.919,-1.505 -2.344,2.708 -4.664,5.44 -6.994,8.161 z"
         id="path4309"
         inkscape:connector-curvature="0" /><path
         style="fill:#8bcde4"
         d="m 337.953,364.828 c 2.42,0.983 4.401,2.925 6.244,4.625 0.256,0.236 0.688,0.635 0.752,0.829 0.14,0.415 -0.026,1.013 0.075,1.391 0.37,0.364 0.732,0.777 1.129,1.204 0.339,0.363 0.778,0.932 1.203,1.127 0.323,0.148 0.712,0.126 1.09,0.302 0.014,-0.122 -0.107,-0.249 -0.189,-0.34 -0.571,-0.621 -1.145,-1.138 -1.728,-1.767 -0.213,-0.229 -0.603,-0.522 -0.679,-0.752 -0.149,-0.461 0.048,-0.885 -0.075,-1.392 -2.127,-2.222 -4.073,-4.626 -7.784,-5.266 -0.022,0.003 -0.045,0.007 -0.038,0.039 z"
         id="path4311"
         inkscape:connector-curvature="0" /><path
         style="fill:#939598"
         d="m 452.472,368.664 c -0.668,-0.446 -1.254,-0.979 -1.919,-1.43 -2.33,2.697 -4.647,5.406 -6.957,8.123 2.98,-2.207 5.952,-4.426 8.876,-6.693 z"
         id="path4313"
         inkscape:connector-curvature="0" /><path
         style="fill:#939598"
         d="m 454.014,369.906 c -2.284,2.629 -4.539,5.289 -6.809,7.934 2.929,-2.148 5.818,-4.337 8.689,-6.543 -0.651,-0.44 -1.213,-0.969 -1.88,-1.391 z"
         id="path4315"
         inkscape:connector-curvature="0" /><path
         style="fill:#8bcde4"
         d="m 336.977,379.232 c -0.958,-1.36 -1.859,-2.939 -2.445,-4.626 -0.21,-0.606 -0.229,-1.306 -0.489,-1.88 -0.216,-0.479 -0.775,-0.863 -0.978,-1.354 -0.18,1.697 -0.574,3.34 -1.052,4.851 -0.138,0.435 -0.507,1.122 -0.49,1.466 0.023,0.423 0.627,1.117 0.903,1.43 1.131,1.281 2.741,2.01 4.663,2.369 -0.257,-0.547 -0.312,-1.59 -0.112,-2.256 z"
         id="path4317"
         inkscape:connector-curvature="0" /><path
         style="fill:#8bcde4"
         d="m 342.956,385.1 c 0.795,-3.996 3.156,-6.422 6.469,-7.9 -0.024,-2.063 -1.822,-2.463 -3.912,-2.33 -1.671,0.107 -3.384,0.619 -4.737,1.58 -0.618,0.438 -1.111,0.939 -1.619,1.467 -0.656,0.683 -1.429,1.63 -1.239,2.82 0.043,0.277 0.646,1.268 0.902,1.24 0.095,-0.009 0.509,-0.584 0.677,-0.751 1.715,-1.716 3.5,-3.258 6.354,-3.687 -0.967,0.48 -1.971,1.336 -2.857,2.333 -0.849,0.953 -1.725,1.974 -1.956,3.271 -0.227,1.269 0.742,1.888 1.918,1.957 z"
         id="path4319"
         inkscape:connector-curvature="0" /><path
         style="fill:#b59775"
         d="m 346.642,380.773 c -1.072,1.257 -2.147,2.684 -2.482,4.514 0.254,0.186 0.426,0.537 0.752,0.564 0.205,0.018 0.697,-0.208 1.054,-0.301 5.362,-1.397 11.084,-2.787 16.321,-4.061 0.623,0.883 1.143,1.867 1.806,2.708 0.223,0.063 0.536,-0.084 0.79,-0.112 -0.057,-0.357 -0.14,-0.688 -0.188,-1.053 0.538,0.022 0.998,-0.031 1.504,-0.038 -0.099,-0.364 -0.18,-0.747 -0.301,-1.091 0.361,-0.166 0.791,-0.263 1.166,-0.414 -0.318,-0.619 -0.913,-2.029 -0.074,-2.52 0.709,-0.416 2.449,0.022 2.218,-1.24 -0.687,-0.041 -1.279,-0.01 -1.917,-0.15 -0.597,-0.133 -1.178,-0.424 -1.769,-0.49 -1.018,-0.111 -1.661,0.262 -2.219,0.602 -0.414,0.254 -0.83,0.711 -1.166,0.791 -0.221,0.052 -0.491,-0.01 -0.715,0 -4.127,0.174 -8.519,0.122 -12.636,0.414 -0.935,0.467 -1.494,1.116 -2.144,1.877 z"
         id="path4321"
         inkscape:connector-curvature="0" /><path
         style="fill:#f9d7b8"
         d="m 352.771,384.911 c 0.225,0.417 0.549,0.793 0.865,1.165 2.18,2.573 4.362,5.306 6.581,7.786 0.051,0.056 0.082,0.279 0.227,0.186 -0.491,-3.508 -0.875,-7.123 -1.355,-10.643 -2.034,0.423 -4.186,1.056 -6.318,1.506 z"
         id="path4323"
         inkscape:connector-curvature="0" /><path
         d="m 441.49,389.048 c -1.313,-1.597 -2.818,-3.327 -4.251,-4.927 -6.12,4.072 -14.46,6.057 -23.053,7.784 -8.615,1.733 -17.857,2.82 -27.04,3.686 20.493,0.924 38.873,-1.941 54.344,-6.543 z"
         id="path4325"
         inkscape:connector-curvature="0" /><path
         style="fill:#939598"
         d="m 369.996,396.306 c -2.479,-2.598 -5.01,-5.143 -7.559,-7.671 -0.002,-0.04 -0.049,-0.029 -0.038,0.037 0.669,3.443 1.148,7.075 1.88,10.455 0.137,-2.17 0.217,-4.397 0.452,-6.469 0.626,2.432 1.24,5.092 1.88,7.522 0.042,0.159 0.087,0.384 0.15,0.339 0.149,0.02 0.07,-0.19 0.075,-0.227 0.241,-1.7 0.398,-3.622 0.715,-5.189 0.537,2.383 1.079,4.764 1.691,7.071 0.204,-2.006 0.471,-3.945 0.754,-5.868 z"
         id="path4327"
         inkscape:connector-curvature="0" /><path
         d="m 416.933,396.381 c -9.122,0.88 -18.722,1.651 -28.32,1.881 -0.572,0.013 -1.248,-0.086 -1.767,0.263 21.287,0 42.57,0 63.858,0 0.1,-0.069 -0.056,-0.166 -0.075,-0.187 -2.125,-2.321 -4.28,-4.725 -6.393,-6.997 -1.998,0.645 -4.176,1.286 -6.357,1.807 -6.526,1.555 -13.593,2.525 -20.946,3.233 z"
         id="path4329"
         inkscape:connector-curvature="0" /><path
         d="m 461.497,294.988 c -0.435,-0.49 -0.813,-1.01 -1.43,-1.428 -0.517,-0.352 -1.407,-0.795 -2.218,-0.641 -0.235,0.045 -0.645,0.324 -0.978,0.527 -4.084,2.5 -7.918,5.403 -11.545,8.236 -0.564,0.439 -1.066,0.979 -1.692,1.277 -0.407,-1.248 -1.438,-1.871 -3.122,-1.842 -0.482,-1.393 -1.663,-2.463 -3.648,-2.105 -3.031,-2.373 -6.414,-4.4 -10.228,-6.055 -0.484,-0.211 -1.223,-0.662 -1.654,-0.678 -0.36,-0.014 -0.955,0.221 -1.43,0.338 -3.374,0.839 -6.53,1.88 -9.44,3.047 -0.45,-0.53 -1.416,-0.893 -2.406,-0.639 -0.525,-0.401 -1.013,-0.844 -1.467,-1.316 0.088,-1.83 -0.468,-3.233 -1.467,-4.213 -0.937,-0.919 -2.42,-1.665 -4.25,-1.504 -1.952,0.172 -4.008,1.759 -4.738,3.234 -0.596,1.201 -0.197,2.795 0,4.437 0.235,0.291 0.72,0.258 0.865,0.64 0.119,0.312 0.063,0.829 0.112,1.241 0.052,0.431 0.142,0.82 0.151,1.203 0.495,-0.006 0.882,-0.309 1.277,-0.263 0.198,0.022 0.41,0.295 0.603,0.45 0.608,0.493 1.311,0.912 1.918,1.242 0.433,-0.332 0.829,-0.9 1.278,-1.09 0.136,0.19 0.343,0.309 0.451,0.525 -1.929,1.283 -3.636,2.827 -5.378,4.324 -0.26,0.225 -0.594,0.408 -0.752,0.639 -0.172,0.252 -0.281,0.717 -0.414,1.093 -0.114,0.326 -0.217,0.657 -0.325,0.986 -0.794,2.409 -1.465,4.875 -2.269,7.212 -0.958,0.287 -2.045,0.939 -2.294,1.918 -0.078,0.305 -0.127,0.754 0,1.09 -0.657,0.314 -1.359,1.149 -1.354,2.068 0.004,0.587 0.322,1.057 0.489,1.578 -1.487,2.287 -2.955,4.595 -4.513,6.811 -1.491,0.028 -2.566,0.815 -3.535,1.502 -0.339,0.24 -0.721,0.612 -1.015,0.678 -0.745,0.166 -1.516,-0.08 -2.069,0.301 -0.281,0.193 -0.602,0.585 -0.564,1.016 0.035,0.395 0.533,0.732 0.828,0.94 0.397,0.278 0.755,0.439 1.278,0.489 -0.275,0.344 -0.372,0.993 -0.827,1.165 -0.428,0.16 -1.08,0.01 -1.618,0.038 -0.787,0.039 -1.771,0.26 -1.805,0.977 -0.026,0.575 0.438,0.709 0.715,1.054 -0.307,1.283 0.833,1.497 1.919,1.655 0.623,0.091 1.313,0.135 1.955,0.113 1.384,-0.049 2.586,-0.131 3.761,-0.339 0.335,-0.06 0.859,-0.915 1.166,-1.279 0.391,-0.467 0.757,-0.915 1.052,-1.316 0.757,-1.027 1.247,-1.958 1.844,-2.857 0.189,-0.286 0.798,-0.56 1.129,-0.791 2.431,-1.702 4.928,-3.496 7.183,-5.19 1.483,0.604 2.726,-0.453 2.858,-1.806 1.524,-0.239 2.961,-1.327 2.256,-3.197 0.186,-0.253 0.332,-0.546 0.526,-0.789 1.235,1.714 2.647,3.618 3.949,5.378 0.165,0.223 0.521,0.641 0.526,0.828 0.006,0.192 -0.333,0.848 -0.489,1.24 -0.19,0.48 -0.351,0.896 -0.488,1.241 -0.537,1.341 -1.134,2.376 -1.654,3.535 -4.689,10.443 -8.313,21.945 -11.17,34.036 -0.119,0.502 -0.333,1.136 -0.302,1.466 0.072,0.755 0.806,1.163 1.204,1.617 -1.73,0.368 -3.265,0.872 -4.438,1.769 -0.35,0.266 -0.748,0.867 -1.091,0.977 -0.217,0.07 -0.581,0.041 -0.865,0.076 -0.306,0.036 -0.603,0.147 -0.828,0.111 -0.22,-0.033 -0.664,-0.375 -0.977,-0.564 -4.879,-2.952 -10.025,-5.968 -14.78,-8.8 -6.775,2.877 -11.774,7.531 -14.217,14.742 -2.982,0.29 -6.371,0.172 -9.439,0.377 1.552,-4.404 2.877,-9.034 3.385,-14.481 1.378,-0.767 2.736,-1.551 4.1,-2.332 1.344,0.637 2.876,-0.209 3.158,-1.353 1.688,0.442 2.669,-0.756 3.085,-1.955 1.102,-0.662 2.168,-1.316 3.27,-2.031 0.357,-0.228 0.87,-0.48 1.054,-0.751 0.235,-0.346 0.346,-0.969 0.527,-1.468 1.237,-3.414 2.559,-7.107 3.799,-10.342 1.404,-0.155 2.5,-0.902 3.196,-1.768 0.261,-0.323 0.371,-0.747 0.639,-1.052 0.349,-0.397 1.637,-0.862 1.506,-1.691 -0.092,-0.57 -1.015,-0.633 -1.693,-0.566 -0.782,0.076 -1.3,0.336 -1.768,0.488 0.086,-0.91 -0.034,-1.352 0.263,-1.954 0.187,-0.378 0.726,-0.685 1.091,-0.979 0.347,-0.28 0.911,-0.653 0.828,-1.241 -0.068,-0.473 -0.81,-0.795 -1.316,-0.978 -0.572,-0.206 -1.318,-0.48 -1.881,-0.452 -0.799,0.044 -1.784,0.753 -2.482,1.242 -0.356,0.251 -0.677,0.477 -1.053,0.79 -0.32,0.267 -0.818,0.603 -0.978,0.903 -0.164,0.307 -0.226,0.779 -0.339,1.165 -0.341,1.161 -0.672,2.431 -0.902,3.61 -0.064,0.333 -0.45,0.789 -0.676,1.129 -1.64,2.458 -3.272,4.98 -4.854,7.295 -0.56,-0.851 -2.167,-1.497 -3.308,-0.864 -0.348,0.191 -0.553,0.526 -0.829,0.714 -1.347,-0.473 -2.638,0.287 -2.97,1.316 -0.525,0.035 -1.082,0.127 -1.656,0.188 -0.538,0.059 -1.176,0.227 -1.692,0.15 -0.59,-0.088 -1.333,-0.969 -1.879,-0.901 -2.713,0.331 -5.154,1.036 -7.484,2.03 -0.037,-0.604 -0.402,-1.01 -0.376,-1.504 0.023,-0.454 0.656,-0.63 0.789,-1.129 -0.263,-0.274 -0.546,-0.488 -0.865,-0.789 -0.254,-0.24 -0.727,-0.566 -0.79,-0.902 -0.067,-0.361 0.104,-0.669 0.038,-0.978 -0.043,-0.199 -0.276,-0.432 -0.413,-0.64 -0.311,-0.464 -0.601,-0.837 -0.829,-1.278 -0.041,-0.079 -0.069,-0.161 -0.102,-0.243 -0.071,-0.183 -0.137,-0.364 -0.235,-0.509 -0.96,-1.409 -3.361,-1.031 -4.514,0.038 -0.196,0.183 -0.366,0.604 -0.601,0.751 -0.178,0.111 -0.423,0.15 -0.603,0.227 -1.371,0.572 -2.462,1.786 -2.03,3.873 0.385,1.865 1.69,2.738 3.009,3.875 0.065,0.347 0.122,0.703 0.188,1.051 -0.461,0.028 -0.836,0.143 -1.278,0.189 0.173,0.68 0.359,1.345 0.525,2.029 -1.553,2.511 -3.112,5.168 -4.249,8.125 -0.162,0.422 -0.395,0.927 -0.451,1.316 -0.068,0.465 0.021,1.05 0.075,1.542 0.112,1.018 0.328,1.827 0.602,2.632 0.138,0.407 0.379,0.836 0.413,1.204 0.064,0.643 -0.147,1.408 -0.263,2.067 -0.309,1.773 -0.686,3.107 -1.278,4.59 -0.121,0.303 -0.349,0.641 -0.339,0.863 0.014,0.306 0.316,0.717 0.489,1.016 0.404,0.699 0.78,1.156 1.316,1.693 0.266,0.266 0.643,0.469 0.752,0.752 0.094,0.241 0.134,0.666 0.188,1.016 0.063,0.416 0.193,0.941 0.149,1.241 -0.51,3.498 0.681,6.114 2.22,7.973 0.199,0.24 0.585,0.564 0.677,0.827 0.195,0.559 0.216,1.146 0.376,1.655 1.056,3.351 2.847,6.018 4.705,8.603 0.137,0.19 0.273,0.382 0.411,0.572 41.164,0 82.663,0 123.955,0 0,-35.933 0,-71.856 0,-107.784 -1.143,-0.222 -2.45,-0.278 -3.588,-0.506 -0.107,-0.015 -0.22,-0.029 -0.324,-0.054 z m -16.659,8.689 c 1.197,-1.331 2.811,-2.362 4.249,-3.535 2.43,-1.982 4.889,-4.194 7.822,-5.829 0.349,-0.193 0.996,-0.618 1.279,-0.64 0.484,-0.036 1.16,0.413 1.504,0.677 0.464,0.357 0.757,0.717 0.902,1.277 -0.074,0.215 -0.322,0.256 -0.452,0.416 -0.516,-0.62 -1.065,-1.635 -2.104,-1.504 -0.467,0.057 -1.368,0.783 -1.732,1.088 -0.563,0.477 -0.946,1.069 -1.24,1.543 0.814,-0.438 1.516,-1.083 2.558,-1.504 0.348,-0.141 1.058,-0.367 1.165,0.15 0.129,0.609 -0.688,0.861 -1.054,1.166 -0.223,0.186 -0.525,0.536 -0.563,0.677 -0.395,1.451 -1.057,3.167 -3.047,3.009 -0.465,-0.037 -0.938,-0.26 -1.466,-0.15 -0.341,0.07 -0.892,0.791 -1.204,1.09 -2.741,2.633 -5.61,5.254 -8.198,7.785 0.338,0.878 0.673,1.76 0.978,2.67 2.499,-2.853 4.917,-5.788 7.371,-8.685 -2.315,3.176 -4.841,6.467 -7.259,9.664 -1.493,-0.436 -2.93,-0.932 -4.4,-1.391 -0.551,-1.336 -0.233,-3.29 0.376,-4.401 0.741,0.313 0.762,1.345 1.729,1.43 0.624,-1.951 1.545,-3.623 2.786,-5.003 z m 3.459,19.444 c -0.194,-0.523 -0.986,-1.395 -1.579,-1.58 -0.6,-0.187 -1.295,-0.246 -1.956,-0.377 -4.442,-0.873 -9.168,-1.79 -13.576,-2.67 0.042,-0.756 0.179,-1.48 0.264,-2.219 0.025,-0.225 0.11,-0.605 0.075,-0.752 -0.049,-0.189 -0.548,-0.484 -0.715,-0.602 -0.29,-0.201 -0.561,-0.324 -0.79,-0.527 0.023,-1.578 -0.086,-2.982 -0.075,-4.587 0.529,0.11 1.025,0.253 1.541,0.376 0.268,1.459 1.677,2.938 3.423,2.219 0.872,0.705 2.578,1.625 4.023,0.978 0.325,-0.146 0.523,-0.354 0.865,-0.526 1.635,0.572 3.368,1.045 5.003,1.617 3.055,-4.252 6.062,-8.557 9.102,-12.825 1.314,-0.013 2.084,-0.773 2.857,-1.204 -0.146,2.258 -0.302,4.297 -0.302,6.772 0,0.759 -0.161,1.658 0,2.33 0.088,0.363 0.644,0.67 0.978,0.979 0.313,0.289 0.903,0.724 0.94,1.016 0.027,0.213 -0.184,0.746 -0.263,1.09 -1.266,5.588 -2.39,11.117 -3.61,16.661 -0.474,0.179 -0.89,0.384 -1.354,0.563 -0.441,0.172 -1.002,0.248 -1.392,0.49 -0.253,0.158 -0.544,0.668 -0.789,0.977 -0.767,0.971 -1.684,2.102 -2.369,2.971 -0.055,-0.016 0.005,-0.031 0,-0.073 0.78,-3.216 0.761,-8.251 -0.301,-11.097 z m -10.53,-23.055 c 1.352,-0.123 1.703,1.125 1.919,2.256 1.022,-0.625 2.709,-0.039 2.819,1.166 -1.571,0.514 -2.64,1.885 -3.384,3.423 -0.798,1.647 -1.284,3.437 -1.242,5.754 -0.757,0.005 -1.224,-0.28 -1.654,-0.603 -0.105,-0.424 -0.229,-0.773 -0.264,-1.201 -0.242,-3.142 1.38,-5.278 2.445,-7.223 -2.216,1.208 -3.504,3.668 -3.874,6.844 -0.784,0.047 -1.133,-0.345 -1.58,-0.639 -0.64,-3.301 0.94,-6.365 2.596,-8.273 0.542,-0.623 1.386,-1.427 2.219,-1.504 z m -24.446,-3.685 c 0.138,0.319 0.022,1.1 -0.038,1.617 -0.166,1.461 -0.624,3.057 -0.79,4.363 -0.648,-0.428 -1.411,-0.744 -1.992,-1.242 0.415,-1.615 0.931,-3.131 1.203,-4.89 0.396,-0.405 1.419,-0.305 1.617,0.152 z m -10.756,-6.807 c 0.517,-0.422 1.333,-0.717 2.294,-0.678 1.645,0.07 2.798,1.01 3.422,2.031 -1.302,-0.82 -3.918,-1.886 -6.017,-0.978 -0.082,-0.099 0.169,-0.267 0.301,-0.375 z m 3.198,8.688 c -0.408,0.334 -0.706,0.683 -1.093,0.865 -0.143,-1.191 -1.855,-1.426 -2.18,-2.445 -0.355,-1.113 0.825,-1.674 1.392,-2.218 -1.253,-0.311 -2.124,0.338 -2.709,0.94 -0.179,-0.148 -0.398,-0.254 -0.601,-0.377 -0.123,-0.464 -0.226,-1.024 -0.226,-1.58 10e-4,-0.486 0.023,-1.189 0.263,-1.58 0.503,-0.815 2.936,-1.372 2.633,0.49 1.084,-0.429 1.768,0.338 1.993,1.129 0.354,-0.137 0.656,-0.322 1.016,-0.453 -0.416,-1.407 1.085,-2.121 1.955,-1.391 0.643,0.538 0.554,1.876 0.188,2.67 1.274,0.104 1.893,0.865 2.708,1.429 -0.475,1.708 -0.861,3.503 -1.768,4.776 -0.857,-0.272 -1.263,-0.992 -1.767,-1.617 0.032,-0.531 0.371,-0.963 0.375,-1.467 0.007,-0.718 -0.521,-1.563 -0.526,-2.331 -0.373,0.71 -0.199,1.579 -0.525,2.218 -0.195,0.379 -0.804,0.674 -1.128,0.942 z m 2.857,5.867 c -0.748,-1.009 -1.37,-2.142 -1.918,-3.348 0.029,-0.16 0.176,-0.201 0.264,-0.301 0.785,0.568 1.357,1.351 2.03,2.029 -0.127,0.54 -0.272,1.057 -0.376,1.62 z m -8.537,20.609 c -2.058,1.271 -3.994,3.108 -6.018,4.588 -0.337,0.246 -0.672,0.51 -1.015,0.751 -0.358,0.253 -0.786,0.421 -1.092,0.677 -0.639,0.541 -1.119,1.506 -1.617,2.334 -0.911,1.516 -1.864,3.547 -4.436,3.346 -0.335,-0.025 -0.869,-0.052 -0.941,-0.301 -0.227,-0.784 1.75,-0.918 2.068,-1.242 0.456,-0.575 0.774,-1.225 1.166,-1.842 0.378,-0.593 0.874,-1.158 1.092,-1.881 -0.614,-0.404 -1.274,0.051 -2.031,0.227 -1.405,0.324 -2.999,0.234 -3.761,-0.641 0.855,-0.141 1.492,-0.234 2.104,-0.45 0.65,-0.229 0.982,-0.581 1.506,-1.016 0.501,-0.415 1.202,-0.897 2.105,-0.789 0.154,0.017 0.434,0.206 0.64,0.187 0.314,-0.027 0.642,-0.645 0.865,-0.977 1.723,-2.551 3.37,-5.174 5.228,-7.523 1.843,0.038 3.138,0.623 3.987,1.655 -2.638,2.756 -5.418,5.363 -8.124,8.049 2.932,-2.046 5.923,-4.357 8.912,-6.469 0.368,0.774 -0.119,0.997 -0.638,1.317 z m 3.686,-2.896 c -0.604,-0.336 -0.714,-1.166 -1.542,-1.279 0.08,0.905 0.635,1.839 0.452,3.01 -0.231,0.008 -0.339,0.138 -0.527,0.188 -0.266,-1.629 -1.371,-2.928 -2.596,-3.799 -0.404,-0.287 -0.91,-0.657 -1.315,-0.789 -0.652,-0.213 -1.896,-0.421 -2.633,-0.189 -0.283,0.091 -0.432,0.289 -0.677,0.377 -0.172,-0.969 0.502,-1.403 1.392,-1.541 0.353,-0.055 0.779,-0.152 0.978,-0.152 0.951,0.006 1.841,1.1 2.783,1.055 -0.051,-0.373 -0.354,-0.698 -0.603,-0.94 -0.725,-0.709 -1.791,-1.229 -2.933,-1.505 0.074,-0.882 0.406,-1.174 1.429,-1.09 0.757,0.062 1.56,0.473 2.182,0.902 1.685,1.162 3.544,3.034 4.024,5.114 -0.104,0.246 -0.286,0.416 -0.414,0.638 z m -1.054,-14.856 c -0.192,-0.26 -0.447,-0.77 -0.602,-0.791 -0.225,-0.027 -0.477,0.547 -0.602,0.867 -0.274,0.703 -0.327,1.418 -0.264,2.369 0.099,1.457 0.762,2.977 0.49,4.361 -0.072,0.365 -0.602,1.23 -0.904,1.278 -0.256,0.042 -0.897,-0.311 -1.239,-0.45 -0.44,-0.181 -0.73,-0.337 -1.166,-0.489 0.851,-2.608 1.709,-5.235 2.557,-7.897 0.12,-0.379 0.185,-0.826 0.338,-1.129 0.178,-0.348 0.723,-0.756 1.092,-1.09 0.826,-0.751 1.59,-1.258 2.444,-1.918 0.404,-0.313 0.763,-0.674 1.203,-0.865 0.467,1.59 1.12,2.991 1.769,4.4 -0.646,-0.468 -1.317,-0.99 -1.806,-1.654 -0.144,-0.195 -0.198,-0.547 -0.489,-0.565 -0.223,0.252 -0.056,0.662 0,0.94 0.18,0.898 0.516,1.824 0.79,2.633 -0.007,0.032 0.014,0.035 0.037,0.038 -0.635,-0.435 -1.397,-0.993 -1.88,-1.729 -0.163,-0.25 -0.191,-0.618 -0.526,-0.717 -0.333,0.238 -0.103,0.757 -0.038,1.093 0.222,1.138 0.577,2.389 1.09,3.195 -0.961,-0.317 -1.624,-0.968 -2.294,-1.88 z m 6.769,7.371 c -0.519,-4.54 0.486,-8.572 2.107,-11.508 0.501,0.338 0.987,0.691 1.504,1.016 0.383,-2.313 0.805,-4.587 1.128,-6.959 3.22,-1.418 6.718,-2.559 10.455,-3.459 0.032,0.121 -0.06,0.273 -0.112,0.376 -0.959,1.865 -1.58,5.15 -0.753,7.822 0.595,-2.941 1.114,-5.957 3.16,-7.446 3.087,1.676 6.183,3.344 8.875,5.416 -1.367,1.328 -2.588,2.805 -3.31,4.776 -1.264,-0.302 -1.948,-2.206 -0.902,-3.233 -1.867,0.363 -2.857,1.805 -4.061,2.707 0.71,-1.81 1.548,-3.491 2.745,-4.814 -2.836,1.527 -5.307,3.419 -6.393,6.694 2.517,0.819 5.135,1.536 7.673,2.331 -0.027,0.326 -0.111,0.592 -0.114,0.941 -2.636,-0.799 -5.361,-1.508 -7.822,-2.482 1.518,1.328 3.272,2.794 4.551,4.664 0.188,0.274 0.474,0.555 0.526,0.789 0.101,0.435 0.02,0.988 0.037,1.467 0.025,0.653 0.084,1.16 0.076,1.955 0.42,0.308 1.003,0.451 1.467,0.715 -0.075,0.188 -0.038,0.49 -0.113,0.678 -2.658,-1.027 -4.984,-2.388 -7.183,-3.874 1.681,2.293 3.754,4.194 6.468,5.454 -0.217,0.146 -0.475,0.252 -0.715,0.376 -3.366,-1.121 -6.251,-2.726 -8.874,-4.589 1.559,2.402 3.982,4.266 6.694,5.641 -0.166,0.098 -0.362,0.166 -0.528,0.264 -3.615,-1.109 -6.586,-2.865 -9.363,-4.814 1.728,2.547 4.213,4.338 6.957,5.868 -3.406,1.317 -6.712,2.739 -10.643,3.535 -1.578,-2.848 -3.073,-6.255 -3.537,-10.307 z m -11.282,53.104 c 3.545,-15.058 8.121,-29.088 14.366,-41.444 6.349,-1.405 12.35,-3.782 17.488,-6.469 0.04,-0.022 0.066,-0.09 0.15,-0.075 4.698,0.82 9.544,1.853 14.291,2.744 0.635,0.121 1.312,0.162 1.843,0.564 1.545,2.649 1.517,7.793 0.978,11.658 -0.07,0.508 -0.088,1.077 -0.226,1.469 -0.133,0.379 -0.588,0.676 -0.827,0.9 0.204,-1.978 0.489,-4.393 0.489,-6.844 0,-2.379 -0.013,-4.902 -0.978,-6.318 -0.166,-0.244 -0.404,-0.45 -0.676,-0.565 0.009,1.894 -1.032,3.325 -2.032,4.477 -0.883,1.015 -1.964,1.866 -2.971,2.594 0.965,0 1.93,0 2.895,0 0.078,0.085 -0.204,0.247 -0.339,0.34 -1.086,0.746 -2.353,1.582 -3.422,2.368 1.306,-0.086 2.579,-0.204 3.91,-0.263 0.044,0.095 -0.096,0.139 -0.15,0.188 -1.145,1.043 -2.509,2.153 -3.647,3.233 0.135,2.318 0.162,4.83 0.3,7.033 -0.479,0.461 -1.057,1.025 -1.579,1.316 -0.241,-2.411 -0.346,-5.232 -0.189,-7.709 0.288,-0.661 1.107,-1.09 1.017,-1.92 -0.072,-0.65 -0.775,-0.857 -1.017,-1.428 0.152,-0.677 0.486,-1.169 0.604,-1.881 -0.329,-0.32 -0.855,-0.143 -1.279,-0.113 -3.203,0.225 -6.557,0.576 -9.704,0.865 0.208,-2.213 1.23,-3.608 1.843,-5.416 -0.836,0.566 -1.473,1.369 -2.144,2.107 -4.649,5.119 -8.52,11.207 -12.485,17.072 -0.054,0.71 0.2,1.544 0.037,2.221 -0.087,0.357 -0.686,0.837 -0.979,1.127 -0.339,0.34 -0.929,0.777 -1.015,1.092 -0.16,0.581 0.18,1.152 0.039,1.768 -0.058,0.242 -0.409,0.551 -0.603,0.826 -2.96,4.241 -4.525,9.495 -5.717,15.571 -2.538,1.257 -6.615,0.367 -8.271,-1.088 z m 38.474,-28.957 c 0,1.848 0,3.994 0,5.79 -0.81,-0.016 -1.755,-0.188 -2.708,-0.302 -0.298,-0.034 -0.746,-0.131 -0.941,-0.074 -0.329,0.096 -0.967,1.391 -1.164,1.73 -2.441,4.161 -4.514,9.15 -6.019,14.065 -3.561,0.012 -7.102,0.045 -10.605,0.112 -2.646,3.698 -5.122,7.565 -7.709,11.321 -0.665,0.015 -1.118,-0.09 -1.844,-0.076 0.023,-0.475 -0.065,-0.837 -0.037,-1.314 0.66,-0.23 1.36,-0.421 1.843,-0.829 1.301,-5.921 2.685,-11.73 6.055,-15.721 0.218,-0.257 0.591,-0.575 0.64,-0.789 0.132,-0.577 -0.196,-1.279 -0.076,-1.806 0.085,-0.365 0.637,-0.674 0.903,-0.939 0.275,-0.276 0.817,-0.652 0.901,-0.94 0.218,-0.725 -0.146,-1.522 0,-2.294 0.094,-0.494 0.695,-1.143 1.054,-1.692 2.496,-3.828 5.147,-7.564 7.937,-11.095 3.629,-0.482 8.206,-0.828 11.846,-1.165 0.038,-0.004 0.116,-0.062 0.151,-0.038 0.198,0.135 0.044,0.303 -0.076,0.602 -0.1,0.248 -0.2,0.484 -0.188,0.714 0.035,0.689 0.636,0.917 0.826,1.394 -0.122,0.455 -0.684,0.895 -0.789,1.391 -0.113,0.535 0,1.284 0,1.955 z m -62.129,25.76 c 0.55,0.303 1.174,0.732 1.43,1.205 -1.016,0.313 -2.004,0.654 -3.008,0.977 0.771,-0.02 1.745,-0.088 2.707,-0.151 0.303,-0.018 0.693,-0.139 0.902,-0.075 0.433,0.135 0.564,1.105 0.79,1.467 -1.525,0.406 -2.972,0.891 -4.476,1.316 1.502,-0.014 3.204,-0.154 4.776,-0.225 0.092,0.473 0.288,0.84 0.376,1.316 -1.76,0.471 -3.483,0.98 -5.228,1.466 1.848,-0.068 3.74,-0.213 5.678,-0.337 0.321,0.368 0.548,0.831 0.79,1.277 -2.214,0.482 -4.296,1.094 -6.506,1.58 9.273,-0.499 18.703,-1.004 28.732,-1.354 0.657,-0.023 1.459,-0.18 1.955,-0.076 0.41,0.086 1.209,0.961 1.542,1.241 1.524,1.284 2.97,2.486 4.476,3.762 2.023,-1.399 3.786,-2.742 5.755,-4.176 0.616,-0.447 1.35,-0.856 1.918,-1.392 0.588,-0.553 1.001,-1.512 0.902,-2.82 -0.108,-1.426 -0.906,-2.802 -1.278,-4.1 -0.35,-1.213 -0.335,-2.342 0.302,-3.234 0.173,-0.243 0.364,-0.581 0.639,-0.676 0.519,-0.184 1.339,-0.047 2.03,-0.075 4.083,-0.173 8.117,-0.151 12.373,-0.151 0.325,0 0.697,0.017 1.053,0 0.324,-0.014 0.77,0.026 0.979,-0.037 0.272,-0.084 0.675,-0.721 0.939,-1.016 2.203,-2.454 4.313,-4.648 6.432,-7.107 -2.358,1.338 -4.729,2.667 -7.07,4.023 -0.039,-0.273 -0.182,-0.535 -0.112,-0.863 0.074,-0.357 1.015,-1.214 1.278,-1.506 1.3,-1.444 2.745,-2.975 3.948,-4.361 -1.857,1.051 -3.721,2.095 -5.565,3.158 0.012,-0.547 -0.295,-1.092 -0.189,-1.617 0.057,-0.281 0.681,-0.848 0.902,-1.092 0.935,-1.025 2.021,-2.158 2.858,-3.12 -1.254,0.625 -2.502,1.458 -3.686,2.03 0.173,-1.332 0.581,-2.428 1.167,-3.348 4.482,-0.004 8.988,-0.264 13.576,-0.264 0.636,0 1.398,0.08 1.917,-0.036 0.388,-0.089 1.11,-0.893 1.393,-1.204 2.596,-2.852 4.18,-7.491 3.497,-13.049 -0.045,-0.375 -0.19,-0.745 -0.188,-1.092 0.002,-0.369 0.166,-0.847 0.263,-1.279 1.352,-6.042 2.73,-12.613 4.062,-18.578 0.523,0.041 0.946,0.184 1.429,0.263 -1.333,6.123 -2.581,12.111 -3.911,18.392 -0.089,0.425 -0.275,0.857 -0.263,1.203 0.018,0.467 0.34,1.314 0.489,1.843 0.433,1.532 0.816,2.915 1.278,4.551 0.086,0.304 0.267,0.635 0.263,0.864 -0.006,0.269 -0.261,0.787 -0.413,1.166 -0.909,2.268 -1.758,4.404 -2.671,6.732 -0.149,0.383 -0.425,0.791 -0.45,1.09 -0.061,0.67 0.334,1.299 0.301,1.994 -0.99,-0.057 -2.114,0.064 -3.122,0.113 0.949,0.617 2.332,1.128 3.422,1.728 0.043,0.723 0.208,1.322 0.264,2.031 -1.38,0.037 -2.73,0.103 -4.061,0.188 1.304,0.789 3.005,1.51 4.438,2.295 0.1,0.553 0.159,1.146 0.264,1.692 -1.607,-0.173 -3.369,-0.192 -5.078,-0.264 1.616,0.969 3.658,1.884 5.455,2.821 0.048,0.617 0.235,1.291 0.225,1.843 -1.989,-0.268 -3.972,-0.542 -5.979,-0.79 2.039,1.32 4.321,2.723 6.507,4.023 0.094,0.809 0.227,1.578 0.338,2.369 -0.144,0.044 -0.311,-0.086 -0.413,-0.15 -4.395,-2.643 -8.902,-5.483 -13.352,-8.123 -5.996,2.104 -11.963,4.235 -17.938,6.357 1.038,1.516 2.246,2.906 3.384,4.361 7.95,10.166 16.108,20.453 23.994,30.613 -26.088,0 -52.177,0 -78.263,0 -3.392,-5.954 -9.412,-9.329 -13.953,-14.217 -0.631,-0.679 -1.447,-1.473 -1.354,-2.557 0.384,-0.242 0.953,-0.301 1.393,-0.488 0.53,0.799 1.039,1.619 1.541,2.444 0.953,0.532 2.162,0.921 3.572,1.053 0.446,0.042 1.061,0.137 1.506,0.038 0.535,-0.12 1.231,-1.066 1.578,-1.467 0.497,-0.575 0.904,-1.102 1.353,-1.654 -0.397,-0.395 -1.046,-0.732 -1.278,-1.167 1.78,-0.778 3.538,-1.577 5.266,-2.407 -1.754,0.313 -3.871,0.733 -5.791,1.092 -0.685,0.127 -1.105,0.246 -1.431,-0.301 3.188,-0.801 6.376,-1.6 9.554,-2.408 -2.383,0.043 -5.008,0.166 -7.598,0.264 -0.002,-0.438 -0.124,-0.754 -0.225,-1.09 -1.767,0.279 -3.286,-0.781 -5.115,-0.79 -1.036,-0.005 -1.879,0.403 -2.558,0.903 2.065,-6.344 6.807,-10.014 12.372,-12.86 z m 72.658,13.576 c 2.27,-2.645 4.524,-5.305 6.809,-7.934 0.667,0.422 1.229,0.951 1.881,1.391 -2.872,2.206 -5.761,4.394 -8.69,6.543 z m -0.149,-13.313 c 0.625,0.479 1.234,0.972 1.881,1.43 -2.916,2.285 -5.93,4.475 -8.876,6.73 2.225,-2.675 4.628,-5.499 6.995,-8.16 z m -10.568,5.453 c 2.33,-2.722 4.649,-5.453 6.994,-8.161 0.665,0.478 1.342,0.94 1.919,1.505 -3.014,2.175 -5.907,4.473 -8.913,6.656 z m 14.065,-2.746 c 0.665,0.451 1.251,0.983 1.919,1.43 -2.924,2.267 -5.895,4.486 -8.876,6.693 2.309,-2.716 4.627,-5.425 6.957,-8.123 z m 6.92,5.303 c 0.629,0.451 1.215,0.942 1.844,1.393 -2.784,2.18 -5.68,4.248 -8.462,6.431 2.063,-2.601 4.451,-5.203 6.618,-7.824 z m -89.921,22.566 c -0.317,1.567 -0.474,3.489 -0.715,5.189 -0.005,0.037 0.074,0.246 -0.075,0.227 -0.064,0.045 -0.108,-0.18 -0.15,-0.339 -0.64,-2.43 -1.254,-5.09 -1.88,-7.522 -0.235,2.072 -0.315,4.299 -0.452,6.469 -0.731,-3.38 -1.211,-7.012 -1.88,-10.455 -0.011,-0.066 0.036,-0.077 0.038,-0.037 2.549,2.528 5.08,5.073 7.559,7.671 -0.283,1.924 -0.55,3.862 -0.753,5.868 -0.613,-2.308 -1.155,-4.689 -1.692,-7.071 z m -7.108,-1.054 c -0.145,0.093 -0.176,-0.131 -0.227,-0.186 -2.219,-2.48 -4.401,-5.213 -6.581,-7.786 -0.316,-0.372 -0.641,-0.748 -0.865,-1.165 2.132,-0.45 4.283,-1.083 6.318,-1.505 0.48,3.519 0.864,7.134 1.355,10.642 z m 0.977,-15.569 c 0.224,-0.01 0.494,0.052 0.715,0 0.336,-0.08 0.752,-0.537 1.166,-0.791 0.558,-0.34 1.2,-0.713 2.219,-0.602 0.591,0.066 1.172,0.357 1.769,0.49 0.638,0.141 1.23,0.109 1.917,0.15 0.231,1.263 -1.509,0.824 -2.218,1.24 -0.839,0.49 -0.244,1.9 0.074,2.52 -0.375,0.151 -0.805,0.248 -1.166,0.414 0.121,0.344 0.202,0.727 0.301,1.091 -0.506,0.007 -0.966,0.061 -1.504,0.038 0.049,0.365 0.132,0.695 0.188,1.053 -0.254,0.028 -0.567,0.176 -0.79,0.112 -0.663,-0.841 -1.183,-1.825 -1.806,-2.708 -5.237,1.274 -10.959,2.664 -16.321,4.061 -0.356,0.093 -0.849,0.319 -1.054,0.301 -0.326,-0.026 -0.498,-0.378 -0.752,-0.564 0.336,-1.83 1.41,-3.257 2.482,-4.514 0.65,-0.762 1.209,-1.41 2.144,-1.879 4.117,-0.289 8.509,-0.238 12.636,-0.412 z m -20.383,4.663 c 0.231,-1.297 1.107,-2.317 1.956,-3.271 0.886,-0.997 1.89,-1.853 2.857,-2.333 -2.854,0.429 -4.64,1.971 -6.354,3.687 -0.168,0.167 -0.582,0.742 -0.677,0.751 -0.257,0.027 -0.859,-0.963 -0.902,-1.24 -0.19,-1.19 0.583,-2.138 1.239,-2.82 0.508,-0.527 1.001,-1.029 1.619,-1.467 1.354,-0.961 3.066,-1.473 4.737,-1.58 2.09,-0.133 3.888,0.268 3.912,2.33 -3.313,1.478 -5.674,3.904 -6.469,7.9 -1.176,-0.069 -2.145,-0.688 -1.918,-1.957 z m 4.737,-13.087 c 0.123,0.507 -0.074,0.931 0.075,1.392 0.076,0.23 0.466,0.523 0.679,0.752 0.583,0.629 1.157,1.145 1.728,1.767 0.082,0.091 0.202,0.218 0.189,0.34 -0.378,-0.176 -0.767,-0.153 -1.09,-0.302 -0.425,-0.195 -0.864,-0.764 -1.203,-1.127 -0.397,-0.427 -0.759,-0.84 -1.129,-1.204 -0.102,-0.378 0.065,-0.976 -0.075,-1.391 -0.064,-0.194 -0.496,-0.593 -0.752,-0.829 -1.843,-1.7 -3.824,-3.642 -6.244,-4.625 -0.007,-0.032 0.016,-0.036 0.038,-0.038 3.711,0.639 5.657,3.043 7.784,5.265 z m 19.521,-21.439 c 1.366,-2.291 2.796,-4.649 4.25,-6.992 0.207,-0.336 0.497,-0.666 0.601,-0.98 0.116,-0.349 0.105,-0.762 0.189,-1.127 0.239,-1.043 0.547,-2.012 0.864,-3.046 0.267,-0.06 0.515,-0.138 0.752,-0.226 0.216,0.248 0.427,0.502 0.602,0.789 0.342,-0.172 0.636,-0.393 0.978,-0.564 0.322,0.229 0.453,0.649 0.752,0.903 0.291,-0.086 0.57,-0.184 0.828,-0.301 -0.031,0.77 -0.37,1.971 -0.038,2.781 0.443,-0.272 0.993,-0.566 1.542,-0.827 0.48,-0.228 1.156,-0.65 1.729,-0.302 -0.236,0.631 -0.948,0.593 -1.354,1.055 -0.22,0.25 -0.305,0.598 -0.489,0.863 -0.67,0.975 -1.667,1.415 -3.384,1.506 -1.477,3.977 -2.909,7.998 -4.325,12.034 -1.143,0.589 -2.218,1.243 -3.385,1.806 -0.044,-2.074 -0.458,-3.779 -1.053,-5.303 1.926,0.016 2.744,1.141 3.535,2.293 0.16,-2.327 -1.027,-3.633 -2.594,-4.362 z m -16.021,2.334 c 0.497,-0.13 1.172,-0.424 1.653,-0.377 0.293,0.029 0.613,0.309 0.902,0.489 0.256,0.159 0.581,0.485 0.827,0.526 0.281,0.048 0.733,-0.104 1.091,-0.15 1.071,-0.144 2.195,-0.246 3.271,-0.414 0.137,-1.17 1.966,-1.889 2.821,-0.902 0.42,-1.322 1.945,-1.536 2.708,-0.488 0.406,0.557 0.739,1.568 1.015,2.632 0.275,1.056 0.651,2.286 0.715,3.009 0.037,0.423 0.024,0.97 0,1.278 -0.043,0.567 -0.391,1.613 -0.789,1.655 -0.422,0.045 -0.817,-0.805 -1.016,-1.203 -0.785,-1.588 -1.18,-3.113 -1.654,-4.889 0.057,2.21 0.684,4.853 0.264,7.183 -0.564,0.226 -1.315,0.06 -1.581,-0.339 0.296,-3.125 -0.483,-5.733 -2.105,-7.183 0.711,1.731 0.855,5.091 0.338,7.296 -0.785,0.457 -1.721,0.961 -2.481,1.315 -0.634,-2.011 -1.395,-3.896 -2.557,-5.378 1.085,3.365 1.319,7.933 0.713,11.959 -0.535,3.566 -1.607,6.949 -2.594,10.156 -0.043,0.139 -0.037,0.463 -0.264,0.488 -0.21,-0.118 -0.064,-0.426 -0.075,-0.678 -0.052,-1.194 -0.76,-1.991 -1.354,-2.821 -0.608,-0.849 -1.244,-1.61 -1.767,-2.405 -0.075,-0.58 0.072,-1.063 -0.038,-1.617 -0.066,-0.338 -0.515,-0.809 -0.753,-1.129 -0.79,-1.064 -1.684,-2.089 -2.632,-2.896 -0.141,-3.498 0.043,-7.168 0.301,-10.266 0.864,-0.012 1.921,0.109 2.858,0.149 -0.406,-1.485 -1.382,-2.404 -2.293,-3.385 1.421,-0.646 2.769,-1.173 4.476,-1.615 z m -5.868,1.466 c 0.267,0.015 0.605,0.411 0.827,0.603 0.738,0.635 1.559,1.535 2.031,2.256 -0.921,-0.244 -2.018,-0.64 -3.197,-0.752 -0.135,-0.642 -0.343,-1.211 -0.526,-1.805 0.326,0.024 0.57,-0.318 0.865,-0.302 z m -8.838,-3.27 c -0.252,-0.327 -0.438,-0.718 -0.488,-1.168 -0.19,-1.698 1.098,-2.523 2.406,-2.819 0.297,-0.991 2,-2.099 3.121,-1.167 -2.105,0.338 -2.846,2.044 -3.009,4.326 -0.443,-0.502 -0.423,-1.623 -0.226,-2.371 -1.318,0.332 -1.935,1.536 -1.804,3.199 z m 0.866,1.164 c -0.019,-1.105 1.499,-1.421 2.143,-0.601 0.367,-0.235 0.668,-0.536 1.053,-0.753 -0.593,-0.6 -0.853,-1.709 -0.038,-2.294 -1.06,-0.882 0.321,-1.989 1.656,-1.843 0.508,0.558 0.887,1.242 1.353,1.843 -0.649,0.581 -1.486,0.971 -1.429,2.256 0.528,-0.147 1.121,-0.229 1.691,-0.338 0.409,0.831 0.542,1.941 0.489,3.233 -1.244,0.498 -3.045,0.156 -4.174,-0.225 0.297,0.781 1.108,1.374 1.917,1.768 0,0.163 0,0.325 0,0.489 -0.886,-0.229 -1.778,-0.452 -2.82,-0.526 -0.016,-0.551 -0.14,-0.988 -0.15,-1.542 -0.833,-0.178 -1.676,-0.571 -1.691,-1.467 z m -3.422,16.059 c -0.031,-0.538 -0.086,-0.896 0,-1.466 0.056,-0.383 0.282,-0.859 0.45,-1.279 1.143,-2.865 2.686,-5.314 4.212,-7.785 -0.099,-0.49 -0.212,-0.967 -0.301,-1.467 2.571,-0.435 4.617,0.551 6.394,1.277 0.098,0.707 0.181,1.426 0.301,2.106 -1.519,-1.024 -3.137,-1.952 -5.64,-1.992 1.152,0.513 2.332,1.001 2.482,2.519 -1.064,-0.215 -2.094,-0.463 -3.122,-0.715 0.686,0.668 1.772,1.264 2.52,1.994 -0.165,0.254 -0.488,0.137 -0.752,0.076 -0.806,-0.185 -1.765,-0.432 -2.558,-0.603 0.537,0.528 1.388,1.069 2.069,1.581 -0.128,0.135 -0.323,0.402 -0.452,0.412 -0.859,-0.156 -1.669,-0.361 -2.481,-0.564 0.586,0.555 1.32,0.961 1.918,1.506 -0.067,0.182 -0.137,0.364 -0.226,0.525 -0.859,-0.156 -1.666,-0.365 -2.483,-0.564 0.411,0.393 1.102,0.88 1.73,1.354 0.293,0.221 0.669,0.307 0.565,0.827 -1.44,-0.254 -3.163,-0.104 -3.986,0.602 -0.049,1.064 0.105,1.925 0.451,2.596 0.275,-0.072 0.369,-0.328 0.564,-0.49 0.836,-0.685 2.165,-0.903 3.763,-0.789 1.877,0.135 3.246,1.473 4.21,2.783 0.275,0.372 0.852,1.064 0.903,1.43 0.049,0.352 -0.203,0.687 -0.188,0.979 -1.714,-0.897 -3.4,-1.816 -5.905,-1.92 2.126,0.941 4.061,2.242 5.717,3.724 0.07,0.062 0.241,0.135 0.189,0.263 -1.625,-0.688 -3.551,-1.367 -5.905,-1.09 1.956,0.752 4.149,1.468 5.304,2.896 -1.62,0.75 -2.944,1.795 -4.138,2.971 -1.125,-1.475 -1.936,-3.088 -2.481,-5.115 -0.073,-0.271 -0.077,-0.621 -0.189,-0.865 -0.143,-0.313 -0.813,-0.85 -1.053,-1.129 -0.999,-1.151 -1.764,-2.485 -1.882,-4.588 z m 0.413,12.749 c -0.276,-0.313 -0.88,-1.007 -0.903,-1.43 -0.017,-0.344 0.353,-1.031 0.49,-1.466 0.478,-1.511 0.872,-3.153 1.052,-4.851 0.202,0.49 0.762,0.875 0.978,1.354 0.261,0.574 0.279,1.273 0.489,1.88 0.586,1.687 1.487,3.266 2.445,4.626 -0.199,0.666 -0.145,1.709 0.112,2.256 -1.922,-0.359 -3.532,-1.088 -4.663,-2.369 z m 4.212,12.035 c -1.407,-1.524 -3.221,-3.826 -2.481,-6.77 0.065,-0.265 0.246,-0.52 0.264,-0.791 0.037,-0.629 -0.385,-1.143 -0.415,-1.805 1.175,0.468 2.353,0.521 3.424,1.016 0.665,0.309 1.267,0.834 2.218,0.715 0.345,1.623 1.375,2.762 3.385,2.595 0.492,0.311 0.943,0.661 1.43,0.977 2.272,-0.599 4.551,-1.191 6.845,-1.768 0.216,-0.01 0.37,0.352 0.563,0.488 -2.424,0.763 -5.021,1.348 -7.635,1.919 -0.533,-0.308 -0.935,-0.745 -1.467,-1.054 -0.813,0.204 -1.599,-0.114 -2.068,-0.488 -0.634,0.645 -1.209,1.347 -1.806,2.03 0.841,-0.138 1.637,-0.319 2.483,-0.45 0.058,0.086 -0.155,0.306 -0.264,0.45 -0.342,0.454 -0.78,0.976 -1.092,1.467 0.883,-0.369 1.802,-0.706 2.671,-1.089 -0.323,0.728 -0.889,1.541 -1.315,2.293 1.765,-0.876 3.978,-1.87 6.543,-2.181 2.802,-0.34 5.365,0.248 7.409,1.166 3.171,4.011 6.293,8.073 9.326,12.223 -0.416,-0.108 -1.075,0.141 -1.542,0 -0.272,-0.083 -0.745,-0.787 -1.015,-1.092 -2.272,-2.563 -4.688,-5.224 -6.919,-7.709 1.704,2.945 3.489,5.811 5.151,8.801 -0.237,0 -0.477,0 -0.715,0 -2.819,-3.086 -5.552,-6.258 -8.386,-9.328 1.825,3.113 3.685,6.193 5.49,9.328 -0.579,0 -1.128,0 -1.692,0 -0.544,0 -1.193,0.134 -1.655,0 -0.295,-0.087 -0.957,-1.034 -1.165,-1.278 -0.404,-0.476 -0.75,-0.912 -1.092,-1.317 -3.808,-0.913 -7.238,-2.597 -10.38,-4.852 -1.404,-1.006 -2.844,-2.137 -4.098,-3.496 z"
         id="path4331"
         inkscape:connector-curvature="0" /><path
         style="fill:#f6dbcb"
         d="m 440.324,307.249 c -0.609,1.111 -0.927,3.066 -0.376,4.401 1.47,0.459 2.906,0.954 4.4,1.391 2.418,-3.197 4.943,-6.488 7.259,-9.664 -2.454,2.897 -4.872,5.832 -7.371,8.685 -0.305,-0.91 -0.64,-1.792 -0.978,-2.67 2.588,-2.531 5.457,-5.152 8.198,-7.785 0.313,-0.299 0.863,-1.02 1.204,-1.09 0.528,-0.109 1.001,0.113 1.466,0.15 1.99,0.158 2.652,-1.558 3.047,-3.009 0.038,-0.141 0.34,-0.491 0.563,-0.677 0.366,-0.305 1.183,-0.557 1.054,-1.166 -0.108,-0.518 -0.817,-0.291 -1.165,-0.15 -1.042,0.421 -1.744,1.066 -2.558,1.504 0.294,-0.474 0.678,-1.066 1.24,-1.543 0.363,-0.305 1.265,-1.031 1.732,-1.088 1.039,-0.131 1.589,0.884 2.104,1.504 0.13,-0.16 0.378,-0.201 0.452,-0.416 -0.146,-0.561 -0.438,-0.92 -0.902,-1.277 -0.344,-0.264 -1.02,-0.713 -1.504,-0.677 -0.283,0.021 -0.931,0.446 -1.279,0.64 -2.934,1.635 -5.393,3.847 -7.822,5.829 -1.438,1.173 -3.052,2.204 -4.249,3.535 -1.241,1.38 -2.162,3.052 -2.784,5.002 -0.969,-0.084 -0.99,-1.117 -1.731,-1.429 z"
         id="path4333"
         inkscape:connector-curvature="0" /><path
         style="fill:#e0b6c7"
         d="m 448.598,334.289 c 0.686,-0.868 1.603,-2 2.369,-2.971 0.245,-0.309 0.536,-0.818 0.789,-0.977 0.391,-0.242 0.951,-0.318 1.392,-0.49 0.464,-0.18 0.88,-0.385 1.354,-0.563 1.221,-5.544 2.345,-11.073 3.61,-16.661 0.079,-0.344 0.29,-0.877 0.263,-1.09 -0.036,-0.292 -0.627,-0.727 -0.94,-1.016 -0.335,-0.309 -0.891,-0.615 -0.978,-0.979 -0.161,-0.672 0,-1.571 0,-2.33 0,-2.475 0.156,-4.514 0.302,-6.772 -0.773,0.431 -1.543,1.191 -2.857,1.204 -3.04,4.269 -6.047,8.573 -9.102,12.825 -1.635,-0.572 -3.368,-1.045 -5.003,-1.617 -0.342,0.172 -0.54,0.381 -0.865,0.526 -1.445,0.647 -3.151,-0.272 -4.023,-0.978 -1.746,0.719 -3.154,-0.76 -3.423,-2.219 -0.516,-0.123 -1.012,-0.266 -1.541,-0.376 -0.011,1.604 0.099,3.009 0.075,4.587 0.229,0.203 0.5,0.326 0.79,0.527 0.167,0.117 0.666,0.412 0.715,0.602 0.035,0.147 -0.05,0.527 -0.075,0.752 -0.085,0.738 -0.222,1.463 -0.264,2.219 4.408,0.88 9.134,1.797 13.576,2.67 0.661,0.131 1.357,0.189 1.956,0.377 0.593,0.186 1.385,1.057 1.579,1.58 1.063,2.846 1.081,7.881 0.301,11.095 0.004,0.044 -0.055,0.059 0,0.075 z"
         id="path4335"
         inkscape:connector-curvature="0" /><path
         style="fill:#9cc87b"
         d="m 403.919,305.671 c -0.064,-0.336 -0.295,-0.854 0.038,-1.093 0.335,0.099 0.363,0.467 0.526,0.717 0.482,0.736 1.245,1.295 1.88,1.729 -0.023,-0.003 -0.044,-0.006 -0.037,-0.038 -0.274,-0.809 -0.61,-1.734 -0.79,-2.633 -0.056,-0.278 -0.223,-0.689 0,-0.94 0.291,0.018 0.346,0.37 0.489,0.565 0.488,0.664 1.16,1.186 1.806,1.654 -0.648,-1.409 -1.302,-2.811 -1.769,-4.4 -0.44,0.191 -0.799,0.553 -1.203,0.865 -0.854,0.66 -1.618,1.167 -2.444,1.918 -0.369,0.334 -0.914,0.742 -1.092,1.09 -0.153,0.303 -0.218,0.75 -0.338,1.129 -0.848,2.662 -1.706,5.289 -2.557,7.897 0.436,0.152 0.726,0.309 1.166,0.489 0.343,0.14 0.983,0.492 1.239,0.45 0.303,-0.048 0.832,-0.913 0.904,-1.278 0.272,-1.385 -0.392,-2.904 -0.49,-4.361 -0.063,-0.951 -0.011,-1.666 0.264,-2.369 0.125,-0.32 0.377,-0.895 0.602,-0.867 0.154,0.021 0.409,0.531 0.602,0.791 0.67,0.911 1.333,1.563 2.294,1.88 -0.513,-0.806 -0.868,-2.057 -1.09,-3.195 z"
         id="path4337"
         inkscape:connector-curvature="0" /><path
         d="m 372.178,317.78 c 0.152,-0.075 0.39,-0.137 0.338,-0.226 -11.472,3.988 -19.677,11.617 -24.633,22.076 -0.064,0.137 -0.224,0.278 -0.15,0.451 1.018,0.084 2.058,0.148 3.084,0.226 2.25,-5.103 5.34,-9.532 8.95,-13.352 3.469,-3.668 7.671,-6.83 12.411,-9.175 z"
         id="path4339"
         inkscape:connector-curvature="0" /><path
         d="m 406.1,368.1 c 0.046,-3.906 0.299,-7.609 0.753,-11.131 0.14,-1.09 0.168,-2.242 0.413,-3.236 0.201,-0.809 0.748,-1.678 1.166,-2.48 2.959,-5.668 6.867,-10.494 10.492,-15.233 -4.061,3.209 -7.797,6.947 -10.605,11.283 0.271,-0.822 0.215,-1.831 0.526,-2.67 0.194,-0.522 0.612,-1.055 0.94,-1.58 2.281,-3.659 4.767,-7.137 7.297,-10.305 -2.706,2.109 -5.164,4.665 -7.297,7.222 0.849,-4.054 1.906,-8.099 2.782,-11.997 -2.693,6.17 -5.025,12.479 -7.371,18.916 -2.338,6.418 -4.609,13.015 -6.129,20.158 1.743,0.918 4.508,1.846 7.033,1.053 z"
         id="path4341"
         inkscape:connector-curvature="0" /><path
         style="fill:#48afa2"
         d="m 406.477,368.552 c 1.192,-6.076 2.757,-11.33 5.717,-15.571 0.193,-0.275 0.545,-0.584 0.603,-0.826 0.141,-0.615 -0.199,-1.186 -0.039,-1.768 0.086,-0.314 0.676,-0.752 1.015,-1.092 0.293,-0.29 0.892,-0.77 0.979,-1.127 0.163,-0.677 -0.091,-1.511 -0.037,-2.221 3.965,-5.865 7.836,-11.953 12.485,-17.072 0.671,-0.738 1.308,-1.541 2.144,-2.107 -0.612,1.808 -1.635,3.203 -1.843,5.416 3.147,-0.289 6.501,-0.641 9.704,-0.865 0.424,-0.029 0.95,-0.207 1.279,0.113 -0.117,0.712 -0.451,1.204 -0.604,1.881 0.241,0.57 0.944,0.777 1.017,1.428 0.09,0.83 -0.728,1.259 -1.017,1.92 -0.157,2.477 -0.053,5.298 0.189,7.709 0.522,-0.291 1.1,-0.855 1.579,-1.316 -0.138,-2.203 -0.165,-4.715 -0.3,-7.033 1.139,-1.08 2.502,-2.19 3.647,-3.233 0.054,-0.05 0.193,-0.094 0.15,-0.188 -1.331,0.059 -2.604,0.177 -3.91,0.263 1.069,-0.786 2.336,-1.622 3.422,-2.368 0.135,-0.093 0.417,-0.255 0.339,-0.34 -0.966,0 -1.931,0 -2.895,0 1.007,-0.728 2.088,-1.579 2.971,-2.594 1,-1.151 2.041,-2.583 2.032,-4.477 0.271,0.114 0.51,0.32 0.676,0.565 0.965,1.416 0.978,3.939 0.978,6.318 0,2.451 -0.285,4.865 -0.489,6.844 0.239,-0.225 0.694,-0.521 0.827,-0.9 0.139,-0.392 0.156,-0.961 0.226,-1.469 0.538,-3.865 0.566,-9.009 -0.978,-11.658 -0.531,-0.402 -1.208,-0.443 -1.843,-0.564 -4.747,-0.891 -9.593,-1.924 -14.291,-2.744 -0.084,-0.015 -0.11,0.054 -0.15,0.075 -5.139,2.686 -11.14,5.063 -17.488,6.469 -6.245,12.356 -10.821,26.387 -14.366,41.444 1.652,1.452 5.729,2.342 8.271,1.088 z m -1.28,-21.663 c 2.346,-6.437 4.678,-12.746 7.371,-18.916 -0.876,3.898 -1.934,7.943 -2.782,11.997 2.133,-2.557 4.591,-5.112 7.297,-7.222 -2.53,3.168 -5.016,6.646 -7.297,10.305 -0.328,0.525 -0.746,1.058 -0.94,1.58 -0.312,0.839 -0.256,1.848 -0.526,2.67 2.808,-4.336 6.543,-8.074 10.605,-11.283 -3.625,4.738 -7.533,9.565 -10.492,15.233 -0.418,0.803 -0.965,1.672 -1.166,2.48 -0.245,0.994 -0.273,2.147 -0.413,3.236 -0.454,3.521 -0.707,7.225 -0.753,11.131 -2.524,0.793 -5.289,-0.135 -7.031,-1.053 1.518,-7.144 3.789,-13.74 6.127,-20.158 z"
         id="path4343"
         inkscape:connector-curvature="0" /><path
         style="fill:#939598"
         d="m 447.056,364.527 c -2.366,2.66 -4.77,5.484 -6.995,8.16 2.946,-2.256 5.96,-4.445 8.876,-6.73 -0.647,-0.458 -1.256,-0.951 -1.881,-1.43 z"
         id="path4345"
         inkscape:connector-curvature="0" /><path
         style="fill:#939598"
         d="m 457.473,372.537 c -2.167,2.621 -4.555,5.223 -6.618,7.823 2.782,-2.183 5.678,-4.251 8.462,-6.431 -0.629,-0.45 -1.215,-0.941 -1.844,-1.392 z"
         id="path4347"
         inkscape:connector-curvature="0" /><path
         style="fill:#2bb5d7"
         d="m 352.208,400.82 c 0.208,0.244 0.87,1.191 1.165,1.278 0.462,0.134 1.111,0 1.655,0 0.565,0 1.113,0 1.692,0 -1.806,-3.135 -3.665,-6.215 -5.49,-9.328 2.834,3.07 5.566,6.242 8.386,9.328 0.238,0 0.478,0 0.715,0 -1.662,-2.989 -3.447,-5.855 -5.151,-8.801 2.231,2.485 4.647,5.146 6.919,7.709 0.27,0.305 0.742,1.009 1.015,1.092 0.467,0.141 1.126,-0.108 1.542,0 -3.033,-4.149 -6.155,-8.212 -9.326,-12.223 -2.044,-0.918 -4.607,-1.506 -7.409,-1.166 -2.564,0.311 -4.778,1.305 -6.543,2.181 0.427,-0.752 0.992,-1.564 1.315,-2.293 -0.869,0.383 -1.788,0.72 -2.671,1.089 0.312,-0.491 0.75,-1.013 1.092,-1.467 0.108,-0.145 0.322,-0.364 0.264,-0.45 -0.847,0.131 -1.643,0.313 -2.483,0.45 0.597,-0.684 1.172,-1.386 1.806,-2.03 0.47,0.374 1.255,0.692 2.068,0.488 0.532,0.309 0.934,0.746 1.467,1.054 2.613,-0.571 5.211,-1.156 7.635,-1.919 -0.193,-0.137 -0.348,-0.498 -0.563,-0.488 -2.294,0.576 -4.573,1.169 -6.845,1.768 -0.486,-0.316 -0.938,-0.666 -1.43,-0.977 -2.01,0.167 -3.04,-0.972 -3.385,-2.595 -0.951,0.119 -1.553,-0.406 -2.218,-0.715 -1.071,-0.494 -2.249,-0.548 -3.424,-1.016 0.03,0.662 0.452,1.176 0.415,1.805 -0.018,0.271 -0.198,0.526 -0.264,0.791 -0.739,2.943 1.074,5.245 2.481,6.77 1.254,1.358 2.694,2.489 4.099,3.497 3.142,2.255 6.572,3.938 10.38,4.852 0.341,0.404 0.687,0.841 1.091,1.316 z"
         id="path4349"
         inkscape:connector-curvature="0" /></g></g><g
     id="frame"
     transform="matrix(0.33037975,0,0,0.32766831,-103.82712,-67.152016)"><path
       style="fill:#9c0059"
       d="m 472.266,410.94 -158,0 0,-206.001 158,0 0,206.001 z m -12,-145.195 -134,0 0,134 134,0 0,-134 z"
       id="path4352"
       inkscape:connector-curvature="0" /><rect
       x="320.267"
       y="210.94"
       style="fill:none;stroke:#ffffff;stroke-width:2"
       width="146"
       height="194"
       id="rect4354" /><g
       id="g4356"><path
         style="fill:#ffffff"
         d="m 330.678,221.932 12.972,0 0,2.749 -9.897,0 0,4.549 8.773,0 0,2.749 -8.773,0 0,4.699 10.022,0 0,2.749 -13.097,0 0,-17.495 z"
         id="path4358"
         inkscape:connector-curvature="0" /><path
         style="fill:#ffffff"
         d="m 351.903,221.932 2.849,0 9.373,12.097 0,-12.097 3.024,0 0,17.496 -2.574,0 -9.647,-12.447 0,12.447 -3.024,0 0,-17.496 z"
         id="path4360"
         inkscape:connector-curvature="0" /><path
         style="fill:#ffffff"
         d="m 382.326,221.807 2.85,0 7.698,17.621 -3.249,0 -1.774,-4.224 -8.273,0 -1.8,4.224 -3.149,0 7.697,-17.621 z m 4.399,10.673 -3.024,-6.999 -3,6.999 6.024,0 z"
         id="path4362"
         inkscape:connector-curvature="0" /><path
         style="fill:#ffffff"
         d="m 400.352,221.932 7.849,0 c 1.999,0 3.574,0.55 4.573,1.549 0.774,0.775 1.175,1.725 1.175,2.899 l 0,0.05 c 0,2.1 -1.199,3.225 -2.5,3.899 2.051,0.7 3.475,1.874 3.475,4.249 l 0,0.05 c 0,3.124 -2.574,4.799 -6.473,4.799 l -8.099,0 0,-17.495 z m 10.523,4.949 c 0,-1.375 -1.1,-2.225 -3.074,-2.225 l -4.424,0 0,4.649 4.199,0 c 1.975,0 3.299,-0.775 3.299,-2.374 l 0,-0.05 z m -2.625,5.024 -4.873,0 0,4.799 5.099,0 c 2.1,0 3.374,-0.825 3.374,-2.399 l 0,-0.05 c 0,-1.476 -1.175,-2.35 -3.6,-2.35 z"
         id="path4364"
         inkscape:connector-curvature="0" /><path
         style="fill:#ffffff"
         d="m 422.877,221.932 3.074,0 0,14.696 9.198,0 0,2.799 -12.272,0 0,-17.495 z"
         id="path4366"
         inkscape:connector-curvature="0" /><path
         style="fill:#ffffff"
         d="m 442.827,221.932 12.972,0 0,2.749 -9.897,0 0,4.549 8.772,0 0,2.749 -8.772,0 0,4.699 10.022,0 0,2.749 -13.097,0 0,-17.495 z"
         id="path4368"
         inkscape:connector-curvature="0" /></g><g
       id="g4370"><path
         style="fill:#ffffff"
         d="m 330.642,252.106 0,-0.028 c 0,-2.759 2.129,-5.071 5.141,-5.071 3.012,0 5.113,2.284 5.113,5.043 l 0,0.028 c 0,2.76 -2.129,5.071 -5.141,5.071 -3.012,-10e-4 -5.113,-2.284 -5.113,-5.043 z m 8.446,0 0,-0.028 c 0,-1.905 -1.387,-3.488 -3.333,-3.488 -1.947,0 -3.306,1.555 -3.306,3.46 l 0,0.028 c 0,1.905 1.387,3.474 3.334,3.474 1.946,0 3.305,-1.541 3.305,-3.446 z"
         id="path4372"
         inkscape:connector-curvature="0" /><path
         style="fill:#ffffff"
         d="m 345.553,248.772 -3.109,0 0,-1.597 7.956,0 0,1.597 -3.11,0 0,8.208 -1.737,0 0,-8.208 z"
         id="path4374"
         inkscape:connector-curvature="0" /><path
         style="fill:#ffffff"
         d="m 352.915,247.175 1.723,0 0,4.076 4.679,0 0,-4.076 1.723,0 0,9.805 -1.723,0 0,-4.132 -4.679,0 0,4.132 -1.723,0 0,-9.805 z"
         id="path4376"
         inkscape:connector-curvature="0" /><path
         style="fill:#ffffff"
         d="m 364.256,247.175 7.27,0 0,1.54 -5.547,0 0,2.55 4.917,0 0,1.541 -4.917,0 0,2.633 5.617,0 0,1.541 -7.34,0 0,-9.805 z"
         id="path4378"
         inkscape:connector-curvature="0" /><path
         style="fill:#ffffff"
         d="m 374.335,247.175 4.37,0 c 1.233,0 2.199,0.364 2.83,0.98 0.518,0.532 0.813,1.261 0.813,2.115 l 0,0.028 c 0,1.611 -0.966,2.578 -2.325,2.97 l 2.647,3.712 -2.045,0 -2.41,-3.418 -2.157,0 0,3.418 -1.723,0 0,-9.805 z m 4.245,4.861 c 1.233,0 2.017,-0.644 2.017,-1.639 l 0,-0.028 c 0,-1.051 -0.756,-1.625 -2.031,-1.625 l -2.508,0 0,3.292 2.522,0 z"
         id="path4380"
         inkscape:connector-curvature="0" /><path
         style="fill:#ffffff"
         d="m 384.499,255.552 1.036,-1.233 c 0.939,0.813 1.891,1.275 3.096,1.275 1.065,0 1.737,-0.504 1.737,-1.233 l 0,-0.028 c 0,-0.7 -0.393,-1.079 -2.213,-1.499 -2.087,-0.504 -3.264,-1.12 -3.264,-2.927 l 0,-0.028 c 0,-1.681 1.401,-2.843 3.348,-2.843 1.429,0 2.563,0.434 3.558,1.232 l -0.925,1.303 c -0.882,-0.658 -1.765,-1.008 -2.661,-1.008 -1.009,0 -1.597,0.518 -1.597,1.163 l 0,0.028 c 0,0.756 0.448,1.093 2.339,1.541 2.073,0.504 3.138,1.246 3.138,2.871 l 0,0.028 c 0,1.835 -1.443,2.928 -3.502,2.928 -1.498,-0.001 -2.913,-0.52 -4.09,-1.57 z"
         id="path4382"
         inkscape:connector-curvature="0" /><path
         style="fill:#ffffff"
         d="m 402.127,248.772 -3.109,0 0,-1.597 7.955,0 0,1.597 -3.109,0 0,8.208 -1.736,0 0,-8.208 z"
         id="path4384"
         inkscape:connector-curvature="0" /><path
         style="fill:#ffffff"
         d="m 408.523,252.106 0,-0.028 c 0,-2.759 2.129,-5.071 5.141,-5.071 3.012,0 5.112,2.284 5.112,5.043 l 0,0.028 c 0,2.76 -2.13,5.071 -5.142,5.071 -3.01,-10e-4 -5.111,-2.284 -5.111,-5.043 z m 8.446,0 0,-0.028 c 0,-1.905 -1.387,-3.488 -3.334,-3.488 -1.946,0 -3.305,1.555 -3.305,3.46 l 0,0.028 c 0,1.905 1.387,3.474 3.334,3.474 1.946,0 3.305,-1.541 3.305,-3.446 z"
         id="path4386"
         inkscape:connector-curvature="0" /><path
         style="fill:#ffffff"
         d="m 429.93,247.105 1.598,0 4.315,9.876 -1.821,0 -0.995,-2.367 -4.636,0 -1.009,2.367 -1.765,0 4.313,-9.876 z m 2.465,5.981 -1.694,-3.922 -1.682,3.922 3.376,0 z"
         id="path4388"
         inkscape:connector-curvature="0" /><path
         style="fill:#ffffff"
         d="m 437.167,252.106 0,-0.028 c 0,-2.787 2.087,-5.071 5.057,-5.071 1.807,0 2.899,0.63 3.838,1.527 l -1.106,1.275 c -0.785,-0.729 -1.625,-1.219 -2.746,-1.219 -1.862,0 -3.235,1.541 -3.235,3.46 l 0,0.028 c 0,1.92 1.358,3.474 3.235,3.474 1.205,0 1.976,-0.477 2.816,-1.261 l 1.106,1.121 c -1.022,1.064 -2.143,1.737 -3.978,1.737 -2.858,-10e-4 -4.987,-2.228 -4.987,-5.043 z"
         id="path4390"
         inkscape:connector-curvature="0" /><path
         style="fill:#ffffff"
         d="m 451.042,248.772 -3.11,0 0,-1.597 7.957,0 0,1.597 -3.109,0 0,8.208 -1.737,0 0,-8.208 z"
         id="path4392"
         inkscape:connector-curvature="0" /></g></g></svg>