<?xml version="1.0" encoding="UTF-8" standalone="no"?>
<!-- Generator: Adobe Illustrator 18.0.0, SVG Export Plug-In . SVG Version: 6.00 Build 0)  -->

<svg
     xmlns:dc="http://purl.org/dc/elements/1.1/"
     xmlns:cc="http://creativecommons.org/ns#"
     xmlns:rdf="http://www.w3.org/1999/02/22-rdf-syntax-ns#"
     xmlns:svg="http://www.w3.org/2000/svg"
     xmlns="http://www.w3.org/2000/svg"
     xmlns:sodipodi="http://sodipodi.sourceforge.net/DTD/sodipodi-0.dtd"
     xmlns:inkscape="http://www.inkscape.org/namespaces/inkscape"
     version="1.1"
     x="0px"
     y="0px"
     viewBox="0 0 135 174.56896"
     xml:space="preserve"
     id="svg4400"
     inkscape:version="0.48.5 r10040"
     sodipodi:docname="encourage_icon.svg"
     width="135"
     height="174.56897"><metadata
         id="metadata4572"><rdf:RDF><cc:Work
                 rdf:about=""><dc:format>image/svg+xml</dc:format><dc:type
                     rdf:resource="http://purl.org/dc/dcmitype/StillImage" /><dc:title></dc:title></cc:Work></rdf:RDF></metadata><defs
         id="defs4570" /><sodipodi:namedview
         pagecolor="#ffffff"
         bordercolor="#666666"
         borderopacity="1"
         objecttolerance="10"
         gridtolerance="10"
         guidetolerance="10"
         inkscape:pageopacity="0"
         inkscape:pageshadow="2"
         inkscape:window-width="1680"
         inkscape:window-height="998"
         id="namedview4568"
         showgrid="false"
         inkscape:showpageshadow="false"
         units="in"
         inkscape:zoom="2.1814013"
         inkscape:cx="119.25369"
         inkscape:cy="29.121881"
         inkscape:window-x="1912"
         inkscape:window-y="-8"
         inkscape:window-maximized="1"
         inkscape:current-layer="svg4400"
         inkscape:document-units="in"
         fit-margin-top="0"
         fit-margin-left="0"
         fit-margin-right="0"
         fit-margin-bottom="0" /><g
         id="encourage_art"
         transform="matrix(0.85443038,0,0,0.84741804,-268.51842,-173.66901)"><path
             style="fill:none"
             d="m 326.012,298.375 c -0.002,2.18 -0.004,4.358 -0.006,6.54 0.002,-2.181 0.004,-4.361 0.006,-6.54 l 0,0 z"
             id="path4403"
             inkscape:connector-curvature="0" /><path
             style="fill:none"
             d="m 326.074,358.762 c -0.016,-2.95 -0.028,-5.921 -0.039,-8.901 0.011,2.98 0.024,5.95 0.039,8.901 z"
             id="path4405"
             inkscape:connector-curvature="0" /><path
             style="fill:none"
             d="m 326,313.076 c 10e-4,-1.006 10e-4,-2.011 0.002,-3.017 -0.001,1.006 -0.001,2.011 -0.002,3.017 z"
             id="path4407"
             inkscape:connector-curvature="0" /><path
             style="fill:none"
             d="m 326.024,346.222 c -0.005,-1.76 -0.009,-3.522 -0.013,-5.289 0.005,1.767 0.009,3.529 0.013,5.289 z"
             id="path4409"
             inkscape:connector-curvature="0" /><path
             style="fill:none"
             d="m 325.996,327.354 c 0,-1.47 0,-2.943 0,-4.416 0,1.473 0,2.947 0,4.416 z"
             id="path4411"
             inkscape:connector-curvature="0" /><path
             style="fill:none"
             d="m 459.995,249.066 0,0 c -0.639,0.021 -1.283,0.051 -1.907,0.051 0.624,0 1.268,-0.029 1.907,-0.051 z"
             id="path4413"
             inkscape:connector-curvature="0" /><path
             style="fill:none"
             d="m 326.004,336.594 c -0.002,-1.55 -0.003,-3.103 -0.005,-4.656 0.002,1.553 0.003,3.106 0.005,4.656 z"
             id="path4415"
             inkscape:connector-curvature="0" /><polygon
             style="fill:#8bcde4"
             points="460.879,252.87 460.875,252.865 460.879,252.871 "
             id="polygon4417" /><path
             style="fill:#8bcde4"
             d="m 460.916,283.633 c -0.018,0.316 -0.033,0.632 -0.033,0.933 0,-0.299 0.017,-0.617 0.033,-0.933 z"
             id="path4419"
             inkscape:connector-curvature="0" /><path
             style="fill:#8bcde4"
             d="m 460.883,253.161 c 0.013,-0.078 0.015,-0.137 0.011,-0.188 0.002,0.051 10e-4,0.11 -0.011,0.188 z"
             id="path4421"
             inkscape:connector-curvature="0" /><path
             style="fill:#8bcde4"
             d="m 460.88,252.878 c -10e-4,-0.002 0,-0.005 -10e-4,-0.007 0.002,0.097 0,0.196 0.004,0.29 -0.004,-0.091 -0.002,-0.188 -0.003,-0.283 z"
             id="path4423"
             inkscape:connector-curvature="0" /><path
             style="fill:#8bcde4"
             d="m 460.916,281.875 c -0.01,-0.07 -0.02,-0.141 -0.033,-0.204 0.02,0.086 0.022,0.193 0.033,0.289 l 0,-0.085 z"
             id="path4425"
             inkscape:connector-curvature="0" /><path
             style="fill:#8bcde4"
             d="m 327.422,275.33 c 3.463,-2.237 7.873,-3.775 12.682,-4.593 5.793,-0.986 12.635,-0.816 18.475,-0.199 -9.07,-2.47 -22.623,-4.44 -32.553,-1.349 l 0,7.236 c 0.09,-0.268 0.982,-0.828 1.396,-1.095 z"
             id="path4427"
             inkscape:connector-curvature="0" /><path
             style="fill:#8bcde4"
             d="m 443.757,268.09 c -6.79,0 -13.358,0.718 -18.974,1.947 14.014,-0.882 26.106,1.631 33.402,8.338 0.469,0.43 0.955,0.946 1.449,1.547 0.355,0.434 0.959,1.104 1.177,1.557 l 0,-9.649 c 0.024,0.001 0.048,0.006 0.071,0.004 -0.31,0.029 -0.56,-0.223 -0.797,-0.35 -4.155,-2.199 -9.99,-3.394 -16.328,-3.394 z"
             id="path4429"
             inkscape:connector-curvature="0" /><path
             style="fill:#8bcde4"
             d="m 348.143,266.392 c 7.15,1.009 13.695,3.011 20.422,4.294 -14.157,-6.098 -28.358,-12.15 -42.539,-18.223 l 0,14.528 c 6.507,-2.016 14.955,-1.609 22.117,-0.599 z"
             id="path4431"
             inkscape:connector-curvature="0" /><path
             style="fill:#8bcde4"
             d="m 326.015,295.349 c -10e-4,1.009 -0.002,2.018 -0.003,3.026 l 0,0 c 10e-4,-1.01 0.002,-2.017 0.003,-3.026 z"
             id="path4433"
             inkscape:connector-curvature="0" /><path
             style="fill:#8bcde4"
             d="m 368.164,261.499 c 3.668,1.907 7.425,4.159 11.135,6.191 -1.068,-3.758 -2.213,-7.44 -3.295,-11.184 0.03,-0.1 0.176,0.076 0.199,0.1 2.069,2.05 4.074,4.429 6.091,6.591 0.354,0.38 0.751,0.718 1.099,1.099 0.336,0.365 0.61,0.821 1.049,1.049 0.208,-3.959 0.523,-7.762 0.748,-11.584 1.637,3.608 3.261,7.226 4.844,10.885 1.643,-3.601 3.268,-7.218 4.843,-10.885 0.337,3.693 0.555,7.617 0.8,11.534 0.248,0.066 0.381,-0.276 0.5,-0.399 2.605,-2.712 5.357,-5.708 7.939,-8.488 -0.99,3.653 -2.223,7.498 -3.296,11.233 3.655,-1.921 7.415,-4.168 11.134,-6.191 -2.327,3.298 -4.747,6.504 -7.089,9.787 18.496,-6.729 36.98,-13.46 55.438,-20.227 l -133.811,0 c -0.012,-0.005 -0.023,-0.01 -0.035,-0.015 l -10e-4,0 c 16.25,6.748 32.51,13.485 48.749,20.242 -2.191,-3.203 -4.71,-6.509 -7.041,-9.738 z"
             id="path4435"
             inkscape:connector-curvature="0" /><path
             style="fill:#8bcde4"
             d="m 460.086,252.961 c -17.174,6.418 -34.699,12.813 -51.727,19.173 7.754,-2.289 16.261,-4.386 25.563,-5.493 9.365,-1.113 20.643,-0.893 26.961,2.996 -0.023,-0.014 -0.048,-0.026 -0.071,-0.04 l 0,-16.803 c -0.148,-0.129 -0.486,0.077 -0.726,0.167 z"
             id="path4437"
             inkscape:connector-curvature="0" /><line
             style="fill:none;stroke:#ffffff;stroke-width:0;stroke-linecap:round;stroke-linejoin:round"
             x1="459.995"
             y1="249.06599"
             x2="459.995"
             y2="249.06599"
             id="line4439" /><path
             style="fill:#ffffff"
             d="m 462.631,249.066 c -0.339,0 -0.678,0 -1.017,0 0.26,0.011 0.521,0.021 0.767,0.051 0.096,0.012 0.16,-0.012 0.15,0.099 -0.029,53.432 0.044,107.943 -0.018,161.723 l 0.117,0 c 0,-53.924 0,-107.851 0,-161.773 10e-4,-0.033 10e-4,-0.066 10e-4,-0.1 z"
             id="path4441"
             inkscape:connector-curvature="0" /><path
             style="fill:#ffffff"
             d="m 324.276,277.776 c 0,44.386 0,88.776 0,133.163 l 0.05,0 c 0.002,-44.274 0.04,-89.291 -0.05,-133.163 z"
             id="path4443"
             inkscape:connector-curvature="0" /><path
             style="fill:#ffffff"
             d="m 324.426,249.117 c 44.322,0 89.107,0 133.662,0 0.624,0 1.268,-0.029 1.907,-0.051 -45.229,0 -90.442,0 -135.669,0 -0.038,0.012 -0.059,0.042 -0.05,0.1 0,0.849 0,1.698 0,2.546 0.192,-0.388 -0.114,-2.129 0.15,-2.595 z"
             id="path4445"
             inkscape:connector-curvature="0" /><path
             style="fill:#ffffff"
             d="m 324.276,267.54 c 0,0.766 0,1.531 0,2.297 0.091,-0.536 0.085,-1.779 0,-2.297 z"
             id="path4447"
             inkscape:connector-curvature="0" /><path
             style="fill:#f0a565"
             d="m 410.805,299.995 c -0.98,-0.378 -1.635,-0.926 -2.247,-1.647 -0.578,-0.684 -1.229,-1.465 -1.498,-2.397 -1.072,-3.729 0.884,-7.204 2.548,-9.088 0.228,-0.26 0.744,-0.651 0.797,-0.949 0.051,-0.285 -0.094,-0.755 -0.148,-1.148 -0.169,-1.202 -0.329,-2.475 -0.45,-3.545 -4.945,-2.819 -11.772,-4.905 -19.921,-4.543 -3.778,0.168 -7.355,0.511 -10.786,1.448 -2.355,0.643 -4.614,1.538 -6.59,2.696 -0.571,0.335 -1.644,0.88 -1.847,1.249 -0.389,0.695 -0.275,2.064 -0.602,2.746 3.263,-2.291 7.799,-4.365 12.684,-5.143 8.148,-1.297 17.174,-0.512 23.117,2.346 0.596,0.287 1.732,0.732 1.898,1.1 0.26,0.581 0.008,1.547 0.199,2.096 -4.442,-2.498 -9.813,-4.066 -16.826,-3.994 -2.926,11.763 -3.801,28.092 -0.949,40.394 -5.241,-9.896 -5.389,-27.159 -3.096,-40.144 -0.505,0.078 -1.051,0.116 -1.549,0.2 -3.479,13.302 -3.137,32.608 0.801,45.286 -0.051,0 -0.06,-0.041 -0.102,-0.051 -3.176,-5.438 -4.917,-12.394 -5.791,-20.32 -0.764,-6.928 -0.527,-14.53 0.199,-21.221 0.115,-1.051 0.262,-1.997 0.25,-2.846 -1.09,0.099 -1.154,1.389 -1.398,2.197 -0.838,2.791 -1.31,6.037 -1.647,9.188 -1.482,13.869 0.871,27.605 4.743,37.547 2.46,-1.042 5.41,-2.016 8.088,-2.947 0.923,-0.319 1.873,-0.842 2.748,-0.948 1.298,-0.157 2.654,0.132 3.844,0.3 1.221,0.173 2.381,0.429 3.595,0.599 2.561,-3.915 4.493,-8.31 6.191,-12.981 1.699,-4.673 3.282,-9.687 3.745,-15.48 z"
             id="path4449"
             inkscape:connector-curvature="0" /><path
             style="fill:#a16637"
             d="m 421.49,285.315 c -1.229,-0.289 -2.682,-0.601 -3.945,-0.449 -1.648,0.198 -3.757,0.409 -5.043,1.147 -1.305,0.751 -2.356,2.24 -3.096,3.596 -0.732,1.342 -1.486,3.529 -1.047,5.342 0.25,1.041 1.387,2.465 2.546,3.047 1.018,0.512 3.227,1.186 4.143,0.299 -0.518,-0.064 -0.867,0.088 -1.299,0 -1,-0.2 -2.08,-1.74 -2.246,-2.846 -0.131,-0.867 0.006,-1.939 0.148,-2.746 0.655,-3.672 4.311,-5.594 8.59,-5.342 2.706,0.158 4.593,1.224 6.189,2.596 3.227,2.772 5.315,6.489 5.941,11.635 0.259,0.273 0.678,0.465 1.051,0.698 0.346,0.218 0.682,0.614 0.997,0.55 0.3,-5.951 -1.928,-9.502 -4.743,-12.684 -1.999,-2.259 -4.641,-4.008 -8.186,-4.843 z"
             id="path4451"
             inkscape:connector-curvature="0" /><path
             style="fill:#a16637"
             d="m 350.34,292.855 c 1.775,-1.774 4.389,-3.374 7.289,-4.144 3.029,-0.803 7.1,-0.478 9.586,0.949 -0.109,-0.759 -0.05,-1.738 0.051,-2.447 -4.468,-2.523 -11.052,-1.088 -14.929,1.099 -2.26,1.274 -4.118,3.075 -5.292,5.292 -2.51,4.736 -2.297,12.616 -0.25,17.775 -0.371,-3.587 -0.635,-7.476 -0.15,-10.785 0.492,-3.362 1.728,-5.773 3.695,-7.739 z"
             id="path4453"
             inkscape:connector-curvature="0" /><path
             style="fill:#8bcde4"
             d="m 419.792,291.507 c -0.864,0.06 -1.56,0.274 -2.397,0.449 0.649,0.893 1.468,1.638 1.498,3.046 0.017,0.83 -0.304,1.721 -0.699,2.446 -1.037,1.898 -2.956,2.991 -5.543,3.096 -1.226,9.392 -4.249,16.987 -7.739,24.116 2.262,-0.984 5.771,-0.721 7.988,-1.748 -0.531,-0.774 -0.902,-1.912 -0.549,-2.945 0.373,-1.09 1.535,-1.654 2.697,-1.896 -0.205,-0.238 -0.547,-0.525 -0.75,-0.85 -1.29,-2.084 0.517,-4.963 3.097,-4.443 -2.345,-2.176 -0.027,-6.331 3.345,-5.941 -0.793,-1.082 -0.896,-3.425 -0.199,-4.645 1.448,-2.537 6.226,-1.811 9.186,-1.148 -0.464,-2.545 -1.439,-4.889 -3.097,-6.641 -1.544,-1.635 -3.737,-3.11 -6.838,-2.896 z"
             id="path4455"
             inkscape:connector-curvature="0" /><path
             style="fill:#8bcde4"
             d="m 361.973,297.648 c -0.746,-1.491 -0.328,-3.705 0.649,-4.744 0.122,-0.129 0.37,-0.279 0.3,-0.399 -3.159,-0.62 -6.176,0.765 -7.989,2.197 -4.682,3.701 -4.875,14.147 -1.946,19.972 1.871,3.726 5.168,6.452 9.936,7.29 4.902,0.86 9.569,1.333 13.281,3.994 -3.762,-8.089 -7.371,-16.329 -8.738,-26.811 -1.95,1.053 -4.595,0.292 -5.493,-1.499 z"
             id="path4457"
             inkscape:connector-curvature="0" /><path
             style="fill:#a16637"
             d="m 415.449,293.555 c -1.322,0.313 -0.909,2.349 0.447,2.196 1.344,-0.15 1.268,-2.604 -0.447,-2.196 z"
             id="path4459"
             inkscape:connector-curvature="0" /><path
             style="fill:#a16637"
             d="m 364.32,294.203 c -0.783,0.141 -1.393,0.716 -1.199,1.798 0.19,1.058 1.415,1.439 2.248,0.998 1.467,-0.776 0.694,-3.108 -1.049,-2.796 z"
             id="path4461"
             inkscape:connector-curvature="0" /><path
             style="fill:#f6dbcb"
             d="m 450.797,333.099 c 0.95,-1.931 1.682,-4.176 1.998,-6.841 0.1,-0.843 0.346,-2.089 0.15,-2.796 -0.089,-0.319 -0.719,-0.818 -1.099,-1.198 -2.45,-2.449 -4.507,-4.756 -6.892,-7.189 -0.398,-0.408 -0.918,-0.897 -1.098,-1.249 -0.234,-0.457 -0.338,-1.102 -0.5,-1.647 -0.34,-1.153 -0.617,-2.201 -0.947,-3.346 -0.162,-0.563 -0.281,-1.264 -0.5,-1.697 -0.239,-0.474 -0.992,-0.993 -1.447,-1.447 -1.265,-1.265 -2.467,-2.465 -3.646,-3.645 -0.255,-0.255 -0.461,-0.629 -0.699,-0.601 0.135,0.601 -0.177,1.353 0,1.997 0.048,0.178 0.353,0.455 0.549,0.699 1.411,1.754 2.284,3.719 3.147,5.893 -2.993,-2.834 -6.326,-5.327 -10.287,-7.189 -1.091,0.506 -2.115,1.079 -3.196,1.597 0.273,1.208 0.657,2.307 0.95,3.495 -1.298,0.365 -2.5,0.83 -3.795,1.199 0.124,1.174 0.414,2.184 0.55,3.345 -0.966,0.9 -2.1,1.628 -3.046,2.546 0.274,0.941 0.652,1.777 0.899,2.746 -0.975,0.406 -1.912,0.852 -2.848,1.299 0.26,0.768 0,2.001 0.251,2.796 0.141,0.448 1.031,1.25 1.548,1.747 2.865,2.76 6.316,4.799 10.333,6.191 1.709,0.592 3.531,1.139 5.493,1.148 0.508,0.003 1.142,-0.176 1.598,-0.2 1.281,-0.069 2.977,0.128 4.194,-0.35 -0.704,0.927 -1.768,1.495 -2.846,2.048 1.903,2.424 3.855,4.799 5.891,7.09 2.346,-1.542 3.969,-3.741 5.295,-6.441 z m -28.658,-12.683 c 0.452,-0.727 1.083,-1.281 1.647,-1.896 2.296,1.582 4.448,3.306 6.739,4.893 -2.731,-0.864 -5.56,-2.063 -8.386,-2.997 z m 2.945,-5.092 c -0.095,-0.18 0.187,-0.276 0.299,-0.4 0.409,-0.45 0.846,-1.042 1.3,-1.498 2.239,1.62 4.427,3.295 6.69,4.893 -2.709,-0.853 -5.572,-1.985 -8.289,-2.995 z m 2.847,-5.044 c 0.491,-0.689 1.111,-1.251 1.646,-1.897 2.256,1.607 4.443,3.279 6.691,4.894 -2.711,-0.867 -5.561,-2.029 -8.337,-2.997 z"
             id="path4463"
             inkscape:connector-curvature="0" /><path
             d="m 427.931,310.28 c 2.776,0.968 5.626,2.13 8.337,2.996 -2.248,-1.614 -4.436,-3.287 -6.691,-4.894 -0.535,0.647 -1.155,1.209 -1.646,1.898 z"
             id="path4465"
             inkscape:connector-curvature="0" /><path
             d="m 425.383,314.924 c -0.111,0.124 -0.393,0.221 -0.299,0.4 2.717,1.01 5.58,2.142 8.289,2.994 -2.264,-1.598 -4.451,-3.273 -6.69,-4.893 -0.455,0.457 -0.891,1.049 -1.3,1.499 z"
             id="path4467"
             inkscape:connector-curvature="0" /><path
             style="fill:#a16637"
             d="m 410.455,325.109 c -3.402,0.404 -6.512,1.452 -7.838,3.795 1.798,0.348 3.485,0.807 3.793,2.647 1.227,-0.607 2.322,-1.793 1.798,-3.695 4.368,0.023 8.552,-0.644 11.884,-1.947 -0.506,-0.809 -1.537,-1.523 -2.147,-2.396 -2.119,1.256 -4.687,1.263 -7.49,1.596 z"
             id="path4469"
             inkscape:connector-curvature="0" /><path
             style="fill:#9cc87b"
             d="m 455.092,346.579 c 0.914,-1.96 1.633,-4.163 2.047,-6.44 0.51,2.258 0.736,4.953 1.198,7.389 0.382,2.019 0.903,4.25 1.997,5.543 0.115,0.136 0.336,0.42 0.549,0.349 0,-6.313 0,-12.952 0,-19.372 0,-0.936 0.183,-2.129 0,-2.795 -0.115,-0.424 -1.002,-1.131 -1.447,-1.6 -1.561,-1.645 -3.021,-3.195 -4.543,-4.693 0,0.051 0,0.101 0,0.15 -0.724,4.598 -2.389,8.686 -4.096,12.433 -1.713,3.762 -3.699,7.269 -6.84,9.687 0.579,0.686 1.131,1.399 1.898,1.896 2.744,-1.367 4.584,-3.74 6.141,-6.29 1.57,-2.574 2.895,-5.487 3.895,-8.589 0.065,8.588 -3.287,13.756 -7.34,18.225 4.166,4.554 8.152,9.289 12.332,13.829 -0.148,-0.708 0.197,-1.72 0,-2.496 -0.096,-0.383 -0.814,-1.006 -1.197,-1.446 -2.946,-3.377 -5.965,-6.609 -8.738,-9.935 1.923,-1.34 3.086,-3.579 4.144,-5.845 z"
             id="path4471"
             inkscape:connector-curvature="0" /><path
             style="fill:#f0a565"
             d="m 397.224,333.148 c -1.412,1.014 -3.282,1.967 -4.645,2.945 1.356,-0.148 2.839,0.227 4.345,0.349 0.586,-1.027 1.272,-1.956 1.748,-3.095 -0.356,0.069 -1.186,-0.386 -1.448,-0.199 z"
             id="path4473"
             inkscape:connector-curvature="0" /><path
             style="fill:#b59775"
             d="m 387.039,353.67 c 0.762,-1.007 1.381,-2.188 1.746,-3.445 -0.955,-0.327 -1.998,-0.565 -2.896,-0.949 0.493,-1.055 0.912,-2.185 1.349,-3.295 -1.013,-0.486 -2.091,-0.906 -3.046,-1.448 0.401,-1.28 0.847,-2.516 1.248,-3.795 -0.97,-0.661 -2.082,-1.181 -3.045,-1.847 0.332,-1.148 0.72,-2.244 1.049,-3.396 -0.961,-0.487 -1.785,-1.11 -2.746,-1.597 -3.144,2.657 -6.533,5.722 -9.786,8.588 -2.745,2.416 -5.688,4.916 -8.438,7.44 -0.431,0.393 -0.873,0.871 -1.248,1.047 -0.652,0.303 -1.522,0.418 -2.247,0.6 -2.378,0.594 -4.524,1.18 -6.891,1.797 2.604,3.355 3.351,8.566 3.396,14.48 2.648,-1.15 6.057,-2.755 8.289,-4.693 0.986,-0.859 2.304,-2.225 1.647,-3.895 2.816,1.525 7.004,1.83 10.586,1.098 3.27,-0.668 6.449,-2.096 8.587,-3.943 0.87,-0.754 1.72,-1.792 2.446,-2.747 z m -7.541,-13.73 c 0.381,0.834 0.756,1.676 1.049,2.596 -2.897,1.397 -5.662,2.924 -8.539,4.344 2.457,-2.355 5.025,-4.595 7.49,-6.94 z m -5.543,10.983 c 1.089,-1.204 2.459,-2.316 3.746,-3.495 1.272,-1.164 2.473,-2.457 3.795,-3.395 0.308,0.84 0.637,1.658 0.998,2.445 -2.809,1.52 -5.737,2.919 -8.539,4.445 z"
             id="path4475"
             inkscape:connector-curvature="0" /><path
             style="fill:#b2805a"
             d="m 388.236,340.787 c 2.654,0.309 5.213,0.713 7.89,0.999 0.071,-0.288 0.243,-0.708 0.199,-0.948 -2.632,-0.299 -5.181,-0.68 -7.79,-0.999 -0.182,0.234 -0.167,0.665 -0.299,0.948 z"
             id="path4477"
             inkscape:connector-curvature="0" /><path
             d="m 379.498,339.94 c -2.465,2.346 -5.033,4.586 -7.49,6.939 2.877,-1.42 5.643,-2.946 8.539,-4.344 -0.293,-0.92 -0.668,-1.762 -1.049,-2.595 z"
             id="path4479"
             inkscape:connector-curvature="0" /><path
             style="fill:#b59775"
             d="m 395.027,346.129 c -1.955,-0.258 -3.918,-0.51 -5.943,-0.698 -0.152,0.247 -0.211,0.587 -0.249,0.948 2.058,0.158 3.925,0.504 5.991,0.649 0.034,-0.334 0.125,-0.608 0.201,-0.899 z"
             id="path4481"
             inkscape:connector-curvature="0" /><path
             style="fill:#f0a565"
             d="m 387.486,356.017 c -0.977,2.416 -0.638,5.692 -1.049,8.887 2.824,-0.013 6.086,-0.294 8.69,0.198 -0.891,-4.383 -1.477,-9.254 -1.248,-14.479 -0.914,-0.15 -1.905,-0.225 -2.896,-0.299 -0.072,-0.081 -0.121,0.056 -0.15,0.1 -0.527,0.831 -0.938,1.861 -1.496,2.795 -0.259,0.433 -0.501,0.927 -0.801,1.35 -0.357,0.501 -0.837,0.925 -1.05,1.448 z"
             id="path4483"
             inkscape:connector-curvature="0" /><path
             style="fill:#48afa2"
             d="m 326.023,360.709 c 0,0.782 0,1.564 0,2.348 7.277,-2.01 14.49,-4.085 21.77,-6.092 2.069,4.438 2.61,11.848 1.448,17.574 -0.733,-3.658 -1.2,-7.588 -4.595,-8.588 -0.091,2.744 -0.092,5.057 -0.299,7.639 -0.923,-2.736 -1.824,-5.497 -2.846,-8.139 -0.142,0.077 -0.344,0.089 -0.549,0.102 -0.127,2.979 -0.134,6.023 -0.35,8.787 -0.876,-2.584 -1.715,-5.209 -2.697,-7.69 -0.249,0.234 -0.703,0.263 -0.898,0.55 -0.137,2.533 -0.115,5.811 -0.35,8.039 -0.69,-2.205 -1.509,-4.283 -2.196,-6.49 -0.36,0.277 -1.075,0.57 -1.198,0.998 -0.115,0.398 -0.031,0.875 -0.05,1.299 -0.087,2.039 -0.134,4.408 -0.3,6.091 -0.582,-1.913 -1.281,-3.712 -1.897,-5.593 -0.378,0.463 -1.432,0.943 -1.599,1.547 -0.084,0.304 0.013,0.737 0,1.051 -0.059,1.56 -0.093,3.402 -0.251,4.842 -0.406,-1.389 -0.945,-2.646 -1.346,-4.043 -0.34,0.142 -0.643,0.563 -0.949,0.948 -0.284,0.355 -0.764,0.835 -0.85,1.198 -0.111,0.482 0,1.191 0,1.797 0,4.142 0,8.706 0,12.633 9.049,-5.065 18.232,-9.996 27.062,-15.277 1.096,-7.692 0.926,-17.475 -2.796,-22.32 -7.982,2.166 -16.189,4.544 -24.264,6.789 z"
             id="path4485"
             inkscape:connector-curvature="0" /><path
             style="fill:#8bcde4"
             d="m 345.547,402.85 c 0.162,-0.818 0.057,-1.646 0.148,-2.397 0.658,-5.379 2.947,-8.877 5.742,-12.232 1.617,-1.941 3.44,-3.396 4.444,-5.793 0.495,-1.182 0.806,-2.645 1.099,-4.044 0.355,-1.704 0.684,-4.086 2.047,-4.743 2.594,-1.252 5.533,1.016 5.493,3.545 2.961,-1.166 6.159,-2.094 9.685,-2.696 0.236,-0.68 0.504,-1.328 0.7,-2.048 0.346,-0.309 0.403,-0.77 0.599,-1.147 1.463,-2.804 3.813,-4.354 6.79,-5.593 0.243,-1.953 0.593,-4.066 0.749,-5.941 -3.166,1.92 -6.792,3.878 -11.883,3.546 -4.473,2.968 -9.37,5.648 -14.03,8.537 -0.353,0.22 -1.804,0.979 -1.947,1.3 -0.093,0.207 -0.054,0.779 -0.1,1.147 -0.103,0.812 -0.358,3.314 -0.8,3.395 -0.093,0.018 -0.002,0.093 -0.049,0.149 -0.165,0.204 -0.4,0.334 -0.6,0.449 -9.118,5.332 -18.594,10.576 -27.611,15.779 0,5.625 0,11.251 0,16.877 l 14.3,0 c 1.223,-1.802 2.424,-3.753 3.626,-5.594 0.378,-0.58 1.469,-1.852 1.598,-2.496 z"
             id="path4487"
             inkscape:connector-curvature="0" /><path
             style="fill:#f0a565"
             d="m 391.93,366.701 c -1.141,-0.076 -2.7,-0.185 -3.643,0 -3.79,0.737 -7.012,3.201 -7.59,7.089 7.052,-1.294 15.656,-0.685 22.867,0.251 -0.864,-1.766 -1.348,-3.824 -3.045,-5.044 -1.322,-0.95 -3.377,-1.591 -5.293,-1.946 -1.015,-0.19 -2.163,-0.277 -3.296,-0.35 z"
             id="path4489"
             inkscape:connector-curvature="0" /><path
             style="fill:#a16637"
             d="m 364.669,378.533 c 0.077,1.273 0.257,2.44 0.35,3.695 7.272,-3.207 16.611,-4.594 26.712,-4.594 4.91,0.002 9.392,0.742 13.781,1.647 4.322,0.893 8.379,2.327 12.184,3.545 -0.037,-1.058 -0.033,-2.65 -0.1,-3.495 -4.145,-1.41 -8.82,-2.626 -13.831,-3.444 -13.038,-2.129 -28.501,-0.955 -39.096,2.646 z"
             id="path4491"
             inkscape:connector-curvature="0" /><path
             style="fill:#f6dbcb"
             d="m 381.546,403.947 c 2.503,-3.637 4.579,-7.703 5.94,-12.482 -0.477,-0.055 -1.043,-0.021 -1.497,-0.1 0.315,-1.508 1.673,-3.976 1.448,-6.24 -0.039,-0.388 -0.162,-0.875 -0.449,-1.149 -0.658,-0.63 -1.766,-0.23 -2.098,0.251 0.868,-1.966 -0.004,-4.942 -2.247,-3.695 -1.133,0.629 -1.142,2.344 -2.046,3.295 -10e-4,-0.051 0.039,-0.06 0.049,-0.101 0.985,-2.956 -2.779,-3.777 -3.694,-2.046 -0.195,0.368 -0.228,0.941 -0.35,1.398 -0.655,2.44 -1.585,4.227 -2.796,6.14 -0.309,0.489 -1.021,1.854 -1.498,2.099 -0.519,0.265 -1.418,0.311 -2.097,0.447 -2.274,0.463 -4.259,0.805 -6.392,1.301 -2.77,-2.049 -1.221,-6.887 -0.749,-10.436 0.19,-1.421 0.159,-3.281 -0.149,-4.595 -0.309,-1.308 -0.963,-2.829 -2.148,-2.945 -0.761,-0.074 -1.571,0.399 -1.747,0.849 -0.148,0.382 -0.129,1.02 -0.199,1.498 -0.52,3.551 -1.316,6.828 -3.147,9.088 -0.905,1.119 -2.051,2.111 -3.045,3.244 -2.842,3.235 -5.635,7.435 -5.192,13.281 -1.683,2.568 -3.428,5.28 -5.09,7.891 l 9.87,0 c 0.95,-1.443 1.899,-2.892 2.858,-4.296 0.467,-0.683 0.87,-1.479 1.448,-2.097 1.838,-1.969 5.612,-2.779 8.389,-3.895 0.779,-0.313 2.362,-0.783 2.295,-1.797 -0.039,-0.615 -0.806,-0.975 -1.397,-1.049 -2.816,-0.35 -5.7,0.81 -8.189,1.148 5.334,-2.803 10.732,-5.547 18.125,-6.291 -0.103,1.012 -0.149,2.08 -0.201,3.146 0.996,0.085 2.094,0.071 2.997,0.249 -0.064,1.136 -0.21,2.188 -0.249,3.346 0.95,0.182 1.962,0.301 2.795,0.6 -0.082,0.799 -0.141,1.621 -0.199,2.445 -4.945,1.938 -10.117,3.596 -16.326,4.145 -1.094,1.439 -2.177,2.89 -3.253,4.346 l 1.986,0 c 0.732,-0.988 1.462,-1.979 2.214,-2.947 5.892,-0.803 11.382,-2.001 16.03,-4.046 z"
             id="path4493"
             inkscape:connector-curvature="0" /><path
             style="fill:#8bcde4"
             d="m 418.045,405.096 c -0.529,-0.206 -1.357,-0.15 -2.098,-0.248 -4.223,-0.561 -8.316,-1.339 -12.383,-1.948 -0.713,-0.108 -1.484,-0.095 -2.097,-0.3 -0.424,-0.142 -1.018,-0.623 -1.498,-0.998 -2.885,-2.254 -5.237,-5.028 -7.589,-7.639 -0.41,-0.454 -0.938,-0.843 -1.248,-1.299 -0.334,-0.49 -0.723,-1.752 -1.648,-1.348 -1.099,2.386 -1.857,4.997 -2.946,7.539 -0.499,1.166 -1.094,2.275 -1.797,3.445 -0.53,0.881 -1.398,2.511 -2.197,3.045 -0.454,0.307 -1.183,0.543 -1.798,0.799 -4.385,1.824 -9.068,3.262 -14.43,3.994 -0.186,0.273 -0.386,0.533 -0.579,0.801 l 57.499,0 c -1.093,-1.364 -2.563,-2.9 -3.744,-4.246 -0.394,-0.449 -0.967,-1.409 -1.447,-1.597 z"
             id="path4495"
             inkscape:connector-curvature="0" /><path
             d="m 407.858,395.709 c 3.232,0.003 6.46,-0.022 9.286,-0.1 -2.781,-0.744 -5.549,-1.506 -8.387,-2.196 -0.341,0.523 -0.579,1.583 -0.899,2.296 z"
             id="path4497"
             inkscape:connector-curvature="0" /><path
             d="m 407.309,397.008 c -0.24,0.792 -0.676,1.65 -0.799,2.396 3.125,-0.115 6.143,-0.037 9.238,-0.149 -2.793,-0.735 -5.563,-1.495 -8.389,-2.197 -0.003,-0.031 -0.007,-0.06 -0.05,-0.05 z"
             id="path4499"
             inkscape:connector-curvature="0" /><path
             style="fill:#0094a2"
             d="m 429.179,407.043 c -0.961,1.152 -1.9,2.455 -2.712,3.897 l 1.707,0 c 0.904,-1.553 1.951,-2.972 3.102,-4.296 0.199,-0.229 0.912,-1.103 1.048,-1.097 0.168,0.003 0.952,1.101 1.198,1.446 0.808,1.133 1.393,2.494 1.884,3.946 l 8.75,0 c -1.059,-1.105 -2.119,-2.208 -3.194,-3.297 -0.117,-0.027 -0.117,-0.15 0,-0.051 1.315,1.105 2.647,2.227 3.98,3.348 l 3.068,0 c -3.714,-3.529 -7.428,-7.059 -11.143,-10.586 -3.005,1.772 -5.451,4.004 -7.688,6.69 z"
             id="path4501"
             inkscape:connector-curvature="0" /><path
             style="fill:#8bcde4"
             d="m 441.76,304.139 c 0.618,0.617 1.528,1.264 1.848,1.947 0.484,1.037 0.672,2.244 0.998,3.346 0.154,0.52 0.33,1.086 0.5,1.647 0.166,0.546 0.255,1.22 0.5,1.698 0.303,0.592 1.328,1.278 1.897,1.848 4.328,4.326 8.585,8.506 12.931,12.631 0.115,0.108 0.228,0.369 0.449,0.3 0,-14.282 0,-28.619 0,-42.989 0,-0.301 0.016,-0.617 0.033,-0.933 0,-0.001 0,-0.002 0,-0.003 l 0,-1.67 c -0.012,-0.096 -0.014,-0.203 -0.033,-0.289 -0.013,-0.058 -0.037,-0.122 -0.071,-0.19 l 0,0 c -0.218,-0.453 -0.821,-1.123 -1.177,-1.557 -0.494,-0.602 -0.98,-1.117 -1.449,-1.547 -7.296,-6.707 -19.389,-9.221 -33.402,-8.338 5.615,-1.229 12.184,-1.947 18.974,-1.947 6.338,0 12.173,1.194 16.329,3.395 0.237,0.127 0.487,0.379 0.797,0.35 0,-0.732 0,-1.465 0,-2.197 -6.318,-3.889 -17.596,-4.109 -26.961,-2.996 -9.302,1.106 -17.809,3.204 -25.563,5.493 17.027,-6.36 34.553,-12.755 51.727,-19.173 0.24,-0.09 0.578,-0.297 0.726,-0.167 l 0,-0.024 c 0.028,0.02 0.05,0.049 0.064,0.094 10e-4,0.003 0.003,0.002 0.004,0.005 -0.004,-0.63 0.039,-1.308 -0.027,-1.876 l -0.511,0 c -0.012,0.005 -0.026,0.01 -0.04,0.015 l 0,0 c -18.457,6.767 -36.941,13.498 -55.438,20.227 2.342,-3.283 4.762,-6.489 7.089,-9.787 -3.719,2.023 -7.478,4.271 -11.134,6.191 1.073,-3.736 2.306,-7.581 3.296,-11.233 -2.581,2.78 -5.334,5.776 -7.939,8.488 -0.119,0.123 -0.252,0.465 -0.5,0.399 -0.245,-3.917 -0.463,-7.841 -0.8,-11.534 -1.575,3.667 -3.2,7.284 -4.843,10.885 -1.583,-3.659 -3.207,-7.277 -4.844,-10.885 -0.225,3.822 -0.54,7.625 -0.748,11.584 -0.438,-0.228 -0.713,-0.684 -1.049,-1.049 -0.348,-0.381 -0.744,-0.718 -1.099,-1.099 -2.017,-2.162 -4.021,-4.541 -6.091,-6.591 -0.023,-0.023 -0.169,-0.2 -0.199,-0.1 1.082,3.744 2.227,7.426 3.295,11.184 -3.71,-2.032 -7.467,-4.284 -11.135,-6.191 2.331,3.229 4.85,6.535 7.041,9.737 -16.239,-6.756 -32.499,-13.494 -48.749,-20.242 l -0.431,0 0,1.469 c 14.181,6.073 28.382,12.125 42.539,18.223 -6.727,-1.283 -13.271,-3.285 -20.422,-4.294 -7.161,-1.01 -15.609,-1.418 -22.117,0.599 l 0,2.197 c 9.93,-3.091 23.482,-1.121 32.553,1.349 -5.84,-0.617 -12.682,-0.787 -18.475,0.199 -4.809,0.818 -9.219,2.357 -12.682,4.593 -0.414,0.267 -1.306,0.828 -1.397,1.095 l 0,17.743 -0.01,0 c 0,0.394 -0.001,0.788 -0.001,1.182 -10e-4,1.01 -0.002,2.017 -0.003,3.026 -0.002,2.179 -0.004,4.359 -0.006,6.54 -0.001,1.715 -0.003,3.43 -0.004,5.145 -10e-4,1.006 -10e-4,2.011 -0.002,3.017 -0.002,3.291 -0.004,6.578 -0.004,9.862 0,1.473 0,2.946 0,4.416 10e-4,1.53 0.002,3.057 0.003,4.583 0.002,1.554 0.003,3.106 0.005,4.656 0.002,1.448 0.005,2.895 0.008,4.339 0.004,1.768 0.008,3.529 0.013,5.289 0.004,1.214 0.007,2.429 0.011,3.639 0.011,2.98 0.023,5.951 0.039,8.901 1.435,-0.209 2.83,-0.672 4.244,-1.049 2.871,-0.763 5.656,-1.621 8.487,-2.397 7.147,-1.956 14.268,-4.105 21.319,-5.842 -0.004,0 0.078,-0.039 0.101,-0.049 0.603,-0.283 1.265,-1.128 1.847,-1.648 4.235,-3.779 8.452,-7.422 12.633,-11.084 0.125,-0.109 0.422,-0.338 0.3,-0.4 -1.669,-0.273 -2.788,-2.323 -1.798,-4.044 -2.098,-2.4 -5.723,-3.095 -9.387,-3.595 -3.896,-0.534 -7.276,-1.256 -10.136,-2.847 -5.636,-3.138 -8.426,-8.908 -9.785,-16.227 -0.724,-3.889 -0.788,-8.262 -0.101,-11.784 1.414,-7.241 5.843,-11.512 12.832,-13.132 3.541,-0.82 7.951,-0.74 10.934,0.899 0.154,-1.361 0.421,-2.609 0.551,-3.994 4.689,-4.355 11.91,-6.572 20.67,-6.939 8.683,-0.365 16.941,1.658 22.268,5.092 0.409,1.54 0.644,3.251 0.8,5.042 2.158,-1.236 5.437,-1.731 8.537,-1.447 3.033,0.277 5.588,1.467 7.54,2.746 4.111,2.697 7.116,6.813 7.989,12.582 2.017,1.701 3.928,3.578 5.842,5.492 z"
             id="path4503"
             inkscape:connector-curvature="0" /><path
             style="fill:#8bcde4"
             d="m 460.894,252.973 c -0.002,-0.035 -0.006,-0.067 -0.014,-0.094 10e-4,0.095 -10e-4,0.191 0.003,0.283 0.012,-0.079 0.013,-0.138 0.011,-0.189 z"
             id="path4505"
             inkscape:connector-curvature="0" /><path
             style="fill:#a16637"
             d="m 373.256,305.387 c -0.752,-6.908 -0.662,-15.018 1.15,-20.82 -1.262,0.619 -2.44,1.322 -3.646,1.998 -1.133,14.075 1.369,27.892 6.492,37.446 -1.702,-5.31 -3.256,-11.834 -3.996,-18.624 z"
             id="path4507"
             inkscape:connector-curvature="0" /><path
             d="m 422.139,320.416 c 2.826,0.934 5.655,2.133 8.387,2.996 -2.291,-1.587 -4.443,-3.311 -6.739,-4.893 -0.565,0.616 -1.196,1.17 -1.648,1.897 z"
             id="path4509"
             inkscape:connector-curvature="0" /><path
             d="m 377.701,347.428 c -1.287,1.179 -2.657,2.291 -3.746,3.495 2.802,-1.526 5.73,-2.925 8.539,-4.444 -0.361,-0.787 -0.69,-1.606 -0.998,-2.445 -1.322,0.937 -2.522,2.23 -3.795,3.394 z"
             id="path4511"
             inkscape:connector-curvature="0" /><path
             style="fill:#8bcde4"
             d="m 460.983,369.247 c -5.581,-6.458 -11.802,-13.136 -17.526,-19.671 -0.424,-0.486 -0.949,-0.914 -1.147,-1.35 -0.534,-1.168 -0.553,-2.9 -0.451,-4.393 0.108,-1.563 0.393,-2.971 0.898,-4.096 -1.411,-1.783 -2.727,-3.26 -4.193,-4.992 -0.395,-0.467 -0.996,-1.471 -1.498,-1.598 -0.747,-0.191 -1.611,-0.027 -2.297,-0.1 -5.026,-0.54 -8.429,-2.874 -11.632,-5.244 -0.003,-0.052 -0.065,-0.039 -0.05,0.051 0.182,0.498 0.31,1.193 0.1,1.697 -0.582,1.393 -3.083,0.735 -4.195,0.199 -0.633,-0.305 -1.471,-1.227 -1.896,-1.248 -0.535,-0.025 -1.135,0.268 -1.647,0.35 -1.856,0.299 -3.63,0.357 -5.543,0.5 0.021,0.585 -0.093,1.164 -0.299,1.598 -1.221,2.554 -5.529,3.156 -9.088,2.647 -0.516,1.066 -1.081,2.082 -1.598,3.146 1.692,0.362 4.27,2.003 3.095,4.242 -0.286,0.551 -0.701,0.921 -1.398,1.149 0.655,0.591 1.324,0.956 1.598,1.847 0.555,1.819 -1.139,3.037 -2.797,3.246 0.109,0.269 0.436,0.421 0.649,0.648 0.489,0.52 0.987,1.383 0.699,2.297 -0.564,1.79 -3.091,2.67 -5.093,2.945 0.068,4.61 0.605,8.75 1.598,12.434 2.861,0.831 5.115,1.878 6.441,3.994 0.564,0.897 0.872,2.383 1.648,3.145 -0.222,0.207 0.03,0.602 0.149,0.898 0.139,0.35 0.321,0.689 0.399,1 4.321,0.656 8.019,1.936 11.884,3.045 0.217,-2.771 1.646,-5.288 4.395,-5.592 1.108,-0.123 2.639,0.26 2.795,1.148 0.089,0.513 -0.09,1.174 -0.1,1.748 -0.096,5.103 0.784,7.964 3.096,10.634 2.191,2.534 4.652,4.581 5.841,7.89 0.161,0.447 0.245,1.117 0.45,1.548 0.227,0.479 1.117,1.068 1.648,1.597 0.582,0.584 1.143,1.135 1.646,1.598 4.595,4.224 8.896,8.514 13.306,12.734 l 10.053,0 c 0.036,-13.88 -0.059,-27.891 0.06,-41.691 z"
             id="path4513"
             inkscape:connector-curvature="0" /><path
             style="fill:#b59775"
             d="m 416.996,388.369 c -1.18,0.488 -2.867,0.287 -4.045,0.15 -0.649,-0.075 -1.326,-0.16 -1.947,-0.299 -1.478,-0.328 -2.08,-0.632 -2.994,-1.548 -1.99,-1.989 -3.705,-3.784 -5.993,-5.394 -0.781,-0.549 -1.96,-1.491 -3.195,-1.348 -1.009,0.117 -1.737,1.197 -1.298,2.447 -0.895,-0.535 -1.777,-2.239 -3.297,-2.048 -1.615,0.204 -1.248,2.78 -0.498,3.694 -0.549,-0.633 -1.721,-0.789 -2.197,-0.1 -0.947,1.373 0.648,3.72 1.148,4.345 -3.101,-0.538 -0.96,4.157 0.15,4.493 -0.5,-0.748 -0.941,-2.631 0.199,-2.996 1.346,0.986 2.717,2.314 4.244,3.196 0.422,0.243 1.201,0.829 1.548,0.149 -1.534,-1.297 -3.948,-2.619 -5.093,-4.494 -0.352,-0.576 -1.883,-3.596 -0.199,-3.596 0.704,0.002 1.221,1.118 1.646,1.55 0.698,0.703 1.529,1.397 2.298,2.097 0.786,0.713 1.654,1.407 2.596,1.846 0.064,-0.154 0.165,-0.268 0.3,-0.35 -0.973,-1.003 -2.054,-1.952 -3.195,-3.094 -1.039,-1.039 -2.412,-2.173 -2.598,-3.746 -0.078,-0.676 0.088,-1.311 0.5,-1.397 0.727,-0.152 1.486,0.802 1.898,1.198 1.162,1.119 2.084,1.996 3.245,2.945 0.575,0.471 1.122,1.029 1.848,1.199 0.085,-0.099 0.116,-0.249 0.249,-0.299 -0.79,-1.105 -2.141,-2.108 -3.045,-3.346 -0.434,-0.596 -1.092,-2.002 0.049,-2.147 1.051,-0.134 2.018,0.797 2.648,1.297 2.232,1.779 4.09,4.096 6.189,5.643 -0.24,0.506 -1.414,0.85 -1.498,1.447 -0.048,0.346 0.277,0.877 0.399,1.299 0.137,0.47 0.227,0.928 0.399,1.348 -1.066,0.53 -2.166,1.029 -3.245,1.549 0.321,0.961 0.776,1.786 1.099,2.746 -0.853,0.544 -1.822,0.973 -2.597,1.597 0.259,0.724 0.463,1.501 0.699,2.247 5.091,0.834 9.946,1.903 15.277,2.496 1.522,1.674 3.132,3.404 4.645,5.043 0.509,0.553 0.979,1.166 1.597,1.548 2.603,-4.603 6.402,-8.011 10.586,-11.034 -0.549,-0.367 -0.9,-0.846 -1.448,-1.348 -0.404,-0.371 -1.3,-0.902 -1.448,-1.398 -0.052,-0.172 0.028,-0.419 0,-0.648 -0.053,-0.43 -0.282,-0.977 -0.449,-1.448 -1.855,-5.26 -7.522,-6.917 -8.637,-12.633 -0.391,-1.991 -0.513,-4.456 -0.1,-7.14 -4.548,-0.657 -4.326,4.076 -4.346,8.088 -0.009,2.756 -0.365,5.479 -2.094,6.194 z m -10.486,11.035 c 0.123,-0.746 0.559,-1.604 0.799,-2.396 0.044,-0.01 0.048,0.02 0.051,0.05 2.826,0.702 5.596,1.462 8.389,2.197 -3.096,0.112 -6.114,0.034 -9.239,0.149 z m 1.348,-3.695 c 0.319,-0.713 0.558,-1.773 0.899,-2.296 2.838,0.69 5.605,1.452 8.387,2.196 -2.826,0.079 -6.053,0.103 -9.286,0.1 z"
             id="path4515"
             inkscape:connector-curvature="0" /><path
             d="m 440.961,407.643 c 1.075,1.089 2.136,2.191 3.194,3.297 l 0.786,0 c -1.334,-1.121 -2.666,-2.243 -3.98,-3.348 -0.117,-0.1 -0.117,0.023 0,0.051 z"
             id="path4517"
             inkscape:connector-curvature="0" /><path
             d="m 380.896,402.449 c 0.059,-0.824 0.117,-1.647 0.199,-2.445 -0.833,-0.299 -1.845,-0.418 -2.795,-0.6 0.039,-1.158 0.186,-2.21 0.249,-3.346 -0.903,-0.178 -2.001,-0.164 -2.997,-0.249 0.052,-1.065 0.098,-2.134 0.201,-3.146 -7.393,0.744 -12.791,3.488 -18.125,6.291 2.488,-0.339 5.372,-1.498 8.189,-1.148 0.592,0.074 1.358,0.434 1.397,1.049 0.067,1.014 -1.516,1.484 -2.295,1.797 -2.776,1.115 -6.551,1.926 -8.389,3.895 -0.578,0.618 -0.981,1.414 -1.448,2.097 -0.959,1.404 -1.908,2.852 -2.858,4.296 l 9.093,0 c 1.076,-1.456 2.159,-2.906 3.253,-4.346 6.209,-0.549 11.381,-2.206 16.326,-4.145 z"
             id="path4519"
             inkscape:connector-curvature="0" /><path
             d="m 432.323,405.547 c -0.136,-0.006 -0.849,0.868 -1.048,1.097 -1.15,1.324 -2.197,2.743 -3.102,4.296 l 7.232,0 c -0.491,-1.452 -1.076,-2.814 -1.884,-3.946 -0.246,-0.347 -1.03,-1.444 -1.198,-1.447 z"
             id="path4521"
             inkscape:connector-curvature="0" /><path
             d="m 462.531,249.216 c 0.01,-0.111 -0.055,-0.087 -0.15,-0.099 -0.246,-0.03 -0.507,-0.04 -0.767,-0.051 -0.525,-0.021 -1.066,-0.018 -1.619,0 -0.639,0.021 -1.283,0.051 -1.907,0.051 -44.555,0 -89.34,0 -133.662,0 -0.264,0.466 0.042,2.207 -0.149,2.595 l 0,15.828 c 0.085,0.517 0.091,1.761 0,2.297 l 0,7.939 c 0.09,43.872 0.052,88.889 0.05,133.163 l 1.697,0 c 0,-5.626 0,-11.252 0,-16.877 9.018,-5.203 18.493,-10.447 27.611,-15.779 0.199,-0.115 0.435,-0.245 0.6,-0.449 0.047,-0.057 -0.044,-0.132 0.049,-0.149 0.441,-0.08 0.697,-2.583 0.8,-3.395 0.046,-0.368 0.007,-0.94 0.1,-1.147 0.144,-0.32 1.594,-1.08 1.947,-1.3 4.66,-2.889 9.558,-5.569 14.03,-8.537 5.091,0.332 8.717,-1.626 11.883,-3.546 -0.156,1.875 -0.506,3.988 -0.749,5.941 -2.978,1.238 -5.327,2.789 -6.79,5.593 -0.195,0.378 -0.253,0.839 -0.599,1.147 -0.196,0.72 -0.464,1.368 -0.7,2.048 -3.525,0.602 -6.724,1.53 -9.685,2.696 0.04,-2.529 -2.899,-4.797 -5.493,-3.545 -1.363,0.657 -1.691,3.039 -2.047,4.743 -0.293,1.399 -0.603,2.862 -1.099,4.044 -1.005,2.397 -2.827,3.852 -4.444,5.793 -2.795,3.355 -5.084,6.854 -5.742,12.232 -0.092,0.751 0.014,1.578 -0.148,2.397 -0.129,0.645 -1.22,1.916 -1.598,2.496 -1.202,1.841 -2.403,3.792 -3.626,5.594 l 2.031,0 c 1.662,-2.61 3.407,-5.322 5.09,-7.891 -0.442,-5.846 2.351,-10.046 5.192,-13.281 0.994,-1.133 2.14,-2.125 3.045,-3.244 1.83,-2.26 2.627,-5.537 3.147,-9.088 0.07,-0.479 0.051,-1.116 0.199,-1.498 0.176,-0.449 0.986,-0.923 1.747,-0.849 1.185,0.116 1.839,1.638 2.148,2.945 0.309,1.314 0.34,3.174 0.149,4.595 -0.472,3.549 -2.021,8.387 0.749,10.436 2.133,-0.496 4.117,-0.838 6.392,-1.301 0.679,-0.137 1.578,-0.183 2.097,-0.447 0.477,-0.245 1.189,-1.609 1.498,-2.099 1.211,-1.913 2.141,-3.7 2.796,-6.14 0.122,-0.457 0.154,-1.03 0.35,-1.398 0.915,-1.732 4.68,-0.91 3.694,2.046 -0.01,0.041 -0.05,0.05 -0.049,0.101 0.904,-0.951 0.913,-2.666 2.046,-3.295 2.243,-1.247 3.115,1.729 2.247,3.695 0.332,-0.48 1.439,-0.881 2.098,-0.251 0.287,0.274 0.41,0.762 0.449,1.149 0.225,2.265 -1.133,4.732 -1.448,6.24 0.454,0.079 1.021,0.045 1.497,0.1 -1.361,4.779 -3.438,8.846 -5.94,12.482 -4.648,2.045 -10.138,3.243 -16.028,4.045 -0.752,0.969 -1.481,1.959 -2.214,2.947 l 2.434,0 c 0.193,-0.268 0.393,-0.527 0.579,-0.801 5.361,-0.732 10.045,-2.17 14.43,-3.994 0.615,-0.256 1.344,-0.492 1.798,-0.799 0.799,-0.534 1.667,-2.164 2.197,-3.045 0.703,-1.17 1.298,-2.279 1.797,-3.445 1.089,-2.542 1.848,-5.153 2.946,-7.539 0.926,-0.404 1.314,0.857 1.648,1.348 0.311,0.456 0.838,0.845 1.248,1.299 2.352,2.61 4.704,5.385 7.589,7.639 0.48,0.375 1.074,0.856 1.498,0.998 0.612,0.205 1.384,0.191 2.097,0.3 4.066,0.609 8.16,1.388 12.383,1.948 0.74,0.098 1.568,0.042 2.098,0.248 0.48,0.189 1.053,1.148 1.447,1.598 1.181,1.347 2.651,2.882 3.744,4.246 l 3.23,0 c 0.811,-1.442 1.751,-2.744 2.712,-3.897 2.237,-2.686 4.684,-4.918 7.689,-6.689 3.715,3.527 7.429,7.057 11.143,10.586 l 2.861,0 c -4.409,-4.221 -8.711,-8.511 -13.306,-12.734 -0.503,-0.463 -1.063,-1.014 -1.646,-1.598 -0.531,-0.528 -1.422,-1.117 -1.648,-1.597 -0.205,-0.431 -0.289,-1.1 -0.45,-1.548 -1.189,-3.309 -3.649,-5.355 -5.841,-7.89 -2.312,-2.67 -3.191,-5.53 -3.096,-10.634 0.01,-0.574 0.188,-1.235 0.1,-1.748 -0.156,-0.889 -1.686,-1.272 -2.795,-1.148 -2.748,0.304 -4.178,2.82 -4.395,5.592 -3.865,-1.109 -7.563,-2.389 -11.884,-3.045 -0.078,-0.311 -0.261,-0.65 -0.399,-1 -0.119,-0.297 -0.371,-0.691 -0.149,-0.898 -0.775,-0.762 -1.084,-2.248 -1.648,-3.145 -1.326,-2.116 -3.58,-3.163 -6.441,-3.994 -0.993,-3.684 -1.529,-7.823 -1.598,-12.434 2.002,-0.275 4.528,-1.155 5.093,-2.945 0.288,-0.914 -0.21,-1.777 -0.699,-2.297 -0.214,-0.228 -0.54,-0.38 -0.649,-0.648 1.658,-0.209 3.352,-1.427 2.797,-3.246 -0.273,-0.891 -0.942,-1.256 -1.598,-1.847 0.696,-0.229 1.111,-0.599 1.398,-1.149 1.175,-2.239 -1.402,-3.88 -3.095,-4.242 0.517,-1.064 1.082,-2.08 1.598,-3.146 3.559,0.51 7.867,-0.093 9.088,-2.647 0.206,-0.434 0.319,-1.013 0.299,-1.598 1.913,-0.143 3.687,-0.201 5.543,-0.5 0.512,-0.082 1.111,-0.375 1.647,-0.35 0.426,0.022 1.264,0.943 1.896,1.248 1.112,0.536 3.613,1.193 4.195,-0.199 0.21,-0.504 0.082,-1.199 -0.1,-1.697 -0.016,-0.09 0.047,-0.103 0.05,-0.051 3.203,2.37 6.605,4.704 11.632,5.244 0.686,0.072 1.55,-0.092 2.297,0.1 0.502,0.127 1.104,1.131 1.498,1.598 1.467,1.732 2.782,3.209 4.193,4.992 -0.506,1.125 -0.79,2.533 -0.898,4.096 -0.102,1.492 -0.083,3.225 0.451,4.393 0.197,0.436 0.723,0.863 1.147,1.35 5.725,6.535 11.945,13.213 17.526,19.671 -0.119,13.8 -0.024,27.811 -0.06,41.692 l 1.59,0 c 0.058,-53.781 -0.015,-108.292 0.014,-161.724 z m -28.11,53.626 c -0.315,0.064 -0.651,-0.332 -0.997,-0.55 -0.373,-0.233 -0.792,-0.425 -1.051,-0.698 -0.627,-5.146 -2.715,-8.862 -5.941,-11.635 -1.597,-1.372 -3.483,-2.438 -6.189,-2.596 -4.279,-0.252 -7.935,1.67 -8.59,5.342 -0.142,0.807 -0.279,1.879 -0.148,2.746 0.166,1.105 1.246,2.646 2.246,2.846 0.432,0.088 0.78,-0.064 1.299,0 -0.916,0.887 -3.125,0.213 -4.143,-0.299 -1.159,-0.582 -2.296,-2.006 -2.546,-3.047 -0.439,-1.813 0.314,-4 1.047,-5.342 0.74,-1.355 1.791,-2.845 3.096,-3.596 1.286,-0.738 3.394,-0.949 5.043,-1.147 1.264,-0.151 2.717,0.16 3.945,0.449 3.545,0.835 6.187,2.584 8.188,4.843 2.813,3.182 5.041,6.733 4.741,12.684 z m -4.694,-1.799 c -2.961,-0.663 -7.738,-1.389 -9.186,1.148 -0.696,1.22 -0.594,3.563 0.199,4.645 -3.372,-0.39 -5.689,3.766 -3.345,5.941 -2.58,-0.52 -4.387,2.359 -3.097,4.443 0.203,0.324 0.545,0.611 0.75,0.85 -1.162,0.242 -2.324,0.807 -2.697,1.896 -0.354,1.033 0.017,2.171 0.549,2.945 -2.218,1.027 -5.727,0.764 -7.988,1.748 3.49,-7.129 6.514,-14.725 7.739,-24.116 2.587,-0.104 4.506,-1.197 5.543,-3.096 0.396,-0.725 0.716,-1.616 0.699,-2.446 -0.03,-1.408 -0.849,-2.152 -1.498,-3.046 0.837,-0.175 1.532,-0.39 2.397,-0.449 3.101,-0.214 5.294,1.261 6.839,2.896 1.657,1.752 2.633,4.096 3.096,6.641 z m -14.278,-7.488 c 1.715,-0.408 1.791,2.046 0.447,2.196 -1.356,0.152 -1.769,-1.884 -0.447,-2.196 z m 12.482,-7.49 c -1.952,-1.279 -4.507,-2.469 -7.54,-2.746 -3.101,-0.284 -6.379,0.211 -8.537,1.447 -0.156,-1.791 -0.391,-3.503 -0.8,-5.042 -5.327,-3.434 -13.586,-5.457 -22.268,-5.092 -8.76,0.368 -15.98,2.584 -20.67,6.939 -0.13,1.385 -0.396,2.633 -0.551,3.994 -2.982,-1.639 -7.393,-1.719 -10.934,-0.899 -6.989,1.62 -11.418,5.891 -12.832,13.132 -0.688,3.522 -0.623,7.896 0.101,11.784 1.359,7.318 4.149,13.089 9.785,16.227 2.859,1.591 6.239,2.313 10.136,2.847 3.664,0.5 7.289,1.194 9.387,3.595 -0.99,1.721 0.129,3.771 1.798,4.044 0.122,0.062 -0.175,0.29 -0.3,0.4 -4.181,3.662 -8.397,7.305 -12.633,11.084 -0.582,0.521 -1.244,1.365 -1.847,1.648 -0.022,0.01 -0.104,0.049 -0.101,0.049 -7.051,1.736 -14.172,3.886 -21.319,5.842 -2.831,0.775 -5.616,1.634 -8.487,2.397 -1.414,0.377 -2.81,0.84 -4.244,1.049 -0.016,-2.95 -0.028,-5.921 -0.039,-8.901 -0.004,-1.21 -0.007,-2.425 -0.011,-3.639 -0.005,-1.76 -0.009,-3.522 -0.013,-5.289 -0.003,-1.444 -0.006,-2.891 -0.008,-4.339 -0.002,-1.55 -0.003,-3.103 -0.005,-4.656 -0.001,-1.526 -0.002,-3.053 -0.003,-4.583 0,-1.47 0,-2.943 0,-4.416 0,-3.284 0.002,-6.571 0.004,-9.862 10e-4,-1.006 10e-4,-2.011 0.002,-3.017 10e-4,-1.715 0.003,-3.43 0.004,-5.145 0.002,-2.182 0.004,-4.36 0.006,-6.54 10e-4,-1.009 0.002,-2.018 0.003,-3.026 0,-0.393 0.001,-0.788 0.001,-1.182 l 0.01,0 0,-17.743 0,-7.236 0,-2.197 0,-14.528 0,-1.469 0.431,0 0.001,0 c 0.012,0.005 0.023,0.01 0.035,0.015 l 133.809,0 0,0 c 0.014,-0.005 0.028,-0.01 0.04,-0.015 l 0.511,0 c 0.066,0.568 0.023,1.245 0.027,1.876 l 0,10e-4 c 10e-4,0.002 0,0.005 10e-4,0.007 0.008,0.027 0.012,0.059 0.014,0.094 0.004,0.052 0.002,0.111 -0.011,0.188 -0.004,-0.094 -0.002,-0.193 -0.004,-0.29 -10e-4,-0.003 -0.003,-0.003 -0.004,-0.006 -0.014,-0.045 -0.035,-0.074 -0.064,-0.094 l 0,0.024 0,16.803 c 0.023,0.014 0.048,0.025 0.071,0.04 0,0.732 0,1.465 0,2.197 -0.023,0.002 -0.047,-0.002 -0.071,-0.004 l 0,9.649 0,0 c 0.034,0.068 0.059,0.133 0.071,0.19 0.014,0.064 0.023,0.134 0.033,0.204 l 0,0.085 0,1.67 c 0,10e-4 0,0.002 0,0.003 -0.016,0.316 -0.033,0.633 -0.033,0.933 0,14.37 0,28.707 0,42.989 -0.221,0.069 -0.334,-0.191 -0.449,-0.3 -4.346,-4.125 -8.603,-8.305 -12.931,-12.631 -0.569,-0.569 -1.595,-1.256 -1.897,-1.848 -0.245,-0.479 -0.334,-1.152 -0.5,-1.698 -0.17,-0.561 -0.346,-1.128 -0.5,-1.647 -0.326,-1.102 -0.514,-2.309 -0.998,-3.346 -0.319,-0.684 -1.229,-1.33 -1.848,-1.947 -1.914,-1.914 -3.824,-3.791 -5.84,-5.492 -0.873,-5.768 -3.878,-9.884 -7.989,-12.581 z m -57.171,0.5 c 1.206,-0.676 2.385,-1.379 3.646,-1.998 -1.813,5.803 -1.902,13.912 -1.15,20.82 0.74,6.79 2.294,13.314 3.996,18.624 -5.123,-9.554 -7.625,-23.371 -6.492,-37.446 z m -3.295,12.582 c 1.367,10.482 4.977,18.723 8.738,26.811 -3.712,-2.661 -8.379,-3.134 -13.281,-3.994 -4.768,-0.838 -8.065,-3.564 -9.936,-7.29 -2.929,-5.824 -2.735,-16.27 1.946,-19.972 1.814,-1.433 4.83,-2.817 7.989,-2.197 0.07,0.12 -0.178,0.271 -0.3,0.399 -0.978,1.039 -1.396,3.253 -0.649,4.744 0.899,1.791 3.544,2.552 5.493,1.499 z m -20.67,12.232 c -2.047,-5.159 -2.26,-13.039 0.25,-17.775 1.174,-2.217 3.032,-4.018 5.292,-5.292 3.877,-2.186 10.461,-3.622 14.929,-1.099 -0.101,0.709 -0.16,1.688 -0.051,2.447 -2.486,-1.428 -6.557,-1.752 -9.586,-0.949 -2.9,0.77 -5.514,2.369 -7.289,4.144 -1.967,1.967 -3.203,4.378 -3.695,7.739 -0.485,3.309 -0.221,7.198 0.15,10.785 z m 18.574,-14.38 c -0.833,0.441 -2.058,0.06 -2.248,-0.998 -0.193,-1.082 0.416,-1.657 1.199,-1.798 1.743,-0.312 2.516,2.02 1.049,2.796 z m -12.283,79.239 c -8.83,5.281 -18.014,10.212 -27.062,15.277 0,-3.927 0,-8.491 0,-12.633 0,-0.605 -0.111,-1.315 0,-1.797 0.086,-0.363 0.565,-0.843 0.85,-1.198 0.307,-0.385 0.609,-0.806 0.949,-0.948 0.4,1.396 0.939,2.654 1.346,4.043 0.158,-1.439 0.192,-3.282 0.251,-4.842 0.013,-0.313 -0.084,-0.747 0,-1.051 0.167,-0.604 1.221,-1.084 1.599,-1.547 0.615,1.881 1.314,3.68 1.897,5.593 0.166,-1.683 0.213,-4.052 0.3,-6.091 0.018,-0.424 -0.066,-0.901 0.05,-1.299 0.123,-0.428 0.838,-0.721 1.198,-0.998 0.688,2.207 1.506,4.285 2.196,6.49 0.234,-2.229 0.213,-5.506 0.35,-8.039 0.195,-0.287 0.649,-0.315 0.898,-0.55 0.982,2.482 1.821,5.107 2.697,7.69 0.216,-2.764 0.223,-5.809 0.35,-8.787 0.205,-0.013 0.407,-0.024 0.549,-0.102 1.021,2.642 1.923,5.402 2.846,8.139 0.207,-2.582 0.208,-4.895 0.299,-7.639 3.395,1 3.861,4.93 4.595,8.588 1.162,-5.727 0.621,-13.137 -1.448,-17.574 -7.279,2.007 -14.492,4.082 -21.77,6.092 0,-0.783 0,-1.565 0,-2.348 8.074,-2.245 16.281,-4.623 24.267,-6.791 3.719,4.848 3.889,14.63 2.793,22.322 z m 22.918,-15.879 c -3.582,0.732 -7.769,0.428 -10.586,-1.098 0.657,1.67 -0.66,3.035 -1.647,3.895 -2.232,1.938 -5.641,3.543 -8.289,4.693 -0.045,-5.914 -0.792,-11.125 -3.396,-14.48 2.366,-0.617 4.513,-1.203 6.891,-1.797 0.725,-0.182 1.595,-0.297 2.247,-0.6 0.375,-0.176 0.817,-0.653 1.248,-1.047 2.75,-2.524 5.693,-5.024 8.438,-7.44 3.253,-2.866 6.643,-5.931 9.786,-8.588 0.961,0.486 1.785,1.109 2.746,1.597 -0.329,1.152 -0.717,2.248 -1.049,3.396 0.963,0.666 2.075,1.186 3.045,1.847 -0.401,1.279 -0.847,2.515 -1.248,3.795 0.955,0.542 2.033,0.962 3.046,1.448 -0.437,1.11 -0.855,2.24 -1.349,3.295 0.898,0.384 1.941,0.622 2.896,0.949 -0.365,1.258 -0.984,2.439 -1.746,3.445 -0.727,0.955 -1.576,1.993 -2.448,2.746 -2.136,1.849 -5.316,3.276 -8.585,3.944 z m 13.332,-7.14 c 0.558,-0.934 0.969,-1.964 1.496,-2.795 0.029,-0.044 0.078,-0.181 0.15,-0.1 0.991,0.073 1.982,0.148 2.896,0.299 -0.228,5.225 0.357,10.096 1.248,14.479 -2.604,-0.492 -5.865,-0.211 -8.69,-0.198 0.411,-3.194 0.072,-6.471 1.049,-8.887 0.213,-0.522 0.692,-0.946 1.049,-1.448 0.301,-0.423 0.543,-0.918 0.802,-1.35 z m -0.501,-6.84 c 0.038,-0.361 0.097,-0.701 0.249,-0.948 2.025,0.188 3.988,0.44 5.943,0.698 -0.076,0.291 -0.167,0.565 -0.201,0.899 -2.066,-0.145 -3.933,-0.491 -5.991,-0.649 z m 30.257,35.799 c 0.02,-4.012 -0.202,-8.745 4.346,-8.088 -0.413,2.684 -0.291,5.148 0.1,7.14 1.115,5.716 6.781,7.373 8.637,12.633 0.167,0.472 0.396,1.019 0.449,1.448 0.028,0.229 -0.052,0.477 0,0.648 0.148,0.496 1.044,1.027 1.448,1.398 0.548,0.502 0.899,0.98 1.448,1.348 -4.184,3.023 -7.982,6.432 -10.586,11.034 -0.617,-0.382 -1.088,-0.995 -1.597,-1.548 -1.513,-1.639 -3.123,-3.369 -4.645,-5.043 -5.331,-0.593 -10.186,-1.662 -15.277,-2.496 -0.236,-0.746 -0.44,-1.523 -0.699,-2.247 0.774,-0.624 1.743,-1.053 2.597,-1.597 -0.322,-0.96 -0.777,-1.785 -1.099,-2.746 1.079,-0.52 2.179,-1.019 3.245,-1.549 -0.172,-0.42 -0.263,-0.878 -0.399,-1.348 -0.122,-0.422 -0.447,-0.953 -0.399,-1.299 0.084,-0.598 1.258,-0.941 1.498,-1.447 -2.1,-1.547 -3.957,-3.863 -6.189,-5.643 -0.631,-0.5 -1.598,-1.431 -2.648,-1.297 -1.141,0.145 -0.482,1.551 -0.049,2.147 0.904,1.238 2.255,2.241 3.045,3.346 -0.133,0.05 -0.164,0.2 -0.249,0.299 -0.726,-0.17 -1.272,-0.729 -1.848,-1.199 -1.161,-0.949 -2.083,-1.826 -3.245,-2.945 -0.412,-0.397 -1.172,-1.351 -1.898,-1.198 -0.412,0.087 -0.578,0.722 -0.5,1.397 0.185,1.573 1.559,2.707 2.598,3.746 1.142,1.142 2.223,2.091 3.195,3.094 -0.135,0.082 -0.236,0.195 -0.3,0.35 -0.941,-0.438 -1.809,-1.133 -2.596,-1.846 -0.769,-0.699 -1.6,-1.393 -2.298,-2.097 -0.426,-0.432 -0.942,-1.548 -1.646,-1.55 -1.684,0 -0.153,3.02 0.199,3.596 1.145,1.875 3.559,3.197 5.093,4.494 -0.347,0.68 -1.126,0.094 -1.548,-0.149 -1.527,-0.882 -2.898,-2.21 -4.244,-3.196 -1.141,0.365 -0.699,2.248 -0.199,2.996 -1.11,-0.336 -3.251,-5.031 -0.15,-4.493 -0.5,-0.625 -2.096,-2.972 -1.148,-4.345 0.477,-0.69 1.648,-0.533 2.197,0.1 -0.75,-0.914 -1.117,-3.49 0.498,-3.694 1.52,-0.191 2.402,1.513 3.297,2.048 -0.439,-1.25 0.289,-2.33 1.298,-2.447 1.235,-0.143 2.414,0.799 3.195,1.348 2.288,1.609 4.003,3.404 5.993,5.394 0.914,0.916 1.516,1.22 2.994,1.548 0.621,0.139 1.298,0.224 1.947,0.299 1.178,0.137 2.865,0.338 4.045,-0.15 1.727,-0.718 2.083,-3.441 2.094,-6.194 z m -15.327,-6.29 c 5.011,0.818 9.687,2.034 13.831,3.444 0.066,0.845 0.063,2.438 0.1,3.495 -3.805,-1.218 -7.861,-2.652 -12.184,-3.545 -4.39,-0.905 -8.871,-1.645 -13.781,-1.647 -10.101,0 -19.44,1.387 -26.712,4.594 -0.093,-1.255 -0.272,-2.422 -0.35,-3.695 10.595,-3.602 26.058,-4.776 39.096,-2.646 z m -3.245,-6.891 c 1.697,1.22 2.181,3.278 3.045,5.044 -7.211,-0.935 -15.815,-1.545 -22.867,-0.251 0.578,-3.888 3.8,-6.352 7.59,-7.089 0.942,-0.185 2.502,-0.076 3.643,0 1.133,0.073 2.281,0.16 3.297,0.35 1.915,0.355 3.969,0.996 5.292,1.946 z m -4.394,-27.211 c -2.677,-0.286 -5.235,-0.69 -7.89,-0.999 0.132,-0.283 0.117,-0.714 0.299,-0.948 2.609,0.319 5.158,0.7 7.79,0.999 0.044,0.24 -0.128,0.66 -0.199,0.948 z m 0.798,-5.344 c -1.506,-0.122 -2.988,-0.497 -4.345,-0.349 1.362,-0.979 3.232,-1.932 4.645,-2.945 0.263,-0.188 1.093,0.268 1.448,0.199 -0.476,1.139 -1.162,2.068 -1.748,3.095 z m 3.944,-7.988 c -1.214,-0.17 -2.374,-0.426 -3.595,-0.599 -1.189,-0.168 -2.546,-0.457 -3.844,-0.3 -0.875,0.106 -1.825,0.629 -2.748,0.948 -2.678,0.932 -5.628,1.905 -8.088,2.947 -3.872,-9.941 -6.226,-23.678 -4.743,-37.547 0.337,-3.15 0.81,-6.396 1.647,-9.188 0.244,-0.809 0.309,-2.099 1.398,-2.197 0.012,0.849 -0.135,1.795 -0.25,2.846 -0.727,6.69 -0.963,14.293 -0.199,21.221 0.874,7.927 2.615,14.883 5.791,20.32 0.041,0.01 0.051,0.051 0.102,0.051 -3.938,-12.678 -4.279,-31.984 -0.801,-45.286 0.498,-0.084 1.044,-0.122 1.549,-0.2 -2.293,12.984 -2.146,30.248 3.096,40.144 -2.852,-12.302 -1.977,-28.631 0.949,-40.394 7.014,-0.072 12.384,1.496 16.826,3.994 -0.191,-0.549 0.06,-1.515 -0.199,-2.096 -0.166,-0.368 -1.303,-0.813 -1.898,-1.1 -5.943,-2.858 -14.969,-3.643 -23.117,-2.346 -4.885,0.778 -9.421,2.852 -12.684,5.143 0.326,-0.682 0.213,-2.051 0.602,-2.746 0.203,-0.368 1.275,-0.913 1.847,-1.249 1.976,-1.158 4.235,-2.053 6.59,-2.696 3.431,-0.938 7.008,-1.281 10.786,-1.448 8.148,-0.362 14.976,1.724 19.921,4.543 0.121,1.07 0.281,2.343 0.45,3.545 0.055,0.394 0.199,0.863 0.148,1.148 -0.053,0.298 -0.568,0.689 -0.797,0.949 -1.664,1.884 -3.62,5.358 -2.548,9.088 0.268,0.932 0.92,1.713 1.498,2.397 0.612,0.722 1.267,1.27 2.247,1.647 -0.463,5.793 -2.046,10.807 -3.745,15.478 -1.698,4.674 -3.629,9.068 -6.191,12.983 z m 7.34,-0.599 c 0.524,1.902 -0.571,3.088 -1.798,3.695 -0.308,-1.84 -1.995,-2.299 -3.793,-2.647 1.326,-2.343 4.436,-3.391 7.838,-3.795 2.803,-0.333 5.371,-0.341 7.49,-1.598 0.609,0.873 1.641,1.588 2.147,2.396 -3.332,1.306 -7.516,1.973 -11.884,1.949 z m 31.405,4.594 c 1.078,-0.553 2.142,-1.121 2.846,-2.048 -1.218,0.478 -2.913,0.28 -4.194,0.35 -0.456,0.024 -1.09,0.203 -1.598,0.2 -1.962,-0.01 -3.784,-0.557 -5.493,-1.148 -4.017,-1.392 -7.468,-3.432 -10.333,-6.191 -0.517,-0.497 -1.407,-1.299 -1.548,-1.747 -0.251,-0.795 0.009,-2.027 -0.251,-2.796 0.935,-0.447 1.872,-0.893 2.848,-1.299 -0.247,-0.969 -0.625,-1.805 -0.899,-2.746 0.946,-0.918 2.08,-1.646 3.046,-2.546 -0.136,-1.161 -0.426,-2.171 -0.55,-3.345 1.295,-0.369 2.497,-0.834 3.795,-1.199 -0.293,-1.188 -0.677,-2.287 -0.95,-3.495 1.081,-0.518 2.105,-1.091 3.196,-1.597 3.961,1.862 7.294,4.355 10.287,7.189 -0.863,-2.174 -1.736,-4.139 -3.147,-5.893 -0.195,-0.244 -0.501,-0.521 -0.549,-0.699 -0.177,-0.645 0.135,-1.397 0,-1.997 0.238,-0.028 0.444,0.346 0.699,0.601 1.179,1.18 2.381,2.38 3.646,3.645 0.455,0.454 1.208,0.974 1.447,1.447 0.219,0.434 0.338,1.135 0.5,1.697 0.33,1.145 0.607,2.192 0.947,3.346 0.162,0.546 0.266,1.19 0.5,1.647 0.18,0.353 0.699,0.841 1.098,1.249 2.385,2.434 4.441,4.74 6.892,7.189 0.38,0.38 1.01,0.879 1.099,1.198 0.195,0.707 -0.051,1.953 -0.15,2.796 -0.316,2.665 -1.048,4.91 -1.998,6.841 -1.326,2.7 -2.949,4.899 -5.293,6.44 -2.037,-2.29 -3.989,-4.665 -5.893,-7.089 z m 20.072,29.908 c 0.384,0.441 1.102,1.064 1.197,1.446 0.197,0.776 -0.148,1.788 0,2.496 -4.18,-4.54 -8.166,-9.275 -12.332,-13.829 4.053,-4.469 7.405,-9.637 7.34,-18.225 -1,3.102 -2.324,6.015 -3.895,8.589 -1.557,2.55 -3.397,4.923 -6.141,6.29 -0.768,-0.497 -1.319,-1.211 -1.898,-1.896 3.141,-2.418 5.127,-5.925 6.84,-9.687 1.707,-3.747 3.372,-7.835 4.096,-12.433 0,-0.05 0,-0.1 0,-0.15 1.522,1.498 2.981,3.049 4.543,4.693 0.445,0.469 1.332,1.176 1.447,1.6 0.183,0.666 0,1.859 0,2.795 0,6.42 0,13.059 0,19.372 -0.213,0.071 -0.434,-0.213 -0.549,-0.349 -1.094,-1.293 -1.615,-3.524 -1.997,-5.543 -0.462,-2.436 -0.689,-5.131 -1.198,-7.389 -0.414,2.277 -1.133,4.48 -2.047,6.44 -1.058,2.266 -2.221,4.505 -4.145,5.843 2.775,3.328 5.793,6.56 8.739,9.937 z"
             id="path4523"
             inkscape:connector-curvature="0" /></g><g
         id="frame"
         transform="matrix(0.85443038,0,0,0.84741804,-268.51842,-173.66901)"><path
             style="fill:#e87d1e"
             d="m 472.266,410.94 -158,0 0,-206.001 158,0 0,206.001 z m -12,-145.195 -134,0 0,134 134,0 0,-134 z"
             id="path4526"
             inkscape:connector-curvature="0" /><rect
             x="320.267"
             y="210.94"
             style="fill:none;stroke:#ffffff;stroke-width:2"
             width="146"
             height="194"
             id="rect4528" /><g
             id="g4530"><path
                 style="fill:#ffffff"
                 d="m 330.603,221.971 9.345,0 0,1.98 -7.13,0 0,3.277 6.32,0 0,1.981 -6.32,0 0,3.385 7.22,0 0,1.98 -9.435,0 0,-12.603 z"
                 id="path4532"
                 inkscape:connector-curvature="0" /><path
                 style="fill:#ffffff"
                 d="m 343.563,221.971 2.052,0 6.753,8.714 0,-8.714 2.178,0 0,12.604 -1.854,0 -6.95,-8.967 0,8.967 -2.179,0 0,-12.604 z"
                 id="path4534"
                 inkscape:connector-curvature="0" /><path
                 style="fill:#ffffff"
                 d="m 358.125,228.309 0,-0.036 c 0,-3.583 2.683,-6.518 6.499,-6.518 2.323,0 3.728,0.81 4.934,1.962 l -1.422,1.639 c -1.008,-0.937 -2.088,-1.566 -3.529,-1.566 -2.395,0 -4.159,1.98 -4.159,4.447 l 0,0.036 c 0,2.467 1.746,4.465 4.159,4.465 1.548,0 2.539,-0.612 3.619,-1.621 l 1.422,1.44 c -1.314,1.368 -2.755,2.232 -5.114,2.232 -3.672,0.001 -6.409,-2.862 -6.409,-6.48 z"
                 id="path4536"
                 inkscape:connector-curvature="0" /><path
                 style="fill:#ffffff"
                 d="m 371.949,228.309 0,-0.036 c 0,-3.547 2.737,-6.518 6.608,-6.518 3.871,0 6.572,2.935 6.572,6.482 l 0,0.036 c 0,3.547 -2.737,6.517 -6.608,6.517 -3.871,0 -6.572,-2.934 -6.572,-6.481 z m 10.857,0 0,-0.036 c 0,-2.449 -1.782,-4.483 -4.285,-4.483 -2.503,0 -4.249,1.999 -4.249,4.447 l 0,0.036 c 0,2.449 1.782,4.465 4.285,4.465 2.503,0 4.249,-1.981 4.249,-4.429 z"
                 id="path4538"
                 inkscape:connector-curvature="0" /><path
                 style="fill:#ffffff"
                 d="m 388.509,229.227 0,-7.256 2.215,0 0,7.166 c 0,2.341 1.206,3.583 3.187,3.583 1.962,0 3.169,-1.17 3.169,-3.493 l 0,-7.256 2.214,0 0,7.148 c 0,3.763 -2.124,5.654 -5.419,5.654 -3.277,0 -5.366,-1.891 -5.366,-5.546 z"
                 id="path4540"
                 inkscape:connector-curvature="0" /><path
                 style="fill:#ffffff"
                 d="m 403.232,221.971 5.618,0 c 1.585,0 2.827,0.468 3.638,1.26 0.666,0.684 1.043,1.621 1.043,2.719 l 0,0.036 c 0,2.07 -1.242,3.313 -2.988,3.817 l 3.402,4.771 -2.628,0 -3.097,-4.393 -2.773,0 0,4.393 -2.215,0 0,-12.603 z m 5.456,6.247 c 1.585,0 2.593,-0.828 2.593,-2.106 l 0,-0.036 c 0,-1.351 -0.973,-2.088 -2.611,-2.088 l -3.223,0 0,4.231 3.241,0 z"
                 id="path4542"
                 inkscape:connector-curvature="0" /><path
                 style="fill:#ffffff"
                 d="m 421.611,221.88 2.053,0 5.546,12.694 -2.341,0 -1.278,-3.043 -5.96,0 -1.297,3.043 -2.268,0 5.545,-12.694 z m 3.17,7.689 -2.18,-5.042 -2.16,5.042 4.34,0 z"
                 id="path4544"
                 inkscape:connector-curvature="0" /><path
                 style="fill:#ffffff"
                 d="m 430.916,228.309 0,-0.036 c 0,-3.529 2.701,-6.518 6.5,-6.518 2.196,0 3.547,0.612 4.844,1.71 l -1.404,1.675 c -0.973,-0.829 -1.928,-1.35 -3.529,-1.35 -2.323,0 -4.088,2.035 -4.088,4.447 l 0,0.036 c 0,2.593 1.711,4.501 4.285,4.501 1.19,0 2.27,-0.378 3.043,-0.954 l 0,-2.358 -3.223,0 0,-1.927 5.365,0 0,5.293 c -1.242,1.063 -3.024,1.962 -5.258,1.962 -3.942,0 -6.535,-2.809 -6.535,-6.481 z"
                 id="path4546"
                 inkscape:connector-curvature="0" /><path
                 style="fill:#ffffff"
                 d="m 446.486,221.971 9.345,0 0,1.98 -7.13,0 0,3.277 6.32,0 0,1.981 -6.32,0 0,3.385 7.22,0 0,1.98 -9.435,0 0,-12.603 z"
                 id="path4548"
                 inkscape:connector-curvature="0" /></g><g
             id="g4550"><path
                 style="fill:#ffffff"
                 d="m 334.533,245.569 -3.997,0 0,-2.052 10.227,0 0,2.052 -3.997,0 0,10.551 -2.233,0 0,-10.551 z"
                 id="path4552"
                 inkscape:connector-curvature="0" /><path
                 style="fill:#ffffff"
                 d="m 345.513,243.517 2.214,0 0,5.239 6.014,0 0,-5.239 2.214,0 0,12.604 -2.214,0 0,-5.312 -6.014,0 0,5.312 -2.214,0 0,-12.604 z"
                 id="path4554"
                 inkscape:connector-curvature="0" /><path
                 style="fill:#ffffff"
                 d="m 361.604,243.517 9.345,0 0,1.98 -7.13,0 0,3.277 6.32,0 0,1.98 -6.32,0 0,3.385 7.22,0 0,1.981 -9.435,0 0,-12.603 z"
                 id="path4556"
                 inkscape:connector-curvature="0" /><path
                 style="fill:#ffffff"
                 d="m 383.888,243.517 2.214,0 0,5.239 6.014,0 0,-5.239 2.214,0 0,12.604 -2.214,0 0,-5.312 -6.014,0 0,5.312 -2.214,0 0,-12.604 z"
                 id="path4558"
                 inkscape:connector-curvature="0" /><path
                 style="fill:#ffffff"
                 d="m 399.98,243.517 9.344,0 0,1.98 -7.13,0 0,3.277 6.319,0 0,1.98 -6.319,0 0,3.385 7.22,0 0,1.981 -9.434,0 0,-12.603 z"
                 id="path4560"
                 inkscape:connector-curvature="0" /><path
                 style="fill:#ffffff"
                 d="m 418.918,243.426 2.053,0 5.545,12.694 -2.341,0 -1.278,-3.043 -5.959,0 -1.297,3.043 -2.27,0 5.547,-12.694 z m 3.168,7.689 -2.178,-5.042 -2.161,5.042 4.339,0 z"
                 id="path4562"
                 inkscape:connector-curvature="0" /><path
                 style="fill:#ffffff"
                 d="m 431.084,243.517 5.617,0 c 1.584,0 2.826,0.468 3.637,1.26 0.666,0.684 1.045,1.621 1.045,2.719 l 0,0.036 c 0,2.07 -1.242,3.313 -2.989,3.817 l 3.403,4.772 -2.629,0 -3.098,-4.394 -2.772,0 0,4.394 -2.214,0 0,-12.604 z m 5.455,6.247 c 1.584,0 2.593,-0.828 2.593,-2.106 l 0,-0.036 c 0,-1.351 -0.972,-2.088 -2.61,-2.088 l -3.224,0 0,4.231 3.241,0 z"
                 id="path4564"
                 inkscape:connector-curvature="0" /><path
                 style="fill:#ffffff"
                 d="m 449.553,245.569 -3.998,0 0,-2.052 10.228,0 0,2.052 -3.997,0 0,10.551 -2.232,0 0,-10.551 z"
                 id="path4566"
                 inkscape:connector-curvature="0" /></g></g></svg>