<?xml version="1.0" encoding="UTF-8" standalone="no"?>
<!-- Generator: Adobe Illustrator 18.0.0, SVG Export Plug-In . SVG Version: 6.00 Build 0)  -->

<svg
   xmlns:dc="http://purl.org/dc/elements/1.1/"
   xmlns:cc="http://creativecommons.org/ns#"
   xmlns:rdf="http://www.w3.org/1999/02/22-rdf-syntax-ns#"
   xmlns:svg="http://www.w3.org/2000/svg"
   xmlns="http://www.w3.org/2000/svg"
   xmlns:sodipodi="http://sodipodi.sourceforge.net/DTD/sodipodi-0.dtd"
   xmlns:inkscape="http://www.inkscape.org/namespaces/inkscape"
   version="1.1"
   id="Layer_1"
   x="0px"
   y="0px"
   viewBox="0 0 154.8 93.599995"
   xml:space="preserve"
   inkscape:version="0.91 r13725"
   sodipodi:docname="Feedback.svg"
   width="1.72in"
   height="1.04in"><metadata
     id="metadata17"><rdf:RDF><cc:Work
         rdf:about=""><dc:format>image/svg+xml</dc:format><dc:type
           rdf:resource="http://purl.org/dc/dcmitype/StillImage" /><dc:title></dc:title></cc:Work></rdf:RDF></metadata><defs
     id="defs15" /><sodipodi:namedview
     pagecolor="#ffffff"
     bordercolor="#666666"
     borderopacity="1"
     objecttolerance="10"
     gridtolerance="10"
     guidetolerance="10"
     inkscape:pageopacity="0"
     inkscape:pageshadow="2"
     inkscape:window-width="1680"
     inkscape:window-height="1031"
     id="namedview13"
     showgrid="false"
     units="in"
     inkscape:showpageshadow="false"
     inkscape:zoom="1.9237687"
     inkscape:cx="234.07666"
     inkscape:cy="-20.273997"
     inkscape:window-x="-4"
     inkscape:window-y="-4"
     inkscape:window-maximized="1"
     inkscape:current-layer="Layer_1" /><g
     id="g3"
     transform="matrix(0.88332015,0,0,0.87744919,-160.74014,-307.10657)"><path
       style="fill:#e6e7e8;stroke:#58595b;stroke-width:3;stroke-miterlimit:10"
       d="m 318.706,426.405 c -0.447,0.196 -0.603,0.267 -0.761,0.334 -5.257,2.221 -6.864,7.695 -3.214,11.162 2.564,2.435 5.718,3.494 9.23,3.301 6.261,-0.343 9.606,-3.848 9.825,-10.024 0.018,-0.498 0.728,-1.187 1.272,-1.413 2.368,-0.985 4.902,-1.619 7.176,-2.773 5.319,-2.7 8.118,-6.52 6.82,-10.379 -1.073,-3.192 -0.086,-4.654 1.945,-6.947 8.326,-9.397 5.298,-26.764 -5.728,-34.296 -9.017,-6.16 -19.319,-7.969 -29.933,-8.197 -12.971,-0.279 -24.891,2.737 -34.204,12.534 -7.371,7.754 -8.868,17.091 -3.867,24.72 7.469,11.393 18.526,16.657 31.703,18.347 2.864,0.367 6.234,-1.555 8.569,1.598 0.442,0.594 0.746,1.289 1.167,2.033 z m -10.796,26.494 c 1.099,-0.254 2.243,-0.389 3.29,-0.782 4.024,-1.509 5.68,-6.78 2.986,-9.335 -3.381,-3.207 -10.148,-3.063 -13.008,0.592 -0.987,1.261 -1.885,3.851 -1.258,4.871 1.683,2.736 4.357,4.681 7.99,4.654 z"
       id="path5"
       inkscape:connector-curvature="0" /><path
       style="fill:#d1d3d4;stroke:#58595b;stroke-width:3;stroke-miterlimit:10"
       d="m 307.91,452.899 c -3.633,0.027 -6.308,-1.918 -7.99,-4.654 -0.627,-1.02 0.271,-3.61 1.258,-4.871 2.86,-3.656 9.626,-3.799 13.008,-0.592 2.694,2.555 1.038,7.826 -2.986,9.335 -1.047,0.393 -2.19,0.528 -3.29,0.782 z"
       id="path7"
       inkscape:connector-curvature="0" /><path
       style="fill:#d1d3d4;fill-opacity:0.5;stroke:#017c92;stroke-width:3;stroke-miterlimit:10"
       d="m 255.419,439.994 0.766,-0.394 c 8.048,-6.134 13.05,-14.725 13.05,-24.234 0,-18.64 -19.22,-33.75 -42.93,-33.75 -23.71,0 -42.93,15.11 -42.93,33.75 0,18.64 19.22,33.75 42.93,33.75 5.571,0 10.89,-0.84 15.774,-2.358 l 11.088,3.205 13.059,3.682 -4.796,-5.416 -6.011,-8.235 z"
       id="path9"
       inkscape:connector-curvature="0" /><path
       style="fill:#d1d3d4;fill-opacity:0.5;stroke:#0e2346;stroke-width:3;stroke-miterlimit:10"
       d="m 322.864,354.179 c 8.912,3.827 10.342,9.686 10.229,18.718 -0.159,12.687 1.86,24.886 -3.25,36.5 -1.375,3.125 -6.875,7.875 -10.875,10.5 -18.332,-0.244 -34.988,0.25 -55.625,0.25 -2.875,-0.25 -6.247,-0.099 -8.875,-0.375 -14.278,-1.499 -12.826,-1.591 -19.495,5.998 2.495,-2.623 -1.255,1.502 -7,6.875 -4.361,2.055 -1.13,-7.873 -2.005,-4.998 1.875,-5.375 1.375,-4.375 3.13,-10.252 1.312,-3.013 0.022,-3.26 -2.287,-5.794 -7.355,-8.073 -7.772,-18.259 -8.24,-28.368 -0.177,-3.817 -0.22,-7.65 -0.107,-11.469 0.367,-12.437 0.774,-16.027 12.796,-18.784 0.088,0.04 3.328,-0.624 3.417,-0.583 -0.142,0.078 -0.276,0.177 -0.427,0.228 -0.161,0.054 -0.347,0.039 -0.505,0.098 -0.102,0.038 -0.175,0.154 -0.26,0.235 1.375,-0.141 2.749,-0.282 4.124,-0.424 0.152,-0.016 0.303,-0.032 0.455,-0.047 0.273,-0.019 0.546,-0.037 0.819,-0.056 0.929,-0.033 1.857,-0.065 2.786,-0.098 0.356,-0.009 0.711,-0.018 1.067,-0.027 0.538,-0.015 1.076,-0.03 1.614,-0.045 1.42,-0.016 2.84,-0.033 4.26,-0.049 2.43,-0.039 4.861,-0.079 7.291,-0.118 1.173,-0.019 2.345,-0.037 3.518,-0.056 0.763,-0.015 1.526,-0.03 2.289,-0.046 0.048,-0.001 0.097,-0.002 0.145,-0.002 0.208,-0.003 0.416,-0.006 0.624,-0.009 0.338,-0.003 0.676,-0.006 1.014,-0.009 0.12,-0.008 0.241,-0.016 0.361,-0.023 0.174,-0.004 0.348,-0.008 0.522,-0.012 12.127,-0.101 24.254,-0.202 36.381,-0.303 0.422,0.012 0.844,0.023 1.266,0.035 0.773,0.034 1.546,0.068 2.32,0.102 4.625,0.304 9.251,0.607 13.876,0.911 0.166,0.042 0.331,0.084 0.497,0.126 0.086,0.019 0.172,0.038 0.258,0.057 0.05,0.015 0.1,0.03 0.15,0.045 0.102,0.027 0.205,0.055 0.308,0.082 0.108,0.03 0.216,0.06 0.323,0.09 0.232,0.071 0.464,0.142 0.696,0.214 0.114,0.037 0.228,0.074 0.341,0.111 0.188,0.062 0.377,0.125 0.566,0.188 0.117,0.042 0.234,0.084 0.35,0.126 0,0 0.035,0.034 0.035,0.034 l 0.048,-0.009 c 0.069,0.027 0.139,0.055 0.208,0.082 0.101,0.036 0.201,0.072 0.302,0.109 0.149,0.063 0.299,0.125 0.448,0.187 0.036,0.017 0.077,0.036 0.117,0.055 z"
       id="path11"
       inkscape:connector-curvature="0" /></g></svg>