<?xml version="1.0" encoding="UTF-8" standalone="no"?>
<!-- Generator: Adobe Illustrator 18.0.0, SVG Export Plug-In . SVG Version: 6.00 Build 0)  -->

<svg
   xmlns:dc="http://purl.org/dc/elements/1.1/"
   xmlns:cc="http://creativecommons.org/ns#"
   xmlns:rdf="http://www.w3.org/1999/02/22-rdf-syntax-ns#"
   xmlns:svg="http://www.w3.org/2000/svg"
   xmlns="http://www.w3.org/2000/svg"
   xmlns:sodipodi="http://sodipodi.sourceforge.net/DTD/sodipodi-0.dtd"
   xmlns:inkscape="http://www.inkscape.org/namespaces/inkscape"
   version="1.1"
   x="0px"
   y="0px"
   viewBox="0 0 52.199997 67.499998"
   xml:space="preserve"
   id="svg3904"
   inkscape:version="0.91 r13725"
   sodipodi:docname="inspire_icon.svg"
   width="0.57999998in"
   height="0.75in"><metadata
     id="metadata4024"><rdf:RDF><cc:Work
         rdf:about=""><dc:format>image/svg+xml</dc:format><dc:type
           rdf:resource="http://purl.org/dc/dcmitype/StillImage" /><dc:title></dc:title></cc:Work></rdf:RDF></metadata><defs
     id="defs4022" /><sodipodi:namedview
     pagecolor="#ffffff"
     bordercolor="#666666"
     borderopacity="1"
     objecttolerance="10"
     gridtolerance="10"
     guidetolerance="10"
     inkscape:pageopacity="0"
     inkscape:pageshadow="2"
     inkscape:window-width="1680"
     inkscape:window-height="1031"
     id="namedview4020"
     showgrid="false"
     units="in"
     inkscape:showpageshadow="false"
     inkscape:zoom="6.1699346"
     inkscape:cx="35.842372"
     inkscape:cy="46.644867"
     inkscape:window-x="-4"
     inkscape:window-y="-4"
     inkscape:window-maximized="1"
     inkscape:current-layer="svg3904" /><g
     id="inspire_art"
     transform="matrix(0.33037975,0,0,0.32766831,-103.82712,-67.152016)"><g
       id="g3907"><path
         style="clip-rule:evenodd;fill:#a9abae;fill-rule:evenodd"
         d="m 378.345,286.826 c 5.546,2.371 11.215,4.96 16.851,7.429 0.373,0.164 0.939,0.466 1.138,0.448 0.439,-0.041 0.958,-1.205 1.177,-1.543 0.401,-0.622 0.715,-1.12 1.097,-1.625 2.895,1.177 5.935,2.653 8.933,3.939 0.385,0.165 1.04,0.528 1.298,0.527 0.339,-0.003 0.947,-0.554 1.26,-0.772 1.197,-0.84 2.325,-1.71 3.491,-2.517 4.633,1.497 9.188,2.994 13.929,4.507 0.66,0.211 1.404,0.596 1.987,0.609 0.422,0.01 1.001,-0.224 1.544,-0.365 7.047,-1.838 14.022,-3.573 21.112,-5.44 0.473,-0.125 1.16,-0.385 1.502,-0.366 0.357,0.021 0.94,0.414 1.341,0.609 1.297,0.632 2.688,1.257 3.857,1.908 0,1.542 0,3.085 0,4.628 -9.027,0 -18.055,0 -27.082,0 5.196,4.862 8.645,11.69 10.271,20.099 0.851,4.395 1.177,9.147 0.935,14.128 -0.229,4.705 -0.813,9.42 -1.138,14.049 -0.671,9.579 -1.122,19.848 -0.202,29.153 0.91,9.21 3.109,17.228 6.334,24.077 -0.919,0 -1.841,0 -2.761,0 -3.208,-6.309 -4.704,-14.327 -5.806,-22.737 -0.781,7.896 -0.158,16.666 1.948,22.696 -0.542,0.094 -1.259,0.013 -1.867,0.041 -1.517,-3.804 -2.153,-8.485 -2.56,-13.399 -0.923,3.796 -1.511,9.072 -0.69,13.399 -4.424,0 -8.852,0 -13.274,0 2.23,-31.638 4.609,-63.464 6.738,-95.212 0.141,-2.09 0.355,-4.194 0.325,-6.294 -0.361,1.877 -0.515,3.781 -0.731,5.684 -3.249,28.522 -6.787,57.322 -10.068,85.916 -0.329,-0.163 -0.353,-0.567 -0.487,-0.854 -2.081,-4.413 -4.424,-8.645 -7.349,-12.303 -0.829,-1.035 -1.678,-1.785 -2.72,-2.518 -2.561,-1.8 -5.359,-3.281 -8.446,-4.668 -0.552,-0.249 -1.347,-0.48 -1.785,-0.813 -0.368,-0.276 -0.651,-1.068 -0.935,-1.543 -0.932,-1.554 -2.047,-2.922 -3.127,-4.222 0.283,-0.638 0.422,-1.419 0.446,-2.313 2.003,0.073 3.727,-0.467 5.077,-1.178 0.129,-0.926 0.161,-1.991 0.161,-3.128 0,-0.337 -0.093,-0.775 -0.04,-1.017 0.113,-0.522 0.984,-0.669 1.258,-1.094 -0.449,-1.038 -0.913,-2.064 -1.34,-3.127 0.203,-0.609 0.815,-1.203 0.447,-1.908 2.123,-2.262 4.248,-4.521 6.01,-7.147 2.302,-0.319 3.874,-1.252 5.115,-2.597 1.236,-1.34 2.178,-2.96 3.775,-3.939 -0.094,-0.704 -0.397,-1.2 -1.137,-1.258 -0.057,-0.177 0.238,-0.392 0.407,-0.61 0.606,-0.782 1.526,-2.25 0.772,-3.531 -0.133,-0.224 -0.476,-0.645 -0.568,-0.649 -0.15,-0.006 -0.648,0.639 -0.814,0.813 -0.805,0.848 -1.592,1.619 -2.397,2.396 -0.462,-0.249 -1.156,-0.068 -1.501,0.16 -0.214,-0.095 -0.45,-0.222 -0.812,-0.202 -0.366,0.02 -0.686,0.207 -0.933,0.284 -0.716,-0.226 -1.309,0.027 -1.788,0.364 -1.567,1.104 -2.584,3.482 -3.329,5.319 -1.862,1.048 -3.705,2.116 -5.441,3.288 -2.369,-1.252 -5.971,-0.817 -8.363,-0.08 -5.025,1.551 -7.818,5.229 -8.77,10.963 -0.402,2.416 -2.303,5.25 -5.238,3.735 -0.329,0.942 -0.664,2.493 -0.243,3.573 -2.259,1.869 -4.562,3.693 -6.416,5.969 -1.333,-1.588 -2.777,-3.45 -4.385,-4.994 -0.232,-0.224 -0.62,-0.461 -0.69,-0.651 -0.087,-0.229 -0.166,-1.475 -0.12,-1.705 0.057,-0.294 0.654,-0.807 0.933,-1.095 2.296,-2.384 4.556,-4.798 6.82,-7.146 1.488,-2.779 3.091,-5.3 4.628,-8.039 0.496,-0.88 0.927,-1.85 1.503,-2.679 0.292,-0.42 0.719,-0.705 1.017,-1.096 0.898,-1.187 1.499,-2.703 1.663,-4.671 6.032,-2.156 12.17,-4.205 18.191,-6.374 0.665,-1.784 0.253,-4.142 -0.448,-5.482 -0.755,-1.442 -1.994,-2.53 -3.288,-3.289 -3.366,1.724 -6.651,3.527 -9.987,5.28 -0.554,-0.284 -1.472,-0.921 -2.436,-0.691 -0.426,0.101 -0.728,0.441 -1.017,0.608 -0.962,-0.304 -1.678,0.207 -2.028,0.771 -1.047,-0.409 -1.775,0.442 -2.233,1.015 -2.731,0.043 -3.782,2.576 -4.547,4.791 -1.271,0.735 -2.63,1.377 -3.898,2.111 -0.373,-0.845 -0.651,-1.786 -1.098,-2.558 0.667,-0.482 1.418,-0.783 1.421,-1.909 0.005,-1.513 -1.243,-2.689 -2.275,-3.247 -1.246,-0.676 -2.988,-0.95 -4.668,-0.772 -4.974,0.528 -8.885,2.224 -11.085,5.481 -0.75,1.114 -1.076,2.527 -1.34,4.182 -0.486,3.073 -0.181,6.746 1.422,9.136 -0.24,0.343 -0.422,0.741 -0.65,1.096 -1.053,-0.114 -2.015,-0.117 -3.127,-0.16 -0.332,-0.015 -0.751,0.023 -1.014,-0.042 -0.385,-0.093 -0.915,-0.75 -1.22,-1.015 -0.867,-0.758 -1.534,-1.302 -2.436,-2.03 -0.384,-0.313 -1.06,-0.696 -1.217,-1.056 -0.23,-0.525 -0.212,-1.283 -0.325,-1.907 -0.239,-1.315 -0.45,-2.407 -0.69,-3.777 -0.109,-0.617 -0.105,-1.372 -0.324,-1.907 -0.25,-0.608 -1.091,-0.809 -1.503,-1.341 0.103,-1.534 0.123,-3.15 0.203,-4.71 1.78,-0.262 3.531,-0.555 5.318,-0.811 0.459,-1.815 0.795,-3.754 1.057,-5.766 0.559,-0.362 1.2,-0.641 1.827,-0.934 -0.519,-1.282 -0.968,-2.635 -1.502,-3.898 0.196,-1.115 0.64,-2.31 0,-3.208 1.851,-0.359 3.929,0.292 4.628,-0.893 0.159,-0.272 0.074,-0.563 0.202,-0.934 0.136,-0.393 0.692,-0.661 0.528,-1.544 -0.13,-0.698 -0.823,-1.092 -1.665,-1.178 0.008,-1.813 -2.664,-0.602 -4.061,-0.974 -0.364,-0.097 -0.672,-0.69 -1.136,-0.811 -0.829,-0.217 -1.348,0.161 -2.112,0.121 -0.899,-0.048 -1.449,-0.741 -2.395,-0.852 -0.817,-0.097 -1.801,0.328 -2.355,0.73 -0.495,0.358 -1.143,0.981 -1.826,1.054 -0.027,0.004 -0.056,0.003 -0.081,0 -1.341,-0.081 -2.12,-0.325 -2.924,0.448 -0.06,0.059 -0.143,0.159 -0.203,0.242 -0.307,0.439 -0.319,1.102 -0.69,1.503 -0.406,0.441 -1.315,0.443 -1.908,0.73 -0.393,0.19 -0.547,0.447 -0.771,0.813 -1.246,0.489 -2.703,1.014 -4.101,1.543 -0.436,0.165 -1.057,0.313 -1.341,0.527 -0.091,0.071 -0.232,0.058 -0.161,0.326 -0.096,-3.128 -0.014,-6.43 -0.041,-9.623 34.647,-1.45 69.164,-3.022 103.819,-4.467 -34.527,-0.094 -69.225,-0.014 -103.819,-0.041 0,-1.515 0,-3.03 0,-4.548 2.452,-1.824 4.963,-3.59 7.511,-5.318 5.817,2.683 11.753,5.493 17.704,8.202 0.374,0.17 0.97,0.498 1.217,0.486 0.35,-0.015 0.857,-0.591 1.177,-0.852 2.582,-2.101 5.105,-4.246 7.674,-6.293 3.422,1.146 6.706,2.244 10.191,3.452 0.426,0.146 1.112,0.499 1.463,0.486 0.375,-0.016 0.84,-0.553 1.177,-0.852 1.781,-1.578 3.483,-3.171 5.237,-4.752 0.74,-0.661 1.496,-1.306 2.232,-1.983 z m 50.59,12.018 c -27.088,6.126 -54.437,12.182 -81.527,18.271 0.212,0.48 0.453,0.804 0.771,1.299 0.184,0.286 0.589,1.155 0.893,1.218 0.172,0.037 0.822,-0.213 1.259,-0.325 6.336,-1.622 12.714,-3.263 18.881,-4.873 20.122,-5.248 40.515,-10.428 60.375,-15.631 -0.199,-0.024 -0.539,0.014 -0.652,0.041 z"
         id="path3909"
         inkscape:connector-curvature="0" /><polygon
         style="clip-rule:evenodd;fill:#cd88a4;fill-rule:evenodd"
         points="330.432,287.691 322.059,293.349 322.762,298.803 458.86,298.803 459.653,292.896 454.236,290.414 431.366,296.517 412.777,290.927 408.853,294.068 398.55,290.633 395.608,293.574 378.183,285.653 368.903,291.764 358.815,288.897 348.084,296.065 "
         id="polygon3911" /><polygon
         style="clip-rule:evenodd;fill:#d2d4d5;fill-rule:evenodd;stroke:#b6b2ac;stroke-width:0.2"
         points="429.854,298.774 421.1,400.309 396.488,400.789 352.151,368.803 331.906,334.588 342.84,318.191 "
         id="polygon3913" /><path
         style="clip-rule:evenodd;fill-rule:evenodd"
         d="m 429.586,298.803 c -19.86,5.203 -40.253,10.383 -60.375,15.631 -6.167,1.61 -12.545,3.251 -18.881,4.873 -0.436,0.112 -1.087,0.362 -1.259,0.325 -0.304,-0.063 -0.709,-0.932 -0.893,-1.218 -0.318,-0.495 -0.56,-0.818 -0.771,-1.299 27.091,-6.09 54.439,-12.146 81.527,-18.271 0.114,-0.027 0.454,-0.065 0.652,-0.041 z"
         id="path3915"
         inkscape:connector-curvature="0" /><path
         style="clip-rule:evenodd;fill:#b59775;fill-rule:evenodd"
         d="m 344.971,307.491 c 0.981,0.09 2.369,-0.229 2.924,0.285 0.033,0.125 0.147,0.309 0.04,0.446 1.256,-0.369 1.712,1.255 0.608,1.422 0.935,1.686 -2.511,0.993 -3.855,1.137 -0.162,-0.501 -0.376,-0.954 -0.568,-1.422 0.499,-0.387 0.979,-0.984 0.851,-1.868 z"
         id="path3917"
         inkscape:connector-curvature="0" /><path
         style="clip-rule:evenodd;fill:#b59775;fill-rule:evenodd"
         d="m 344.605,313.421 c -1.256,0.583 -2.248,1.432 -2.924,2.599 0.739,-0.223 1.558,-0.366 2.397,-0.488 -0.067,3.858 -1.029,6.821 -2.477,9.298 -1.479,0.485 -3.592,0.548 -5.441,0.528 0.163,0.594 0.442,1.425 0.69,2.071 -0.108,0.864 -0.222,1.726 -0.285,2.638 -2.962,-2.016 -5.985,-3.975 -9.298,-5.643 1.106,-1.086 2.29,-2.096 3.451,-3.126 2.23,0.057 3.727,0.847 5.238,1.623 0.485,-0.599 0.922,-1.242 1.38,-1.867 -0.985,-0.037 -1.657,-0.703 -1.785,-1.584 -0.219,-1.492 0.346,-3.434 2.111,-3.045 0.179,0.039 0.35,0.202 0.568,0.243 0.597,0.109 1.094,-0.058 1.299,-0.203 1.084,-0.772 -0.372,-2.277 0.162,-3.45 0.257,-0.565 1.549,-0.556 1.909,-0.935 0.405,-0.427 0.23,-1.189 0.527,-1.785 0.065,-0.132 0.621,-0.819 0.853,-0.732 0.342,0.132 0.779,1.444 0.933,1.826 0.335,0.829 0.475,1.44 0.692,2.032 z"
         id="path3919"
         inkscape:connector-curvature="0" /><path
         style="clip-rule:evenodd;fill:#9cc87b;fill-rule:evenodd"
         d="m 328.608,312.202 c -0.087,0.646 -1.134,0.869 -0.894,1.908 0.094,0.407 0.761,0.701 0.73,1.178 -0.02,0.305 -0.547,0.629 -0.69,0.973 -0.398,0.969 0.076,1.718 0.65,2.275 -1.642,1.324 -3.412,2.517 -5.196,3.695 -0.115,0.05 -0.252,0.05 -0.365,0 -0.069,0.067 -0.033,0.239 -0.041,0.365 -0.075,-0.49 -0.041,-1.131 -0.041,-1.745 0,-0.622 -0.132,-1.318 0,-1.827 0.086,-0.333 0.721,-0.916 1.015,-1.26 1.041,-1.212 2.166,-2.466 3.126,-3.612 -1.335,0.707 -2.73,1.708 -4.141,2.476 0,-0.691 0,-1.379 0,-2.07 1.929,-0.805 3.93,-1.539 5.847,-2.356 z"
         id="path3921"
         inkscape:connector-curvature="0" /><path
         style="clip-rule:evenodd;fill:#f0a565;fill-rule:evenodd"
         d="m 390.567,322.799 c 1.729,1.098 2.569,3.088 2.599,5.888 -5.03,1.831 -10.134,3.591 -15.146,5.44 -0.01,-0.298 0.462,-0.67 0.324,-1.097 -0.317,-0.24 -0.777,-0.1 -1.095,-0.039 -1.635,0.321 -2.706,1.331 -3.411,2.599 -1.919,0.681 -3.791,1.406 -5.766,2.03 -0.56,-0.911 0.691,-2.374 0.568,-3.493 2.558,-0.756 5.3,-1.619 8,-2.435 0.37,-0.112 0.813,-0.365 1.095,-0.366 0.466,-0.001 0.943,0.385 1.665,0.284 0.503,-0.069 0.704,-0.342 1.098,-0.689 1.031,0.256 1.837,-0.225 2.15,-0.935 1.022,0.06 1.487,-0.435 1.706,-1.178 1.428,-0.146 1.348,-2.294 0.69,-3.246 1.8,-0.965 3.696,-1.829 5.523,-2.763 z"
         id="path3923"
         inkscape:connector-curvature="0" /><path
         style="clip-rule:evenodd;fill:#9cc87b;fill-rule:evenodd;stroke:#7b6fa2;stroke-width:0.2"
         d="m 338.393,333.681 c 0.117,1.628 0.323,3.17 0.447,4.789 -0.171,0.015 -0.325,-0.153 -0.447,-0.242 -4.723,-3.565 -10.194,-6.639 -15.429,-9.743 0.054,-1.167 0.137,-2.3 0.162,-3.492 0,-0.027 0,-0.054 0,-0.082 5.768,2.082 10.547,5.505 15.267,8.77 z"
         id="path3925"
         inkscape:connector-curvature="0" /><path
         style="clip-rule:evenodd;fill:#f6dbcb;fill-rule:evenodd"
         d="m 383.3,327.753 c 0.406,1.162 -0.716,1.601 -1.463,1.055 0.208,1.192 -0.989,1.482 -1.867,1.097 -0.126,0.73 -0.966,0.962 -1.625,0.446 -0.319,-0.25 -0.513,-0.666 -0.852,-0.933 -0.443,-0.351 -1.108,-0.67 -1.908,-0.569 -0.508,0.065 -0.821,0.418 -1.461,0.487 -0.123,-0.444 0.295,-0.873 0.608,-1.177 0.733,-0.714 1.951,-1.332 3.085,-0.609 0.112,-0.608 0.219,-1.264 0.772,-1.34 0.55,-0.075 0.925,0.395 1.299,0.689 -0.274,-1.497 1.036,-1.872 1.909,-1.054 0.31,-1.398 1.706,-1.039 2.313,-0.084 0.342,0.539 0.594,1.71 0.204,2.113 -0.345,0.109 -0.779,0.008 -1.014,-0.121 z"
         id="path3927"
         inkscape:connector-curvature="0" /><path
         style="clip-rule:evenodd;fill:#a49c95;fill-rule:evenodd"
         d="m 355.69,337.982 c -0.546,-3.507 0.542,-6.644 2.03,-8.647 -3.194,1.748 -5.278,4.603 -6.416,8.403 -0.513,-2.035 -0.182,-5.186 0.649,-6.698 0.347,-0.631 1.164,-1.353 1.908,-1.949 1.438,-1.147 3.153,-1.982 5.157,-2.558 2.375,-0.681 6.044,-0.867 7.551,0.854 0.539,0.613 0.287,1.399 -0.405,1.703 -0.493,0.218 -1.033,0.26 -1.501,0.447 -1.347,0.542 -2.462,1.427 -3.331,2.396 0.257,-1.626 1.001,-2.764 1.867,-3.776 -3.932,1.845 -6.278,5.279 -7.509,9.825 z"
         id="path3929"
         inkscape:connector-curvature="0" /><path
         style="clip-rule:evenodd;fill:#f6dbcb;fill-rule:evenodd"
         d="m 365.963,331.041 c 0.767,1.033 1.249,2.35 1.664,3.735 -1.325,0.868 -2.436,1.949 -3.045,3.532 0.843,-0.252 1.667,-0.525 2.477,-0.813 -0.013,3.573 -0.857,6.67 -1.829,9.42 -2.026,0.722 -4.645,0.849 -7.388,0.853 0.05,0.308 0.69,0.866 0.73,1.301 0.05,0.54 -0.51,0.979 -0.569,1.541 -2.137,-1.461 -4.305,-2.894 -6.536,-4.262 0.325,-0.745 0.709,-1.43 1.058,-2.152 1.867,0.526 3.566,1.224 5.033,2.152 0.907,-1.299 1.781,-2.631 2.68,-3.94 -1.863,0.229 -2.906,-1.085 -2.68,-2.8 0.098,-0.743 0.663,-1.789 1.3,-1.989 1.006,-0.314 1.784,0.463 2.354,0.933 0.592,-0.637 1.201,-1.261 1.746,-1.948 -1.394,-2.964 0.606,-4.842 3.005,-5.563 z"
         id="path3931"
         inkscape:connector-curvature="0" /><path
         style="clip-rule:evenodd;fill:#f6dbcb;fill-rule:evenodd"
         d="m 411.436,336.725 c 0.368,-0.171 1.138,-0.716 1.787,-0.364 -2.484,1.819 -3.362,5.462 -7.633,5.358 -1.626,1.999 -3.448,3.983 -5.442,5.684 -0.089,0.077 -0.238,0.221 -0.365,0.204 0.815,-1.202 1.086,-4.035 -0.487,-4.588 1.577,-1.252 3.237,-2.421 4.913,-3.573 0.555,-1.229 1.262,-2.854 2.152,-4.059 0.3,-0.409 1.101,-1.389 1.544,-0.65 0.32,-0.38 1.355,-0.796 1.623,-0.082 0.324,-0.176 0.614,-0.387 1.177,-0.323 0.222,0.142 0.432,0.297 0.487,0.608 0.879,-0.938 1.775,-1.964 2.64,-2.964 0.275,-0.317 0.473,-0.735 0.853,-0.894 0.168,0.19 0.185,0.467 0.163,0.73 -0.085,0.962 -0.853,1.848 -1.463,2.64 -0.295,0.382 -0.589,0.786 -0.894,1.137 -0.37,0.429 -0.743,0.767 -1.014,1.136 -0.013,0 -0.027,0 -0.041,0 z"
         id="path3933"
         inkscape:connector-curvature="0" /><path
         style="clip-rule:evenodd;fill:#2bb5d7;fill-rule:evenodd"
         d="m 378.468,335.021 c 0.035,-0.008 0.038,0.015 0.04,0.041 -0.101,1.184 -0.631,2.511 -1.462,3.408 -0.754,0.819 -1.874,1.649 -3.126,1.666 -1.672,0.021 -2.795,-1.197 -3.613,-2.274 0.339,0.031 0.744,-0.387 1.096,-0.365 0.31,0.021 0.705,0.506 1.056,0.691 0.433,0.227 1.064,0.458 1.746,0.405 1.777,-0.136 2.394,-1.743 3.086,-3.166 0.428,-0.101 0.806,-0.25 1.177,-0.406 z"
         id="path3935"
         inkscape:connector-curvature="0" /><path
         style="clip-rule:evenodd;fill:#2bb5d7;fill-rule:evenodd"
         d="m 369.089,338.309 c 1.158,1.561 2.417,3.023 5.035,3.127 -1.01,2.123 -2.066,4.14 -3.128,6.252 -0.351,0.699 -0.595,1.514 -1.014,2.112 -0.377,0.534 -1.166,1.165 -1.665,1.664 -1.66,1.661 -3.31,3.389 -4.954,4.953 -0.089,-0.566 0.062,-1.04 -0.081,-1.462 -0.116,-0.349 -0.927,-0.929 -1.218,-1.178 -0.48,-0.408 -0.95,-0.727 -1.299,-1.096 0.127,-1.35 0.339,-2.611 0.446,-3.979 2.263,-0.188 4.342,-0.557 6.05,-1.3 0.186,-1.396 0.423,-3.176 0.486,-4.628 0.009,-0.202 -0.055,-0.436 0,-0.607 0.088,-0.267 0.71,-0.538 0.936,-0.69 0.346,-0.238 0.61,-0.46 0.933,-0.649 -0.365,-0.759 -0.712,-1.537 -1.097,-2.275 0.134,-0.136 0.374,-0.169 0.57,-0.244 z"
         id="path3937"
         inkscape:connector-curvature="0" /><path
         style="clip-rule:evenodd;fill:#b2805a;fill-rule:evenodd"
         d="m 386.589,366.364 c -0.024,-0.143 0.176,-0.151 0.242,-0.202 1.511,-1.161 2.733,-3.485 2.518,-6.334 -0.07,-0.94 -0.204,-1.803 -0.204,-2.681 0,-2.648 0.854,-4.979 1.869,-6.659 -2.154,1.323 -3.31,4.014 -3.898,6.823 -0.728,3.475 -2.188,6.809 -6.375,6.819 2.18,-1.039 3.828,-2.564 4.387,-5.236 0.295,-1.412 0.286,-2.872 0.608,-4.225 0.308,-1.284 0.767,-2.409 1.34,-3.449 -1.813,1.061 -2.423,3.637 -3.289,6.049 -0.408,1.14 -1.019,2.058 -1.868,2.843 -0.748,0.692 -2.043,1.463 -3.37,1.339 -1.208,-0.111 -1.837,-1.045 -1.906,-2.396 2.255,0.884 4.447,-0.188 4.912,-2.029 0.225,-0.897 0.23,-1.903 0.405,-2.761 1.204,-5.912 3.967,-10.827 10.72,-11.287 1.16,-0.079 3.37,0.103 4.264,0.567 0.454,0.237 1.014,1.055 0.811,1.949 -0.217,0.965 -1.151,1.319 -1.867,1.947 -2.649,2.326 -4.327,5.956 -4.872,10.396 -0.144,1.183 -0.17,2.323 -0.406,3.409 -0.544,2.493 -1.574,4.594 -4.021,5.118 z"
         id="path3939"
         inkscape:connector-curvature="0" /><path
         style="clip-rule:evenodd;fill:#2bb5d7;fill-rule:evenodd"
         d="m 349.64,347.485 c 4.449,2.224 8.386,4.958 12.019,7.998 -0.015,1.139 0.091,2.155 0.081,3.289 -0.072,0.095 -0.25,-0.13 -0.366,-0.243 -3.823,-3.825 -8.65,-6.932 -14.008,-9.26 0.676,-0.676 1.503,-1.202 2.274,-1.784 z"
         id="path3941"
         inkscape:connector-curvature="0" /><path
         style="clip-rule:evenodd;fill:#f6dbcb;fill-rule:evenodd"
         d="m 398.282,347.931 c 0.528,0.662 0.877,1.506 1.094,2.478 -0.993,0.818 -2.133,1.492 -2.84,2.598 0.511,-0.138 1.059,-0.239 1.624,-0.324 0.665,1.714 0.836,4.667 0.285,6.659 -0.821,0.667 -2.123,0.855 -3.616,0.853 -0.104,-2.222 -1.204,-3.321 -1.054,-5.563 0.215,-3.198 2.319,-5.257 4.507,-6.701 z"
         id="path3943"
         inkscape:connector-curvature="0" /><path
         style="clip-rule:evenodd;fill:#a9abae;fill-rule:evenodd"
         d="m 444.405,365.147 c 1.196,13.389 4.619,24.775 8.892,34.957 -0.798,0 -1.598,0 -2.395,0 -4.047,-9.645 -7.135,-21.105 -6.497,-34.957 z"
         id="path3945"
         inkscape:connector-curvature="0" /><path
         style="clip-rule:evenodd;fill:#48afa2;fill-rule:evenodd"
         d="m 393.368,365.35 c 0.861,0.79 1.478,1.823 2.192,2.761 -1.217,-0.311 -2.555,-0.855 -3.856,-1.218 0.572,-0.498 1.263,-0.877 1.664,-1.543 z"
         id="path3947"
         inkscape:connector-curvature="0" /><path
         style="clip-rule:evenodd;fill:#48afa2;fill-rule:evenodd"
         d="m 421.1,400.309 c -1.612,0 -3.443,0 -5.237,0 -0.564,0 -1.331,0.135 -1.746,0 -0.216,-0.069 -0.543,-0.685 -0.771,-1.015 -0.725,-1.056 -1.538,-2.181 -2.193,-3.128 -1.958,-2.834 -4.09,-5.277 -4.628,-9.581 -0.267,-2.138 -0.055,-4.408 0.61,-6.212 -2.128,1.586 -4.048,3.815 -5.157,6.699 -0.167,0.43 -0.332,0.893 -0.487,1.503 -0.129,0.504 -0.349,1.309 -0.285,1.704 0.055,0.333 0.698,0.954 0.976,1.3 2.331,2.91 4.847,5.862 7.023,8.729 -0.487,0 -0.974,0 -1.461,0 -2.666,-2.953 -5.182,-6.05 -7.836,-9.015 0.154,2.998 0.28,6.026 0.444,9.015 -7.118,0 -14.236,0 -21.354,0 1.036,-9.899 3.136,-18.735 5.44,-27.365 -3.7,7.965 -6.2,17.133 -7.633,27.365 -1.003,0 -2.004,0 -3.005,0 0.558,-10.863 3.591,-19.256 6.982,-27.286 -1.353,1.069 -2.766,2.647 -4.099,3.736 0.301,-1.566 0.546,-3.188 0.853,-4.75 -1.204,1.206 -2.472,2.915 -3.654,4.141 0.215,-1.733 0.39,-3.508 0.608,-5.237 -1.124,1.366 -2.302,3.246 -3.41,4.629 -0.044,-1.664 -0.077,-3.334 -0.122,-4.995 -4.17,8.174 -7.147,17.892 -7.756,29.763 -0.432,0 -0.865,0 -1.298,0 0.117,-14.324 3.78,-25.101 9.542,-33.781 1.507,-0.339 3.262,-0.717 5.115,-0.935 0.542,-0.064 1.364,-0.258 1.827,-0.162 0.307,0.063 0.752,0.575 1.015,0.772 1.846,1.369 4.717,2.782 8.039,2.354 0.438,-0.056 0.919,-0.313 1.422,-0.324 0.367,-0.008 0.841,0.182 1.299,0.285 6.201,1.377 11.695,4.051 16.241,6.9 -2.382,1.897 -4.003,4.554 -4.913,7.918 -0.008,0.032 -0.041,0.041 -0.041,0.08 1.884,-2.448 3.811,-4.851 6.822,-6.17 0.44,0.27 0.742,0.734 1.055,1.136 4.858,6.276 8.525,14.01 11.773,21.927 z m -30.615,-25.744 c 0.831,-0.508 1.749,-1.498 2.599,-1.987 -0.093,0.974 -0.153,1.984 -0.242,2.963 0.88,-0.486 1.854,-1.445 2.76,-1.908 -0.095,0.948 -0.275,2.026 -0.284,2.923 1.023,-0.669 2.104,-1.496 3.128,-2.03 -0.065,0.978 -0.221,2.083 -0.205,3.005 0.949,-0.595 1.885,-1.199 2.883,-1.746 -0.142,1.023 -0.261,2.067 -0.405,3.086 1.074,-0.941 2.232,-2.153 3.329,-3.207 -3.791,-2.246 -8.054,-4.017 -12.829,-5.279 -0.245,1.392 -0.476,2.801 -0.734,4.18 z"
         id="path3949"
         inkscape:connector-curvature="0" /><path
         style="clip-rule:evenodd;fill-rule:evenodd"
         d="m 391.218,370.384 c 4.775,1.263 9.038,3.033 12.829,5.279 -1.097,1.054 -2.255,2.266 -3.329,3.207 0.145,-1.019 0.264,-2.063 0.405,-3.086 -0.998,0.547 -1.934,1.151 -2.883,1.746 -0.016,-0.922 0.14,-2.026 0.205,-3.005 -1.024,0.534 -2.104,1.361 -3.128,2.03 0.009,-0.896 0.189,-1.975 0.284,-2.923 -0.905,0.463 -1.88,1.422 -2.76,1.908 0.089,-0.978 0.149,-1.989 0.242,-2.963 -0.85,0.489 -1.768,1.48 -2.599,1.987 0.259,-1.378 0.49,-2.787 0.734,-4.18 z"
         id="path3951"
         inkscape:connector-curvature="0" /><path
         style="clip-rule:evenodd;fill:#b6b2ac;fill-rule:evenodd;stroke:#b6b2ac;stroke-width:0.2"
         d="m 403.56,397.79 c 0.711,0.793 1.344,1.66 2.031,2.478 -0.881,0.094 -1.936,0.013 -2.883,0.041 0.295,-0.828 0.555,-1.692 0.852,-2.519 z"
         id="path3953"
         inkscape:connector-curvature="0" /><path
         style="clip-rule:evenodd;fill:#f0a565;fill-rule:evenodd"
         d="m 322.64,271.762 c 0,-0.812 0,-1.623 0,-2.436 21.271,-0.388 41.084,1.205 58.141,5.44 5.657,1.405 11.162,2.979 16.04,5.197 0.201,0.092 0.539,0.329 0.608,0.325 -0.293,0.018 -0.049,-0.025 -0.243,-0.081 -0.926,-0.267 -2.16,-0.716 -3.005,-0.974 -9.464,-2.902 -19.854,-4.978 -30.98,-6.214 -12.529,-1.388 -26.958,-2.061 -40.561,-1.257 z"
         id="path3955"
         inkscape:connector-curvature="0" /><path
         style="clip-rule:evenodd;fill:#f0a565;fill-rule:evenodd"
         d="m 457.235,279.437 c -1.691,2.624 -3.684,5.302 -5.482,7.957 2.377,0.304 4.718,0.642 7.107,0.934 0,0.743 0,1.489 0,2.233 -0.807,-0.139 -1.612,-0.243 -2.396,-0.365 -0.923,-0.145 -1.909,-0.482 -2.884,-0.325 -0.965,0.154 -1.993,0.505 -3.005,0.772 -6.49,1.714 -12.944,3.29 -19.528,4.994 -0.531,0.137 -1.069,0.404 -1.462,0.406 -0.563,0.002 -1.392,-0.439 -2.029,-0.651 -4.116,-1.361 -7.995,-2.564 -12.141,-3.896 -0.892,-0.286 -1.685,-0.822 -2.639,-0.568 -0.826,0.218 -1.792,0.735 -2.803,1.138 -0.398,0.156 -0.949,0.326 -1.461,0.526 -0.452,0.177 -1.031,0.566 -1.38,0.569 -0.259,10e-4 -0.71,-0.287 -1.097,-0.447 -2.196,-0.91 -4.228,-1.745 -6.457,-2.68 -0.671,-0.28 -1.009,-0.597 -1.827,-0.325 -0.587,0.195 -1.194,0.635 -1.786,0.975 -0.591,0.338 -1.173,0.706 -1.745,1.016 -4.973,-2.078 -9.889,-4.315 -14.942,-6.455 -0.366,-0.155 -0.769,-0.395 -1.015,-0.406 -0.491,-0.023 -1.152,0.435 -1.583,0.689 -2.97,1.751 -5.674,3.212 -8.648,4.953 -0.399,0.234 -1.104,0.784 -1.422,0.811 -0.264,0.025 -0.746,-0.199 -1.137,-0.324 -2.211,-0.709 -4.365,-1.359 -6.659,-2.07 -0.647,-0.2 -1.068,-0.478 -1.786,-0.202 -0.417,0.159 -0.83,0.495 -1.26,0.729 -2.488,1.369 -4.969,2.724 -7.55,4.143 -0.397,0.218 -0.996,0.681 -1.261,0.689 -0.212,0.008 -0.713,-0.29 -1.055,-0.445 -4.57,-2.068 -8.947,-4.003 -13.52,-6.01 -0.651,-0.286 -1.599,-0.836 -2.193,-0.813 -0.47,0.022 -1.444,0.506 -1.907,0.691 -1.891,0.758 -3.608,1.478 -5.522,2.192 0,-4.886 0,-9.772 0,-14.658 16.36,-1.238 33.573,-0.27 47.83,2.071 14.598,2.396 27.956,6.161 39.505,11.45 -1.07,-2.299 -2.197,-4.544 -3.248,-6.861 2.408,1.529 4.778,3.098 7.187,4.628 -1.099,-2.662 -2.439,-5.438 -3.614,-8.16 2.485,1.777 4.865,3.661 7.351,5.439 -0.624,-2.964 -1.29,-5.883 -1.95,-8.809 0.114,-0.083 0.2,0.178 0.324,0.323 1.784,2.063 3.7,4.316 5.523,6.374 -0.183,-3.133 -0.285,-6.346 -0.446,-9.501 1.682,2.676 3.308,5.41 4.994,8.079 0.673,-3.293 1.317,-6.611 1.989,-9.907 1.071,3.085 2.089,6.222 3.125,9.339 1.27,-3.171 2.48,-6.399 3.695,-9.621 0.459,3.264 0.746,6.698 1.178,9.987 1.689,-2.737 3.407,-5.796 5.076,-8.689 -0.115,3.079 -0.462,6.278 -0.649,9.421 1.962,-2.185 4.194,-4.971 6.09,-7.146 -0.655,2.93 -1.409,5.763 -2.07,8.688 2.216,-1.936 4.661,-4.101 6.943,-6.172 0.109,-0.101 0.198,-0.369 0.405,-0.283 -1.2,2.927 -2.339,5.916 -3.492,8.891 2.872,-1.65 5.858,-3.534 8.729,-5.318 z"
         id="path3957"
         inkscape:connector-curvature="0" /><polygon
         style="clip-rule:evenodd;fill:#f0a565;fill-rule:evenodd"
         points="404.07,285.609 407.976,286.811 404.671,279.751 419.69,269.236 446.576,268.186 458.893,276.296 459.645,291.468 454.236,290.414 429.604,297.174 413.382,291.767 408.878,294.47 408.394,293.41 "
         id="polygon3959" /><polygon
         style="clip-rule:evenodd;fill:#f9d7b8;fill-rule:evenodd"
         points="445.194,292.686 430.016,297.288 423.246,294.462 417.2,292.162 423.575,292.359 420.579,287.014 426.4,291.177 426.451,284.786 429.423,290.913 432.12,284.381 432.447,291.177 437.585,285.395 435.405,292.029 441.635,288.025 437.574,293.083 "
         id="polygon3961" /><path
         style="clip-rule:evenodd;fill-rule:evenodd"
         d="m 320.73,264.413 c 45.846,0 91.819,0 137.804,0 0.716,0 1.729,-0.133 2.152,0 0.33,0.104 0.192,-0.019 0.245,0.366 0.178,1.33 0,2.885 0,4.344 -0.002,4.291 0,8.642 0,12.912 -0.002,5.838 0.105,11.461 0.039,16.931 -0.137,11.413 -0.039,22.995 -0.039,34.389 -0.002,23.179 0,46.039 0,68.901 0,0.041 0,0.082 0,0.123 -46.735,-0.026 -93.571,0.054 -140.241,-0.041 0,-45.93 0,-91.876 0,-137.803 -0.002,-0.058 -0.006,-0.115 0.04,-0.122 z m 42.47,63.746 c -0.866,1.013 -1.61,2.15 -1.867,3.776 0.869,-0.97 1.984,-1.854 3.331,-2.396 0.468,-0.188 1.008,-0.229 1.501,-0.447 0.692,-0.304 0.944,-1.09 0.405,-1.703 -1.507,-1.722 -5.176,-1.535 -7.551,-0.854 -2.004,0.575 -3.719,1.41 -5.157,2.558 -0.744,0.596 -1.562,1.318 -1.908,1.949 -0.831,1.513 -1.162,4.663 -0.649,6.698 1.138,-3.801 3.222,-6.655 6.416,-8.403 -1.488,2.003 -2.576,5.14 -2.03,8.647 1.23,-4.548 3.576,-7.982 7.509,-9.825 z m 0,-55.138 c 11.126,1.236 21.517,3.311 30.98,6.214 0.845,0.258 2.079,0.707 3.005,0.974 0.194,0.056 -0.05,0.1 0.243,0.081 -0.069,0.004 -0.407,-0.233 -0.608,-0.325 -4.878,-2.219 -10.383,-3.792 -16.04,-5.197 -17.057,-4.235 -36.87,-5.828 -58.141,-5.44 0,0.813 0,1.624 0,2.436 13.604,-0.806 28.033,-0.133 40.561,1.257 z m 85.306,11.734 c 1.153,-2.975 2.292,-5.964 3.492,-8.891 -0.207,-0.086 -0.296,0.183 -0.405,0.283 -2.282,2.071 -4.728,4.235 -6.943,6.172 0.661,-2.926 1.415,-5.759 2.07,-8.688 -1.896,2.176 -4.128,4.962 -6.09,7.146 0.188,-3.143 0.534,-6.342 0.649,-9.421 -1.669,2.893 -3.388,5.951 -5.076,8.689 -0.432,-3.289 -0.719,-6.724 -1.178,-9.987 -1.216,3.222 -2.426,6.45 -3.695,9.621 -1.036,-3.117 -2.054,-6.254 -3.125,-9.339 -0.672,3.296 -1.316,6.614 -1.989,9.907 -1.686,-2.669 -3.313,-5.403 -4.994,-8.079 0.161,3.155 0.264,6.368 0.446,9.501 -1.822,-2.058 -3.738,-4.311 -5.523,-6.374 -0.124,-0.146 -0.21,-0.406 -0.324,-0.323 0.66,2.926 1.326,5.845 1.95,8.809 -2.485,-1.778 -4.865,-3.662 -7.351,-5.439 1.175,2.723 2.516,5.498 3.614,8.16 -2.408,-1.53 -4.778,-3.099 -7.187,-4.628 1.051,2.317 2.178,4.563 3.248,6.861 -11.549,-5.289 -24.907,-9.054 -39.505,-11.45 -14.257,-2.341 -31.47,-3.31 -47.83,-2.071 0,4.886 0,9.772 0,14.658 1.914,-0.715 3.632,-1.435 5.522,-2.192 0.463,-0.186 1.438,-0.67 1.907,-0.691 0.595,-0.023 1.542,0.526 2.193,0.813 4.572,2.007 8.949,3.941 13.52,6.01 0.342,0.155 0.843,0.453 1.055,0.445 0.265,-0.008 0.863,-0.471 1.261,-0.689 2.581,-1.419 5.062,-2.773 7.55,-4.143 0.43,-0.234 0.843,-0.57 1.26,-0.729 0.718,-0.275 1.14,0.002 1.786,0.202 2.294,0.711 4.448,1.361 6.659,2.07 0.391,0.125 0.873,0.35 1.137,0.324 0.318,-0.027 1.022,-0.577 1.422,-0.811 2.975,-1.741 5.679,-3.202 8.648,-4.953 0.431,-0.255 1.092,-0.713 1.583,-0.689 0.246,0.011 0.648,0.251 1.015,0.406 5.054,2.14 9.97,4.377 14.942,6.455 0.572,-0.31 1.154,-0.678 1.745,-1.016 0.592,-0.34 1.199,-0.779 1.786,-0.975 0.818,-0.272 1.156,0.045 1.827,0.325 2.229,0.935 4.261,1.77 6.457,2.68 0.387,0.16 0.838,0.448 1.097,0.447 0.349,-0.003 0.928,-0.393 1.38,-0.569 0.512,-0.2 1.063,-0.37 1.461,-0.526 1.011,-0.402 1.977,-0.92 2.803,-1.138 0.954,-0.254 1.747,0.282 2.639,0.568 4.146,1.332 8.024,2.535 12.141,3.896 0.638,0.212 1.467,0.653 2.029,0.651 0.393,-0.002 0.931,-0.27 1.462,-0.406 6.584,-1.704 13.038,-3.28 19.528,-4.994 1.012,-0.267 2.04,-0.617 3.005,-0.772 0.975,-0.156 1.961,0.181 2.884,0.325 0.783,0.122 1.589,0.227 2.396,0.365 0,-0.744 0,-1.49 0,-2.233 -2.389,-0.292 -4.729,-0.631 -7.107,-0.934 1.798,-2.655 3.79,-5.333 5.482,-7.957 -2.871,1.784 -5.857,3.668 -8.729,5.318 z m -72.394,4.06 c -1.754,1.581 -3.456,3.174 -5.237,4.752 -0.337,0.299 -0.802,0.836 -1.177,0.852 -0.35,0.013 -1.037,-0.34 -1.463,-0.486 -3.485,-1.208 -6.77,-2.306 -10.191,-3.452 -2.568,2.047 -5.092,4.192 -7.674,6.293 -0.319,0.262 -0.827,0.838 -1.177,0.852 -0.247,0.012 -0.843,-0.316 -1.217,-0.486 -5.951,-2.709 -11.887,-5.52 -17.704,-8.202 -2.548,1.729 -5.059,3.494 -7.511,5.318 0,1.518 0,3.033 0,4.548 34.595,0.027 69.292,-0.053 103.819,0.041 -34.655,1.444 -69.172,3.017 -103.819,4.467 0.027,3.193 -0.055,6.495 0.041,9.623 -0.07,-0.269 0.07,-0.255 0.161,-0.326 0.284,-0.215 0.904,-0.362 1.341,-0.527 1.397,-0.529 2.854,-1.054 4.101,-1.543 0.225,-0.365 0.379,-0.622 0.771,-0.813 0.594,-0.287 1.502,-0.289 1.908,-0.73 0.371,-0.401 0.384,-1.064 0.69,-1.503 0.06,-0.083 0.143,-0.184 0.203,-0.242 0.804,-0.773 1.583,-0.529 2.924,-0.448 0.025,0.003 0.054,0.004 0.081,0 0.684,-0.072 1.331,-0.695 1.826,-1.054 0.555,-0.402 1.538,-0.827 2.355,-0.73 0.945,0.11 1.495,0.804 2.395,0.852 0.765,0.04 1.283,-0.338 2.112,-0.121 0.464,0.121 0.771,0.715 1.136,0.811 1.397,0.371 4.068,-0.839 4.061,0.974 0.842,0.086 1.535,0.48 1.665,1.178 0.164,0.883 -0.393,1.15 -0.528,1.544 -0.128,0.371 -0.043,0.662 -0.202,0.934 -0.699,1.185 -2.777,0.533 -4.628,0.893 0.64,0.898 0.196,2.093 0,3.208 0.534,1.264 0.983,2.616 1.502,3.898 -0.627,0.293 -1.269,0.571 -1.827,0.934 -0.262,2.012 -0.598,3.95 -1.057,5.766 -1.787,0.256 -3.538,0.549 -5.318,0.811 -0.08,1.56 -0.101,3.176 -0.203,4.71 0.412,0.532 1.253,0.732 1.503,1.341 0.219,0.535 0.215,1.29 0.324,1.907 0.24,1.37 0.451,2.462 0.69,3.777 0.113,0.624 0.095,1.382 0.325,1.907 0.157,0.359 0.833,0.743 1.217,1.056 0.901,0.728 1.568,1.272 2.436,2.03 0.305,0.265 0.835,0.922 1.22,1.015 0.263,0.065 0.682,0.027 1.014,0.042 1.112,0.043 2.074,0.046 3.127,0.16 0.228,-0.354 0.41,-0.753 0.65,-1.096 -1.602,-2.39 -1.908,-6.063 -1.422,-9.136 0.264,-1.654 0.59,-3.067 1.34,-4.182 2.2,-3.257 6.111,-4.952 11.085,-5.481 1.68,-0.179 3.422,0.096 4.668,0.772 1.031,0.558 2.279,1.734 2.275,3.247 -0.003,1.126 -0.754,1.427 -1.421,1.909 0.446,0.771 0.725,1.713 1.098,2.558 1.268,-0.734 2.627,-1.376 3.898,-2.111 0.765,-2.215 1.815,-4.748 4.547,-4.791 0.458,-0.572 1.187,-1.424 2.233,-1.015 0.351,-0.564 1.066,-1.075 2.028,-0.771 0.289,-0.167 0.591,-0.508 1.017,-0.608 0.965,-0.23 1.883,0.406 2.436,0.691 3.336,-1.753 6.621,-3.557 9.987,-5.28 1.294,0.759 2.533,1.847 3.288,3.289 0.701,1.341 1.113,3.698 0.448,5.482 -6.022,2.169 -12.159,4.218 -18.191,6.374 -0.164,1.968 -0.765,3.484 -1.663,4.671 -0.298,0.391 -0.725,0.676 -1.017,1.096 -0.576,0.829 -1.007,1.799 -1.503,2.679 -1.537,2.739 -3.14,5.26 -4.628,8.039 -2.265,2.349 -4.524,4.763 -6.82,7.146 -0.278,0.288 -0.876,0.801 -0.933,1.095 -0.046,0.23 0.033,1.477 0.12,1.705 0.07,0.19 0.458,0.428 0.69,0.651 1.607,1.544 3.052,3.406 4.385,4.994 1.854,-2.275 4.157,-4.1 6.416,-5.969 -0.421,-1.08 -0.086,-2.631 0.243,-3.573 2.936,1.515 4.836,-1.319 5.238,-3.735 0.951,-5.734 3.744,-9.412 8.77,-10.963 2.393,-0.737 5.994,-1.172 8.363,0.08 1.736,-1.172 3.579,-2.24 5.441,-3.288 0.745,-1.837 1.762,-4.215 3.329,-5.319 0.479,-0.337 1.072,-0.59 1.788,-0.364 0.246,-0.077 0.566,-0.265 0.933,-0.284 0.361,-0.02 0.598,0.107 0.812,0.202 0.345,-0.228 1.039,-0.409 1.501,-0.16 0.805,-0.777 1.592,-1.549 2.397,-2.396 0.165,-0.174 0.663,-0.818 0.814,-0.813 0.093,0.005 0.435,0.426 0.568,0.649 0.755,1.281 -0.165,2.749 -0.772,3.531 -0.169,0.219 -0.464,0.434 -0.407,0.61 0.74,0.058 1.043,0.554 1.137,1.258 -1.598,0.979 -2.539,2.6 -3.775,3.939 -1.241,1.345 -2.813,2.277 -5.115,2.597 -1.762,2.627 -3.887,4.886 -6.01,7.147 0.368,0.705 -0.244,1.299 -0.447,1.908 0.427,1.063 0.891,2.089 1.34,3.127 -0.273,0.425 -1.145,0.572 -1.258,1.094 -0.053,0.241 0.04,0.68 0.04,1.017 0,1.137 -0.032,2.202 -0.161,3.128 -1.351,0.711 -3.074,1.251 -5.077,1.178 -0.024,0.895 -0.163,1.676 -0.446,2.313 1.08,1.3 2.195,2.668 3.127,4.222 0.284,0.475 0.567,1.267 0.935,1.543 0.439,0.333 1.233,0.564 1.785,0.813 3.087,1.387 5.886,2.868 8.446,4.668 1.042,0.732 1.891,1.482 2.72,2.518 2.925,3.657 5.268,7.89 7.349,12.303 0.135,0.286 0.158,0.691 0.487,0.854 3.281,-28.594 6.819,-57.395 10.068,-85.916 0.217,-1.902 0.37,-3.807 0.731,-5.684 0.03,2.1 -0.185,4.204 -0.325,6.294 -2.129,31.748 -4.508,63.574 -6.738,95.212 4.423,0 8.85,0 13.274,0 -0.82,-4.327 -0.233,-9.603 0.69,-13.399 0.406,4.914 1.043,9.596 2.56,13.399 0.608,-0.028 1.325,0.053 1.867,-0.041 -2.107,-6.03 -2.729,-14.8 -1.948,-22.696 1.102,8.41 2.598,16.429 5.806,22.737 0.92,0 1.842,0 2.761,0 -3.225,-6.85 -5.424,-14.867 -6.334,-24.077 -0.92,-9.306 -0.469,-19.574 0.202,-29.153 0.325,-4.629 0.908,-9.344 1.138,-14.049 0.242,-4.98 -0.084,-9.733 -0.935,-14.128 -1.627,-8.408 -5.075,-15.236 -10.271,-20.099 9.027,0 18.055,0 27.082,0 0,-1.543 0,-3.086 0,-4.628 -1.17,-0.651 -2.561,-1.276 -3.857,-1.908 -0.401,-0.195 -0.983,-0.589 -1.341,-0.609 -0.342,-0.018 -1.029,0.241 -1.502,0.366 -7.09,1.867 -14.065,3.603 -21.112,5.44 -0.543,0.142 -1.122,0.375 -1.544,0.365 -0.583,-0.014 -1.327,-0.398 -1.987,-0.609 -4.741,-1.513 -9.296,-3.01 -13.929,-4.507 -1.166,0.807 -2.294,1.677 -3.491,2.517 -0.313,0.219 -0.921,0.769 -1.26,0.772 -0.258,10e-4 -0.913,-0.362 -1.298,-0.527 -2.998,-1.286 -6.038,-2.763 -8.933,-3.939 -0.382,0.505 -0.695,1.003 -1.097,1.625 -0.219,0.338 -0.737,1.502 -1.177,1.543 -0.199,0.018 -0.765,-0.284 -1.138,-0.448 -5.636,-2.469 -11.305,-5.058 -16.851,-7.429 -0.735,0.671 -1.491,1.316 -2.232,1.983 z m -31.993,20.544 c 0.192,0.468 0.406,0.921 0.568,1.422 1.345,-0.144 4.791,0.549 3.855,-1.137 1.103,-0.167 0.647,-1.791 -0.608,-1.422 0.107,-0.138 -0.007,-0.321 -0.04,-0.446 -0.555,-0.515 -1.942,-0.195 -2.924,-0.285 0.129,0.884 -0.351,1.481 -0.851,1.868 z m -0.204,2.03 c -0.153,-0.382 -0.591,-1.694 -0.933,-1.826 -0.232,-0.087 -0.788,0.601 -0.853,0.732 -0.297,0.597 -0.122,1.358 -0.527,1.785 -0.36,0.379 -1.652,0.369 -1.909,0.935 -0.534,1.173 0.922,2.678 -0.162,3.45 -0.205,0.146 -0.702,0.313 -1.299,0.203 -0.219,-0.041 -0.39,-0.204 -0.568,-0.243 -1.766,-0.39 -2.33,1.553 -2.111,3.045 0.128,0.881 0.8,1.547 1.785,1.584 -0.458,0.625 -0.895,1.269 -1.38,1.867 -1.512,-0.776 -3.008,-1.566 -5.238,-1.623 -1.161,1.03 -2.345,2.04 -3.451,3.126 3.313,1.668 6.336,3.627 9.298,5.643 0.064,-0.912 0.177,-1.773 0.285,-2.638 -0.248,-0.647 -0.527,-1.478 -0.69,-2.071 1.85,0.02 3.962,-0.043 5.441,-0.528 1.447,-2.477 2.409,-5.439 2.477,-9.298 -0.839,0.122 -1.657,0.266 -2.397,0.488 0.676,-1.167 1.668,-2.016 2.924,-2.599 -0.219,-0.592 -0.359,-1.203 -0.692,-2.032 z m -21.153,3.168 c 0,0.691 0,1.38 0,2.07 1.41,-0.768 2.806,-1.769 4.141,-2.476 -0.96,1.147 -2.085,2.4 -3.126,3.612 -0.294,0.344 -0.929,0.927 -1.015,1.26 -0.132,0.509 0,1.205 0,1.827 0,0.614 -0.034,1.255 0.041,1.745 0.008,-0.126 -0.028,-0.298 0.041,-0.365 0.113,0.05 0.25,0.05 0.365,0 1.784,-1.178 3.555,-2.371 5.196,-3.695 -0.574,-0.557 -1.049,-1.306 -0.65,-2.275 0.143,-0.344 0.671,-0.668 0.69,-0.973 0.03,-0.477 -0.637,-0.771 -0.73,-1.178 -0.24,-1.039 0.807,-1.262 0.894,-1.908 -1.918,0.818 -3.919,1.552 -5.847,2.356 z m 62.284,11.004 c 0.657,0.952 0.737,3.101 -0.69,3.246 -0.219,0.743 -0.685,1.237 -1.706,1.178 -0.314,0.71 -1.119,1.19 -2.15,0.935 -0.393,0.348 -0.595,0.62 -1.098,0.689 -0.722,0.101 -1.199,-0.285 -1.665,-0.284 -0.282,0.001 -0.725,0.254 -1.095,0.366 -2.7,0.815 -5.442,1.679 -8,2.435 0.123,1.119 -1.129,2.582 -0.568,3.493 1.975,-0.624 3.847,-1.35 5.766,-2.03 0.705,-1.268 1.776,-2.277 3.411,-2.599 0.317,-0.06 0.777,-0.201 1.095,0.039 0.138,0.427 -0.334,0.799 -0.324,1.097 5.012,-1.849 10.115,-3.608 15.146,-5.44 -0.029,-2.8 -0.869,-4.79 -2.599,-5.888 -1.829,0.935 -3.725,1.799 -5.523,2.763 z m -61.92,-0.651 c 0,0.028 0,0.055 0,0.082 -0.025,1.192 -0.108,2.325 -0.162,3.492 5.234,3.104 10.706,6.178 15.429,9.743 0.122,0.089 0.276,0.257 0.447,0.242 -0.124,-1.619 -0.33,-3.161 -0.447,-4.789 -4.72,-3.264 -9.499,-6.687 -15.267,-8.77 z m 61.188,2.965 c 0.39,-0.403 0.138,-1.574 -0.204,-2.113 -0.607,-0.955 -2.003,-1.314 -2.313,0.084 -0.873,-0.818 -2.184,-0.443 -1.909,1.054 -0.374,-0.295 -0.749,-0.765 -1.299,-0.689 -0.554,0.076 -0.66,0.731 -0.772,1.34 -1.134,-0.723 -2.352,-0.104 -3.085,0.609 -0.314,0.304 -0.731,0.732 -0.608,1.177 0.64,-0.069 0.953,-0.423 1.461,-0.487 0.8,-0.101 1.465,0.219 1.908,0.569 0.339,0.267 0.532,0.683 0.852,0.933 0.659,0.516 1.499,0.283 1.625,-0.446 0.878,0.386 2.075,0.096 1.867,-1.097 0.747,0.546 1.869,0.107 1.463,-1.055 0.235,0.128 0.669,0.229 1.014,0.121 z m -56.436,14.007 c -1.629,-1.351 -3.214,-2.958 -4.792,-4.223 1.071,1.905 2.073,3.881 3.128,5.806 -1.065,-0.831 -2.099,-1.907 -3.128,-2.638 0.548,1.319 1.064,2.67 1.583,4.02 -0.475,-0.393 -0.975,-0.966 -1.42,-1.382 -0.165,-0.152 -0.393,-0.378 -0.487,-0.325 0.027,4.562 -0.055,9.23 0.041,13.724 2.1,-3.945 4.811,-7.572 8.16,-10.353 0.354,-0.294 1.167,-1.005 1.543,-1.138 0.275,-0.095 0.685,-0.108 1.056,-0.162 2.982,-0.446 6.345,-0.681 9.542,-0.771 -5.803,-5.012 -12.519,-9.677 -19.529,-13.479 2.223,3.027 4.396,6.104 6.577,9.175 -2.357,-1.935 -4.745,-4.054 -7.065,-5.886 1.621,2.518 3.189,5.091 4.791,7.632 z m 35.08,-5.278 c -0.545,0.687 -1.154,1.311 -1.746,1.948 -0.57,-0.47 -1.349,-1.247 -2.354,-0.933 -0.637,0.2 -1.202,1.246 -1.3,1.989 -0.227,1.715 0.816,3.029 2.68,2.8 -0.898,1.31 -1.773,2.642 -2.68,3.94 -1.467,-0.929 -3.166,-1.626 -5.033,-2.152 -0.349,0.723 -0.732,1.407 -1.058,2.152 2.231,1.368 4.399,2.801 6.536,4.262 0.06,-0.563 0.619,-1.001 0.569,-1.541 -0.04,-0.435 -0.681,-0.993 -0.73,-1.301 2.742,-0.004 5.361,-0.131 7.388,-0.853 0.972,-2.75 1.816,-5.847 1.829,-9.42 -0.81,0.287 -1.634,0.561 -2.477,0.813 0.609,-1.583 1.72,-2.664 3.045,-3.532 -0.415,-1.386 -0.898,-2.702 -1.664,-3.735 -2.399,0.721 -4.399,2.599 -3.005,5.563 z m 48.519,0.121 c 0.271,-0.369 0.644,-0.707 1.014,-1.136 0.305,-0.351 0.599,-0.755 0.894,-1.137 0.61,-0.792 1.378,-1.678 1.463,-2.64 0.022,-0.264 0.005,-0.541 -0.163,-0.73 -0.38,0.158 -0.577,0.576 -0.853,0.894 -0.864,1 -1.761,2.026 -2.64,2.964 -0.056,-0.312 -0.266,-0.466 -0.487,-0.608 -0.563,-0.064 -0.853,0.147 -1.177,0.323 -0.268,-0.714 -1.303,-0.298 -1.623,0.082 -0.443,-0.738 -1.244,0.241 -1.544,0.65 -0.891,1.205 -1.598,2.829 -2.152,4.059 -1.676,1.152 -3.336,2.321 -4.913,3.573 1.573,0.553 1.303,3.386 0.487,4.588 0.127,0.017 0.276,-0.127 0.365,-0.204 1.994,-1.7 3.816,-3.685 5.442,-5.684 4.271,0.104 5.148,-3.539 7.633,-5.358 -0.649,-0.352 -1.419,0.193 -1.787,0.364 0.014,0 0.028,0 0.041,0 z m -34.187,-1.298 c -0.692,1.423 -1.309,3.03 -3.086,3.166 -0.682,0.053 -1.314,-0.179 -1.746,-0.405 -0.351,-0.185 -0.746,-0.671 -1.056,-0.691 -0.352,-0.021 -0.757,0.397 -1.096,0.365 0.818,1.077 1.941,2.296 3.613,2.274 1.252,-0.017 2.372,-0.847 3.126,-1.666 0.831,-0.897 1.361,-2.225 1.462,-3.408 -0.002,-0.026 -0.005,-0.049 -0.04,-0.041 -0.37,0.156 -0.748,0.305 -1.177,0.406 z m -8.77,3.125 c 0.385,0.738 0.732,1.517 1.097,2.275 -0.322,0.189 -0.587,0.411 -0.933,0.649 -0.226,0.152 -0.848,0.424 -0.936,0.69 -0.055,0.171 0.009,0.405 0,0.607 -0.063,1.452 -0.301,3.232 -0.486,4.628 -1.708,0.743 -3.787,1.112 -6.05,1.3 -0.107,1.368 -0.319,2.629 -0.446,3.979 0.349,0.369 0.818,0.688 1.299,1.096 0.291,0.249 1.102,0.829 1.218,1.178 0.143,0.422 -0.008,0.896 0.081,1.462 1.645,-1.564 3.294,-3.292 4.954,-4.953 0.499,-0.499 1.288,-1.13 1.665,-1.664 0.419,-0.599 0.663,-1.413 1.014,-2.112 1.061,-2.112 2.118,-4.129 3.128,-6.252 -2.618,-0.104 -3.877,-1.566 -5.035,-3.127 -0.197,0.076 -0.437,0.109 -0.57,0.244 z m 22.087,22.696 c 0.236,-1.086 0.263,-2.226 0.406,-3.409 0.545,-4.44 2.223,-8.07 4.872,-10.396 0.716,-0.628 1.65,-0.982 1.867,-1.947 0.203,-0.895 -0.356,-1.712 -0.811,-1.949 -0.894,-0.465 -3.103,-0.646 -4.264,-0.567 -6.753,0.46 -9.516,5.375 -10.72,11.287 -0.175,0.857 -0.181,1.863 -0.405,2.761 -0.465,1.841 -2.657,2.913 -4.912,2.029 0.069,1.351 0.698,2.284 1.906,2.396 1.327,0.124 2.622,-0.646 3.37,-1.339 0.85,-0.785 1.46,-1.703 1.868,-2.843 0.866,-2.412 1.477,-4.987 3.289,-6.049 -0.573,1.04 -1.032,2.165 -1.34,3.449 -0.322,1.353 -0.313,2.813 -0.608,4.225 -0.559,2.673 -2.207,4.197 -4.387,5.236 4.187,-0.011 5.647,-3.345 6.375,-6.819 0.589,-2.809 1.744,-5.5 3.898,-6.823 -1.015,1.681 -1.869,4.011 -1.869,6.659 0,0.878 0.134,1.74 0.204,2.681 0.216,2.849 -1.007,5.173 -2.518,6.334 -0.066,0.051 -0.267,0.06 -0.242,0.202 2.45,-0.526 3.48,-2.627 4.021,-5.118 z m -40.156,39.061 c 0.705,0 1.407,0 2.112,0 0.86,-3.038 1.758,-6.038 2.68,-9.015 -0.214,2.996 -0.385,6.03 -0.609,9.015 0.704,0 1.407,0 2.111,0 0.271,-1.896 0.632,-3.719 0.934,-5.521 0.104,-0.613 0.314,-1.287 0.324,-1.867 0.007,-0.313 -0.137,-0.689 -0.202,-1.058 -0.447,-2.56 -0.846,-5.007 -1.3,-7.511 1.302,2.204 2.517,4.495 3.816,6.698 1.265,-8.196 3.272,-15.649 6.619,-21.762 -2.448,1.097 -4.615,2.476 -6.902,3.734 1.787,-2.61 4.215,-4.582 6.983,-6.212 -7.961,-10.132 -18.848,-17.343 -34.309,-19.977 -1.972,1.63 -3.774,3.643 -5.157,5.726 1.743,-0.963 3.63,-2.003 5.361,-2.842 -0.633,1.479 -1.427,3.013 -1.99,4.426 1.593,-1.06 3.242,-2.281 4.832,-3.206 -0.576,1.467 -1.2,3.103 -1.666,4.546 1.47,-0.981 3,-2.118 4.467,-2.964 -0.396,1.499 -0.69,3.102 -1.097,4.588 0.185,0.022 0.339,-0.165 0.489,-0.284 1.195,-0.957 2.496,-2.044 3.653,-2.843 -0.437,1.448 -0.801,2.962 -1.219,4.426 1.671,-0.819 3.292,-1.688 4.953,-2.517 -4.302,6.157 -8.167,12.656 -11.369,19.854 -3.201,7.198 -5.853,15.084 -6.699,24.564 0.487,0 0.976,0 1.462,0 2.246,-12.895 6.015,-24.532 11.53,-34.146 1.846,-3.213 3.808,-6.303 6.295,-8.851 -3.725,6.047 -7.006,12.46 -9.704,19.488 -2.691,7.011 -4.88,14.671 -5.684,23.509 3.897,0 7.794,0 11.692,0 2.424,-4.491 4.824,-9.008 7.268,-13.482 -1.518,4.506 -3.066,8.982 -4.587,13.482 0.824,0 1.65,0 2.477,0 1.449,-3.512 2.901,-7.277 4.343,-10.76 0.078,-0.185 0.228,-0.642 0.285,-0.568 -0.752,3.754 -1.45,7.562 -2.192,11.33 z m -3.086,-51.039 c 5.357,2.328 10.185,5.435 14.008,9.26 0.116,0.113 0.294,0.338 0.366,0.243 0.01,-1.134 -0.096,-2.15 -0.081,-3.289 -3.633,-3.04 -7.569,-5.774 -12.019,-7.998 -0.77,0.581 -1.597,1.107 -2.274,1.784 z m 46.41,5.361 c -0.15,2.241 0.95,3.341 1.054,5.563 1.493,0.003 2.795,-0.186 3.616,-0.853 0.551,-1.992 0.38,-4.945 -0.285,-6.659 -0.565,0.085 -1.113,0.187 -1.624,0.324 0.707,-1.105 1.847,-1.779 2.84,-2.598 -0.217,-0.972 -0.566,-1.815 -1.094,-2.478 -2.188,1.445 -4.292,3.504 -4.507,6.701 z m 57.126,45.473 c 0.798,0 1.598,0 2.395,0 -4.272,-10.182 -7.695,-21.568 -8.892,-34.957 -0.637,13.852 2.451,25.312 6.497,34.957 z m -59.197,-33.211 c 1.302,0.362 2.64,0.907 3.856,1.218 -0.714,-0.938 -1.331,-1.971 -2.192,-2.761 -0.401,0.666 -1.092,1.045 -1.664,1.543 z m 17.621,11.489 c -0.313,-0.401 -0.614,-0.866 -1.055,-1.136 -3.012,1.319 -4.938,3.722 -6.822,6.17 0,-0.039 0.033,-0.048 0.041,-0.08 0.91,-3.364 2.531,-6.021 4.913,-7.918 -4.546,-2.85 -10.04,-5.523 -16.241,-6.9 -0.458,-0.104 -0.932,-0.293 -1.299,-0.285 -0.503,0.012 -0.983,0.269 -1.422,0.324 -3.322,0.429 -6.193,-0.984 -8.039,-2.354 -0.263,-0.197 -0.708,-0.709 -1.015,-0.772 -0.463,-0.096 -1.285,0.099 -1.827,0.162 -1.854,0.218 -3.608,0.596 -5.115,0.935 -5.762,8.681 -9.425,19.457 -9.542,33.781 0.433,0 0.866,0 1.298,0 0.608,-11.871 3.586,-21.589 7.756,-29.763 0.045,1.661 0.078,3.331 0.122,4.995 1.108,-1.383 2.286,-3.263 3.41,-4.629 -0.219,1.729 -0.394,3.504 -0.608,5.237 1.183,-1.226 2.45,-2.935 3.654,-4.141 -0.307,1.563 -0.552,3.184 -0.853,4.75 1.333,-1.089 2.746,-2.667 4.099,-3.736 -3.391,8.03 -6.424,16.423 -6.982,27.286 1.001,0 2.002,0 3.005,0 1.433,-10.232 3.933,-19.4 7.633,-27.365 -2.305,8.63 -4.404,17.466 -5.44,27.365 7.118,0 14.236,0 21.354,0 -0.164,-2.988 -0.29,-6.017 -0.444,-9.015 2.654,2.965 5.17,6.062 7.836,9.015 0.487,0 0.974,0 1.461,0 -2.177,-2.867 -4.692,-5.819 -7.023,-8.729 -0.277,-0.346 -0.921,-0.967 -0.976,-1.3 -0.064,-0.395 0.156,-1.2 0.285,-1.704 0.155,-0.61 0.32,-1.073 0.487,-1.503 1.109,-2.885 3.029,-5.113 5.157,-6.699 -0.665,1.804 -0.877,4.074 -0.61,6.212 0.538,4.304 2.67,6.747 4.628,9.581 0.655,0.947 1.469,2.072 2.193,3.128 0.228,0.33 0.556,0.945 0.771,1.015 0.415,0.135 1.182,0 1.746,0 1.794,0 3.625,0 5.237,0 -3.246,-7.917 -6.913,-15.651 -11.773,-21.927 z m -6.617,21.927 c 0.946,-0.028 2.002,0.053 2.883,-0.041 -0.688,-0.817 -1.32,-1.685 -2.031,-2.478 -0.297,0.827 -0.557,1.691 -0.852,2.519 z m 20.218,0 c -0.023,-0.166 -0.075,-0.302 -0.161,-0.406 0.046,0.14 0.063,0.314 0.161,0.406 z"
         id="path3963"
         inkscape:connector-curvature="0" /><path
         style="clip-rule:evenodd;fill:#9cc87b;fill-rule:evenodd"
         d="m 323.086,334.25 c 2.32,1.832 4.709,3.951 7.065,5.886 -2.182,-3.07 -4.354,-6.147 -6.577,-9.175 7.01,3.802 13.727,8.467 19.529,13.479 -3.197,0.091 -6.56,0.325 -9.542,0.771 -0.371,0.054 -0.78,0.067 -1.056,0.162 -0.376,0.133 -1.189,0.844 -1.543,1.138 -3.35,2.78 -6.061,6.407 -8.16,10.353 -0.096,-4.493 -0.014,-9.162 -0.041,-13.724 0.094,-0.053 0.322,0.173 0.487,0.325 0.444,0.416 0.945,0.989 1.42,1.382 -0.518,-1.35 -1.035,-2.7 -1.583,-4.02 1.029,0.73 2.063,1.807 3.128,2.638 -1.055,-1.925 -2.057,-3.9 -3.128,-5.806 1.578,1.265 3.163,2.872 4.792,4.223 -1.601,-2.541 -3.169,-5.114 -4.791,-7.632 z"
         id="path3965"
         inkscape:connector-curvature="0" /><path
         style="clip-rule:evenodd;fill:#2bb5d7;fill-rule:evenodd"
         d="m 352.645,388.98 c -0.057,-0.073 -0.207,0.383 -0.285,0.568 -1.441,3.482 -2.894,7.248 -4.343,10.76 -0.826,0 -1.652,0 -2.477,0 1.521,-4.5 3.069,-8.977 4.587,-13.482 -2.443,4.475 -4.844,8.991 -7.268,13.482 -3.899,0 -7.795,0 -11.692,0 0.804,-8.838 2.992,-16.498 5.684,-23.509 2.698,-7.028 5.979,-13.441 9.704,-19.488 -2.487,2.548 -4.449,5.638 -6.295,8.851 -5.516,9.614 -9.284,21.251 -11.53,34.146 -0.486,0 -0.975,0 -1.462,0 0.847,-9.48 3.498,-17.366 6.699,-24.564 3.202,-7.198 7.067,-13.697 11.369,-19.854 -1.661,0.828 -3.282,1.697 -4.953,2.517 0.418,-1.464 0.782,-2.978 1.219,-4.426 -1.157,0.799 -2.458,1.886 -3.653,2.843 -0.15,0.119 -0.305,0.306 -0.489,0.284 0.407,-1.486 0.701,-3.089 1.097,-4.588 -1.467,0.846 -2.997,1.983 -4.467,2.964 0.466,-1.443 1.09,-3.079 1.666,-4.546 -1.59,0.925 -3.239,2.147 -4.832,3.206 0.563,-1.413 1.357,-2.947 1.99,-4.426 -1.732,0.839 -3.618,1.879 -5.361,2.842 1.383,-2.082 3.186,-4.096 5.157,-5.726 15.461,2.634 26.348,9.845 34.309,19.977 -2.769,1.63 -5.196,3.602 -6.983,6.212 2.287,-1.259 4.454,-2.638 6.902,-3.734 -3.348,6.112 -5.354,13.565 -6.619,21.762 -1.3,-2.203 -2.515,-4.494 -3.816,-6.698 0.454,2.504 0.852,4.951 1.3,7.511 0.065,0.368 0.209,0.745 0.202,1.058 -0.011,0.58 -0.221,1.254 -0.324,1.867 -0.302,1.803 -0.663,3.625 -0.934,5.521 -0.704,0 -1.407,0 -2.111,0 0.225,-2.984 0.396,-6.019 0.609,-9.015 -0.922,2.977 -1.819,5.977 -2.68,9.015 -0.705,0 -1.407,0 -2.112,0 0.74,-3.769 1.438,-7.577 2.192,-11.33 z"
         id="path3967"
         inkscape:connector-curvature="0" /><path
         style="clip-rule:evenodd;fill:#ffffff;fill-rule:evenodd"
         d="m 422.765,399.902 c 0.086,0.104 0.138,0.24 0.161,0.406 -0.098,-0.091 -0.115,-0.265 -0.161,-0.406 z"
         id="path3969"
         inkscape:connector-curvature="0" /></g></g><g
     id="frame"
     transform="matrix(0.33037975,0,0,0.32766831,-103.82712,-67.152016)"><path
       style="fill:#009ac7"
       d="m 472.266,410.94 -158,0 0,-206.001 158,0 0,206.001 z m -12,-145.195 -134,0 0,134 134,0 0,-134 z"
       id="path3972"
       inkscape:connector-curvature="0" /><rect
       x="320.267"
       y="210.94"
       style="fill:none;stroke:#ffffff;stroke-width:2"
       width="146"
       height="194"
       id="rect3974" /><g
       id="g3976"><path
         style="fill:#ffffff"
         d="m 330.714,223.071 3.074,0 0,17.496 -3.074,0 0,-17.496 z"
         id="path3978"
         inkscape:connector-curvature="0" /><path
         style="fill:#ffffff"
         d="m 342.789,223.071 2.849,0 9.373,12.097 0,-12.097 3.024,0 0,17.496 -2.574,0 -9.647,-12.447 0,12.447 -3.024,0 0,-17.496 z"
         id="path3980"
         inkscape:connector-curvature="0" /><path
         style="fill:#ffffff"
         d="m 365.689,238.017 1.85,-2.2 c 1.675,1.45 3.374,2.274 5.523,2.274 1.9,0 3.1,-0.899 3.1,-2.199 l 0,-0.05 c 0,-1.25 -0.7,-1.925 -3.949,-2.675 -3.724,-0.899 -5.824,-1.999 -5.824,-5.224 l 0,-0.05 c 0,-3 2.499,-5.074 5.974,-5.074 2.549,0 4.574,0.775 6.349,2.199 l -1.65,2.325 c -1.574,-1.175 -3.149,-1.8 -4.749,-1.8 -1.8,0 -2.85,0.925 -2.85,2.075 l 0,0.05 c 0,1.35 0.8,1.95 4.174,2.75 3.699,0.9 5.599,2.225 5.599,5.124 l 0,0.05 c 0,3.274 -2.575,5.224 -6.248,5.224 -2.675,0 -5.199,-0.924 -7.299,-2.799 z"
         id="path3982"
         inkscape:connector-curvature="0" /><path
         style="fill:#ffffff"
         d="m 387.189,223.071 6.898,0 c 4.098,0 6.649,2.324 6.649,5.849 l 0,0.05 c 0,3.924 -3.15,5.974 -6.999,5.974 l -3.474,0 0,5.623 -3.074,0 0,-17.496 z m 6.648,9.098 c 2.324,0 3.774,-1.3 3.774,-3.124 l 0,-0.05 c 0,-2.049 -1.475,-3.124 -3.774,-3.124 l -3.574,0 0,6.298 3.574,0 z"
         id="path3984"
         inkscape:connector-curvature="0" /><path
         style="fill:#ffffff"
         d="m 408.389,223.071 3.074,0 0,17.496 -3.074,0 0,-17.496 z"
         id="path3986"
         inkscape:connector-curvature="0" /><path
         style="fill:#ffffff"
         d="m 420.464,223.071 7.798,0 c 2.199,0 3.924,0.65 5.049,1.749 0.925,0.95 1.449,2.249 1.449,3.774 l 0,0.05 c 0,2.874 -1.725,4.599 -4.148,5.298 l 4.724,6.623 -3.65,0 -4.299,-6.099 -3.849,0 0,6.099 -3.074,0 0,-17.494 z m 7.573,8.673 c 2.199,0 3.6,-1.15 3.6,-2.924 l 0,-0.05 c 0,-1.875 -1.35,-2.899 -3.625,-2.899 l -4.474,0 0,5.874 4.499,0 z"
         id="path3988"
         inkscape:connector-curvature="0" /><path
         style="fill:#ffffff"
         d="m 442.863,223.071 12.973,0 0,2.749 -9.898,0 0,4.549 8.773,0 0,2.749 -8.773,0 0,4.699 10.023,0 0,2.749 -13.098,0 0,-17.495 z"
         id="path3990"
         inkscape:connector-curvature="0" /></g><g
       id="g3992"><path
         style="fill:#ffffff"
         d="m 334.286,247.664 1.367,0 3.694,8.456 -1.56,0 -0.852,-2.027 -3.97,0 -0.863,2.027 -1.511,0 3.695,-8.456 z m 2.11,5.121 -1.451,-3.358 -1.439,3.358 2.89,0 z"
         id="path3994"
         inkscape:connector-curvature="0" /><path
         style="fill:#ffffff"
         d="m 345.795,254.896 0.888,-1.056 c 0.804,0.696 1.619,1.091 2.65,1.091 0.912,0 1.487,-0.432 1.487,-1.055 l 0,-0.024 c 0,-0.6 -0.336,-0.924 -1.895,-1.283 -1.787,-0.432 -2.794,-0.96 -2.794,-2.507 l 0,-0.024 c 0,-1.439 1.199,-2.435 2.866,-2.435 1.224,0 2.195,0.372 3.046,1.055 l -0.792,1.115 c -0.755,-0.564 -1.511,-0.863 -2.279,-0.863 -0.863,0 -1.367,0.444 -1.367,0.996 l 0,0.024 c 0,0.647 0.384,0.936 2.003,1.319 1.775,0.432 2.686,1.067 2.686,2.459 l 0,0.024 c 0,1.571 -1.235,2.507 -2.999,2.507 -1.281,0 -2.492,-0.444 -3.5,-1.343 z"
         id="path3996"
         inkscape:connector-curvature="0" /><path
         style="fill:#ffffff"
         d="m 355.024,247.724 1.475,0 0,3.49 4.006,0 0,-3.49 1.475,0 0,8.396 -1.475,0 0,-3.538 -4.006,0 0,3.538 -1.475,0 0,-8.396 z"
         id="path3998"
         inkscape:connector-curvature="0" /><path
         style="fill:#ffffff"
         d="m 368.102,247.664 1.367,0 3.694,8.456 -1.56,0 -0.852,-2.027 -3.97,0 -0.863,2.027 -1.511,0 3.695,-8.456 z m 2.111,5.121 -1.451,-3.358 -1.439,3.358 2.89,0 z"
         id="path4000"
         inkscape:connector-curvature="0" /><path
         style="fill:#ffffff"
         d="m 375.592,247.724 3.742,0 c 1.056,0 1.883,0.312 2.423,0.84 0.444,0.455 0.695,1.079 0.695,1.811 l 0,0.024 c 0,1.379 -0.827,2.207 -1.991,2.542 l 2.267,3.178 -1.751,0 -2.063,-2.926 -1.847,0 0,2.926 -1.475,0 0,-8.395 z m 3.634,4.161 c 1.056,0 1.727,-0.551 1.727,-1.403 l 0,-0.024 c 0,-0.899 -0.647,-1.391 -1.739,-1.391 l -2.146,0 0,2.818 2.158,0 z"
         id="path4002"
         inkscape:connector-curvature="0" /><path
         style="fill:#ffffff"
         d="m 385.251,247.724 6.225,0 0,1.319 -4.75,0 0,2.183 4.209,0 0,1.319 -4.209,0 0,2.255 4.809,0 0,1.319 -6.284,0 0,-8.395 z"
         id="path4004"
         inkscape:connector-curvature="0" /><path
         style="fill:#ffffff"
         d="m 394.276,247.724 3.13,0 c 2.639,0 4.461,1.811 4.461,4.174 l 0,0.024 c 0,2.363 -1.822,4.198 -4.461,4.198 l -3.13,0 0,-8.396 z m 1.475,1.343 0,5.709 1.655,0 c 1.763,0 2.914,-1.188 2.914,-2.831 l 0,-0.024 c 0,-1.643 -1.151,-2.854 -2.914,-2.854 l -1.655,0 z"
         id="path4006"
         inkscape:connector-curvature="0" /><path
         style="fill:#ffffff"
         d="m 408.508,247.724 1.631,0 2.53,6.453 2.519,-6.453 1.596,0 -3.479,8.456 -1.307,0 -3.49,-8.456 z"
         id="path4008"
         inkscape:connector-curvature="0" /><path
         style="fill:#ffffff"
         d="m 419.295,247.724 1.475,0 0,8.396 -1.475,0 0,-8.396 z"
         id="path4010"
         inkscape:connector-curvature="0" /><path
         style="fill:#ffffff"
         d="m 423.435,254.896 0.887,-1.056 c 0.805,0.696 1.619,1.091 2.65,1.091 0.912,0 1.488,-0.432 1.488,-1.055 l 0,-0.024 c 0,-0.6 -0.336,-0.924 -1.895,-1.283 -1.787,-0.432 -2.794,-0.96 -2.794,-2.507 l 0,-0.024 c 0,-1.439 1.199,-2.435 2.865,-2.435 1.225,0 2.195,0.372 3.047,1.055 l -0.791,1.115 c -0.756,-0.564 -1.512,-0.863 -2.279,-0.863 -0.863,0 -1.367,0.444 -1.367,0.996 l 0,0.024 c 0,0.647 0.384,0.936 2.003,1.319 1.774,0.432 2.686,1.067 2.686,2.459 l 0,0.024 c 0,1.571 -1.235,2.507 -2.998,2.507 -1.283,0 -2.495,-0.444 -3.502,-1.343 z"
         id="path4012"
         inkscape:connector-curvature="0" /><path
         style="fill:#ffffff"
         d="m 432.747,247.724 1.476,0 0,8.396 -1.476,0 0,-8.396 z"
         id="path4014"
         inkscape:connector-curvature="0" /><path
         style="fill:#ffffff"
         d="m 437.078,251.945 0,-0.024 c 0,-2.363 1.824,-4.341 4.402,-4.341 2.578,0 4.377,1.955 4.377,4.317 l 0,0.024 c 0,2.363 -1.822,4.342 -4.4,4.342 -2.579,0 -4.379,-1.955 -4.379,-4.318 z m 7.232,0 0,-0.024 c 0,-1.631 -1.188,-2.986 -2.853,-2.986 -1.668,0 -2.831,1.331 -2.831,2.962 l 0,0.024 c 0,1.631 1.186,2.975 2.854,2.975 1.667,0 2.83,-1.319 2.83,-2.951 z"
         id="path4016"
         inkscape:connector-curvature="0" /><path
         style="fill:#ffffff"
         d="m 448.635,247.724 1.367,0 4.497,5.805 0,-5.805 1.451,0 0,8.396 -1.235,0 -4.629,-5.973 0,5.973 -1.451,0 0,-8.396 z"
         id="path4018"
         inkscape:connector-curvature="0" /></g></g></svg>