<?xml version="1.0" encoding="UTF-8" standalone="no"?>
<svg
   xmlns:dc="http://purl.org/dc/elements/1.1/"
   xmlns:cc="http://creativecommons.org/ns#"
   xmlns:rdf="http://www.w3.org/1999/02/22-rdf-syntax-ns#"
   xmlns:svg="http://www.w3.org/2000/svg"
   xmlns="http://www.w3.org/2000/svg"
   viewBox="0 0 24 24.041733"
   height="0.2in"
   width="0.2in"
   xml:space="preserve"
   id="svg2"
   version="1.1">
	<metadata id="metadata8">
		<rdf:RDF><cc:Work rdf:about="">
			<dc:format>image/svg+xml</dc:format>
			<dc:type rdf:resource="http://purl.org/dc/dcmitype/StillImage" />
			</cc:Work>
		</rdf:RDF>
	</metadata>
	<defs
		id="defs6"><clipPath
		id="clipPath18"
		clipPathUnits="userSpaceOnUse"><path
		id="path16"
		d="M 0,18.031 H 18 V 0 H 0 Z" /></clipPath>
	</defs>
	<g transform="matrix(1.3333333,0,0,-1.3333333,0,24.041733)" id="g10">
		<g id="g12">
			<g clip-path="url(#clipPath18)" id="g14">
				<g transform="translate(9.4756,9.6758)" id="g24">
					<path
						id="path26"
						style="fill:none;stroke:#568f9d;stroke-width:1;stroke-linecap:butt;stroke-linejoin:miter;stroke-miterlimit:10;stroke-dasharray:none;stroke-opacity:1"
						d="m 0,0 c -0.979,-1.043 -1.813,-2.184 -2.505,-3.422 l -0.211,0.469 c -0.387,0.871 -0.742,1.307 -1.066,1.307 -0.235,0 -0.51,-0.145 -0.826,-0.434 0.234,-0.024 0.452,-0.179 0.653,-0.466 0.201,-0.287 0.448,-0.792 0.741,-1.515 l 0.135,-0.334 c 0.125,-0.312 0.201,-0.539 0.228,-0.679 0.161,0.144 0.352,0.289 0.575,0.433 l 0.257,0.17 c 0.434,1.188 1.139,2.401 2.116,3.639 0.976,1.238 2.037,2.262 3.181,3.07 L 3.103,2.543 C 2.013,1.891 0.979,1.043 0,0 Z" />
				</g>
				<g transform="translate(17.5,9.0312)" id="g28">
					<path
						id="path30"
						style="fill:none;stroke:#dadad9;stroke-width:1;stroke-linecap:butt;stroke-linejoin:miter;stroke-miterlimit:10;stroke-dasharray:none;stroke-opacity:1"
						d="m 0,0 c 0,-4.694 -3.806,-8.5 -8.5,-8.5 -4.694,0 -8.5,3.806 -8.5,8.5 0,4.694 3.806,8.5 8.5,8.5 C -3.806,8.5 0,4.694 0,0 Z" />
				</g>
			</g>
		</g>
	</g>
</svg>