<?xml version="1.0" encoding="UTF-8" standalone="no"?>
<!-- Created with Inkscape (http://www.inkscape.org/) -->

<svg
   xmlns:dc="http://purl.org/dc/elements/1.1/"
   xmlns:cc="http://creativecommons.org/ns#"
   xmlns:rdf="http://www.w3.org/1999/02/22-rdf-syntax-ns#"
   xmlns:svg="http://www.w3.org/2000/svg"
   xmlns="http://www.w3.org/2000/svg"
   xmlns:xlink="http://www.w3.org/1999/xlink"
   version="1.1"
   width="7.5in"
   height="5.7857141in"
   viewBox="0 0 674.99998 520.71426"
   id="Layer_1"
   xml:space="preserve"><metadata
   id="metadata4543"><rdf:RDF><cc:Work
       rdf:about=""><dc:format>image/svg+xml</dc:format><dc:type
         rdf:resource="http://purl.org/dc/dcmitype/StillImage" /><dc:title></dc:title></cc:Work></rdf:RDF></metadata><defs
   id="defs4541" /><style
   type="text/css"
   id="style3431" /><line
   style="fill:none;stroke:#9a9a9a;stroke-width:1.59700143;stroke-miterlimit:10"
   x1="-3.0517578e-005"
   y1="96.177444"
   x2="27.531223"
   y2="96.177444"
   id="line3433" /><g
   transform="matrix(1.25,0,0,1.2147603,-40.000032,-220.28949)"
   id="g3435"><defs
     id="defs3437"><polygon
       points="59,322.859 281,327.859 279,285.86 269,268.859 277,254.859 29,247.86 25,301.86 "
       id="SVGID_1_" /></defs><clipPath
     id="SVGID_2_"><use
       id="use3441"
       style="overflow:visible"
       x="0"
       y="0"
       width="675"
       height="520.71423"
       xlink:href="#SVGID_1_" /></clipPath><line
     style="fill:none;stroke:#9a9a9a;stroke-width:1.296;stroke-miterlimit:10"
     x1="54.025002"
     y1="260.51801"
     x2="513.95001"
     y2="260.51801"
     id="line3443"
     clip-path="url(#SVGID_2_)" /></g><line
   style="fill:none;stroke:#9a9a9a;stroke-width:1.59700143;stroke-miterlimit:10"
   x1="-3.0517578e-005"
   y1="124.74981"
   x2="27.531223"
   y2="124.74981"
   id="line3445" /><g
   transform="matrix(1.25,0,0,1.2147603,-40.000032,-220.28949)"
   id="g3447"><defs
     id="defs3449"><polygon
       points="59,322.859 281,327.859 279,285.86 269,268.859 277,254.859 29,247.86 25,301.86 "
       id="SVGID_3_" /></defs><clipPath
     id="SVGID_4_"><use
       id="use3453"
       style="overflow:visible"
       x="0"
       y="0"
       width="675"
       height="520.71423"
       xlink:href="#SVGID_3_" /></clipPath><line
     style="fill:none;stroke:#9a9a9a;stroke-width:1.296;stroke-miterlimit:10"
     x1="54.025002"
     y1="284.039"
     x2="513.95001"
     y2="284.039"
     id="line3455"
     clip-path="url(#SVGID_4_)" /><g
     clip-path="url(#SVGID_4_)"
     id="g3457"><text
   transform="translate(526.9053,256.207)"
   id="text3459"><tspan
     x="0"
     y="0"
     id="tspan3461"
     style="font-size:10.36450005px;font-family:Raleway">P</tspan><tspan
     x="6.4369998"
     y="0"
     id="tspan3463"
     style="font-size:10.36450005px;font-family:Raleway">R</tspan><tspan
     x="13.205"
     y="0"
     id="tspan3465"
     style="font-size:10.36450005px;font-family:Raleway">A</tspan><tspan
     x="20.242001"
     y="0"
     id="tspan3467"
     style="font-size:10.36450005px;font-family:Raleway">C</tspan><tspan
     x="27.299999"
     y="0"
     id="tspan3469"
     style="font-size:10.36450005px;font-family:Raleway">TICE</tspan></text>

</g><g
     clip-path="url(#SVGID_4_)"
     id="g3471"><text
   transform="translate(604.6396,256.207)"
   id="text3473"
   style="font-size:10.36450005px;font-family:Raleway">SELF</text>

</g><g
     clip-path="url(#SVGID_4_)"
     id="g3475"><text
   transform="translate(638.0859,256.207)"
   id="text3477"><tspan
     x="0"
     y="0"
     id="tspan3479"
     style="font-size:10.36450005px;font-family:Raleway">A</tspan><tspan
     x="6.4780002"
     y="0"
     id="tspan3481"
     style="font-size:10.36450005px;font-family:Raleway">VG</tspan></text>

</g><g
     clip-path="url(#SVGID_4_)"
     id="g3483"><text
   transform="translate(661.6445,256.207)"
   id="text3485"
   style="font-size:10.36450005px;font-family:Raleway">+/-</text>

</g><g
     clip-path="url(#SVGID_4_)"
     id="g3487"><text
   transform="translate(700.4805,256.207)"
   id="text3489"
   style="font-size:10.36450005px;font-family:Raleway">M</text>

</g><g
     clip-path="url(#SVGID_4_)"
     id="g3491"><text
   transform="translate(712.1709,256.207)"
   id="text3493"
   style="font-size:10.36450005px;font-family:Raleway">+/-</text>

</g><g
     clip-path="url(#SVGID_4_)"
     id="g3495"><text
   transform="translate(41,277.4482)"
   id="text3497"
   style="font-size:11px;font-family:Raleway-Bold">9</text>

</g><g
     clip-path="url(#SVGID_4_)"
     id="g3499"><text
   transform="translate(47.6768,277.4482)"
   id="text3501"
   style="font-size:10px;font-family:Raleway-Bold">.</text>

</g><g
     clip-path="url(#SVGID_4_)"
     id="g3503"><text
   transform="translate(61.7979,277.3281)"
   id="text3505"><tspan
     x="0"
     y="0"
     id="tspan3507"
     style="font-size:11px;font-family:Raleway">A</tspan><tspan
     x="7.348"
     y="0"
     id="tspan3509"
     style="font-size:11px;font-family:Raleway">c</tspan><tspan
     x="13.365"
     y="0"
     id="tspan3511"
     style="font-size:11px;font-family:Raleway">t</tspan><tspan
     x="17.039"
     y="0"
     id="tspan3513"
     style="font-size:11px;font-family:Raleway">i</tspan><tspan
     x="19.371"
     y="0"
     id="tspan3515"
     style="font-size:11px;font-family:Raleway">v</tspan><tspan
     x="24.958"
     y="0"
     id="tspan3517"
     style="font-size:11px;font-family:Raleway">e</tspan><tspan
     x="31.438"
     y="0"
     id="tspan3519"
     style="font-size:11px;font-family:Raleway">l</tspan><tspan
     x="34.088001"
     y="0"
     id="tspan3521"
     style="font-size:11px;font-family:Raleway">y </tspan><tspan
     x="42.866001"
     y="0"
     id="tspan3523"
     style="font-size:11px;font-family:Raleway">l</tspan><tspan
     x="45.868999"
     y="0"
     id="tspan3525"
     style="font-size:11px;font-family:Raleway">i</tspan><tspan
     x="48.234001"
     y="0"
     id="tspan3527"
     style="font-size:11px;font-family:Raleway">s</tspan><tspan
     x="53.634998"
     y="0"
     id="tspan3529"
     style="font-size:11px;font-family:Raleway">t</tspan><tspan
     x="57.144001"
     y="0"
     id="tspan3531"
     style="font-size:11px;font-family:Raleway">e</tspan><tspan
     x="63.645"
     y="0"
     id="tspan3533"
     style="font-size:11px;font-family:Raleway">n</tspan><tspan
     x="70.025002"
     y="0"
     id="tspan3535"
     style="font-size:11px;font-family:Raleway">s </tspan><tspan
     x="78.197998"
     y="0"
     id="tspan3537"
     style="font-size:11px;font-family:Raleway">t</tspan><tspan
     x="81.707001"
     y="0"
     id="tspan3539"
     style="font-size:11px;font-family:Raleway">o </tspan><tspan
     x="91.067001"
     y="0"
     id="tspan3541"
     style="font-size:11px;font-family:Raleway">d</tspan><tspan
     x="97.931999"
     y="0"
     id="tspan3543"
     style="font-size:11px;font-family:Raleway">i</tspan><tspan
     x="100.264"
     y="0"
     id="tspan3545"
     style="font-size:11px;font-family:Raleway">v</tspan><tspan
     x="105.852"
     y="0"
     id="tspan3547"
     style="font-size:11px;font-family:Raleway">e</tspan><tspan
     x="112.353"
     y="0"
     id="tspan3549"
     style="font-size:11px;font-family:Raleway">r</tspan><tspan
     x="116.181"
     y="0"
     id="tspan3551"
     style="font-size:11px;font-family:Raleway">se </tspan><tspan
     x="130.811"
     y="0"
     id="tspan3553"
     style="font-size:11px;font-family:Raleway">p</tspan><tspan
     x="137.642"
     y="0"
     id="tspan3555"
     style="font-size:11px;font-family:Raleway">o</tspan><tspan
     x="144.21899"
     y="0"
     id="tspan3557"
     style="font-size:11px;font-family:Raleway">i</tspan><tspan
     x="146.573"
     y="0"
     id="tspan3559"
     style="font-size:11px;font-family:Raleway">n</tspan><tspan
     x="152.854"
     y="0"
     id="tspan3561"
     style="font-size:11px;font-family:Raleway">t</tspan><tspan
     x="156.715"
     y="0"
     id="tspan3563"
     style="font-size:11px;font-family:Raleway">s </tspan><tspan
     x="164.888"
     y="0"
     id="tspan3565"
     style="font-size:11px;font-family:Raleway">o</tspan><tspan
     x="171.367"
     y="0"
     id="tspan3567"
     style="font-size:11px;font-family:Raleway">f </tspan><tspan
     x="177.978"
     y="0"
     id="tspan3569"
     style="font-size:11px;font-family:Raleway">v</tspan><tspan
     x="183.786"
     y="0"
     id="tspan3571"
     style="font-size:11px;font-family:Raleway">i</tspan><tspan
     x="186.18401"
     y="0"
     id="tspan3573"
     style="font-size:11px;font-family:Raleway">e</tspan><tspan
     x="192.44299"
     y="0"
     id="tspan3575"
     style="font-size:11px;font-family:Raleway">w</tspan></text>

</g><g
     clip-path="url(#SVGID_4_)"
     id="g3577"><text
   transform="translate(526.9053,277.6309)"
   id="text3579"><tspan
     x="0"
     y="0"
     id="tspan3581"
     style="font-size:11.66009998px;fill:#9c1e5c;font-family:Raleway">E</tspan><tspan
     x="7.112"
     y="0"
     id="tspan3583"
     style="font-size:11.66009998px;fill:#9c1e5c;font-family:Raleway">nable</tspan></text>

</g><g
     clip-path="url(#SVGID_4_)"
     id="g3585"><text
   transform="translate(613.7607,278.2256)"
   id="text3587"
   style="font-size:12.95559978px;font-family:Raleway">8</text>

</g><g
     clip-path="url(#SVGID_4_)"
     id="g3589"><text
   transform="translate(641.123,278.2256)"
   id="text3591"
   style="font-size:12.95559978px;font-family:Raleway">9.6</text>

</g><g
     clip-path="url(#SVGID_4_)"
     id="g3593"><text
   transform="translate(701.7285,278.2256)"
   id="text3595"
   style="font-size:12.95559978px;font-family:Raleway">6</text>

</g><g
     clip-path="url(#SVGID_4_)"
     id="g3597"><text
   transform="translate(712.1709,278.2256)"
   id="text3599"
   style="font-size:12.95559978px;font-family:Raleway">-</text>

</g></g><path
   d="m 509.72373,124.31615 38.8675,0 0,-26.14164 -38.8675,0 0,26.14164 z m 102.02625,0 38.86626,0 0,-26.14164 -38.86626,0 0,26.14164 z m 38.86751,0 24.2925,0 0,-26.14164 -24.2925,0 0,26.14164 z"
   id="path3601"
   style="fill:#e6e7e8" /><g
   transform="matrix(1.25,0,0,1.2147603,-40.000032,-220.28949)"
   id="g3603"><defs
     id="defs3605"><polygon
       points="305,234.859 289,268.859 314,318.582 579,314.859 587,230.86 "
       id="SVGID_5_" /></defs><clipPath
     id="SVGID_6_"><use
       id="use3609"
       style="overflow:visible"
       x="0"
       y="0"
       width="675"
       height="520.71423"
       xlink:href="#SVGID_5_" /></clipPath><line
     style="fill:none;stroke:#9a9a9a;stroke-width:1.296;stroke-miterlimit:10"
     x1="-105.653"
     y1="262.16199"
     x2="354.272"
     y2="262.16199"
     id="line3611"
     clip-path="url(#SVGID_6_)" /></g><line
   style="fill:none;stroke:#9a9a9a;stroke-width:1.59700143;stroke-miterlimit:10"
   x1="402.83997"
   y1="98.174484"
   x2="509.72369"
   y2="98.174484"
   id="line3613" /><line
   style="fill:none;stroke:#9a9a9a;stroke-width:1.59700143;stroke-miterlimit:10"
   x1="509.72501"
   y1="98.174484"
   x2="548.59253"
   y2="98.174484"
   id="line3615" /><line
   style="fill:none;stroke:#9a9a9a;stroke-width:1.59700143;stroke-miterlimit:10"
   x1="548.59119"
   y1="98.174484"
   x2="587.45874"
   y2="98.174484"
   id="line3617" /><line
   style="fill:none;stroke:#9a9a9a;stroke-width:1.59700143;stroke-miterlimit:10"
   x1="587.45874"
   y1="98.174484"
   x2="611.75"
   y2="98.174484"
   id="line3619" /><line
   style="fill:none;stroke:#9a9a9a;stroke-width:1.59700143;stroke-miterlimit:10"
   x1="611.75"
   y1="98.174484"
   x2="650.61755"
   y2="98.174484"
   id="line3621" /><line
   style="fill:none;stroke:#9a9a9a;stroke-width:1.59700143;stroke-miterlimit:10"
   x1="650.61755"
   y1="98.174484"
   x2="674.90869"
   y2="98.174484"
   id="line3623" /><g
   transform="matrix(1.25,0,0,1.2147603,-40.000032,-220.28949)"
   id="g3625"><defs
     id="defs3627"><polygon
       points="305,234.859 289,268.859 314,318.582 579,314.859 587,230.86 "
       id="SVGID_7_" /></defs><clipPath
     id="SVGID_8_"><use
       id="use3631"
       style="overflow:visible"
       x="0"
       y="0"
       width="675"
       height="520.71423"
       xlink:href="#SVGID_7_" /></clipPath><line
     style="fill:none;stroke:#9a9a9a;stroke-width:1.296;stroke-miterlimit:10"
     x1="-105.653"
     y1="283.68301"
     x2="354.272"
     y2="283.68301"
     id="line3633"
     clip-path="url(#SVGID_8_)" /></g><line
   style="fill:none;stroke:#9a9a9a;stroke-width:1.59700143;stroke-miterlimit:10"
   x1="402.83997"
   y1="124.31738"
   x2="509.72369"
   y2="124.31738"
   id="line3635" /><line
   style="fill:none;stroke:#9a9a9a;stroke-width:1.59700143;stroke-miterlimit:10"
   x1="509.72501"
   y1="124.31738"
   x2="548.59253"
   y2="124.31738"
   id="line3637" /><line
   style="fill:none;stroke:#9a9a9a;stroke-width:1.59700143;stroke-miterlimit:10"
   x1="548.59119"
   y1="124.31738"
   x2="587.45874"
   y2="124.31738"
   id="line3639" /><line
   style="fill:none;stroke:#9a9a9a;stroke-width:1.59700143;stroke-miterlimit:10"
   x1="587.45874"
   y1="124.31738"
   x2="611.75"
   y2="124.31738"
   id="line3641" /><line
   style="fill:none;stroke:#9a9a9a;stroke-width:1.59700143;stroke-miterlimit:10"
   x1="611.75"
   y1="124.31738"
   x2="650.61755"
   y2="124.31738"
   id="line3643" /><line
   style="fill:none;stroke:#9a9a9a;stroke-width:1.59700143;stroke-miterlimit:10"
   x1="650.61755"
   y1="124.31738"
   x2="674.90869"
   y2="124.31738"
   id="line3645" /><g
   transform="matrix(1.25,0,0,1.2147603,-40.000032,-220.28949)"
   id="g3647"><defs
     id="defs3649"><polygon
       points="305,234.859 289,268.859 314,318.582 579,314.859 587,230.86 "
       id="SVGID_9_" /></defs><clipPath
     id="SVGID_10_"><use
       id="use3653"
       style="overflow:visible"
       x="0"
       y="0"
       width="675"
       height="520.71423"
       xlink:href="#SVGID_9_" /></clipPath><g
     clip-path="url(#SVGID_10_)"
     id="g3655"><text
   transform="translate(367.2285,257.6836)"
   id="text3657"><tspan
     x="0"
     y="0"
     id="tspan3659"
     style="font-size:10px;font-family:Raleway">P</tspan><tspan
     x="6.21"
     y="0"
     id="tspan3661"
     style="font-size:10px;font-family:Raleway">R</tspan><tspan
     x="12.739"
     y="0"
     id="tspan3663"
     style="font-size:10px;font-family:Raleway">A</tspan><tspan
     x="19.528999"
     y="0"
     id="tspan3665"
     style="font-size:10px;font-family:Raleway">C</tspan><tspan
     x="26.339001"
     y="0"
     id="tspan3667"
     style="font-size:10px;font-family:Raleway">TICE</tspan></text>

</g><g
     clip-path="url(#SVGID_10_)"
     id="g3669"><text
   transform="translate(444.958,257.6836)"
   id="text3671"
   style="font-size:10px;font-family:Raleway">SELF</text>

</g><g
     clip-path="url(#SVGID_10_)"
     id="g3673"><text
   transform="translate(479.1387,257.6836)"
   id="text3675"><tspan
     x="0"
     y="0"
     id="tspan3677"
     style="font-size:10px;font-family:Raleway">A</tspan><tspan
     x="6.25"
     y="0"
     id="tspan3679"
     style="font-size:10px;font-family:Raleway">VG</tspan></text>

</g><g
     clip-path="url(#SVGID_10_)"
     id="g3681"><text
   transform="translate(501.958,257.6836)"
   id="text3683"
   style="font-size:10px;letter-spacing:0px;word-spacing:0px;font-family:Raleway"><tspan
     id="tspan3552"
     style="letter-spacing:0px;word-spacing:0px">+ / -</tspan></text>

</g><g
     clip-path="url(#SVGID_10_)"
     id="g3685"><text
   transform="translate(541.1182,257.6836)"
   id="text3687"
   style="font-size:10px;font-family:Raleway">M</text>

</g><g
     clip-path="url(#SVGID_10_)"
     id="g3689"><text
   transform="translate(552.4883,257.6836)"
   id="text3691"
   style="font-size:10px;font-family:Raleway">+ / -</text>

</g><g
     clip-path="url(#SVGID_10_)"
     id="g3693"><text
   transform="translate(-119.1665,278.2744)"
   id="text3695"
   style="font-size:11.66009998px;font-family:Raleway">14.</text>

</g><g
     clip-path="url(#SVGID_10_)"
     id="g3697"><text
   transform="translate(-97.8755,278.2744)"
   id="text3699"><tspan
     x="0"
     y="0"
     id="tspan3701"
     style="font-size:11.66009998px;font-family:Raleway">Tre</tspan><tspan
     x="18.096001"
     y="0"
     id="tspan3703"
     style="font-size:11.66009998px;font-family:Raleway">a</tspan><tspan
     x="24.416"
     y="0"
     id="tspan3705"
     style="font-size:11.66009998px;font-family:Raleway">ts </tspan><tspan
     x="36.950001"
     y="0"
     id="tspan3707"
     style="font-size:11.66009998px;font-family:Raleway">o</tspan><tspan
     x="43.806"
     y="0"
     id="tspan3709"
     style="font-size:11.66009998px;font-family:Raleway">the</tspan><tspan
     x="61.271999"
     y="0"
     id="tspan3711"
     style="font-size:11.66009998px;font-family:Raleway">r</tspan><tspan
     x="65.306999"
     y="0"
     id="tspan3713"
     style="font-size:11.66009998px;font-family:Raleway">s</tspan><tspan
     x="70.985001"
     y="0"
     id="tspan3715"
     style="font-size:11.66009998px;font-family:Raleway" /><tspan
     x="73.643997"
     y="0"
     id="tspan3717"
     style="font-size:11.66009998px;font-family:Raleway">with dignit</tspan><tspan
     x="129.308"
     y="0"
     id="tspan3719"
     style="font-size:11.66009998px;font-family:Raleway">y</tspan><tspan
     x="135.32401"
     y="0"
     id="tspan3721"
     style="font-size:11.66009998px;font-family:Raleway"> and respect</tspan></text>

</g><g
     clip-path="url(#SVGID_10_)"
     id="g3723"><text
   transform="translate(367.2344,278.4023)"
   id="text3725"><tspan
     x="0"
     y="0"
     id="tspan3727"
     style="font-size:11.66009998px;fill:#9c1e5c;font-family:Raleway-Bold">E</tspan><tspan
     x="7.0310001"
     y="0"
     id="tspan3729"
     style="font-size:11.66009998px;fill:#9c1e5c;font-family:Raleway-Bold">nable</tspan></text>

</g><g
     clip-path="url(#SVGID_10_)"
     id="g3731"><text
   transform="translate(454.083,278.8691)"
   id="text3733"
   style="font-size:12.95559978px;font-family:Raleway">8</text>

</g><g
     clip-path="url(#SVGID_10_)"
     id="g3735"><text
   transform="translate(481.4453,278.8691)"
   id="text3737"
   style="font-size:12.95559978px;font-family:Raleway">9.6</text>

</g><g
     clip-path="url(#SVGID_10_)"
     id="g3739"><text
   transform="translate(542.0518,278.8691)"
   id="text3741"
   style="font-size:12.95559978px;font-family:Raleway">6</text>

</g><g
     clip-path="url(#SVGID_10_)"
     id="g3743"><text
   transform="translate(552.4932,278.8691)"
   id="text3745"
   style="font-size:12.95559978px;font-family:Raleway">-</text>

</g></g><line
   style="fill:none;stroke:#000000;stroke-width:0.86257792;stroke-dasharray:2.49038575, 1.62780781"
   x1="299.45496"
   y1="65.112389"
   x2="308.73871"
   y2="82.397194"
   id="line3747" /><line
   style="fill:none;stroke:#000000;stroke-width:0.86257792;stroke-dasharray:2.49038575, 1.62780781"
   x1="308.3562"
   y1="86.707169"
   x2="299.07248"
   y2="103.99198"
   id="line3749" /><line
   style="fill:none;stroke:#000000;stroke-width:0.86257792;stroke-dasharray:2.4620439, 1.59946596"
   x1="299.435"
   y1="108.26429"
   x2="308.59"
   y2="125.30982"
   id="line3751" /><line
   style="fill:none;stroke:#000000;stroke-width:0.86257792;stroke-dasharray:2.4620439, 1.59946596"
   x1="308.21497"
   y1="129.55785"
   x2="299.05997"
   y2="146.60335"
   id="line3753" /><line
   style="fill:none;stroke:#000000;stroke-width:0.86257792;stroke-dasharray:2.50640506, 1.64382711"
   x1="299.46625"
   y1="150.90968"
   x2="306.87372"
   y2="164.70085"
   id="line3755" /><path
   d="m 307.25873,165.41878 0.58875,1.09571 m -9.16375,-19.21144 -0.5775,1.07507 0.58875,1.09572 m 10.27,-23.46432 0.57875,1.07506 -0.57875,1.07628 m -10.27375,-23.45823 -0.585,1.08843 0.5775,1.07627 m 10.43625,-23.759495 0.585,1.088426 -0.585,1.088425 m -11.01375,-22.68322 0.585,1.088426"
   id="path3757"
   style="fill:none;stroke:#000000;stroke-width:0.86257792" /><line
   style="fill:none;stroke:#000000;stroke-width:0.86257792;stroke-dasharray:2.49038575, 1.62780781"
   x1="321.41376"
   y1="65.112389"
   x2="330.69748"
   y2="82.397194"
   id="line3759" /><line
   style="fill:none;stroke:#000000;stroke-width:0.86257792;stroke-dasharray:2.49038575, 1.62780781"
   x1="330.31622"
   y1="86.707169"
   x2="321.03247"
   y2="103.99198"
   id="line3761" /><line
   style="fill:none;stroke:#000000;stroke-width:0.86257792;stroke-dasharray:2.4620439, 1.59946596"
   x1="321.39371"
   y1="108.26429"
   x2="330.54871"
   y2="125.30982"
   id="line3763" /><line
   style="fill:none;stroke:#000000;stroke-width:0.86257792;stroke-dasharray:2.4620439, 1.59946596"
   x1="330.17374"
   y1="129.55785"
   x2="321.01874"
   y2="146.60335"
   id="line3765" /><line
   style="fill:none;stroke:#000000;stroke-width:0.86257792;stroke-dasharray:2.50640506, 1.64382711"
   x1="321.42499"
   y1="150.90968"
   x2="328.83249"
   y2="164.70085"
   id="line3767" /><path
   d="m 329.21748,165.41878 0.58875,1.09571 m -9.16375,-19.21144 -0.5775,1.07507 0.58875,1.09572 m 10.27125,-23.46432 0.5775,1.07506 -0.5775,1.07628 m -10.275,-23.45823 -0.585,1.08843 0.5775,1.07627 m 10.43625,-23.759495 0.585,1.088426 -0.585,1.088425 m -11.01375,-22.68322 0.585,1.088426"
   id="path3769"
   style="fill:none;stroke:#000000;stroke-width:0.86257792" /><line
   style="fill:none;stroke:#000000;stroke-width:0.86257792;stroke-dasharray:2.49038575, 1.62780781"
   x1="299.45496"
   y1="65.112389"
   x2="308.73871"
   y2="82.397194"
   id="line3771" /><line
   style="fill:none;stroke:#000000;stroke-width:0.86257792;stroke-dasharray:2.49038575, 1.62780781"
   x1="308.3562"
   y1="86.707169"
   x2="299.07248"
   y2="103.99198"
   id="line3773" /><line
   style="fill:none;stroke:#000000;stroke-width:0.86257792;stroke-dasharray:2.4620439, 1.59946596"
   x1="299.435"
   y1="108.26429"
   x2="308.59"
   y2="125.30982"
   id="line3775" /><line
   style="fill:none;stroke:#000000;stroke-width:0.86257792;stroke-dasharray:2.4620439, 1.59946596"
   x1="308.21497"
   y1="129.55785"
   x2="299.05997"
   y2="146.60335"
   id="line3777" /><line
   style="fill:none;stroke:#000000;stroke-width:0.86257792;stroke-dasharray:2.50640506, 1.64382711"
   x1="299.46625"
   y1="150.90968"
   x2="306.87372"
   y2="164.70085"
   id="line3779" /><path
   d="m 307.25873,165.41878 0.58875,1.09571 m -9.16375,-19.21144 -0.5775,1.07507 0.58875,1.09572 m 10.27,-23.46432 0.57875,1.07506 -0.57875,1.07628 m -10.27375,-23.45823 -0.585,1.08843 0.5775,1.07627 m 10.43625,-23.759495 0.585,1.088426 -0.585,1.088425 m -11.01375,-22.68322 0.585,1.088426"
   id="path3781"
   style="fill:none;stroke:#000000;stroke-width:0.86257792" /><line
   style="fill:none;stroke:#000000;stroke-width:0.86257792;stroke-dasharray:2.49038575, 1.62780781"
   x1="321.41376"
   y1="65.112389"
   x2="330.69748"
   y2="82.397194"
   id="line3783" /><line
   style="fill:none;stroke:#000000;stroke-width:0.86257792;stroke-dasharray:2.49038575, 1.62780781"
   x1="330.31622"
   y1="86.707169"
   x2="321.03247"
   y2="103.99198"
   id="line3785" /><line
   style="fill:none;stroke:#000000;stroke-width:0.86257792;stroke-dasharray:2.4620439, 1.59946596"
   x1="321.39371"
   y1="108.26429"
   x2="330.54871"
   y2="125.30982"
   id="line3787" /><line
   style="fill:none;stroke:#000000;stroke-width:0.86257792;stroke-dasharray:2.4620439, 1.59946596"
   x1="330.17374"
   y1="129.55785"
   x2="321.01874"
   y2="146.60335"
   id="line3789" /><line
   style="fill:none;stroke:#000000;stroke-width:0.86257792;stroke-dasharray:2.50640506, 1.64382711"
   x1="321.42499"
   y1="150.90968"
   x2="328.83249"
   y2="164.70085"
   id="line3791" /><path
   d="m 329.21748,165.41878 0.58875,1.09571 m -9.16375,-19.21144 -0.5775,1.07507 0.58875,1.09572 m 10.27125,-23.46432 0.5775,1.07506 -0.5775,1.07628 m -10.275,-23.45823 -0.585,1.08843 0.5775,1.07627 m 10.43625,-23.759495 0.585,1.088426 -0.585,1.088425 m -11.01375,-22.68322 0.585,1.088426"
   id="path3793"
   style="fill:none;stroke:#000000;stroke-width:0.86257792" /><line
   style="fill:none;stroke:#9a9a9a;stroke-width:1.59700143;stroke-miterlimit:10"
   x1="-3.0517578e-005"
   y1="372.74802"
   x2="27.531223"
   y2="372.74802"
   id="line3795" /><g
   transform="matrix(1.25,0,0,1.2147603,-40.000032,-220.28949)"
   id="g3797"><defs
     id="defs3799"><polygon
       points="59,550.533 281,555.534 279,513.533 269,496.533 277,482.534 29,475.534 25,529.534 "
       id="SVGID_11_" /></defs><clipPath
     id="SVGID_12_"><use
       id="use3803"
       style="overflow:visible"
       x="0"
       y="0"
       width="675"
       height="520.71423"
       xlink:href="#SVGID_11_" /></clipPath><line
     style="fill:none;stroke:#9a9a9a;stroke-width:1.296;stroke-miterlimit:10"
     x1="54.025002"
     y1="488.19299"
     x2="513.95001"
     y2="488.19299"
     id="line3805"
     clip-path="url(#SVGID_12_)" /></g><line
   style="fill:none;stroke:#9a9a9a;stroke-width:1.59700143;stroke-miterlimit:10"
   x1="-3.0517578e-005"
   y1="401.31918"
   x2="27.531223"
   y2="401.31918"
   id="line3807" /><g
   transform="matrix(1.25,0,0,1.2147603,-40.000032,-220.28949)"
   id="g3809"><defs
     id="defs3811"><polygon
       points="59,550.533 281,555.534 279,513.533 269,496.533 277,482.534 29,475.534 25,529.534 "
       id="SVGID_13_" /></defs><clipPath
     id="SVGID_14_"><use
       id="use3815"
       style="overflow:visible"
       x="0"
       y="0"
       width="675"
       height="520.71423"
       xlink:href="#SVGID_13_" /></clipPath><line
     style="fill:none;stroke:#9a9a9a;stroke-width:1.296;stroke-miterlimit:10"
     x1="54.025002"
     y1="511.71301"
     x2="513.95001"
     y2="511.71301"
     id="line3817"
     clip-path="url(#SVGID_14_)" /><g
     clip-path="url(#SVGID_14_)"
     id="g3819"><text
   transform="translate(526.9053,483.8809)"
   id="text3821"><tspan
     x="0"
     y="0"
     id="tspan3823"
     style="font-size:10.36450005px;font-family:Raleway">P</tspan><tspan
     x="6.4369998"
     y="0"
     id="tspan3825"
     style="font-size:10.36450005px;font-family:Raleway">R</tspan><tspan
     x="13.205"
     y="0"
     id="tspan3827"
     style="font-size:10.36450005px;font-family:Raleway">A</tspan><tspan
     x="20.242001"
     y="0"
     id="tspan3829"
     style="font-size:10.36450005px;font-family:Raleway">C</tspan><tspan
     x="27.299999"
     y="0"
     id="tspan3831"
     style="font-size:10.36450005px;font-family:Raleway">TICE</tspan></text>

</g><g
     clip-path="url(#SVGID_14_)"
     id="g3833"><text
   transform="translate(604.6396,483.8809)"
   id="text3835"
   style="font-size:10.36450005px;font-family:Raleway">SELF</text>

</g><g
     clip-path="url(#SVGID_14_)"
     id="g3837"><text
   transform="translate(638.0859,483.8809)"
   id="text3839"><tspan
     x="0"
     y="0"
     id="tspan3841"
     style="font-size:10.36450005px;font-family:Raleway">A</tspan><tspan
     x="6.4780002"
     y="0"
     id="tspan3843"
     style="font-size:10.36450005px;font-family:Raleway">VG</tspan></text>

</g><g
     clip-path="url(#SVGID_14_)"
     id="g3845"><text
   transform="translate(661.6445,483.8809)"
   id="text3847"
   style="font-size:10.36450005px;font-family:Raleway">+/-</text>

</g><g
     clip-path="url(#SVGID_14_)"
     id="g3849"><text
   transform="translate(700.4805,483.8809)"
   id="text3851"
   style="font-size:10.36450005px;font-family:Raleway">M</text>

</g><g
     clip-path="url(#SVGID_14_)"
     id="g3853"><text
   transform="translate(712.1709,483.8809)"
   id="text3855"
   style="font-size:10.36450005px;font-family:Raleway">+/-</text>

</g><g
     clip-path="url(#SVGID_14_)"
     id="g3857"><text
   transform="translate(41,505.123)"
   id="text3859"><tspan
     x="0"
     y="0"
     id="tspan3861"
     style="font-size:11px;font-family:Raleway-Bold">9</tspan><tspan
     x="6.743"
     y="0"
     id="tspan3863"
     style="font-size:11px;font-family:Raleway-Bold">.</tspan></text>

</g><g
     clip-path="url(#SVGID_14_)"
     id="g3865"><text
   transform="translate(61.8008,505.002)"
   id="text3867"><tspan
     x="0"
     y="0"
     id="tspan3869"
     style="font-size:11px;font-family:Raleway">A</tspan><tspan
     x="7.348"
     y="0"
     id="tspan3871"
     style="font-size:11px;font-family:Raleway">c</tspan><tspan
     x="13.365"
     y="0"
     id="tspan3873"
     style="font-size:11px;font-family:Raleway">t</tspan><tspan
     x="17.039"
     y="0"
     id="tspan3875"
     style="font-size:11px;font-family:Raleway">i</tspan><tspan
     x="19.371"
     y="0"
     id="tspan3877"
     style="font-size:11px;font-family:Raleway">v</tspan><tspan
     x="24.958"
     y="0"
     id="tspan3879"
     style="font-size:11px;font-family:Raleway">e</tspan><tspan
     x="31.438"
     y="0"
     id="tspan3881"
     style="font-size:11px;font-family:Raleway">l</tspan><tspan
     x="34.088001"
     y="0"
     id="tspan3883"
     style="font-size:11px;font-family:Raleway">y </tspan><tspan
     x="42.866001"
     y="0"
     id="tspan3885"
     style="font-size:11px;font-family:Raleway">l</tspan><tspan
     x="45.868999"
     y="0"
     id="tspan3887"
     style="font-size:11px;font-family:Raleway">i</tspan><tspan
     x="48.234001"
     y="0"
     id="tspan3889"
     style="font-size:11px;font-family:Raleway">s</tspan><tspan
     x="53.634998"
     y="0"
     id="tspan3891"
     style="font-size:11px;font-family:Raleway">t</tspan><tspan
     x="57.144001"
     y="0"
     id="tspan3893"
     style="font-size:11px;font-family:Raleway">e</tspan><tspan
     x="63.645"
     y="0"
     id="tspan3895"
     style="font-size:11px;font-family:Raleway">n</tspan><tspan
     x="70.025002"
     y="0"
     id="tspan3897"
     style="font-size:11px;font-family:Raleway">s </tspan><tspan
     x="78.197998"
     y="0"
     id="tspan3899"
     style="font-size:11px;font-family:Raleway">t</tspan><tspan
     x="81.707001"
     y="0"
     id="tspan3901"
     style="font-size:11px;font-family:Raleway">o </tspan><tspan
     x="91.067001"
     y="0"
     id="tspan3903"
     style="font-size:11px;font-family:Raleway">d</tspan><tspan
     x="97.931999"
     y="0"
     id="tspan3905"
     style="font-size:11px;font-family:Raleway">i</tspan><tspan
     x="100.264"
     y="0"
     id="tspan3907"
     style="font-size:11px;font-family:Raleway">v</tspan><tspan
     x="105.852"
     y="0"
     id="tspan3909"
     style="font-size:11px;font-family:Raleway">e</tspan><tspan
     x="112.353"
     y="0"
     id="tspan3911"
     style="font-size:11px;font-family:Raleway">r</tspan><tspan
     x="116.181"
     y="0"
     id="tspan3913"
     style="font-size:11px;font-family:Raleway">se </tspan><tspan
     x="130.811"
     y="0"
     id="tspan3915"
     style="font-size:11px;font-family:Raleway">p</tspan><tspan
     x="137.642"
     y="0"
     id="tspan3917"
     style="font-size:11px;font-family:Raleway">o</tspan><tspan
     x="144.21899"
     y="0"
     id="tspan3919"
     style="font-size:11px;font-family:Raleway">i</tspan><tspan
     x="146.573"
     y="0"
     id="tspan3921"
     style="font-size:11px;font-family:Raleway">n</tspan><tspan
     x="152.854"
     y="0"
     id="tspan3923"
     style="font-size:11px;font-family:Raleway">t</tspan><tspan
     x="156.715"
     y="0"
     id="tspan3925"
     style="font-size:11px;font-family:Raleway">s </tspan><tspan
     x="164.888"
     y="0"
     id="tspan3927"
     style="font-size:11px;font-family:Raleway">o</tspan><tspan
     x="171.367"
     y="0"
     id="tspan3929"
     style="font-size:11px;font-family:Raleway">f </tspan><tspan
     x="177.978"
     y="0"
     id="tspan3931"
     style="font-size:11px;font-family:Raleway">v</tspan><tspan
     x="183.786"
     y="0"
     id="tspan3933"
     style="font-size:11px;font-family:Raleway">i</tspan><tspan
     x="186.18401"
     y="0"
     id="tspan3935"
     style="font-size:11px;font-family:Raleway">e</tspan><tspan
     x="192.44299"
     y="0"
     id="tspan3937"
     style="font-size:11px;font-family:Raleway">w</tspan></text>

</g><g
     clip-path="url(#SVGID_14_)"
     id="g3939"><text
   transform="translate(526.9053,505.3047)"
   id="text3941"><tspan
     x="0"
     y="0"
     id="tspan3943"
     style="font-size:11.66009998px;fill:#9c1e5c;font-family:Raleway">E</tspan><tspan
     x="7.112"
     y="0"
     id="tspan3945"
     style="font-size:11.66009998px;fill:#9c1e5c;font-family:Raleway">nable</tspan></text>

</g><g
     clip-path="url(#SVGID_14_)"
     id="g3947"><text
   transform="translate(613.7607,505.8994)"
   id="text3949"
   style="font-size:12.95559978px;font-family:Raleway">8</text>

</g><g
     clip-path="url(#SVGID_14_)"
     id="g3951"><text
   transform="translate(641.123,505.8994)"
   id="text3953"
   style="font-size:12.95559978px;font-family:Raleway">9.6</text>

</g><g
     clip-path="url(#SVGID_14_)"
     id="g3955"><text
   transform="translate(701.7285,505.8994)"
   id="text3957"
   style="font-size:12.95559978px;font-family:Raleway">6</text>

</g><g
     clip-path="url(#SVGID_14_)"
     id="g3959"><text
   transform="translate(712.1709,505.8994)"
   id="text3961"
   style="font-size:12.95559978px;font-family:Raleway">-</text>

</g></g><path
   d="m 509.72373,400.8867 38.8675,0 0,-26.14286 -38.8675,0 0,26.14286 z m 102.02625,0 38.86626,0 0,-26.14286 -38.86626,0 0,26.14286 z m 38.86751,0 24.2925,0 0,-26.14286 -24.2925,0 0,26.14286 z"
   id="path3963"
   style="fill:#e6e7e8" /><g
   transform="matrix(1.25,0,0,1.2147603,-40.000032,-220.28949)"
   id="g3965"><defs
     id="defs3967"><polygon
       points="305,462.534 289,496.533 314,546.256 579,542.533 587,458.534 "
       id="SVGID_15_" /></defs><clipPath
     id="SVGID_16_"><use
       id="use3971"
       style="overflow:visible"
       x="0"
       y="0"
       width="675"
       height="520.71423"
       xlink:href="#SVGID_15_" /></clipPath><line
     style="fill:none;stroke:#9a9a9a;stroke-width:1.296;stroke-miterlimit:10"
     x1="-105.653"
     y1="489.836"
     x2="354.272"
     y2="489.836"
     id="line3973"
     clip-path="url(#SVGID_16_)" /></g><line
   style="fill:none;stroke:#9a9a9a;stroke-width:1.59700143;stroke-miterlimit:10"
   x1="402.83997"
   y1="374.74387"
   x2="509.72369"
   y2="374.74387"
   id="line3975" /><line
   style="fill:none;stroke:#9a9a9a;stroke-width:1.59700143;stroke-miterlimit:10"
   x1="509.72501"
   y1="374.74387"
   x2="548.59253"
   y2="374.74387"
   id="line3977" /><line
   style="fill:none;stroke:#9a9a9a;stroke-width:1.59700143;stroke-miterlimit:10"
   x1="548.59119"
   y1="374.74387"
   x2="587.45874"
   y2="374.74387"
   id="line3979" /><line
   style="fill:none;stroke:#9a9a9a;stroke-width:1.59700143;stroke-miterlimit:10"
   x1="587.45874"
   y1="374.74387"
   x2="611.75"
   y2="374.74387"
   id="line3981" /><line
   style="fill:none;stroke:#9a9a9a;stroke-width:1.59700143;stroke-miterlimit:10"
   x1="611.75"
   y1="374.74387"
   x2="650.61755"
   y2="374.74387"
   id="line3983" /><line
   style="fill:none;stroke:#9a9a9a;stroke-width:1.59700143;stroke-miterlimit:10"
   x1="650.61755"
   y1="374.74387"
   x2="674.90869"
   y2="374.74387"
   id="line3985" /><g
   transform="matrix(1.25,0,0,1.2147603,-40.000032,-220.28949)"
   id="g3987"><defs
     id="defs3989"><polygon
       points="305,462.534 289,496.533 314,546.256 579,542.533 587,458.534 "
       id="SVGID_17_" /></defs><clipPath
     id="SVGID_18_"><use
       id="use3993"
       style="overflow:visible"
       x="0"
       y="0"
       width="675"
       height="520.71423"
       xlink:href="#SVGID_17_" /></clipPath><line
     style="fill:none;stroke:#9a9a9a;stroke-width:1.296;stroke-miterlimit:10"
     x1="-105.653"
     y1="511.35699"
     x2="354.272"
     y2="511.35699"
     id="line3995"
     clip-path="url(#SVGID_18_)" /></g><line
   style="fill:none;stroke:#9a9a9a;stroke-width:1.59700143;stroke-miterlimit:10"
   x1="402.83997"
   y1="400.88672"
   x2="509.72369"
   y2="400.88672"
   id="line3997" /><line
   style="fill:none;stroke:#9a9a9a;stroke-width:1.59700143;stroke-miterlimit:10"
   x1="509.72501"
   y1="400.88672"
   x2="548.59253"
   y2="400.88672"
   id="line3999" /><line
   style="fill:none;stroke:#9a9a9a;stroke-width:1.59700143;stroke-miterlimit:10"
   x1="548.59119"
   y1="400.88672"
   x2="587.45874"
   y2="400.88672"
   id="line4001" /><line
   style="fill:none;stroke:#9a9a9a;stroke-width:1.59700143;stroke-miterlimit:10"
   x1="587.45874"
   y1="400.88672"
   x2="611.75"
   y2="400.88672"
   id="line4003" /><line
   style="fill:none;stroke:#9a9a9a;stroke-width:1.59700143;stroke-miterlimit:10"
   x1="611.75"
   y1="400.88672"
   x2="650.61755"
   y2="400.88672"
   id="line4005" /><line
   style="fill:none;stroke:#9a9a9a;stroke-width:1.59700143;stroke-miterlimit:10"
   x1="650.61755"
   y1="400.88672"
   x2="674.90869"
   y2="400.88672"
   id="line4007" /><g
   transform="matrix(1.25,0,0,1.2147603,-40.000032,-220.28949)"
   id="g4009"><defs
     id="defs4011"><polygon
       points="305,462.534 289,496.533 314,546.256 579,542.533 587,458.534 "
       id="SVGID_19_" /></defs><clipPath
     id="SVGID_20_"><use
       id="use4015"
       style="overflow:visible"
       x="0"
       y="0"
       width="675"
       height="520.71423"
       xlink:href="#SVGID_19_" /></clipPath><g
     clip-path="url(#SVGID_20_)"
     id="g4017"><text
   transform="translate(367.2285,485.3574)"
   id="text4019"><tspan
     x="0"
     y="0"
     id="tspan4021"
     style="font-size:10px;font-family:Raleway">P</tspan><tspan
     x="6.21"
     y="0"
     id="tspan4023"
     style="font-size:10px;font-family:Raleway">R</tspan><tspan
     x="12.739"
     y="0"
     id="tspan4025"
     style="font-size:10px;font-family:Raleway">A</tspan><tspan
     x="19.528999"
     y="0"
     id="tspan4027"
     style="font-size:10px;font-family:Raleway">C</tspan><tspan
     x="26.339001"
     y="0"
     id="tspan4029"
     style="font-size:10px;font-family:Raleway">TICE</tspan></text>

</g><g
     clip-path="url(#SVGID_20_)"
     id="g4031"><text
   transform="translate(444.958,485.3574)"
   id="text4033"
   style="font-size:10px;font-family:Raleway">SELF</text>

</g><g
     clip-path="url(#SVGID_20_)"
     id="g4035"><text
   transform="translate(479.1387,485.3574)"
   id="text4037"><tspan
     x="0"
     y="0"
     id="tspan4039"
     style="font-size:10px;font-family:Raleway">A</tspan><tspan
     x="6.25"
     y="0"
     id="tspan4041"
     style="font-size:10px;font-family:Raleway">VG</tspan></text>

</g><g
     clip-path="url(#SVGID_20_)"
     id="g4043"><text
   transform="translate(501.958,485.3574)"
   id="text4045"
   style="font-size:10px;font-family:Raleway">+ / -</text>

</g><g
     clip-path="url(#SVGID_20_)"
     id="g4047"><text
   transform="translate(541.1182,485.3574)"
   id="text4049"
   style="font-size:10px;font-family:Raleway">M</text>

</g><g
     clip-path="url(#SVGID_20_)"
     id="g4051"><text
   transform="translate(552.4883,485.3574)"
   id="text4053"
   style="font-size:10px;font-family:Raleway">+ / -</text>

</g><g
     clip-path="url(#SVGID_20_)"
     id="g4055"><text
   transform="translate(-119.1665,505.9492)"
   id="text4057"
   style="font-size:11.66009998px;font-family:Raleway">14.</text>

</g><g
     clip-path="url(#SVGID_20_)"
     id="g4059"><text
   transform="translate(-97.8755,505.9492)"
   id="text4061"><tspan
     x="0"
     y="0"
     id="tspan4063"
     style="font-size:11.66009998px;font-family:Raleway">Tre</tspan><tspan
     x="18.096001"
     y="0"
     id="tspan4065"
     style="font-size:11.66009998px;font-family:Raleway">a</tspan><tspan
     x="24.416"
     y="0"
     id="tspan4067"
     style="font-size:11.66009998px;font-family:Raleway">ts </tspan><tspan
     x="36.950001"
     y="0"
     id="tspan4069"
     style="font-size:11.66009998px;font-family:Raleway">o</tspan><tspan
     x="43.806"
     y="0"
     id="tspan4071"
     style="font-size:11.66009998px;font-family:Raleway">the</tspan><tspan
     x="61.271999"
     y="0"
     id="tspan4073"
     style="font-size:11.66009998px;font-family:Raleway">r</tspan><tspan
     x="65.306999"
     y="0"
     id="tspan4075"
     style="font-size:11.66009998px;font-family:Raleway">s</tspan><tspan
     x="70.985001"
     y="0"
     id="tspan4077"
     style="font-size:11.66009998px;font-family:Raleway" /><tspan
     x="73.643997"
     y="0"
     id="tspan4079"
     style="font-size:11.66009998px;font-family:Raleway">with dignit</tspan><tspan
     x="129.308"
     y="0"
     id="tspan4081"
     style="font-size:11.66009998px;font-family:Raleway">y</tspan><tspan
     x="135.32401"
     y="0"
     id="tspan4083"
     style="font-size:11.66009998px;font-family:Raleway"> and respect</tspan></text>

</g><g
     clip-path="url(#SVGID_20_)"
     id="g4085"><text
   transform="translate(367.2344,506.0771)"
   id="text4087"><tspan
     x="0"
     y="0"
     id="tspan4089"
     style="font-size:11.66009998px;fill:#9c1e5c;font-family:Raleway-Bold">E</tspan><tspan
     x="7.0310001"
     y="0"
     id="tspan4091"
     style="font-size:11.66009998px;fill:#9c1e5c;font-family:Raleway-Bold">nable</tspan></text>

</g><g
     clip-path="url(#SVGID_20_)"
     id="g4093"><text
   transform="translate(454.083,506.5439)"
   id="text4095"
   style="font-size:12.95559978px;font-family:Raleway">8</text>

</g><g
     clip-path="url(#SVGID_20_)"
     id="g4097"><text
   transform="translate(482.3906,506.5439)"
   id="text4099"
   style="font-size:12.95559978px;font-family:Raleway">9.2</text>

</g><g
     clip-path="url(#SVGID_20_)"
     id="g4101"><text
   transform="translate(533.2031,506.5439)"
   id="text4103"><tspan
     x="0"
     y="0"
     id="tspan4105"
     style="font-size:12.95559978px;font-family:Raleway">7</tspan><tspan
     x="6.296"
     y="0"
     id="tspan4107"
     style="font-size:12.95559978px;font-family:Raleway">.0</tspan></text>

</g></g><line
   style="fill:none;stroke:#000000;stroke-width:0.86257792;stroke-dasharray:2.49038575, 1.62780781"
   x1="299.45496"
   y1="341.6817"
   x2="308.73871"
   y2="358.96655"
   id="line4109" /><line
   style="fill:none;stroke:#000000;stroke-width:0.86257792;stroke-dasharray:2.49038575, 1.62780781"
   x1="308.3562"
   y1="363.27652"
   x2="299.07248"
   y2="380.56134"
   id="line4111" /><line
   style="fill:none;stroke:#000000;stroke-width:0.86257792;stroke-dasharray:2.4620439, 1.59946596"
   x1="299.435"
   y1="384.83365"
   x2="308.59"
   y2="401.87921"
   id="line4113" /><line
   style="fill:none;stroke:#000000;stroke-width:0.86257792;stroke-dasharray:2.4620439, 1.59946596"
   x1="308.21497"
   y1="406.12723"
   x2="299.05997"
   y2="423.17273"
   id="line4115" /><line
   style="fill:none;stroke:#000000;stroke-width:0.86257792;stroke-dasharray:2.50640506, 1.64382711"
   x1="299.46625"
   y1="427.47903"
   x2="306.87372"
   y2="441.27142"
   id="line4117" /><path
   d="m 307.25873,441.98811 0.58875,1.09571 m -9.16375,-19.21143 -0.5775,1.07507 0.58875,1.09571 m 10.27,-23.46431 0.57875,1.07507 -0.57875,1.07627 m -10.27375,-23.45824 -0.585,1.08842 0.5775,1.07628 m 10.43625,-23.75949 0.585,1.08842 -0.585,1.08843 m -11.01375,-22.68321 0.585,1.08842"
   id="path4119"
   style="fill:none;stroke:#000000;stroke-width:0.86257792" /><line
   style="fill:none;stroke:#000000;stroke-width:0.86257792;stroke-dasharray:2.49038575, 1.62780781"
   x1="321.41376"
   y1="341.6817"
   x2="330.69748"
   y2="358.96655"
   id="line4121" /><line
   style="fill:none;stroke:#000000;stroke-width:0.86257792;stroke-dasharray:2.49038575, 1.62780781"
   x1="330.31622"
   y1="363.27652"
   x2="321.03247"
   y2="380.56134"
   id="line4123" /><line
   style="fill:none;stroke:#000000;stroke-width:0.86257792;stroke-dasharray:2.4620439, 1.59946596"
   x1="321.39371"
   y1="384.83365"
   x2="330.54871"
   y2="401.87921"
   id="line4125" /><line
   style="fill:none;stroke:#000000;stroke-width:0.86257792;stroke-dasharray:2.4620439, 1.59946596"
   x1="330.17374"
   y1="406.12723"
   x2="321.01874"
   y2="423.17273"
   id="line4127" /><line
   style="fill:none;stroke:#000000;stroke-width:0.86257792;stroke-dasharray:2.50640506, 1.64382711"
   x1="321.42499"
   y1="427.47903"
   x2="328.83249"
   y2="441.27142"
   id="line4129" /><path
   d="m 329.21748,441.98811 0.58875,1.09571 m -9.16375,-19.21143 -0.5775,1.07507 0.58875,1.09571 m 10.27125,-23.46431 0.5775,1.07507 -0.5775,1.07627 m -10.275,-23.45824 -0.585,1.08842 0.5775,1.07628 m 10.43625,-23.75949 0.585,1.08842 -0.585,1.08843 m -11.01375,-22.68321 0.585,1.08842"
   id="path4131"
   style="fill:none;stroke:#000000;stroke-width:0.86257792" /><line
   style="fill:none;stroke:#007c92;stroke-width:2.46450853"
   x1="312.5"
   y1="235.53108"
   x2="409.565"
   y2="118.6262"
   id="line4133" /><polygon
   points="364,273.609 354.231,279.503 360.304,284.403 "
   transform="matrix(1.25,0,0,1.2147603,-40.000032,-220.28949)"
   id="polygon4135"
   style="fill:#007c92" /><line
   style="fill:none;stroke:#007c92;stroke-width:2.46450853"
   x1="518.75"
   y1="38.28318"
   x2="562.25244"
   y2="71.28701"
   id="line4137" /><polygon
   points="487.26,244.289 481.209,234.616 476.408,240.767 "
   transform="matrix(1.25,0,0,1.2147603,-40.000032,-220.28949)"
   id="polygon4139"
   style="fill:#007c92" /><line
   style="fill:none;stroke:#007c92;stroke-width:2.46450853"
   x1="145.45996"
   y1="189.56339"
   x2="145.05498"
   y2="126.86956"
   id="line4141" /><polygon
   points="148,278.859 144.166,289.605 151.969,289.556 "
   transform="matrix(1.25,0,0,1.2147603,-40.000032,-220.28949)"
   id="polygon4143"
   style="fill:#007c92" /><line
   style="fill:none;stroke:#007c92;stroke-width:2.46450853"
   x1="473.27496"
   y1="204.40167"
   x2="589.80249"
   y2="124.52023"
   id="line4145" /><polygon
   points="509.5,279.859 498.49,282.851 502.988,289.228 "
   transform="matrix(1.25,0,0,1.2147603,-40.000032,-220.28949)"
   id="polygon4147"
   style="fill:#007c92" /><line
   style="fill:none;stroke:#007c92;stroke-width:2.46450853"
   x1="427.27747"
   y1="443.57098"
   x2="588.56372"
   y2="397.98465"
   id="line4149" /><polygon
   points="509.5,507.034 498.115,506.282 500.294,513.775 "
   transform="matrix(1.25,0,0,1.2147603,-40.000032,-220.28949)"
   id="polygon4151"
   style="fill:#007c92" /><line
   style="fill:none;stroke:#007c92;stroke-width:2.46450853"
   x1="616.23999"
   y1="211.84692"
   x2="651.76245"
   y2="126.25733"
   id="line4153" /><polygon
   points="556,278.859 548.371,287.343 555.608,290.262 "
   transform="matrix(1.25,0,0,1.2147603,-40.000032,-220.28949)"
   id="polygon4155"
   style="fill:#007c92" /><line
   style="fill:none;stroke:#007c92;stroke-width:2.46450853"
   x1="582.73499"
   y1="466.78992"
   x2="655.12878"
   y2="396.29007"
   id="line4157" /><polygon
   points="560.994,502.672 550.659,507.505 556.182,513.017 "
   transform="matrix(1.25,0,0,1.2147603,-40.000032,-220.28949)"
   id="polygon4159"
   style="fill:#007c92" /><g
   transform="matrix(1.25,0,0,1.2147603,-40.000032,-220.28949)"
   id="g4161"><defs
     id="defs4163"><rect
       width="562"
       height="428.65601"
       x="25"
       y="181.34399"
       id="SVGID_21_" /></defs><clipPath
     id="SVGID_22_"><use
       id="use4167"
       style="overflow:visible"
       x="0"
       y="0"
       width="675"
       height="520.71423"
       xlink:href="#SVGID_21_" /></clipPath><path
     d="m 495.76,325.735 c 0,0 -8,0 -8,8 l 0,62.633 c 0,0 0,8 8,8 l 67.74,0 c 0,0 8,0 8,-8 l 0,-62.633 c 0,0 0,-8 -8,-8 l -67.74,0 z"
     clip-path="url(#SVGID_22_)"
     id="path4169"
     style="fill:#ffffff" /></g><text
   x="569.62158"
   y="201.43475"
   transform="scale(1.0144011,0.98580335)"
   id="text4171"
   style="font-size:14.78705025px"><tspan
     x="569.62158"
     y="201.43475"
     id="tspan4173"
     style="font-size:9.85803413px;font-family:Raleway-Bold">The Manager</tspan></text>

<text
   x="569.62158"
   y="216.22182"
   transform="scale(1.0144011,0.98580335)"
   id="text4179"
   style="font-size:9.85803413px;font-family:Raleway-Bold">response is more </text>

<text
   x="569.62158"
   y="231.00887"
   transform="scale(1.0144011,0.98580335)"
   id="text4181"
   style="font-size:14.78705025px"><tspan
     x="569.62158"
     y="231.00887"
     id="tspan4183"
     style="font-size:9.85803413px;font-family:Raleway-Bold">than 1.5 points</tspan></text>

<text
   x="569.62158"
   y="245.79593"
   transform="scale(1.0144011,0.98580335)"
   id="text4189"
   style="font-size:14.78705025px"><tspan
     x="569.62158"
     y="245.79593"
     id="tspan4191"
     style="font-size:9.85803413px;font-family:Raleway-Bold">lower than the </tspan></text>

<text
   x="569.62158"
   y="260.58298"
   transform="scale(1.0144011,0.98580335)"
   id="text4201"
   style="font-size:14.78705025px"><tspan
     x="569.62158"
     y="260.58298"
     id="tspan4203"
     style="font-size:9.85803413px;font-family:Raleway-Bold">Se</tspan><tspan
     x="581.59912"
     y="260.58298"
     id="tspan4205"
     style="font-size:9.85803413px;font-family:Raleway-Bold">l</tspan><tspan
     x="584.63531"
     y="260.58298"
     id="tspan4207"
     style="font-size:9.85803413px;font-family:Raleway-Bold">f</tspan><tspan
     x="588.22369"
     y="260.58298"
     id="tspan4209"
     style="font-size:9.85803413px;font-family:Raleway-Bold"> response</tspan></text>

<g
   transform="matrix(1.25,0,0,1.2147603,-40.000032,-220.28949)"
   id="g4211"><defs
     id="defs4213"><rect
       width="562"
       height="428.65601"
       x="25"
       y="181.34399"
       id="SVGID_23_" /></defs><clipPath
     id="SVGID_24_"><use
       id="use4217"
       style="overflow:visible"
       x="0"
       y="0"
       width="675"
       height="520.71423"
       xlink:href="#SVGID_23_" /></clipPath><path
     d="m 495.76,325.735 c 0,0 -8,0 -8,8 l 0,62.633 c 0,0 0,8 8,8 l 67.74,0 c 0,0 8,0 8,-8 l 0,-62.633 c 0,0 0,-8 -8,-8 l -67.74,0 z"
     clip-path="url(#SVGID_24_)"
     id="path4219"
     style="fill:none;stroke:#007c92" /><path
     d="m 476.828,539.995 c 0,0 -8,0 -8,8 l 0,53.505 c 0,0 0,8 8,8 l 86.672,0 c 0,0 8,0 8,-8 l 0,-53.505 c 0,0 0,-8 -8,-8 l -86.672,0 z"
     clip-path="url(#SVGID_24_)"
     id="path4221"
     style="fill:#ffffff" /></g><text
   x="546.29285"
   y="467.22495"
   transform="scale(1.0144011,0.98580335)"
   id="text4223"
   style="font-size:14.78705025px"><tspan
     x="546.29285"
     y="467.22495"
     id="tspan4225"
     style="font-size:9.85803413px;font-family:Raleway-Bold">The Manager</tspan></text>

<text
   x="546.29285"
   y="482.01202"
   transform="scale(1.0144011,0.98580335)"
   id="text4231"
   style="font-size:9.85803413px;font-family:Raleway-Bold">response is less than </text>

<path
   d="m 556.19998,489.8436 c -0.25375,0 -0.49,-0.0401 -0.70999,-0.12148 -0.22001,-0.0814 -0.41001,-0.19436 -0.57,-0.34013 -0.16001,-0.14577 -0.285,-0.31584 -0.375,-0.5102 -0.09,-0.19436 -0.135,-0.40816 -0.135,-0.64139 0,-0.23931 0.055,-0.46161 0.165,-0.66569 0.10999,-0.20408 0.26374,-0.3778 0.45999,-0.51992 0.19626,-0.14213 0.43125,-0.25389 0.705,-0.33528 0.27375,-0.0814 0.57375,-0.12147 0.9,-0.12147 0.23376,0 0.46125,0.0194 0.685,0.0584 0.22376,0.0389 0.42125,0.0935 0.59501,0.1652 l 0,-0.29153 c 0,-0.3365 -0.0988,-0.59646 -0.29501,-0.77745 -0.19624,-0.18101 -0.48874,-0.27212 -0.87499,-0.27212 -0.28001,0 -0.55376,0.0486 -0.82001,0.14578 -0.26625,0.0972 -0.54,0.23931 -0.82,0.42759 l -0.41,-0.82603 c 0.67376,-0.43367 1.4,-0.65112 2.18,-0.65112 0.75375,0 1.33875,0.17979 1.755,0.53936 0.41625,0.35957 0.625,0.87949 0.625,1.55975 l 0,1.58405 c 0,0.13605 0.0263,0.23324 0.08,0.29154 0.0538,0.0584 0.14625,0.0911 0.28001,0.0972 l 0,1.10787 c -0.12626,0.0255 -0.245,0.0437 -0.35501,0.0535 -0.10999,0.01 -0.20499,0.0146 -0.285,0.0146 -0.25374,-0.006 -0.44625,-0.0632 -0.57999,-0.17007 -0.13375,-0.10689 -0.21625,-0.25146 -0.25,-0.43245 l -0.03,-0.28183 c -0.23375,0.29762 -0.51626,0.52478 -0.85001,0.68026 -0.33249,0.1555 -0.69,0.23324 -1.06999,0.23324 z m 0.38,-0.95238 c 0.22626,0 0.44125,-0.0389 0.645,-0.11662 0.20376,-0.0777 0.36126,-0.18099 0.475,-0.31097 0.14625,-0.11054 0.22001,-0.23323 0.22001,-0.36929 l 0,-0.58309 c -0.16001,-0.0583 -0.33375,-0.10568 -0.52001,-0.14091 -0.18625,-0.0353 -0.36625,-0.0535 -0.54,-0.0535 -0.34624,0 -0.63,0.0766 -0.85,0.22837 -0.21999,0.15185 -0.33,0.34499 -0.33,0.57823 0,0.21987 0.0863,0.40329 0.26001,0.54907 0.17374,0.14577 0.38749,0.21866 0.63999,0.21866 z m 10.44,-0.32069 0,1.17589 -4.05999,0 0,-1.17589 1.41999,0 0,-2.94458 c -0.06,0.0777 -0.15375,0.1567 -0.27999,0.23809 -0.12626,0.0814 -0.26625,0.1567 -0.42,0.22838 -0.15375,0.0717 -0.31376,0.12997 -0.48,0.17492 -0.16626,0.0449 -0.31376,0.068 -0.44001,0.068 l 0,-1.21476 c 0.12,0 0.26625,-0.0377 0.44001,-0.11175 0.17374,-0.0741 0.34374,-0.164 0.51,-0.26726 0.16624,-0.10325 0.31374,-0.20529 0.43999,-0.30611 0.12626,-0.10083 0.20375,-0.17979 0.23,-0.2381 l 1.37001,0 0,4.37314 1.26999,0 z m 0.80001,1.17589 0,-1.39941 1.09999,0 0,1.39941 -1.09999,0 z m 4.56,-3.10007 c 0.33375,0 0.64374,0.0535 0.93,0.16034 0.28624,0.1069 0.53499,0.25753 0.74499,0.45189 0.21,0.19437 0.37375,0.4276 0.49,0.69971 0.11625,0.27211 0.17501,0.57336 0.17501,0.90378 0,0.34985 -0.0662,0.66691 -0.20001,0.95238 -0.13374,0.28546 -0.31625,0.52963 -0.54999,0.73371 -0.23376,0.20408 -0.51,0.36321 -0.83001,0.47618 -0.32,0.11298 -0.66624,0.17007 -1.04,0.17007 -0.52,0 -0.985,-0.1069 -1.395,-0.3207 -0.40999,-0.21379 -0.72124,-0.50534 -0.93499,-0.87463 l 0.76999,-0.77744 c 0.19376,0.25267 0.42875,0.4531 0.705,0.60252 0.27626,0.14941 0.56501,0.22352 0.86501,0.22352 0.36,0 0.65499,-0.10569 0.885,-0.31584 0.22999,-0.21016 0.345,-0.49076 0.345,-0.84062 0,-0.33648 -0.10875,-0.60859 -0.32501,-0.81632 -0.21625,-0.20772 -0.49125,-0.31097 -0.825,-0.31097 -0.22,0 -0.42499,0.0486 -0.615,0.14577 -0.19,0.0972 -0.34125,0.22959 -0.45499,0.39844 l -1.17,0 c 0,-0.0195 0.0137,-0.0923 0.04,-0.21866 0.0262,-0.12634 0.06,-0.2879 0.1,-0.4859 0.04,-0.19801 0.0838,-0.41787 0.13001,-0.66084 0.0463,-0.24295 0.0962,-0.49076 0.15,-0.74342 0.12,-0.59646 0.25374,-1.26335 0.39999,-2.00193 l 3.50001,0 0,1.18561 -2.53001,0 -0.28,1.54517 c 0.08,-0.0839 0.19626,-0.15185 0.35001,-0.20408 0.15375,-0.051 0.34374,-0.0777 0.57,-0.0777 z m 8.78,3.19725 c -0.40625,0 -0.76376,-0.0886 -1.07,-0.26726 -0.30625,-0.17856 -0.54625,-0.41908 -0.72,-0.72399 l 0,2.96402 -1.34001,0 0,-7.16223 1.17,0 0,0.87463 c 0.19376,-0.29762 0.44376,-0.53328 0.75,-0.70456 0.30626,-0.17128 0.66,-0.25753 1.06001,-0.25753 0.35374,0 0.67999,0.0693 0.97999,0.20893 0.3,0.1397 0.55875,0.32678 0.77501,0.56365 0.21625,0.23689 0.38625,0.51506 0.51,0.83576 0.12375,0.32069 0.18499,0.65962 0.18499,1.01554 0,0.36929 -0.0562,0.7155 -0.16999,1.03984 -0.11375,0.32434 -0.27125,0.60616 -0.47501,0.84547 -0.20374,0.23931 -0.44625,0.4276 -0.72999,0.56365 -0.28251,0.13605 -0.59125,0.20408 -0.925,0.20408 z m -0.44,-1.10787 c 0.2,0 0.38499,-0.0426 0.555,-0.12633 0.17,-0.0839 0.315,-0.19801 0.435,-0.34013 0.12,-0.14213 0.21375,-0.30733 0.27999,-0.49562 0.0662,-0.18829 0.10001,-0.38266 0.10001,-0.58309 0,-0.2138 -0.0362,-0.41302 -0.11,-0.59767 -0.0737,-0.18463 -0.175,-0.34499 -0.30501,-0.48104 -0.12999,-0.13605 -0.28374,-0.24295 -0.45999,-0.3207 -0.17625,-0.0777 -0.36876,-0.11661 -0.57501,-0.11661 -0.12624,0 -0.25624,0.0206 -0.39,0.0631 -0.13374,0.0426 -0.25624,0.10204 -0.36999,0.17979 -0.11376,0.0777 -0.21501,0.16884 -0.30501,0.2721 -0.09,0.10326 -0.15874,0.21744 -0.20499,0.34013 l 0,1.19532 c 0.12,0.29155 0.30375,0.53328 0.54999,0.72401 0.2475,0.19193 0.51375,0.28667 0.80001,0.28667 z m 6.06,1.10787 c -0.42625,0 -0.81,-0.0717 -1.15,-0.2138 -0.34001,-0.14213 -0.62876,-0.33528 -0.86501,-0.57823 -0.23625,-0.24295 -0.41874,-0.52356 -0.54499,-0.84061 -0.12626,-0.31705 -0.19001,-0.65111 -0.19001,-1.00096 0,-0.35593 0.0637,-0.69364 0.19001,-1.01068 0.12625,-0.31706 0.30874,-0.59766 0.54499,-0.84061 0.23625,-0.24296 0.525,-0.43611 0.86501,-0.57824 0.34,-0.14213 0.72375,-0.21379 1.15,-0.21379 0.42624,0 0.80874,0.0717 1.145,0.21379 0.33625,0.14213 0.62374,0.33528 0.85999,0.57824 0.23625,0.24295 0.41876,0.52355 0.54501,0.84061 0.12624,0.31704 0.18999,0.65475 0.18999,1.01068 0,0.34985 -0.0638,0.68391 -0.18999,1.00096 -0.12625,0.31705 -0.30625,0.59766 -0.54,0.84061 -0.23376,0.24295 -0.52,0.4361 -0.86001,0.57823 -0.33999,0.14213 -0.72249,0.2138 -1.14999,0.2138 z m -1.37001,-2.6336 c 0,0.22716 0.035,0.43246 0.105,0.61709 0.07,0.18465 0.16626,0.34499 0.29001,0.48105 0.12375,0.13606 0.26874,0.24174 0.435,0.31584 0.16625,0.0741 0.34625,0.11175 0.54,0.11175 0.19374,0 0.37374,-0.0377 0.54,-0.11175 0.16625,-0.0741 0.31125,-0.17978 0.435,-0.31584 0.12375,-0.13606 0.21999,-0.29762 0.29,-0.48591 0.07,-0.18828 0.105,-0.39479 0.105,-0.62195 0,-0.21987 -0.035,-0.42396 -0.105,-0.61224 -0.07,-0.18829 -0.16625,-0.34985 -0.29,-0.48591 -0.12375,-0.13605 -0.26875,-0.24173 -0.435,-0.31584 -0.16626,-0.0741 -0.34626,-0.11175 -0.54,-0.11175 -0.19375,0 -0.37375,0.0389 -0.54,0.11661 -0.16626,0.0777 -0.31125,0.18465 -0.435,0.3207 -0.12375,0.13605 -0.22,0.29761 -0.29001,0.4859 -0.07,0.18829 -0.105,0.39237 -0.105,0.61225 z m 4.99001,-3.26528 0,-1.2925 1.33999,0 0,1.2925 -1.33999,0 z m 0,5.8017 0,-5.09228 1.33999,0 0,5.09228 -1.33999,0 z m 7.39999,0 -1.33999,0 0,-2.85712 c 0,-0.40816 -0.0737,-0.70578 -0.22001,-0.89407 -0.14625,-0.18828 -0.34999,-0.28182 -0.60999,-0.28182 -0.13375,0 -0.27,0.0255 -0.41001,0.0777 -0.13999,0.0522 -0.27124,0.12513 -0.39499,0.21866 -0.12375,0.0935 -0.23501,0.2053 -0.335,0.33527 -0.1,0.12999 -0.17376,0.27212 -0.22,0.4276 l 0,2.97374 -1.34,0 0,-5.09228 1.20999,0 0,0.94266 c 0.19376,-0.32434 0.47376,-0.57702 0.84,-0.75802 0.36626,-0.18099 0.78,-0.2721 1.24001,-0.2721 0.32625,0 0.59374,0.0583 0.79999,0.17492 0.20625,0.11662 0.36626,0.26846 0.48,0.45675 0.11376,0.18829 0.19125,0.40209 0.23501,0.6414 0.0437,0.23931 0.065,0.48226 0.065,0.72885 l 0,3.17782 z m 4.28001,-0.26239 c -0.18,0.0777 -0.40125,0.15549 -0.66501,0.23323 -0.26374,0.0777 -0.53874,0.11662 -0.825,0.11662 -0.18624,0 -0.36124,-0.0231 -0.525,-0.068 -0.16374,-0.0449 -0.30624,-0.11783 -0.42999,-0.21866 -0.12375,-0.10082 -0.22125,-0.22959 -0.295,-0.38872 -0.0737,-0.15913 -0.11,-0.35106 -0.11,-0.57822 l 0,-2.92515 -0.68001,0 0,-1.00096 0.68001,0 0,-1.65207 1.34,0 0,1.65207 1.11,0 0,1.00096 -1.11,0 0,2.48783 c 0,0.181 0.05,0.30977 0.15,0.38386 0.1,0.0741 0.22,0.11176 0.36,0.11176 0.13999,0 0.27625,-0.0231 0.40999,-0.068 0.13376,-0.0449 0.24,-0.0839 0.32001,-0.11662 l 0.27,1.03012 z m 5.22999,0.35957 c -0.36,0 -0.69124,-0.068 -0.99499,-0.20408 -0.30375,-0.13605 -0.56501,-0.32434 -0.785,-0.56365 -0.22,-0.23931 -0.39126,-0.51991 -0.51501,-0.84061 -0.12375,-0.3207 -0.18499,-0.66569 -0.18499,-1.03498 0,-0.36929 0.0587,-0.71307 0.175,-1.03012 0.11625,-0.31705 0.27875,-0.59645 0.485,-0.83576 0.20625,-0.23931 0.45375,-0.42759 0.73999,-0.56365 0.28626,-0.13605 0.6,-0.20407 0.94001,-0.20407 0.37999,0 0.72499,0.0911 1.035,0.2721 0.31,0.181 0.55125,0.41789 0.72499,0.70942 l 0,-2.89598 1.34001,0 0,5.59761 c 0,0.13605 0.0263,0.23324 0.08,0.29154 0.0538,0.0584 0.14625,0.0911 0.28,0.0972 l 0,1.10787 c -0.25375,0.0449 -0.46626,0.068 -0.64,0.068 -0.24626,-0.006 -0.43875,-0.062 -0.575,-0.16522 -0.13626,-0.10325 -0.22125,-0.24902 -0.255,-0.43731 l -0.03,-0.34985 c -0.19375,0.32434 -0.45375,0.56851 -0.78,0.73372 -0.32751,0.1652 -0.67375,0.24781 -1.04001,0.24781 z m 0.35001,-1.10787 c 0.12624,0 0.25625,-0.0206 0.39,-0.0632 0.13374,-0.0426 0.25625,-0.10204 0.36999,-0.17979 0.11376,-0.0777 0.21626,-0.16885 0.31001,-0.2721 0.0937,-0.10326 0.16375,-0.21744 0.21,-0.34013 l 0,-1.21477 c -0.11375,-0.28547 -0.29876,-0.52113 -0.555,-0.70941 -0.25625,-0.18829 -0.525,-0.28183 -0.80501,-0.28183 -0.19999,0 -0.38499,0.0426 -0.555,0.12634 -0.16999,0.0839 -0.315,0.19921 -0.435,0.34499 -0.12,0.14577 -0.21375,0.31219 -0.27999,0.50048 -0.0662,0.18829 -0.1,0.38265 -0.1,0.58308 0,0.2138 0.0362,0.41181 0.10999,0.5928 0.0737,0.18101 0.17501,0.34014 0.30501,0.47619 0.12999,0.13606 0.28374,0.24296 0.45999,0.3207 0.17625,0.0777 0.3675,0.11661 0.57501,0.11661 z m 3.96999,-4.79101 0,-1.2925 1.34001,0 0,1.2925 -1.34001,0 z m 0,5.8017 0,-5.09228 1.34001,0 0,5.09228 -1.34001,0 z m 7.61001,-6.08352 c -0.27375,0 -0.47125,0.0911 -0.595,0.2721 -0.12375,0.181 -0.185,0.39237 -0.185,0.63168 l 0,0.68027 1.38,0 0,1.00095 -1.38,0 0,3.49852 -1.34001,0 0,-3.49852 -1.27999,0 0,3.49852 -1.34,0 0,-3.49852 -0.68001,0 0,-1.00095 0.68001,0 0,-0.31098 c 0,-0.28547 0.04,-0.55272 0.12,-0.80175 0.08,-0.24902 0.195,-0.46526 0.345,-0.64625 0.15,-0.181 0.33624,-0.32434 0.56,-0.4276 0.22375,-0.10325 0.475,-0.15548 0.75499,-0.15548 0.22626,0 0.44876,0.0255 0.66501,0.0777 0.21624,0.0522 0.425,0.12026 0.62499,0.20408 0.16001,-0.19436 0.35376,-0.34864 0.58001,-0.46161 0.22624,-0.11297 0.49999,-0.17007 0.82,-0.17007 0.25374,0 0.48125,0.0328 0.68499,0.0972 0.20376,0.0644 0.39501,0.13241 0.57501,0.20408 l -0.27,0.98152 c -0.0937,-0.045 -0.19875,-0.0862 -0.315,-0.12148 -0.11751,-0.0353 -0.25251,-0.0535 -0.405,-0.0535 z m -2.12001,1.0787 c 0,-0.0255 9.8e-4,-0.0668 0.005,-0.12147 0.004,-0.0546 0.009,-0.11298 0.015,-0.17492 0.006,-0.0619 0.0163,-0.11784 0.03,-0.17008 0.0137,-0.0522 0.0262,-0.0935 0.04,-0.12633 -0.1,-0.0522 -0.21,-0.0875 -0.33,-0.1069 -0.12,-0.0194 -0.23,-0.0291 -0.33,-0.0291 -0.13375,0 -0.245,0.0255 -0.335,0.0777 -0.09,0.0522 -0.16125,0.11783 -0.215,0.19922 -0.0538,0.0814 -0.0937,0.17493 -0.12,0.28183 -0.0262,0.1069 -0.04,0.21258 -0.04,0.31583 l 0,0.35958 1.28,0 0,-0.50535 z m 6.01001,5.102 c -0.42,0 -0.8,-0.0693 -1.14,-0.20894 -0.34001,-0.1397 -0.63,-0.3292 -0.87,-0.56851 -0.24,-0.23931 -0.425,-0.51871 -0.555,-0.83575 -0.13001,-0.31706 -0.195,-0.65112 -0.195,-1.00097 0,-0.36322 0.0638,-0.70456 0.19,-1.02525 0.12624,-0.3207 0.30999,-0.60252 0.54999,-0.84547 0.24,-0.24296 0.53126,-0.43611 0.87501,-0.57824 0.34374,-0.14213 0.72875,-0.21379 1.155,-0.21379 0.42624,0 0.80874,0.0717 1.145,0.21379 0.33625,0.14213 0.62374,0.33407 0.85999,0.57337 0.23625,0.23931 0.41625,0.5187 0.54,0.83576 0.12375,0.31705 0.18501,0.64746 0.18501,0.99124 0,0.0839 -9.7e-4,0.16521 -0.005,0.24296 -0.004,0.0777 -0.0112,0.14212 -0.025,0.19435 l -4.05,0 c 0.02,0.20044 0.07,0.37901 0.15,0.5345 0.08,0.15549 0.18375,0.2879 0.30999,0.39844 0.12625,0.11055 0.27,0.19436 0.43,0.25267 0.16001,0.0583 0.32625,0.0875 0.5,0.0875 0.26625,0 0.51876,-0.0631 0.75501,-0.1895 0.23625,-0.12633 0.39874,-0.29276 0.48499,-0.50048 l 1.15001,0.31098 c -0.19376,0.38873 -0.50126,0.70821 -0.92501,0.95723 -0.42375,0.25024 -0.92875,0.37415 -1.515,0.37415 z m 1.36,-3.07092 c -0.0337,-0.38265 -0.17875,-0.68876 -0.435,-0.91836 -0.25626,-0.22959 -0.56875,-0.34499 -0.93501,-0.34499 -0.18,0 -0.34875,0.0304 -0.50499,0.0923 -0.15625,0.0619 -0.295,0.14698 -0.415,0.25752 -0.12,0.11054 -0.21875,0.24295 -0.29501,0.39844 -0.0763,0.1555 -0.12124,0.32677 -0.135,0.51506 l 2.72001,0 z m 5.31999,-0.99124 c -0.40624,0.006 -0.76999,0.0826 -1.08999,0.22837 -0.32001,0.14578 -0.55,0.36443 -0.69,0.65597 l 0,3.08064 -1.34001,0 0,-5.09228 1.23,0 0,1.08843 c 0.18,-0.34985 0.41501,-0.63168 0.705,-0.84548 0.29001,-0.21379 0.59501,-0.32069 0.915,-0.32069 0.0737,0 0.12876,9.7e-4 0.165,0.005 0.0362,0.004 0.0713,0.009 0.105,0.0146 l 0,1.18561 z m 3.19001,4.06216 c -0.42,0 -0.8,-0.0693 -1.14,-0.20894 -0.34001,-0.1397 -0.63,-0.3292 -0.87,-0.56851 -0.24,-0.23931 -0.425,-0.51871 -0.555,-0.83575 -0.13001,-0.31706 -0.195,-0.65112 -0.195,-1.00097 0,-0.36322 0.0638,-0.70456 0.19,-1.02525 0.12624,-0.3207 0.30999,-0.60252 0.54999,-0.84547 0.24,-0.24296 0.53126,-0.43611 0.87501,-0.57824 0.34374,-0.14213 0.72875,-0.21379 1.155,-0.21379 0.42624,0 0.80874,0.0717 1.145,0.21379 0.33625,0.14213 0.62374,0.33407 0.85999,0.57337 0.23625,0.23931 0.41625,0.5187 0.54,0.83576 0.12375,0.31705 0.18501,0.64746 0.18501,0.99124 0,0.0839 -9.7e-4,0.16521 -0.005,0.24296 -0.004,0.0777 -0.0113,0.14212 -0.025,0.19435 l -4.05,0 c 0.02,0.20044 0.07,0.37901 0.15,0.5345 0.08,0.15549 0.18375,0.2879 0.30999,0.39844 0.12625,0.11055 0.27,0.19436 0.43,0.25267 0.16001,0.0583 0.32625,0.0875 0.5,0.0875 0.26625,0 0.51876,-0.0631 0.75501,-0.1895 0.23625,-0.12633 0.39874,-0.29276 0.48499,-0.50048 l 1.15001,0.31098 c -0.19376,0.38873 -0.50126,0.70821 -0.92501,0.95723 -0.42375,0.25024 -0.92875,0.37415 -1.515,0.37415 z m 1.36,-3.07092 c -0.0337,-0.38265 -0.17875,-0.68876 -0.435,-0.91836 -0.25626,-0.22959 -0.56875,-0.34499 -0.93501,-0.34499 -0.18,0 -0.34875,0.0304 -0.50499,0.0923 -0.15625,0.0619 -0.295,0.14698 -0.415,0.25752 -0.12,0.11054 -0.21875,0.24295 -0.29501,0.39844 -0.0763,0.1555 -0.12124,0.32677 -0.135,0.51506 l 2.72001,0 z m 7.07,2.97374 -1.34,0 0,-2.85712 c 0,-0.40816 -0.0737,-0.70578 -0.22,-0.89407 -0.14625,-0.18828 -0.35,-0.28182 -0.61001,-0.28182 -0.13374,0 -0.27,0.0255 -0.40999,0.0777 -0.14,0.0522 -0.27125,0.12513 -0.395,0.21866 -0.12375,0.0935 -0.235,0.2053 -0.33501,0.33527 -0.1,0.12999 -0.17374,0.27212 -0.21999,0.4276 l 0,2.97374 -1.34001,0 0,-5.09228 1.21001,0 0,0.94266 c 0.19375,-0.32434 0.47374,-0.57702 0.84,-0.75802 0.36625,-0.18099 0.78,-0.2721 1.24,-0.2721 0.32625,0 0.59375,0.0583 0.8,0.17492 0.20625,0.11662 0.36625,0.26846 0.48,0.45675 0.11374,0.18829 0.19125,0.40209 0.235,0.6414 0.0437,0.23931 0.065,0.48226 0.065,0.72885 l 0,3.17782 z m 0.82999,-2.54614 c 0,-0.35592 0.0637,-0.69363 0.19001,-1.01068 0.12625,-0.31706 0.31,-0.59645 0.55,-0.83576 0.24,-0.2393 0.53,-0.43124 0.87,-0.57337 0.33999,-0.14213 0.72375,-0.21379 1.14999,-0.21379 0.57375,0 1.06125,0.12026 1.46501,0.35957 0.40375,0.23931 0.705,0.55393 0.90499,0.94265 l -1.30999,0.38872 c -0.11375,-0.18828 -0.26375,-0.33162 -0.45,-0.43245 -0.18626,-0.10083 -0.39375,-0.15063 -0.62,-0.15063 -0.19375,0 -0.37375,0.0377 -0.54,0.11175 -0.16626,0.0741 -0.31125,0.17858 -0.435,0.31099 -0.12375,0.13241 -0.22,0.29275 -0.29001,0.48104 -0.07,0.18829 -0.105,0.39479 -0.105,0.62196 0,0.22716 0.0362,0.43367 0.11001,0.62195 0.0737,0.18829 0.17124,0.34985 0.29499,0.48591 0.12375,0.13606 0.26876,0.24174 0.435,0.31584 0.16626,0.0741 0.34376,0.11175 0.53001,0.11175 0.24,0 0.46125,-0.0583 0.665,-0.17492 0.20374,-0.11661 0.345,-0.25874 0.42499,-0.42759 l 1.31001,0.38871 c -0.18,0.38873 -0.47625,0.70578 -0.89001,0.95238 -0.41374,0.2466 -0.90999,0.36929 -1.48999,0.36929 -0.42626,0 -0.81,-0.0717 -1.15001,-0.2138 -0.33999,-0.14213 -0.63,-0.33528 -0.87,-0.57823 -0.24,-0.24295 -0.42499,-0.52478 -0.555,-0.84548 -0.12999,-0.32068 -0.195,-0.65596 -0.195,-1.00581 z m 8.4,2.64332 c -0.42,0 -0.79999,-0.0693 -1.14,-0.20894 -0.33999,-0.1397 -0.63,-0.3292 -0.87,-0.56851 -0.24,-0.23931 -0.42499,-0.51871 -0.555,-0.83575 -0.12999,-0.31706 -0.195,-0.65112 -0.195,-1.00097 0,-0.36322 0.0638,-0.70456 0.19001,-1.02525 0.12625,-0.3207 0.31,-0.60252 0.55,-0.84547 0.24,-0.24296 0.53124,-0.43611 0.875,-0.57824 0.34375,-0.14213 0.72874,-0.21379 1.155,-0.21379 0.42625,0 0.80875,0.0717 1.14499,0.21379 0.33626,0.14213 0.62376,0.33407 0.86001,0.57337 0.23625,0.23931 0.41625,0.5187 0.54,0.83576 0.12375,0.31705 0.185,0.64746 0.185,0.99124 0,0.0839 -9.8e-4,0.16521 -0.005,0.24296 -0.004,0.0777 -0.0112,0.14212 -0.025,0.19435 l -4.05,0 c 0.02,0.20044 0.07,0.37901 0.15,0.5345 0.08,0.15549 0.18375,0.2879 0.31001,0.39844 0.12624,0.11055 0.27,0.19436 0.42999,0.25267 0.16,0.0583 0.32625,0.0875 0.50001,0.0875 0.26625,0 0.51874,-0.0631 0.75499,-0.1895 0.23625,-0.12633 0.39875,-0.29276 0.485,-0.50048 l 1.15,0.31098 c -0.19375,0.38873 -0.50125,0.70821 -0.925,0.95723 -0.42375,0.25024 -0.92874,0.37415 -1.515,0.37415 z m 1.36001,-3.07092 c -0.0337,-0.38265 -0.17876,-0.68876 -0.435,-0.91836 -0.25625,-0.22959 -0.56876,-0.34499 -0.935,-0.34499 -0.18,0 -0.34875,0.0304 -0.505,0.0923 -0.15626,0.0619 -0.29501,0.14698 -0.41501,0.25752 -0.12,0.11054 -0.21874,0.24295 -0.29499,0.39844 -0.0763,0.1555 -0.12126,0.32677 -0.135,0.51506 l 2.72,0 z"
   id="path4233" /><text
   x="546.29285"
   y="511.58609"
   transform="scale(1.0144011,0.98580335)"
   id="text4235"
   style="font-size:14.78705025px"><tspan
     x="546.29285"
     y="511.58609"
     id="tspan4237"
     style="font-size:9.85803413px;font-family:Raleway-Bold">compared to Self</tspan></text>

<g
   transform="matrix(1.25,0,0,1.2147603,-40.000032,-220.28949)"
   id="g4249"><defs
     id="defs4251"><rect
       width="562"
       height="428.65601"
       x="25"
       y="181.34399"
       id="SVGID_25_" /></defs><clipPath
     id="SVGID_26_"><use
       id="use4255"
       style="overflow:visible"
       x="0"
       y="0"
       width="675"
       height="520.71423"
       xlink:href="#SVGID_25_" /></clipPath><path
     d="m 476.828,539.995 c 0,0 -8,0 -8,8 l 0,53.505 c 0,0 0,8 8,8 l 86.672,0 c 0,0 8,0 8,-8 l 0,-53.505 c 0,0 0,-8 -8,-8 l -86.672,0 z"
     clip-path="url(#SVGID_26_)"
     id="path4257"
     style="fill:none;stroke:#007c92" /><path
     d="m 382.322,337.9 c 0,0 -8,0 -8,8 l 0,62.633 c 0,0 0,8 8,8 l 76,0 c 0,0 8,0 8,-8 l 0,-62.633 c 0,0 0,-8 -8,-8 l -76,0 z"
     clip-path="url(#SVGID_26_)"
     id="path4259"
     style="fill:#ffffff" /></g><text
   x="429.83771"
   y="216.42401"
   transform="scale(1.0144011,0.98580335)"
   id="text4261"
   style="font-size:14.78705025px"><tspan
     x="429.83771"
     y="216.42401"
     id="tspan4263"
     style="font-size:9.85803413px;font-family:Raleway-Bold">The </tspan><tspan
     x="450.1539"
     y="216.42401"
     id="tspan4265"
     style="font-size:9.85803413px;font-family:Raleway-Bold">a</tspan><tspan
     x="455.65466"
     y="216.42401"
     id="tspan4267"
     style="font-size:9.85803413px;font-family:Raleway-Bold">ve</tspan><tspan
     x="466.92239"
     y="216.42401"
     id="tspan4269"
     style="font-size:9.85803413px;font-family:Raleway-Bold">r</tspan><tspan
     x="470.66846"
     y="216.42401"
     id="tspan4271"
     style="font-size:9.85803413px;font-family:Raleway-Bold">age </tspan></text>

<text
   x="429.83771"
   y="231.21107"
   transform="scale(1.0144011,0.98580335)"
   id="text4273"
   style="font-size:14.78705025px"><tspan
     x="429.83771"
     y="231.21107"
     id="tspan4275"
     style="font-size:9.85803413px;font-family:Raleway-Bold">Observer response </tspan></text>

<text
   x="429.83771"
   y="245.99814"
   transform="scale(1.0144011,0.98580335)"
   id="text4285"
   style="font-size:9.85803413px;font-family:Raleway-Bold">is more than 1.5 </text>

<text
   x="429.83771"
   y="260.78516"
   transform="scale(1.0144011,0.98580335)"
   id="text4287"
   style="font-size:14.78705025px"><tspan
     x="429.83771"
     y="260.78516"
     id="tspan4289"
     style="font-size:9.85803413px;font-family:Raleway-Bold">points higher than </tspan></text>

<text
   x="429.83771"
   y="275.57224"
   transform="scale(1.0144011,0.98580335)"
   id="text4299"
   style="font-size:14.78705025px"><tspan
     x="429.83771"
     y="275.57224"
     id="tspan4301"
     style="font-size:9.85803413px;font-family:Raleway-Bold">the Self response</tspan></text>

<g
   transform="matrix(1.25,0,0,1.2147603,-40.000032,-220.28949)"
   id="g4309"><defs
     id="defs4311"><rect
       width="562"
       height="428.65601"
       x="25"
       y="181.34399"
       id="SVGID_27_" /></defs><clipPath
     id="SVGID_28_"><use
       id="use4315"
       style="overflow:visible"
       x="0"
       y="0"
       width="675"
       height="520.71423"
       xlink:href="#SVGID_27_" /></clipPath><path
     d="m 382.322,337.9 c 0,0 -8,0 -8,8 l 0,62.633 c 0,0 0,8 8,8 l 76,0 c 0,0 8,0 8,-8 l 0,-62.633 c 0,0 0,-8 -8,-8 l -76,0 z"
     clip-path="url(#SVGID_28_)"
     id="path4317"
     style="fill:none;stroke:#007c92" /><path
     d="m 347.885,539.995 c 0,0 -8,0 -8,8 l 0,53.505 c 0,0 0,8 8,8 l 86.672,0 c 0,0 8,0 8,-8 l 0,-53.505 c 0,0 0,-8 -8,-8 l -86.672,0 z"
     clip-path="url(#SVGID_28_)"
     id="path4319"
     style="fill:#ffffff" /></g><text
   x="387.40195"
   y="467.22495"
   transform="scale(1.0144011,0.98580335)"
   id="text4321"
   style="font-size:14.78705025px"><tspan
     x="387.40195"
     y="467.22495"
     id="tspan4323"
     style="font-size:9.85803413px;font-family:Raleway-Bold">The average Observer</tspan></text>

<text
   x="387.40195"
   y="482.01202"
   transform="scale(1.0144011,0.98580335)"
   id="text4341"
   style="font-size:9.85803413px;font-family:Raleway-Bold">response is less than </text>

<path
   d="m 395.02123,489.8436 c -0.25375,0 -0.49,-0.0401 -0.71,-0.12148 -0.22,-0.0814 -0.41,-0.19436 -0.57,-0.34013 -0.16,-0.14577 -0.285,-0.31584 -0.375,-0.5102 -0.09,-0.19436 -0.135,-0.40816 -0.135,-0.64139 0,-0.23931 0.055,-0.46161 0.165,-0.66569 0.11,-0.20408 0.26375,-0.3778 0.46,-0.51992 0.19625,-0.14213 0.43125,-0.25389 0.705,-0.33528 0.27375,-0.0814 0.57375,-0.12147 0.9,-0.12147 0.23375,0 0.46125,0.0194 0.685,0.0584 0.22375,0.0389 0.42125,0.0935 0.595,0.1652 l 0,-0.29153 c 0,-0.3365 -0.0987,-0.59646 -0.295,-0.77745 -0.19625,-0.18101 -0.48875,-0.27212 -0.875,-0.27212 -0.28,0 -0.55375,0.0486 -0.82,0.14578 -0.26625,0.0972 -0.54,0.23931 -0.82,0.42759 l -0.41,-0.82603 c 0.67375,-0.43367 1.4,-0.65112 2.18,-0.65112 0.75375,0 1.33875,0.17979 1.755,0.53936 0.41625,0.35957 0.625,0.87949 0.625,1.55975 l 0,1.58405 c 0,0.13605 0.0262,0.23324 0.08,0.29154 0.0538,0.0584 0.14625,0.0911 0.28,0.0972 l 0,1.10787 c -0.12625,0.0255 -0.245,0.0437 -0.355,0.0535 -0.11,0.01 -0.205,0.0146 -0.285,0.0146 -0.25375,-0.006 -0.44625,-0.0632 -0.58,-0.17007 -0.13375,-0.10689 -0.21625,-0.25146 -0.25,-0.43245 l -0.03,-0.28183 c -0.23375,0.29762 -0.51625,0.52478 -0.85,0.68026 -0.33375,0.1555 -0.69,0.23324 -1.07,0.23324 z m 0.38,-0.95238 c 0.22625,0 0.44125,-0.0389 0.645,-0.11662 0.20375,-0.0777 0.36125,-0.18099 0.475,-0.31097 0.14625,-0.11054 0.22,-0.23323 0.22,-0.36929 l 0,-0.58309 c -0.16,-0.0583 -0.33375,-0.10568 -0.52,-0.14091 -0.18625,-0.0353 -0.36625,-0.0535 -0.54,-0.0535 -0.34625,0 -0.63,0.0766 -0.85,0.22837 -0.22,0.15185 -0.33,0.34499 -0.33,0.57823 0,0.21987 0.0862,0.40329 0.26,0.54907 0.1725,0.14577 0.38625,0.21866 0.64,0.21866 z m 10.44,-0.32069 0,1.17589 -4.06,0 0,-1.17589 1.42,0 0,-2.94458 c -0.06,0.0777 -0.15375,0.1567 -0.28,0.23809 -0.12625,0.0814 -0.26625,0.1567 -0.42,0.22838 -0.15375,0.0717 -0.31375,0.12997 -0.48,0.17492 -0.16625,0.0449 -0.31375,0.068 -0.44,0.068 l 0,-1.21476 c 0.12,0 0.26625,-0.0377 0.44,-0.11175 0.17375,-0.0741 0.34375,-0.164 0.51,-0.26726 0.16625,-0.10325 0.31375,-0.20529 0.44,-0.30611 0.12625,-0.10083 0.20375,-0.17979 0.23,-0.2381 l 1.37,0 0,4.37314 1.27,0 z m 0.8,1.17589 0,-1.39941 1.1,0 0,1.39941 -1.1,0 z m 4.56,-3.10007 c 0.33375,0 0.64375,0.0535 0.93,0.16034 0.28625,0.1069 0.535,0.25753 0.745,0.45189 0.21,0.19437 0.37375,0.4276 0.49,0.69971 0.11625,0.27211 0.175,0.57336 0.175,0.90378 0,0.34985 -0.0662,0.66691 -0.2,0.95238 -0.13375,0.28546 -0.31625,0.52963 -0.55,0.73371 -0.23375,0.20408 -0.51,0.36321 -0.83,0.47618 -0.32,0.11298 -0.66625,0.17007 -1.04,0.17007 -0.52,0 -0.985,-0.1069 -1.395,-0.3207 -0.41,-0.21379 -0.72125,-0.50534 -0.935,-0.87463 l 0.77,-0.77744 c 0.19375,0.25267 0.42875,0.4531 0.705,0.60252 0.27625,0.14941 0.565,0.22352 0.865,0.22352 0.36,0 0.655,-0.10569 0.885,-0.31584 0.23,-0.21016 0.345,-0.49076 0.345,-0.84062 0,-0.33648 -0.10875,-0.60859 -0.325,-0.81632 -0.21625,-0.20772 -0.49125,-0.31097 -0.825,-0.31097 -0.22,0 -0.425,0.0486 -0.615,0.14577 -0.19,0.0972 -0.34125,0.22959 -0.455,0.39844 l -1.17,0 c 0,-0.0195 0.0137,-0.0923 0.04,-0.21866 0.0262,-0.12634 0.06,-0.2879 0.1,-0.4859 0.04,-0.19801 0.0838,-0.41787 0.13,-0.66084 0.0463,-0.24295 0.0962,-0.49076 0.15,-0.74342 0.12,-0.59646 0.25375,-1.26335 0.4,-2.00193 l 3.5,0 0,1.18561 -2.53,0 -0.28,1.54517 c 0.08,-0.0839 0.19625,-0.15185 0.35,-0.20408 0.1525,-0.051 0.3425,-0.0777 0.57,-0.0777 z m 8.78,3.19725 c -0.40625,0 -0.76375,-0.0886 -1.07,-0.26726 -0.30625,-0.17856 -0.54625,-0.41908 -0.72,-0.72399 l 0,2.96402 -1.34,0 0,-7.16223 1.17,0 0,0.87463 c 0.19375,-0.29762 0.44375,-0.53328 0.75,-0.70456 0.30625,-0.17128 0.66,-0.25753 1.06,-0.25753 0.35375,0 0.68,0.0693 0.98,0.20893 0.3,0.1397 0.55875,0.32678 0.775,0.56365 0.21625,0.23689 0.38625,0.51506 0.51,0.83576 0.12375,0.32069 0.185,0.65962 0.185,1.01554 0,0.36929 -0.0562,0.7155 -0.17,1.03984 -0.11375,0.32434 -0.27125,0.60616 -0.475,0.84547 -0.20375,0.23931 -0.44625,0.4276 -0.73,0.56365 -0.28375,0.13605 -0.5925,0.20408 -0.925,0.20408 z m -0.44,-1.10787 c 0.2,0 0.385,-0.0426 0.555,-0.12633 0.17,-0.0839 0.315,-0.19801 0.435,-0.34013 0.12,-0.14213 0.21375,-0.30733 0.28,-0.49562 0.0662,-0.18829 0.1,-0.38266 0.1,-0.58309 0,-0.2138 -0.0362,-0.41302 -0.11,-0.59767 -0.0737,-0.18463 -0.175,-0.34499 -0.305,-0.48104 -0.13,-0.13605 -0.28375,-0.24295 -0.46,-0.3207 -0.17625,-0.0777 -0.36875,-0.11661 -0.575,-0.11661 -0.12625,0 -0.25625,0.0206 -0.39,0.0631 -0.13375,0.0426 -0.25625,0.10204 -0.37,0.17979 -0.11375,0.0777 -0.215,0.16884 -0.305,0.2721 -0.09,0.10326 -0.15875,0.21744 -0.205,0.34013 l 0,1.19532 c 0.12,0.29155 0.30375,0.53328 0.55,0.72401 0.24625,0.19193 0.5125,0.28667 0.8,0.28667 z m 6.06,1.10787 c -0.42625,0 -0.81,-0.0717 -1.15,-0.2138 -0.34,-0.14213 -0.62875,-0.33528 -0.865,-0.57823 -0.23625,-0.24295 -0.41875,-0.52356 -0.545,-0.84061 -0.12625,-0.31705 -0.19,-0.65111 -0.19,-1.00096 0,-0.35593 0.0637,-0.69364 0.19,-1.01068 0.12625,-0.31706 0.30875,-0.59766 0.545,-0.84061 0.23625,-0.24296 0.525,-0.43611 0.865,-0.57824 0.34,-0.14213 0.72375,-0.21379 1.15,-0.21379 0.42625,0 0.80875,0.0717 1.145,0.21379 0.33625,0.14213 0.62375,0.33528 0.86,0.57824 0.23625,0.24295 0.41875,0.52355 0.545,0.84061 0.12625,0.31704 0.19,0.65475 0.19,1.01068 0,0.34985 -0.0637,0.68391 -0.19,1.00096 -0.12625,0.31705 -0.30625,0.59766 -0.54,0.84061 -0.23375,0.24295 -0.52,0.4361 -0.86,0.57823 -0.34,0.14213 -0.72375,0.2138 -1.15,0.2138 z m -1.37,-2.6336 c 0,0.22716 0.035,0.43246 0.105,0.61709 0.07,0.18465 0.16625,0.34499 0.29,0.48105 0.12375,0.13606 0.26875,0.24174 0.435,0.31584 0.16625,0.0741 0.34625,0.11175 0.54,0.11175 0.19375,0 0.37375,-0.0377 0.54,-0.11175 0.16625,-0.0741 0.31125,-0.17978 0.435,-0.31584 0.12375,-0.13606 0.22,-0.29762 0.29,-0.48591 0.07,-0.18828 0.105,-0.39479 0.105,-0.62195 0,-0.21987 -0.035,-0.42396 -0.105,-0.61224 -0.07,-0.18829 -0.16625,-0.34985 -0.29,-0.48591 -0.12375,-0.13605 -0.26875,-0.24173 -0.435,-0.31584 -0.16625,-0.0741 -0.34625,-0.11175 -0.54,-0.11175 -0.19375,0 -0.37375,0.0389 -0.54,0.11661 -0.16625,0.0777 -0.31125,0.18465 -0.435,0.3207 -0.12375,0.13605 -0.22,0.29761 -0.29,0.4859 -0.07,0.18829 -0.105,0.39237 -0.105,0.61225 z m 4.99,-3.26528 0,-1.2925 1.34,0 0,1.2925 -1.34,0 z m 0,5.8017 0,-5.09228 1.34,0 0,5.09228 -1.34,0 z m 7.4,0 -1.34,0 0,-2.85712 c 0,-0.40816 -0.0737,-0.70578 -0.22,-0.89407 -0.14625,-0.18828 -0.35,-0.28182 -0.61,-0.28182 -0.13375,0 -0.27,0.0255 -0.41,0.0777 -0.14,0.0522 -0.27125,0.12513 -0.395,0.21866 -0.12375,0.0935 -0.235,0.2053 -0.335,0.33527 -0.1,0.12999 -0.17375,0.27212 -0.22,0.4276 l 0,2.97374 -1.34,0 0,-5.09228 1.21,0 0,0.94266 c 0.19375,-0.32434 0.47375,-0.57702 0.84,-0.75802 0.36625,-0.18099 0.78,-0.2721 1.24,-0.2721 0.32625,0 0.59375,0.0583 0.8,0.17492 0.20625,0.11662 0.36625,0.26846 0.48,0.45675 0.11375,0.18829 0.19125,0.40209 0.235,0.6414 0.0437,0.23931 0.065,0.48226 0.065,0.72885 l 0,3.17782 z m 4.27875,-0.26239 c -0.18,0.0777 -0.40125,0.15549 -0.665,0.23323 -0.26375,0.0777 -0.53875,0.11662 -0.825,0.11662 -0.18625,0 -0.36125,-0.0231 -0.525,-0.068 -0.16375,-0.0449 -0.30625,-0.11783 -0.43,-0.21866 -0.12375,-0.10082 -0.22125,-0.22959 -0.295,-0.38872 -0.0737,-0.15913 -0.11,-0.35106 -0.11,-0.57822 l 0,-2.92515 -0.68,0 0,-1.00096 0.68,0 0,-1.65207 1.34,0 0,1.65207 1.11,0 0,1.00096 -1.11,0 0,2.48783 c 0,0.181 0.05,0.30977 0.15,0.38386 0.1,0.0741 0.22,0.11176 0.36,0.11176 0.14,0 0.27625,-0.0231 0.41,-0.068 0.13375,-0.0449 0.24,-0.0839 0.32,-0.11662 l 0.27,1.03012 z m 5.23,0.35957 c -0.36,0 -0.69125,-0.068 -0.995,-0.20408 -0.30375,-0.13605 -0.565,-0.32434 -0.785,-0.56365 -0.22,-0.23931 -0.39125,-0.51991 -0.515,-0.84061 -0.12375,-0.3207 -0.185,-0.66569 -0.185,-1.03498 0,-0.36929 0.0587,-0.71307 0.175,-1.03012 0.11625,-0.31705 0.27875,-0.59645 0.485,-0.83576 0.20625,-0.23931 0.45375,-0.42759 0.74,-0.56365 0.28625,-0.13605 0.6,-0.20407 0.94,-0.20407 0.38,0 0.725,0.0911 1.035,0.2721 0.31,0.181 0.55125,0.41789 0.725,0.70942 l 0,-2.89598 1.34,0 0,5.59761 c 0,0.13605 0.0262,0.23324 0.08,0.29154 0.0538,0.0584 0.14625,0.0911 0.27999,0.0972 l 0,1.10787 c -0.25374,0.0449 -0.46625,0.068 -0.63999,0.068 -0.24626,-0.006 -0.43875,-0.062 -0.57501,-0.16522 -0.13625,-0.10325 -0.22125,-0.24902 -0.255,-0.43731 l -0.03,-0.34985 c -0.19374,0.32434 -0.45375,0.56851 -0.78,0.73372 -0.3275,0.1652 -0.67374,0.24781 -1.04,0.24781 z m 0.35,-1.10787 c 0.12625,0 0.25625,-0.0206 0.39,-0.0632 0.13375,-0.0426 0.25625,-0.10204 0.37,-0.17979 0.11375,-0.0777 0.21625,-0.16885 0.31,-0.2721 0.0937,-0.10326 0.16375,-0.21744 0.21,-0.34013 l 0,-1.21477 c -0.11375,-0.28547 -0.29875,-0.52113 -0.555,-0.70941 -0.25625,-0.18829 -0.525,-0.28183 -0.805,-0.28183 -0.2,0 -0.385,0.0426 -0.555,0.12634 -0.17,0.0839 -0.315,0.19921 -0.435,0.34499 -0.12,0.14577 -0.21375,0.31219 -0.28,0.50048 -0.0662,0.18829 -0.1,0.38265 -0.1,0.58308 0,0.2138 0.0362,0.41181 0.11,0.5928 0.0737,0.18101 0.175,0.34014 0.305,0.47619 0.13,0.13606 0.28375,0.24296 0.46,0.3207 0.17625,0.0777 0.3675,0.11661 0.575,0.11661 z m 3.97,-4.79101 0,-1.2925 1.34,0 0,1.2925 -1.34,0 z m 0,5.8017 0,-5.09228 1.34,0 0,5.09228 -1.34,0 z m 7.61,-6.08352 c -0.27375,0 -0.47124,0.0911 -0.59499,0.2721 -0.12375,0.181 -0.18501,0.39237 -0.18501,0.63168 l 0,0.68027 1.38,0 0,1.00095 -1.38,0 0,3.49852 -1.34,0 0,-3.49852 -1.27999,0 0,3.49852 -1.34001,0 0,-3.49852 -0.68,0 0,-1.00095 0.68,0 0,-0.31098 c 0,-0.28547 0.04,-0.55272 0.12,-0.80175 0.08,-0.24902 0.195,-0.46526 0.345,-0.64625 0.15,-0.181 0.33625,-0.32434 0.56001,-0.4276 0.22374,-0.10325 0.47499,-0.15548 0.75499,-0.15548 0.22625,0 0.44876,0.0255 0.665,0.0777 0.21625,0.0522 0.42501,0.12026 0.625,0.20408 0.16001,-0.19436 0.35375,-0.34864 0.58001,-0.46161 0.22624,-0.11297 0.49999,-0.17007 0.81999,-0.17007 0.25375,0 0.48126,0.0328 0.685,0.0972 0.20375,0.0644 0.395,0.13241 0.575,0.20408 l -0.27,0.98152 c -0.0937,-0.045 -0.19875,-0.0862 -0.315,-0.12148 -0.11625,-0.0353 -0.25125,-0.0535 -0.405,-0.0535 z m -2.12,1.0787 c 0,-0.0255 9.8e-4,-0.0668 0.005,-0.12147 0.004,-0.0546 0.009,-0.11298 0.015,-0.17492 0.006,-0.0619 0.0163,-0.11784 0.03,-0.17008 0.0137,-0.0522 0.0262,-0.0935 0.04,-0.12633 -0.1,-0.0522 -0.21,-0.0875 -0.33,-0.1069 -0.12,-0.0194 -0.22999,-0.0291 -0.33,-0.0291 -0.13375,0 -0.24499,0.0255 -0.33499,0.0777 -0.09,0.0522 -0.16125,0.11783 -0.21501,0.19922 -0.0538,0.0814 -0.0937,0.17493 -0.12,0.28183 -0.0262,0.1069 -0.04,0.21258 -0.04,0.31583 l 0,0.35958 1.28,0 0,-0.50535 z m 6.01001,5.102 c -0.42,0 -0.80001,-0.0693 -1.14,-0.20894 -0.34001,-0.1397 -0.63,-0.3292 -0.87,-0.56851 -0.24,-0.23931 -0.42501,-0.51871 -0.555,-0.83575 -0.13001,-0.31706 -0.195,-0.65112 -0.195,-1.00097 0,-0.36322 0.0637,-0.70456 0.18999,-1.02525 0.12625,-0.3207 0.31,-0.60252 0.55,-0.84547 0.24,-0.24296 0.53126,-0.43611 0.875,-0.57824 0.34375,-0.14213 0.72876,-0.21379 1.155,-0.21379 0.42625,0 0.80875,0.0717 1.14501,0.21379 0.33624,0.14213 0.62374,0.33407 0.85999,0.57337 0.23625,0.23931 0.41625,0.5187 0.54,0.83576 0.12375,0.31705 0.185,0.64746 0.185,0.99124 0,0.0839 -9.8e-4,0.16521 -0.005,0.24296 -0.004,0.0777 -0.0112,0.14212 -0.025,0.19435 l -4.05,0 c 0.02,0.20044 0.07,0.37901 0.15,0.5345 0.08,0.15549 0.18375,0.2879 0.31,0.39844 0.12625,0.11055 0.27,0.19436 0.43,0.25267 0.16,0.0583 0.32625,0.0875 0.5,0.0875 0.26625,0 0.51875,-0.0631 0.755,-0.1895 0.23625,-0.12633 0.39875,-0.29276 0.485,-0.50048 l 1.15,0.31098 c -0.19375,0.38873 -0.50125,0.70821 -0.925,0.95723 -0.42375,0.25024 -0.92875,0.37415 -1.515,0.37415 z m 1.35999,-3.07092 c -0.0337,-0.38265 -0.17874,-0.68876 -0.435,-0.91836 -0.25625,-0.22959 -0.56874,-0.34499 -0.935,-0.34499 -0.18,0 -0.34875,0.0304 -0.505,0.0923 -0.15624,0.0619 -0.29499,0.14698 -0.41499,0.25752 -0.12,0.11054 -0.21876,0.24295 -0.29501,0.39844 -0.0763,0.1555 -0.12124,0.32677 -0.135,0.51506 l 2.72,0 z m 5.32,-0.99124 c -0.40624,0.006 -0.76999,0.0826 -1.09,0.22837 -0.32,0.14578 -0.54999,0.36443 -0.69,0.65597 l 0,3.08064 -1.34,0 0,-5.09228 1.23,0 0,1.08843 c 0.18,-0.34985 0.41501,-0.63168 0.705,-0.84548 0.29,-0.21379 0.59501,-0.32069 0.915,-0.32069 0.0737,0 0.12875,9.7e-4 0.165,0.005 0.0362,0.004 0.0712,0.009 0.105,0.0146 l 0,1.18561 z m 3.19001,4.06216 c -0.42,0 -0.80001,-0.0693 -1.14,-0.20894 -0.34001,-0.1397 -0.63,-0.3292 -0.87,-0.56851 -0.24,-0.23931 -0.42501,-0.51871 -0.555,-0.83575 -0.13001,-0.31706 -0.195,-0.65112 -0.195,-1.00097 0,-0.36322 0.0637,-0.70456 0.18999,-1.02525 0.12625,-0.3207 0.31,-0.60252 0.55,-0.84547 0.24,-0.24296 0.53126,-0.43611 0.875,-0.57824 0.34375,-0.14213 0.72876,-0.21379 1.155,-0.21379 0.42625,0 0.80875,0.0717 1.14501,0.21379 0.33624,0.14213 0.62374,0.33407 0.85999,0.57337 0.23625,0.23931 0.41625,0.5187 0.54,0.83576 0.12375,0.31705 0.185,0.64746 0.185,0.99124 0,0.0839 -9.7e-4,0.16521 -0.005,0.24296 -0.004,0.0777 -0.0112,0.14212 -0.025,0.19435 l -4.05,0 c 0.02,0.20044 0.07,0.37901 0.15,0.5345 0.08,0.15549 0.18375,0.2879 0.31,0.39844 0.12625,0.11055 0.27,0.19436 0.43,0.25267 0.16,0.0583 0.32625,0.0875 0.5,0.0875 0.26625,0 0.51875,-0.0631 0.755,-0.1895 0.23625,-0.12633 0.39875,-0.29276 0.485,-0.50048 l 1.15,0.31098 c -0.19375,0.38873 -0.50125,0.70821 -0.925,0.95723 -0.42375,0.25024 -0.92875,0.37415 -1.515,0.37415 z m 1.35999,-3.07092 c -0.0337,-0.38265 -0.17874,-0.68876 -0.435,-0.91836 -0.25625,-0.22959 -0.56874,-0.34499 -0.935,-0.34499 -0.18,0 -0.34875,0.0304 -0.505,0.0923 -0.15624,0.0619 -0.29499,0.14698 -0.41499,0.25752 -0.12,0.11054 -0.21876,0.24295 -0.29501,0.39844 -0.0763,0.1555 -0.12124,0.32677 -0.135,0.51506 l 2.72,0 z m 7.07001,2.97374 -1.34001,0 0,-2.85712 c 0,-0.40816 -0.0737,-0.70578 -0.21999,-0.89407 -0.14625,-0.18828 -0.35001,-0.28182 -0.61001,-0.28182 -0.13375,0 -0.27,0.0255 -0.40999,0.0777 -0.14001,0.0522 -0.27126,0.12513 -0.39501,0.21866 -0.12375,0.0935 -0.23499,0.2053 -0.335,0.33527 -0.1,0.12999 -0.17374,0.27212 -0.22,0.4276 l 0,2.97374 -1.34,0 0,-5.09228 1.21001,0 0,0.94266 c 0.19374,-0.32434 0.47374,-0.57702 0.84,-0.75802 0.36624,-0.18099 0.78,-0.2721 1.23999,-0.2721 0.32625,0 0.59376,0.0583 0.80001,0.17492 0.20625,0.11662 0.36624,0.26846 0.48,0.45675 0.11374,0.18829 0.19125,0.40209 0.23499,0.6414 0.0437,0.23931 0.065,0.48226 0.065,0.72885 l 0,3.17782 z m 0.82999,-2.54614 c 0,-0.35592 0.0637,-0.69363 0.19001,-1.01068 0.12624,-0.31706 0.30999,-0.59645 0.54999,-0.83576 0.24,-0.2393 0.53001,-0.43124 0.87,-0.57337 0.34,-0.14213 0.72375,-0.21379 1.15,-0.21379 0.57375,0 1.06125,0.12026 1.46501,0.35957 0.40374,0.23931 0.705,0.55393 0.90499,0.94265 l -1.30999,0.38872 c -0.11376,-0.18828 -0.26376,-0.33162 -0.45,-0.43245 -0.18626,-0.10083 -0.39375,-0.15063 -0.62001,-0.15063 -0.19374,0 -0.37374,0.0377 -0.54,0.11175 -0.16625,0.0741 -0.31125,0.17858 -0.435,0.31099 -0.12375,0.13241 -0.21999,0.29275 -0.29,0.48104 -0.07,0.18829 -0.105,0.39479 -0.105,0.62196 0,0.22716 0.0362,0.43367 0.11,0.62195 0.0737,0.18829 0.17125,0.34985 0.295,0.48591 0.12375,0.13606 0.26876,0.24174 0.435,0.31584 0.16625,0.0741 0.34376,0.11175 0.53,0.11175 0.24,0 0.46125,-0.0583 0.66501,-0.17492 0.20374,-0.11661 0.345,-0.25874 0.42499,-0.42759 l 1.31,0.38871 c -0.18,0.38873 -0.47625,0.70578 -0.89,0.95238 -0.41374,0.2466 -0.91,0.36929 -1.48999,0.36929 -0.42626,0 -0.81,-0.0717 -1.15001,-0.2138 -0.34,-0.14213 -0.63,-0.33528 -0.87,-0.57823 -0.24,-0.24295 -0.42499,-0.52478 -0.555,-0.84548 -0.13,-0.32068 -0.195,-0.65596 -0.195,-1.00581 z m 8.4,2.64332 c -0.42,0 -0.79999,-0.0693 -1.14,-0.20894 -0.34,-0.1397 -0.63,-0.3292 -0.87,-0.56851 -0.24,-0.23931 -0.42499,-0.51871 -0.555,-0.83575 -0.13,-0.31706 -0.195,-0.65112 -0.195,-1.00097 0,-0.36322 0.0637,-0.70456 0.19001,-1.02525 0.12624,-0.3207 0.30999,-0.60252 0.54999,-0.84547 0.24,-0.24296 0.53125,-0.43611 0.87501,-0.57824 0.34374,-0.14213 0.72874,-0.21379 1.155,-0.21379 0.42624,0 0.80874,0.0717 1.14499,0.21379 0.33626,0.14213 0.62375,0.33407 0.86,0.57337 0.23625,0.23931 0.41625,0.5187 0.54,0.83576 0.12375,0.31705 0.18501,0.64746 0.18501,0.99124 0,0.0839 -9.8e-4,0.16521 -0.005,0.24296 -0.004,0.0777 -0.0112,0.14212 -0.025,0.19435 l -4.05,0 c 0.02,0.20044 0.07,0.37901 0.15,0.5345 0.08,0.15549 0.18375,0.2879 0.31,0.39844 0.12625,0.11055 0.27,0.19436 0.43,0.25267 0.16,0.0583 0.32625,0.0875 0.5,0.0875 0.26625,0 0.51875,-0.0631 0.755,-0.1895 0.23625,-0.12633 0.39875,-0.29276 0.485,-0.50048 l 1.15,0.31098 c -0.19375,0.38873 -0.50125,0.70821 -0.925,0.95723 -0.42375,0.25024 -0.92875,0.37415 -1.515,0.37415 z m 1.36001,-3.07092 c -0.0337,-0.38265 -0.17876,-0.68876 -0.435,-0.91836 -0.25626,-0.22959 -0.56876,-0.34499 -0.93501,-0.34499 -0.18,0 -0.34875,0.0304 -0.50499,0.0923 -0.15626,0.0619 -0.29501,0.14698 -0.41501,0.25752 -0.12,0.11054 -0.21874,0.24295 -0.295,0.39844 -0.0763,0.1555 -0.12125,0.32677 -0.135,0.51506 l 2.72001,0 z"
   id="path4343" /><text
   x="387.40195"
   y="511.58609"
   transform="scale(1.0144011,0.98580335)"
   id="text4345"
   style="font-size:14.78705025px"><tspan
     x="387.40195"
     y="511.58609"
     id="tspan4347"
     style="font-size:9.85803413px;font-family:Raleway-Bold">compared to Self</tspan></text>

<g
   transform="matrix(1.25,0,0,1.2147603,-40.000032,-220.28949)"
   id="g4359"><defs
     id="defs4361"><rect
       width="562"
       height="428.65601"
       x="25"
       y="181.34399"
       id="SVGID_29_" /></defs><clipPath
     id="SVGID_30_"><use
       id="use4365"
       style="overflow:visible"
       x="0"
       y="0"
       width="675"
       height="520.71423"
       xlink:href="#SVGID_29_" /></clipPath><path
     d="m 347.885,539.995 c 0,0 -8,0 -8,8 l 0,53.505 c 0,0 0,8 8,8 l 86.672,0 c 0,0 8,0 8,-8 l 0,-53.505 c 0,0 0,-8 -8,-8 l -86.672,0 z"
     clip-path="url(#SVGID_30_)"
     id="path4367"
     style="fill:none;stroke:#007c92" /><path
     d="m 119.437,335.875 c 0,0 -8,0 -8,8 l 0,19.677 c 0,0 0,8 8,8 l 57.26,0 c 0,0 8,0 8,-8 l 0,-19.677 c 0,0 0,-8 -8,-8 l -57.26,0 z"
     clip-path="url(#SVGID_30_)"
     id="path4369"
     style="fill:#ffffff" /></g><text
   x="105.89681"
   y="209.64293"
   transform="scale(1.0144011,0.98580335)"
   id="text4371"
   style="font-size:14.78705025px"><tspan
     x="105.89681"
     y="209.64293"
     id="tspan4373"
     style="font-size:10px;font-family:Raleway-Bold">LPI behavior</tspan><tspan
     x="164.01854"
     y="209.64293"
     id="tspan4381"
     style="font-size:10px;font-family:Raleway-Bold"> # </tspan></text>

<text
   x="105.89681"
   y="224.42999"
   transform="scale(1.0144011,0.98580335)"
   id="text4383"
   style="font-size:14.78705025px"><tspan
     x="105.89681"
     y="224.42999"
     id="tspan4385"
     style="font-size:10px;font-family:Raleway-Bold">and statement</tspan></text>

<g
   transform="matrix(1.25,0,0,1.2147603,-40.000032,-220.28949)"
   id="g4399"><defs
     id="defs4401"><rect
       width="562"
       height="428.65601"
       x="25"
       y="181.34399"
       id="SVGID_31_" /></defs><clipPath
     id="SVGID_32_"><use
       id="use4405"
       style="overflow:visible"
       x="0"
       y="0"
       width="675"
       height="520.71423"
       xlink:href="#SVGID_31_" /></clipPath><path
     d="m 119.437,335.875 c 0,0 -8,0 -8,8 l 0,19.677 c 0,0 0,8 8,8 l 57.26,0 c 0,0 8,0 8,-8 l 0,-19.677 c 0,0 0,-8 -8,-8 l -57.26,0 z"
     clip-path="url(#SVGID_32_)"
     id="path4407"
     style="fill:none;stroke:#007c92" /><path
     d="m 405.5,181.844 c 0,0 -8,0 -8,8 l 0,18 c 0,0 0,8 8,8 l 102.74,0 c 0,0 8,0 8,-8 l 0,-18 c 0,0 0,-8 -8,-8 l -102.74,0 z"
     clip-path="url(#SVGID_32_)"
     id="path4409"
     style="fill:#ffffff" /></g><text
   x="458.39853"
   y="18.978691"
   transform="scale(1.0144011,0.98580335)"
   id="text4411"
   style="font-size:14.78705025px"><tspan
     x="458.39853"
     y="18.978691"
     id="tspan4413"
     style="font-size:10.47416115px;font-family:Raleway">The</tspan><tspan
     x="477.04254"
     y="18.978691"
     id="tspan4415"
     style="font-size:10.47416115px;font-family:Raleway" /><tspan
     x="479.39862"
     y="18.978691"
     id="tspan4417"
     style="font-size:10.47416115px;font-family:Raleway">A</tspan><tspan
     x="485.94434"
     y="18.978691"
     id="tspan4419"
     style="font-size:10.47416115px;font-family:Raleway">VG </tspan><tspan
     x="503.27844"
     y="18.978691"
     id="tspan4421"
     style="font-size:10.47416115px;font-family:Raleway">o</tspan><tspan
     x="509.46805"
     y="18.978691"
     id="tspan4423"
     style="font-size:10.47416115px;font-family:Raleway">f</tspan><tspan
     x="512.91467"
     y="18.978691"
     id="tspan4425"
     style="font-size:10.47416115px;font-family:Raleway" /><tspan
     x="515.27081"
     y="18.978691"
     id="tspan4427"
     style="font-size:10.47416115px;font-family:Raleway">A</tspan><tspan
     x="522.37354"
     y="18.978691"
     id="tspan4429"
     style="font-size:10.47416115px;font-family:Raleway">l</tspan><tspan
     x="525.13873"
     y="18.978691"
     id="tspan4431"
     style="font-size:10.47416115px;font-family:Raleway">l</tspan><tspan
     x="527.62164"
     y="18.978691"
     id="tspan4433"
     style="font-size:10.47416115px;font-family:Raleway"> Observe</tspan><tspan
     x="571.29767"
     y="18.978691"
     id="tspan4435"
     style="font-size:10.47416115px;font-family:Raleway">r</tspan><tspan
     x="574.92175"
     y="18.978691"
     id="tspan4437"
     style="font-size:10.47416115px;font-family:Raleway">s </tspan></text>

<text
   x="458.39853"
   y="33.768204"
   transform="scale(1.0144011,0.98580335)"
   id="text4439"
   style="font-size:10.47416115px;font-family:Raleway">including Manager</text>

<g
   transform="matrix(1.25,0,0,1.2147603,-40.000032,-220.28949)"
   id="g4441"><defs
     id="defs4443"><rect
       width="562"
       height="428.65601"
       x="25"
       y="181.34399"
       id="SVGID_33_" /></defs><clipPath
     id="SVGID_34_"><use
       id="use4447"
       style="overflow:visible"
       x="0"
       y="0"
       width="675"
       height="520.71423"
       xlink:href="#SVGID_33_" /></clipPath><path
     d="m 405.5,181.844 c 0,0 -8,0 -8,8 l 0,18 c 0,0 0,8 8,8 l 102.74,0 c 0,0 8,0 8,-8 l 0,-18 c 0,0 0,-8 -8,-8 l -102.74,0 z"
     clip-path="url(#SVGID_34_)"
     id="path4449"
     style="fill:none;stroke:#007c92" /></g><line
   style="fill:none;stroke:#007c92;stroke-width:2.46450853"
   x1="302.5"
   y1="256.94006"
   x2="409.48874"
   y2="382.86212"
   id="line4451" /><polygon
   points="364,501.859 360.182,491.107 354.165,496.075 "
   transform="matrix(1.25,0,0,1.2147603,-40.000032,-220.28949)"
   id="polygon4453"
   style="fill:#007c92" /><g
   transform="matrix(1.25,0,0,1.2147603,-40.000032,-220.28949)"
   id="g4455"><defs
     id="defs4457"><rect
       width="562"
       height="428.65601"
       x="25"
       y="181.34399"
       id="SVGID_35_" /></defs><clipPath
     id="SVGID_36_"><use
       id="use4461"
       style="overflow:visible"
       x="0"
       y="0"
       width="675"
       height="520.71423"
       xlink:href="#SVGID_35_" /></clipPath><path
     d="m 250.885,357.533 c 0,0 -8,0 -8,8 l 0,43 c 0,0 0,8 8,8 l 87,0 c 0,0 8,0 8,-8 l 0,-43 c 0,0 0,-8 -8,-8 l -87,0 z"
     clip-path="url(#SVGID_36_)"
     id="path4463"
     style="fill:#ffffff" /></g><text
   x="267.87329"
   y="235.91385"
   transform="scale(1.0144011,0.98580335)"
   id="text4465"
   style="font-size:14.78705025px"><tspan
     x="267.87329"
     y="235.91385"
     id="tspan4467"
     style="font-size:9.85803413px;font-family:Raleway-Bold">Indicates the behavior</tspan></text>

<text
   x="267.87329"
   y="250.7009"
   transform="scale(1.0144011,0.98580335)"
   id="text4481"
   style="font-size:14.78705025px"><tspan
     x="267.87329"
     y="250.7009"
     id="tspan4483"
     style="font-size:9.85803413px;font-family:Raleway-Bold">is related to the </tspan></text>

<text
   x="267.87329"
   y="265.48795"
   transform="scale(1.0144011,0.98580335)"
   id="text4493"
   style="font-size:14.78705025px"><tspan
     x="267.87329"
     y="265.48795"
     id="tspan4495"
     style="font-size:9.85803413px;font-family:Raleway-Bold">Practice of Enable </tspan></text>

<text
   x="267.87329"
   y="280.27499"
   transform="scale(1.0144011,0.98580335)"
   id="text4511"
   style="font-size:14.78705025px"><tspan
     x="267.87329"
     y="280.27499"
     id="tspan4513"
     style="font-size:9.85803413px;font-family:Raleway-Bold">Others to Act</tspan></text>

<g
   transform="matrix(1.25,0,0,1.2147603,-40.000032,-220.28949)"
   id="g4527"><defs
     id="defs4529"><rect
       width="562"
       height="428.65601"
       x="25"
       y="181.34399"
       id="SVGID_37_" /></defs><clipPath
     id="SVGID_38_"><use
       id="use4533"
       style="overflow:visible"
       x="0"
       y="0"
       width="675"
       height="520.71423"
       xlink:href="#SVGID_37_" /></clipPath><path
     d="m 250.885,357.533 c 0,0 -8,0 -8,8 l 0,43 c 0,0 0,8 8,8 l 87,0 c 0,0 8,0 8,-8 l 0,-43 c 0,0 0,-8 -8,-8 l -87,0 z"
     clip-path="url(#SVGID_38_)"
     id="path4535"
     style="fill:none;stroke:#007c92" /></g><text
   x="579.11865"
   y="121.39603"
   transform="scale(1.0144011,0.98580335)"
   id="text4537"
   style="font-size:15.96459198px;font-family:Raleway">+</text>

</svg>