<?xml version="1.0" encoding="utf-8"?>
<!-- Generator: Adobe Illustrator 19.1.0, SVG Export Plug-In . SVG Version: 6.00 Build 0)  -->
<svg version="1.1" id="Layer_1" xmlns="http://www.w3.org/2000/svg" xmlns:xlink="http://www.w3.org/1999/xlink" x="0px" y="0px"
	 viewBox="124 -62 1171 689" style="enable-background:new 124 -62 1171 689;" xml:space="preserve">
<style type="text/css">
	.st0{fill:#313130;}
</style>
<path class="st0" d="M250,345V107.8h252V256H309.3v-29.7h163.1v-89H279.7V345H250z M992.6-32.3L730.7,227l241.5,240.9h-44.4
	L708.5,249.2l-96.4,96.4h-44.5L686.3,227L567,107.7h44.5l97,97L948.2-32.3H154.9v500.2h772.8h44.4h293.2V-32.3H992.6z M125.3-62
	H1295v559.5H125.3V-62z M1062.4,345V137.4H1181v-29.7H914.2v29.7h118.6V345H1062.4z M1247.9,600.8c8.5,0,14.5-6.3,14.5-15
	c0-8.8-6.1-15.2-14.5-15.2c-8.6,0-14.6,6.4-14.6,15.2C1233.3,594.5,1239.3,600.8,1247.9,600.8 M1268.4,605.8h-6v-8.6
	c-3,5.7-8.5,8.9-15.7,8.9c-11.5,0-19.4-8.5-19.4-20.5c0-12.1,7.9-20.4,19.4-20.4c7.2,0,12.8,3.3,15.8,9v-25.2h6V605.8z
	 M1202.8,565.3c9.6,0,15.3,6,15.3,15.7v24.9h-6v-23.3c0-7.1-4.3-11.3-11.4-11.3c-8,0.1-12.9,5.3-13.5,12.9v21.6h-6v-40.3h6v8.9
	C1190,568.3,1195.4,565.4,1202.8,565.3 M1148.5,601c6.8,0,12-3.4,13.6-9v-4.8h-12.6c-6.7,0-10.3,2.1-10.3,6.5
	C1139.2,598.1,1142.8,601,1148.5,601 M1162.1,599.7c-3.2,4.4-8.3,6.5-14.8,6.5c-8.3,0-13.7-5.4-13.7-12.3c0-7,5.6-11.5,15.1-11.5
	h13.2v-2.4c0-5.9-3.7-9.4-10.8-9.4c-4.4,0-8.6,1.7-12.8,4.6l-2.5-4.4c5.2-3.4,9.6-5.4,16.5-5.4c10,0,15.5,5.3,15.5,13.9l0.1,26.6
	h-5.8V599.7z M1116.5,574.5c2.7-5.9,7.7-9.1,14.5-9.2v6c-8.5-0.1-13.8,5.1-14.5,13.1v21.4h-6v-40.3h6V574.5z M1062.7,600h16.2
	c8.7,0,13.8-3.4,13.8-9.6c0-5.8-5.1-9.3-13.8-9.3h-16.2V600z M1062.7,575.4h16.2c7.2,0,11.4-3.1,11.4-8.7c0-5.4-4.2-8.5-11.4-8.5
	h-16.2V575.4z M1079.1,552.3c10.8,0,17.3,5,17.3,13.4c0,6.3-3.6,10.8-9.9,12.1c7.7,1.1,12.2,6.2,12.2,13.5c0,9.1-7.2,14.5-19.3,14.5
	h-23v-53.5H1079.1z M1009.2,611.6c-2.5,6.2-6.7,9.4-12.1,9.4c-3.4,0-6-1-8.5-3l2.5-5c1.8,1.3,3.7,1.9,5.7,1.9c3.1,0,5.7-1.9,7.3-5.7
	l1.7-3.7l-16.7-40h6.3l13.4,33.3l12.8-33.3h6.1L1009.2,611.6z M982.1,583.1c-0.4-7.7-5.6-12.6-13.5-12.6c-7.7,0-13.2,5-14.1,12.6
	H982.1z M968.6,565.4c13-0.1,19.4,8.9,18.8,22.6h-32.9c1.1,7.9,6.8,12.9,14.6,12.9c5,0,9.3-1.8,12.5-5.1l3.3,3.5
	c-3.8,4.3-9.5,6.7-16.2,6.7c-11.9,0-20-8.3-20-20.3C948.6,573.7,956.9,565.4,968.6,565.4 M931.8,549.1h6v56.8h-6V549.1z
	 M916.9,605.8H911v-40.3h5.9V605.8z M913.9,549.9c2.2,0,3.9,1.8,3.9,4.1c0,2.4-1.7,4.1-3.9,4.1c-2.2,0-3.9-1.7-3.9-4.1
	C910,551.6,911.7,549.9,913.9,549.9 M879.9,605.8l-14.5-45.1l-14.6,45.1h-6.3l-17.9-53.5h6.6l14.7,46.4l14.5-46.4l6.1-0.1l14.7,46.4
	l14.5-46.4h6.4l-18,53.5H879.9z M776.8,559.3l-11.9,27.2h24L776.8,559.3z M762.3,592.3l-6,13.5h-6.5l24-53.5h6.4l23.9,53.5h-6.7
	l-6-13.5H762.3z"/>
</svg>
