<?xml version="1.0" encoding="UTF-8" standalone="no"?>
<!-- Generator: Adobe Illustrator 18.0.0, SVG Export Plug-In . SVG Version: 6.00 Build 0)  -->

<svg
   xmlns:dc="http://purl.org/dc/elements/1.1/"
   xmlns:cc="http://creativecommons.org/ns#"
   xmlns:rdf="http://www.w3.org/1999/02/22-rdf-syntax-ns#"
   xmlns:svg="http://www.w3.org/2000/svg"
   xmlns="http://www.w3.org/2000/svg"
   xmlns:xlink="http://www.w3.org/1999/xlink"
   xmlns:sodipodi="http://sodipodi.sourceforge.net/DTD/sodipodi-0.dtd"
   xmlns:inkscape="http://www.inkscape.org/namespaces/inkscape"
   version="1.1"
   id="Layer_1"
   x="0px"
   y="0px"
   viewBox="0 0 684.00006 428.12967"
   xml:space="preserve"
   inkscape:version="0.91 r13725"
   sodipodi:docname="LPIcover1.svg"
   width="684.00006"
   height="428.12967"><metadata
     id="metadata3497"><rdf:RDF><cc:Work
         rdf:about=""><dc:format>image/svg+xml</dc:format><dc:type
           rdf:resource="http://purl.org/dc/dcmitype/StillImage" /><dc:title></dc:title></cc:Work></rdf:RDF></metadata><defs
     id="defs3495"><clipPath
       id="SVGID_4_"><use
         xlink:href="#SVGID_3_"
         style="overflow:visible"
         id="use3365"
         x="0"
         y="0"
         width="100%"
         height="100%" /></clipPath><clipPath
       id="clipPath3509"><use
         xlink:href="#SVGID_3_"
         style="overflow:visible"
         id="use3511"
         x="0"
         y="0"
         width="100%"
         height="100%" /></clipPath><clipPath
       id="clipPath3513"><use
         xlink:href="#SVGID_3_"
         style="overflow:visible"
         id="use3515"
         x="0"
         y="0"
         width="100%"
         height="100%" /></clipPath><clipPath
       id="clipPath3517"><use
         xlink:href="#SVGID_3_"
         style="overflow:visible"
         id="use3519"
         x="0"
         y="0"
         width="100%"
         height="100%" /></clipPath><clipPath
       id="clipPath3521"><use
         xlink:href="#SVGID_3_"
         style="overflow:visible"
         id="use3523"
         x="0"
         y="0"
         width="100%"
         height="100%" /></clipPath><clipPath
       id="clipPath3525"><use
         xlink:href="#SVGID_3_"
         style="overflow:visible"
         id="use3527"
         x="0"
         y="0"
         width="100%"
         height="100%" /></clipPath><clipPath
       id="clipPath3529"><use
         xlink:href="#SVGID_3_"
         style="overflow:visible"
         id="use3531"
         x="0"
         y="0"
         width="100%"
         height="100%" /></clipPath><clipPath
       id="clipPath3533"><use
         xlink:href="#SVGID_3_"
         style="overflow:visible"
         id="use3535"
         x="0"
         y="0"
         width="100%"
         height="100%" /></clipPath><clipPath
       id="clipPath3537"><use
         xlink:href="#SVGID_3_"
         style="overflow:visible"
         id="use3539"
         x="0"
         y="0"
         width="100%"
         height="100%" /></clipPath><clipPath
       id="clipPath3541"><use
         xlink:href="#SVGID_3_"
         style="overflow:visible"
         id="use3543"
         x="0"
         y="0"
         width="100%"
         height="100%" /></clipPath><clipPath
       id="clipPath3545"><use
         xlink:href="#SVGID_3_"
         style="overflow:visible"
         id="use3547"
         x="0"
         y="0"
         width="100%"
         height="100%" /></clipPath><clipPath
       id="clipPath3549"><use
         xlink:href="#SVGID_3_"
         style="overflow:visible"
         id="use3551"
         x="0"
         y="0"
         width="100%"
         height="100%" /></clipPath><clipPath
       id="clipPath3553"><use
         xlink:href="#SVGID_3_"
         style="overflow:visible"
         id="use3555"
         x="0"
         y="0"
         width="100%"
         height="100%" /></clipPath><clipPath
       id="clipPath3557"><use
         xlink:href="#SVGID_3_"
         style="overflow:visible"
         id="use3559"
         x="0"
         y="0"
         width="100%"
         height="100%" /></clipPath><clipPath
       id="clipPath3561"><use
         xlink:href="#SVGID_3_"
         style="overflow:visible"
         id="use3563"
         x="0"
         y="0"
         width="100%"
         height="100%" /></clipPath><clipPath
       id="clipPath3565"><use
         xlink:href="#SVGID_3_"
         style="overflow:visible"
         id="use3567"
         x="0"
         y="0"
         width="100%"
         height="100%" /></clipPath><clipPath
       id="clipPath3569"><use
         xlink:href="#SVGID_3_"
         style="overflow:visible"
         id="use3571"
         x="0"
         y="0"
         width="100%"
         height="100%" /></clipPath><clipPath
       id="clipPath3573"><use
         xlink:href="#SVGID_3_"
         style="overflow:visible"
         id="use3575"
         x="0"
         y="0"
         width="100%"
         height="100%" /></clipPath><clipPath
       id="clipPath3577"><use
         xlink:href="#SVGID_3_"
         style="overflow:visible"
         id="use3579"
         x="0"
         y="0"
         width="100%"
         height="100%" /></clipPath><clipPath
       id="clipPath3581"><use
         xlink:href="#SVGID_3_"
         style="overflow:visible"
         id="use3583"
         x="0"
         y="0"
         width="100%"
         height="100%" /></clipPath><clipPath
       id="clipPath3585"><use
         xlink:href="#SVGID_3_"
         style="overflow:visible"
         id="use3587"
         x="0"
         y="0"
         width="100%"
         height="100%" /></clipPath><clipPath
       id="clipPath3589"><use
         xlink:href="#SVGID_3_"
         style="overflow:visible"
         id="use3591"
         x="0"
         y="0"
         width="100%"
         height="100%" /></clipPath><clipPath
       id="clipPath3593"><use
         xlink:href="#SVGID_3_"
         style="overflow:visible"
         id="use3595"
         x="0"
         y="0"
         width="100%"
         height="100%" /></clipPath><clipPath
       id="clipPath3597"><use
         xlink:href="#SVGID_3_"
         style="overflow:visible"
         id="use3599"
         x="0"
         y="0"
         width="100%"
         height="100%" /></clipPath><clipPath
       id="clipPath3601"><use
         xlink:href="#SVGID_3_"
         style="overflow:visible"
         id="use3603"
         x="0"
         y="0"
         width="100%"
         height="100%" /></clipPath><clipPath
       id="clipPath3605"><use
         xlink:href="#SVGID_3_"
         style="overflow:visible"
         id="use3607"
         x="0"
         y="0"
         width="100%"
         height="100%" /></clipPath><clipPath
       id="clipPath3609"><use
         xlink:href="#SVGID_3_"
         style="overflow:visible"
         id="use3611"
         x="0"
         y="0"
         width="100%"
         height="100%" /></clipPath><clipPath
       id="clipPath3613"><use
         xlink:href="#SVGID_3_"
         style="overflow:visible"
         id="use3615"
         x="0"
         y="0"
         width="100%"
         height="100%" /></clipPath><clipPath
       id="clipPath3617"><use
         xlink:href="#SVGID_3_"
         style="overflow:visible"
         id="use3619"
         x="0"
         y="0"
         width="100%"
         height="100%" /></clipPath><clipPath
       id="clipPath3621"><use
         xlink:href="#SVGID_3_"
         style="overflow:visible"
         id="use3623"
         x="0"
         y="0"
         width="100%"
         height="100%" /></clipPath><clipPath
       id="clipPath3625"><use
         xlink:href="#SVGID_3_"
         style="overflow:visible"
         id="use3627"
         x="0"
         y="0"
         width="100%"
         height="100%" /></clipPath><clipPath
       id="clipPath3629"><use
         xlink:href="#SVGID_3_"
         style="overflow:visible"
         id="use3631"
         x="0"
         y="0"
         width="100%"
         height="100%" /></clipPath><clipPath
       id="clipPath3633"><use
         xlink:href="#SVGID_3_"
         style="overflow:visible"
         id="use3635"
         x="0"
         y="0"
         width="100%"
         height="100%" /></clipPath><clipPath
       id="clipPath3637"><use
         xlink:href="#SVGID_3_"
         style="overflow:visible"
         id="use3639"
         x="0"
         y="0"
         width="100%"
         height="100%" /></clipPath><clipPath
       id="clipPath3641"><use
         xlink:href="#SVGID_3_"
         style="overflow:visible"
         id="use3643"
         x="0"
         y="0"
         width="100%"
         height="100%" /></clipPath><clipPath
       id="clipPath3645"><use
         xlink:href="#SVGID_3_"
         style="overflow:visible"
         id="use3647"
         x="0"
         y="0"
         width="100%"
         height="100%" /></clipPath><clipPath
       id="clipPath3649"><use
         xlink:href="#SVGID_3_"
         style="overflow:visible"
         id="use3651"
         x="0"
         y="0"
         width="100%"
         height="100%" /></clipPath><clipPath
       id="clipPath3653"><use
         xlink:href="#SVGID_3_"
         style="overflow:visible"
         id="use3655"
         x="0"
         y="0"
         width="100%"
         height="100%" /></clipPath><clipPath
       id="clipPath3657"><use
         xlink:href="#SVGID_3_"
         style="overflow:visible"
         id="use3659"
         x="0"
         y="0"
         width="100%"
         height="100%" /></clipPath><clipPath
       id="clipPath3661"><use
         xlink:href="#SVGID_3_"
         style="overflow:visible"
         id="use3663"
         x="0"
         y="0"
         width="100%"
         height="100%" /></clipPath><clipPath
       id="clipPath3665"><use
         xlink:href="#SVGID_3_"
         style="overflow:visible"
         id="use3667"
         x="0"
         y="0"
         width="100%"
         height="100%" /></clipPath><clipPath
       id="clipPath3669"><use
         xlink:href="#SVGID_3_"
         style="overflow:visible"
         id="use3671"
         x="0"
         y="0"
         width="100%"
         height="100%" /></clipPath><clipPath
       id="clipPath3673"><use
         xlink:href="#SVGID_3_"
         style="overflow:visible"
         id="use3675"
         x="0"
         y="0"
         width="100%"
         height="100%" /></clipPath><clipPath
       id="clipPath3677"><use
         xlink:href="#SVGID_3_"
         style="overflow:visible"
         id="use3679"
         x="0"
         y="0"
         width="100%"
         height="100%" /></clipPath><clipPath
       id="clipPath3681"><use
         xlink:href="#SVGID_3_"
         style="overflow:visible"
         id="use3683"
         x="0"
         y="0"
         width="100%"
         height="100%" /></clipPath><clipPath
       id="clipPath3685"><use
         xlink:href="#SVGID_3_"
         style="overflow:visible"
         id="use3687"
         x="0"
         y="0"
         width="100%"
         height="100%" /></clipPath><clipPath
       id="clipPath3689"><use
         xlink:href="#SVGID_3_"
         style="overflow:visible"
         id="use3691"
         x="0"
         y="0"
         width="100%"
         height="100%" /></clipPath><clipPath
       id="clipPath3693"><use
         xlink:href="#SVGID_3_"
         style="overflow:visible"
         id="use3695"
         x="0"
         y="0"
         width="100%"
         height="100%" /></clipPath><clipPath
       id="clipPath3697"><use
         xlink:href="#SVGID_3_"
         style="overflow:visible"
         id="use3699"
         x="0"
         y="0"
         width="100%"
         height="100%" /></clipPath><clipPath
       id="clipPath3701"><use
         xlink:href="#SVGID_3_"
         style="overflow:visible"
         id="use3703"
         x="0"
         y="0"
         width="100%"
         height="100%" /></clipPath><clipPath
       id="clipPath3705"><use
         xlink:href="#SVGID_3_"
         style="overflow:visible"
         id="use3707"
         x="0"
         y="0"
         width="100%"
         height="100%" /></clipPath><clipPath
       id="clipPath3709"><use
         xlink:href="#SVGID_3_"
         style="overflow:visible"
         id="use3711"
         x="0"
         y="0"
         width="100%"
         height="100%" /></clipPath><clipPath
       id="clipPath3713"><use
         xlink:href="#SVGID_3_"
         style="overflow:visible"
         id="use3715"
         x="0"
         y="0"
         width="100%"
         height="100%" /></clipPath><clipPath
       id="clipPath3717"><use
         xlink:href="#SVGID_3_"
         style="overflow:visible"
         id="use3719"
         x="0"
         y="0"
         width="100%"
         height="100%" /></clipPath><clipPath
       id="clipPath3721"><use
         xlink:href="#SVGID_3_"
         style="overflow:visible"
         id="use3723"
         x="0"
         y="0"
         width="100%"
         height="100%" /></clipPath><clipPath
       id="clipPath3725"><use
         xlink:href="#SVGID_3_"
         style="overflow:visible"
         id="use3727"
         x="0"
         y="0"
         width="100%"
         height="100%" /></clipPath><clipPath
       id="clipPath3729"><use
         xlink:href="#SVGID_3_"
         style="overflow:visible"
         id="use3731"
         x="0"
         y="0"
         width="100%"
         height="100%" /></clipPath><clipPath
       id="clipPath3733"><use
         xlink:href="#SVGID_3_"
         style="overflow:visible"
         id="use3735"
         x="0"
         y="0"
         width="100%"
         height="100%" /></clipPath><clipPath
       id="clipPath3737"><use
         xlink:href="#SVGID_3_"
         style="overflow:visible"
         id="use3739"
         x="0"
         y="0"
         width="100%"
         height="100%" /></clipPath><clipPath
       id="SVGID_2_"><use
         xlink:href="#SVGID_1_"
         style="overflow:visible"
         id="use3345"
         x="0"
         y="0"
         width="100%"
         height="100%" /></clipPath><clipPath
       id="clipPath3743"><use
         xlink:href="#SVGID_1_"
         style="overflow:visible"
         id="use3745"
         x="0"
         y="0"
         width="100%"
         height="100%" /></clipPath></defs><sodipodi:namedview
     pagecolor="#ffffff"
     bordercolor="#666666"
     borderopacity="1"
     objecttolerance="10"
     gridtolerance="10"
     guidetolerance="10"
     inkscape:pageopacity="0"
     inkscape:pageshadow="2"
     inkscape:window-width="1680"
     inkscape:window-height="1031"
     id="namedview3493"
     showgrid="false"
     fit-margin-top="0"
     fit-margin-left="0"
     fit-margin-right="0"
     fit-margin-bottom="0"
     inkscape:showpageshadow="false"
     showborder="true"
     inkscape:zoom="0.96014009"
     inkscape:cx="440.1429"
     inkscape:cy="272.59677"
     inkscape:window-x="-4"
     inkscape:window-y="-4"
     inkscape:window-maximized="1"
     inkscape:current-layer="Layer_1" /><g
     id="g3339"
     transform="matrix(1.0401318,0,0,1.0401318,-52.00659,-101.2974)"><defs
       id="defs3341"><rect
         id="SVGID_1_"
         x="50"
         y="93.629997"
         width="695.91901"
         height="415.37" /></defs><clipPath
       id="clipPath3750"><use
         xlink:href="#SVGID_1_"
         style="overflow:visible"
         id="use3752"
         x="0"
         y="0"
         width="100%"
         height="100%" /></clipPath><path
       style="fill:#667a91"
       d="m 46.765,285.179 73.434,23.15 0.073,-0.045 c 0,0 11.867,-8.592 27.371,-5.46 14.778,2.984 22.713,13.758 22.713,13.758 0,0 17.107,-18.854 47.027,-24.75 l 3.64,-53.652 c 0,0 -4.513,-5.897 -4.804,-7.207 -0.291,-1.31 -0.874,-10.483 1.456,-14.632 0,0 2.184,-2.403 4.586,-3.422 l 0.364,-4.149 c 0,0 1.674,-2.402 2.766,-2.766 l -180.567,23.534 1.941,55.641 z"
       id="path3347"
       clip-path="url(#SVGID_2_)"
       inkscape:connector-curvature="0" /><path
       style="fill:#002147"
       d="m 372.993,386.263 20.3,1.636 -17.09,-8.18 -3.21,6.544 z m 80.816,-1.276 23.421,-0.886 -21.522,-5.317 -1.899,6.203 z m 50.513,-1.52 55.071,2.786 -55.071,-9.874 0,7.088 z m 108.368,-2.527 10.001,-2.789 -9.875,-1.266 -0.126,4.055 z m 28.642,5.939 17.288,-3.695 -16.475,-0.965 -0.813,4.66 z m 1.108,-7.336 21.063,1.265 -20.193,-6.467 -0.87,5.202 z m -325.816,11.966 3.886,-4.038 56.291,-10.206 21.174,7.596 7.48,-3.04 15.087,4.938 33.219,-11.394 27.514,6.583 21.807,-9.115 80.509,15.065 27.894,-12.66 15.341,0.633 15.468,-4.937 38.669,9.748 26.416,-6.44 0,32.663 c -3.421,0.798 -21.098,4.391 -31.487,-3.816 0,0 -21.553,13.293 -45.644,-0.886 0,0 -14.2,12.914 -40.698,0.886 0,0 -22.188,13.8 -47.292,-1.138 0,0 -14.835,12.786 -44.122,0.252 0,0 -18.384,13.421 -45.136,0.001 0,0 -18.131,12.913 -49.829,-0.633 0,0 -16.186,11.485 -53.081,4.902 0,0 12.286,7.617 30.894,24.216 l -8.114,2.026 c 0,0 -28.473,-25.367 -56.246,-41.206"
       id="path3349"
       clip-path="url(#SVGID_2_)"
       inkscape:connector-curvature="0" /></g><polygon
     style="fill:#002147"
     points="259.169,200.544 357.591,193.046 259.096,197.487 "
     id="polygon3351"
     transform="matrix(1.0401318,0,0,1.0401318,-52.00659,-101.2974)" /><polygon
     style="fill:#002147"
     points="259.242,204.839 358.829,208.261 259.315,202 "
     id="polygon3353"
     transform="matrix(1.0401318,0,0,1.0401318,-52.00659,-101.2974)" /><polygon
     style="fill:#002147"
     points="130.9,189.043 225.464,199.233 225.391,196.467 "
     id="polygon3355"
     transform="matrix(1.0401318,0,0,1.0401318,-52.00659,-101.2974)" /><polygon
     style="fill:#002147"
     points="124.349,206.659 225.246,203.601 225.246,200.544 "
     id="polygon3357"
     transform="matrix(1.0401318,0,0,1.0401318,-52.00659,-101.2974)" /><g
     id="g3359"
     transform="matrix(1.0401318,0,0,1.0401318,-52.00659,-101.2974)"><defs
       id="defs3361"><rect
         id="SVGID_3_"
         x="50"
         y="93.629997"
         width="695.91901"
         height="415.37" /></defs><clipPath
       id="clipPath3763"><use
         xlink:href="#SVGID_3_"
         style="overflow:visible"
         id="use3765"
         x="0"
         y="0"
         width="100%"
         height="100%" /></clipPath><path
       style="fill:#667a91"
       d="m 323.376,306.828 c 0,0 8.227,1.237 10.41,4.95 0,0 1.748,-6.333 8.008,-9.828 0,0 -5.387,0 -9.1,4.878 0,0 -5.168,-2.184 -9.318,0 m 32.905,9.682 c 0,0 7.134,4.513 8.008,10.337 0,0 2.038,-4.586 13.54,-5.897 0,0 -5.314,-3.275 -12.303,0.364 0,0 -2.475,-5.241 -9.245,-4.804 m -97.386,-110.001 448.484,71.156 0,72.111 c -4.914,-2.109 -17.858,-5.989 -31.489,3.856 0,0 -4.612,-14.331 -18.432,-18.127 -15.005,-4.12 -24.942,5.97 -24.942,5.97 0,0 -17.805,-32.844 -62.129,-32.004 -31.238,0.592 -46.271,17.808 -58.925,32.295 0,0 -19.735,-8.254 -42.277,-3.786 -22.204,4.402 -34.524,19.583 -35.256,20.238 0,0 -14.415,-16.789 -40.278,-19.057 -21.86,-1.916 -38.644,7.992 -40.034,9.302 0,0 -3.365,-17.69 -24.942,-10.701 0,0 -9.603,-16.807 -26.771,-28.755 -18.854,-13.12 -35.182,-16.233 -35.182,-16.233 l -2.999,-54.671 c 0,0 4.681,-3.13 5.413,-6.989 0.731,-3.858 -1.39,-13.613 -1.683,-14.268 -0.292,-0.655 -2.121,-2.839 -5.558,-3.494 0,0 0.438,-3.567 -0.367,-4.732 -0.804,-1.165 -2.633,-2.111 -2.633,-2.111"
       id="path3367"
       clip-path="url(#SVGID_4_)"
       inkscape:connector-curvature="0" /><path
       style="fill:#002147"
       d="m 244.537,185.378 -0.454,-4.678 c 0,0 -0.06,-1.35 -1.293,-1.388 -0.782,-0.025 -1.611,0.03 -1.708,1.388 -0.097,1.359 -0.476,4.872 -0.476,4.872 0,0 -8.347,0.194 -11.308,5.872 0,0 -0.534,0.923 -0.631,2.524 -0.096,1.602 -0.242,13.686 -0.242,13.686 l 2.378,-0.582 0.048,-9.998 c 0,0 2.087,0.777 5.436,1.068 l -0.291,7.619 2.572,-0.242 0.194,-6.989 c 0,0 4.901,0.291 8.105,-0.194 l 0.291,7.134 2.524,0.485 -0.437,-7.765 c 0,0 2.038,-0.194 4.999,-1.359 l 0.582,10.677 1.99,1.068 -0.486,-15.627 c 0,0 -0.145,-1.553 -1.358,-2.475 -0.822,-0.625 -2.718,-3.591 -10.435,-5.096"
       id="path3369"
       clip-path="url(#SVGID_4_)"
       inkscape:connector-curvature="0" /><path
       style="fill:#ffffff"
       d="m 230.56,191.936 c 0.4,-0.309 3.804,-3.949 11.884,-3.876 7.355,0.066 9.937,2.62 9.937,2.62 0,0 0.382,0.273 0.146,0.819 0,0 -0.474,0.492 -1.402,-0.218 -0.798,-0.611 -4.859,-2.039 -9.318,-2.002 -4.204,0.034 -7.516,1.092 -10.028,3.258 0,0 -0.858,0.674 -1.31,0.309 -0.473,-0.382 0.091,-0.91 0.091,-0.91"
       id="path3371"
       clip-path="url(#SVGID_4_)"
       inkscape:connector-curvature="0" /><path
       style="fill:#002147"
       d="m 163.489,415.175 c 0,0 17.277,-10.288 22.907,-20.674 0,0 -3.592,11.647 -12.619,18.247 l -10.288,2.427 z"
       id="path3373"
       clip-path="url(#SVGID_4_)"
       inkscape:connector-curvature="0" /><path
       style="fill:#002147"
       d="m 180.184,411.099 c 0,0 8.736,-7.281 14.851,-16.21 0,0 -3.106,11.939 -8.736,15.724 l -6.115,0.486 z"
       id="path3375"
       clip-path="url(#SVGID_4_)"
       inkscape:connector-curvature="0" /><path
       style="fill:#002147"
       d="m 192.705,409.157 c 0,0 9.318,-8.639 11.356,-13.88 0,0 -0.775,9.414 -5.532,13.006 l -5.824,0.874 z"
       id="path3377"
       clip-path="url(#SVGID_4_)"
       inkscape:connector-curvature="0" /><path
       style="fill:#002147"
       d="m 205.421,406.536 4.465,0.193 c 0,0 2.815,-3.784 2.427,-7.958 0,0 -2.524,5.823 -6.892,7.765"
       id="path3379"
       clip-path="url(#SVGID_4_)"
       inkscape:connector-curvature="0" /><path
       style="fill:#002147"
       d="m 660.705,419.67 c -2.389,-0.459 -22.241,-1.654 -39.151,5.699 -9.194,3.997 -23.644,9.209 -26.444,10.211 7.662,-0.058 22.604,-4.236 29.845,-7.454 12.407,-5.515 35.75,-8.456 35.75,-8.456"
       id="path3381"
       clip-path="url(#SVGID_4_)"
       inkscape:connector-curvature="0" /><path
       style="fill:#002147"
       d="m 627.22,429.393 c -8.315,3.615 -21.384,8.329 -23.92,9.237 6.931,-0.053 20.446,-3.832 26.996,-6.744 11.223,-4.987 32.339,-7.648 32.339,-7.648 -2.161,-0.415 -20.118,-1.496 -35.415,5.155"
       id="path3383"
       clip-path="url(#SVGID_4_)"
       inkscape:connector-curvature="0" /><path
       style="fill:#002147"
       d="m 611.261,440.442 c 0,0 16.726,-2.849 23.252,-6.341 6.524,-3.494 18.38,-6.343 27.847,-5.332 0,0 -14.338,3.309 -22.885,6.802 -6.173,2.522 -17.737,6.525 -28.214,4.871"
       id="path3385"
       clip-path="url(#SVGID_4_)"
       inkscape:connector-curvature="0" /><path
       style="fill:#002147"
       d="m 607.899,448.903 c -2.144,0.237 -6.196,0.456 -13.825,0.362 -14.888,-0.183 -18.013,-5.33 -18.013,-5.33 0.541,10.346 24.302,6.486 31.886,4.988 -0.016,-0.007 -0.033,-0.013 -0.048,-0.02"
       id="path3387"
       clip-path="url(#SVGID_4_)"
       inkscape:connector-curvature="0" /><path
       style="fill:#002147"
       d="m 572.568,443.75 c 0,0 -0.46,17.094 48.144,5.009 0.187,-0.046 0.376,-0.092 0.566,-0.138 0,0 -12.576,5.445 -29.869,7.077 -7.72,0.729 -21.598,-1.47 -18.841,-11.948"
       id="path3389"
       clip-path="url(#SVGID_4_)"
       inkscape:connector-curvature="0" /><path
       style="fill:#002147"
       d="m 433.516,438.605 c 0,0 11.672,5.513 28.215,1.746 16.543,-3.768 40.99,-10.937 42.461,-10.937 0,0 -17.601,6.346 -29.043,10.845 -10.753,4.228 -36.394,7.904 -41.633,-1.654"
       id="path3391"
       clip-path="url(#SVGID_4_)"
       inkscape:connector-curvature="0" /><path
       style="fill:#002147"
       d="m 431.494,444.302 c 0,0 16.451,6.71 38.785,0.919 22.332,-5.79 35.199,-11.212 35.199,-11.212 0,0 -29.486,16.726 -52.754,16.726 -11.856,0 -16.726,-1.746 -21.23,-6.433"
       id="path3393"
       clip-path="url(#SVGID_4_)"
       inkscape:connector-curvature="0" /><path
       style="fill:#667a91"
       d="m 707.379,97.389 -81.211,0 c -4.516,1.987 -17.655,8.061 -24.341,14.269 0,0 -25.222,-9.67 -60.277,-5.532 -32.686,3.858 -57.946,17.762 -82.989,40.475 0,0 -18.709,-15.36 -48.919,-13.686 -30.917,1.713 -49.503,20.674 -49.503,20.674 0,0 -4.804,-9.827 -20.529,-11.72 -12.644,-1.522 -21.548,5.314 -21.548,5.314 0,0 -20.548,-32.834 -59.985,-35.743 -42.44,-3.13 -64.207,27.881 -64.207,27.881 0,0 -8.736,-4.95 -19.801,-4.076 -11.065,0.873 -21.839,12.229 -21.839,12.229 0,0 -6.769,-8.465 -14.851,-10.774 -8.174,-2.335 -15.648,-1.434 -17.18,-1.209 l -74.081,28.053 180.074,31.394 0.655,0.146 -0.072,-4.149 c 0,0 4.036,-6.198 12.116,-7.144 l 0.405,-4.067 c 0,0 0.437,-2.138 2.984,-2.184 2.823,-0.051 3.567,1.529 3.567,2.038 0,0.51 0.487,4.273 0.487,4.273 0,0 7.521,1.187 11.743,7.375 l 0.146,4.513 448.723,-45.061 0.433,-0.024 0,-53.265 z"
       id="path3395"
       clip-path="url(#SVGID_4_)"
       inkscape:connector-curvature="0" /><path
       style="fill:#002147"
       d="m 267.929,354.996 -2.523,0.679 -0.195,12.035 c 0,0 -4.271,0.681 -6.989,0.681 l -0.067,-8.385 c 0,0 -0.265,-3.419 -3.564,-3.515 -3.3,-0.097 -3.163,3.552 -3.163,3.552 l 0.097,8.444 c 0,0 -6.402,0.898 -13.099,0.212 -8.107,-0.829 -15.534,-4.385 -17.96,-8.947 l -2.136,-0.874 0.971,-18.441 c 0,0 -3.106,-2.137 -9.318,-1.748 -6.213,0.388 -11.163,5.726 -11.163,5.726 0,0 -4.658,-1.746 -10.289,-0.388 -5.629,1.36 -7.376,4.272 -7.376,4.272 0,0 -4.602,-0.795 -7.435,-0.259 -3.26,0.618 -4.698,1.909 -4.698,1.909 0,0 -12.522,-10.289 -17.666,-10.872 -5.144,-0.582 -8.445,0.098 -8.445,0.098 0,0 -4.077,-3.01 -10.191,-3.106 -6.115,-0.098 -12.522,5.434 -12.522,5.434 l 0,24.755 0.098,-0.003 c 0,0 46.493,-11.551 85.221,-6.407 l 0.098,0.777 c 0,0 -28.44,3.009 -41.349,13.783 0,0 27.745,-9.813 47.546,-10.104 0,0 -34.346,4.571 -46.09,16.801 0,0 25.721,-12.169 48.336,-13.431 0,0 -22.561,3.32 -41.056,15.955 0,0 32.251,-12.829 45.452,-12.732 0,0 -25.555,6.229 -36.62,16.712 0,0 23.974,-11.842 43.873,-13.201 0,0 -22.519,6.503 -31.352,12.812 0,0 23.198,-9.511 50.57,-11.258 0,0 25.236,-1.942 35.234,0.873 9.998,2.814 22.486,5.979 38.049,15.627 l 3.397,-4.659 c 0,0 -10.948,-9.471 -33.854,-15.295 0,0 -8.449,-12.989 -19.822,-17.512"
       id="path3397"
       clip-path="url(#SVGID_4_)"
       inkscape:connector-curvature="0" /><path
       style="fill:#002147"
       d="m 120.199,416.47 c 2.729,-4.604 13.656,-24.534 9.729,-42.352 0,0 -1.195,17.527 -9.729,31.163 l 0,11.189 z"
       id="path3399"
       clip-path="url(#SVGID_4_)"
       inkscape:connector-curvature="0" /><path
       style="fill:#002147"
       d="m 149.86,415.077 c 0,0 14.244,-14.303 16.879,-26.563 0,0 -15.513,22.379 -27.221,27.828 0,0 14.829,-15.18 14.927,-34.639 0,0 -3.317,18.001 -28.683,41.255 0,0 21.952,-33.178 15.512,-47.967 0,0 1.733,12.605 -21.075,45.269 l 0,14.984 c 1.121,-0.831 13.125,-9.515 36.783,-18.026 0,0 16.196,-11.676 19.707,-24.519 0,0 -15.609,17.804 -26.829,22.378"
       id="path3401"
       clip-path="url(#SVGID_4_)"
       inkscape:connector-curvature="0" /><path
       style="fill:#002147"
       d="m 120.199,502.832 c 8.575,-8.882 27.757,-16.303 27.757,-16.303 -17.395,1.145 -25.491,7.217 -27.757,9.264 l 0,7.039 z"
       id="path3403"
       clip-path="url(#SVGID_4_)"
       inkscape:connector-curvature="0" /><path
       style="fill:#002147"
       d="m 120.199,509.216 0,6.642 0.493,0 c 23.336,-21.374 42.01,-28.205 42.01,-28.205 -12.55,-0.878 -38.513,18.519 -42.503,21.563"
       id="path3405"
       clip-path="url(#SVGID_4_)"
       inkscape:connector-curvature="0" /><path
       style="fill:#002147"
       d="m 127.632,515.967 6.826,0.171 c 0,0 21.162,-20.223 41.898,-26.538 0,0 -18.346,-2.219 -48.724,26.367"
       id="path3407"
       clip-path="url(#SVGID_4_)"
       inkscape:connector-curvature="0" /><path
       style="fill:#002147"
       d="m 140.005,515.969 7.679,0.085 c 19.456,-15.359 41.984,-23.892 41.984,-23.892 -21.163,0.768 -49.663,23.807 -49.663,23.807"
       id="path3409"
       clip-path="url(#SVGID_4_)"
       inkscape:connector-curvature="0" /><path
       style="fill:#002147"
       d="m 155.28,515.969 9.386,0 c 10.41,-9.558 32.341,-18.431 32.341,-18.431 -22.698,3.413 -41.727,18.431 -41.727,18.431"
       id="path3411"
       clip-path="url(#SVGID_4_)"
       inkscape:connector-curvature="0" /><path
       style="fill:#002147"
       d="m 170.383,515.969 9.642,-0.085 c 11.435,-8.534 26.197,-13.909 26.197,-13.909 -16.723,0.938 -35.839,13.994 -35.839,13.994"
       id="path3413"
       clip-path="url(#SVGID_4_)"
       inkscape:connector-curvature="0" /><path
       style="fill:#002147"
       d="m 195.385,515.969 c 9.898,-5.717 17.237,-8.447 17.237,-8.447 -11.264,1.024 -25.344,8.447 -25.344,8.447 l 8.107,0 z"
       id="path3415"
       clip-path="url(#SVGID_4_)"
       inkscape:connector-curvature="0" /><path
       style="fill:#002147"
       d="m 140,465.89 7.352,-1.893 c 12.594,-12.521 29.629,-19.728 29.629,-19.728 C 160.31,447.254 140,465.89 140,465.89 m 45.789,-20.092 c -14.341,2.766 -30.575,16.233 -30.575,16.233 l 5.97,-0.8 c 7.862,-7.717 24.605,-15.433 24.605,-15.433 m 6.188,2.766 c -12.157,2.548 -21.548,10.774 -21.548,10.774 l 5.533,-0.364 c 9.754,-8.008 16.015,-10.41 16.015,-10.41 m 12.303,0.291 c -13.541,2.475 -22.131,9.828 -22.131,9.828 l 5.751,-0.073 c 7.862,-6.843 16.38,-9.755 16.38,-9.755 m -10.338,9.464 4.732,-0.073 c 4.659,-4.149 11.211,-6.625 11.211,-6.625 -9.9,1.165 -15.943,6.698 -15.943,6.698 m 20.748,-3.276 c -5.606,0.364 -9.1,3.64 -9.1,3.64 l 3.931,0.291 c 1.019,-2.038 5.169,-3.931 5.169,-3.931 M 392.088,465.1 c 0,0 27.834,11.854 72.924,11.029 0,0 -37.812,-1.575 -68.947,-13.055 l -3.977,2.026 z m 8.628,-2.551 c 0,0 28.809,8.704 65.272,7.352 0,0 -43.29,-3.001 -61.296,-9.378 l -3.976,2.026 z m 9.078,-2.926 c 0,0 19.881,6.077 40.663,4.651 0,0 -23.933,-1.049 -37.437,-7.127 l -3.226,2.476 z M 158.108,446.016 c 0,0 -15.357,1.089 -37.909,25.463 l 0,-6.869 c 1.44,-1.567 7.328,-7.599 20.049,-16.192 0,0 -10.781,2.786 -20.049,11.805 l 0,-12.925 c 4.299,-3.318 51.742,-38.625 109.011,-26.687 0,0 -11.373,2.814 -13.123,12.521 0,0 10.595,-13.396 25.37,-8.542 0,0 -11.567,-0.388 -15.747,9.998 0,0 11.567,-9.804 22.745,-6.31 0,0 -11.955,1.845 -13.899,10.192 0,0 9.623,-10.192 18.273,-5.92 0,0 -12.679,2.55 -7.97,14.656 5.248,13.491 39.726,9.494 47.044,8.541 15.649,-2.038 45.1,-12.423 71.018,-24.343 0.385,-0.176 0.724,-0.434 1.104,-0.602 23.328,-10.289 44.518,-8.735 52.682,-6.115 0,0 -12.441,1.164 -15.94,9.998 0,0 8.261,-8.736 22.452,-6.989 0,0 -12.927,1.649 -14.385,9.027 0,0 8.748,-8.057 20.509,-6.212 0,0 -10.497,1.747 -12.539,8.445 0,0 5.93,-6.019 14.678,-5.727 0,0 -13.609,10.386 2.624,17.957 16.232,7.571 41.894,3.203 72.025,-14.075 0,0 26.148,-14.85 48.891,-9.997 0,0 -12.83,1.553 -15.358,12.23 0,0 11.567,-13.492 25.369,-8.736 0,0 -10.79,-0.485 -15.649,9.9 0,0 7.484,-8.153 22.939,-6.406 0,0 -11.955,2.621 -14.094,10.58 0,0 10.887,-11.453 18.663,-5.63 0,0 -11.928,-0.098 -6.123,12.813 4.276,9.511 31.686,8.93 58.319,-3.591 18.895,-8.884 60.628,-17.036 78.291,-15.805 l 0,3.745 c -4.799,0.303 -36.699,1.182 -51.659,8.857 0,0 34.856,-7.932 51.659,-7.248 l 0,4.145 c -2.594,0.035 -20.027,0.522 -38.343,7.082 0,0 21.395,-4.678 38.343,-5.037 l 0,4.98 c -2.366,-0.032 -14.591,0.032 -26.727,4.303 0,0 19.555,-2.588 26.727,-1.956 l 0,4.06 c -1.622,0.091 -8.68,0.61 -13.727,2.895 l 13.727,0.07 0,31.667 c -5.309,-1.433 -50.224,-13.21 -91.122,-13.028 -43.545,0.194 -123.734,4.368 -131.705,4.757 -7.97,0.388 -80.967,1.65 -105.947,-17.666 0,0 -37.713,19.704 -90.395,13.298 -52.683,-6.406 -79.607,-21.839 -119.848,-13.881 -37.254,7.369 -46.931,14.487 -48.163,15.503 l 0,-4.958 6.707,-3.144 c 0,0 16.038,-17.836 31.202,-24.897"
       id="path3417"
       clip-path="url(#SVGID_4_)"
       inkscape:connector-curvature="0" /><path
       style="fill:#002147"
       d="m 707.484,504.75 0.125,-4.848 c 0,0 -26.557,-13.075 -60.479,-13.715 0,0 46.018,9.858 60.354,18.563"
       id="path3419"
       clip-path="url(#SVGID_4_)"
       inkscape:connector-curvature="0" /><path
       style="fill:#002147"
       d="m 618.969,487.851 c 0,0 53.473,8.568 88.545,24.185 l 0.033,-4.472 c 0,0 -54.529,-22.785 -88.578,-19.713"
       id="path3421"
       clip-path="url(#SVGID_4_)"
       inkscape:connector-curvature="0" /><path
       style="fill:#002147"
       d="m 597.266,491.28 c 0,0 38.403,1.152 96.133,24.706 l 13.993,0.059 c 0,0 -0.024,-1.1 -0.046,-1.147 -9.49,-4.128 -67.41,-27.242 -110.08,-23.618"
       id="path3423"
       clip-path="url(#SVGID_4_)"
       inkscape:connector-curvature="0" /><path
       style="fill:#002147"
       d="m 584.024,496.3 c 0,0 45.553,5.42 87.793,19.757 l 13.9,-0.036 c 0,0 -67.259,-23.945 -101.693,-19.721"
       id="path3425"
       clip-path="url(#SVGID_4_)"
       inkscape:connector-curvature="0" /><path
       style="fill:#002147"
       d="m 571.04,503.586 c 0,0 37.378,1.792 69.891,12.417 l 13.44,0 c 0,0 -45.443,-17.408 -83.331,-12.417"
       id="path3427"
       clip-path="url(#SVGID_4_)"
       inkscape:connector-curvature="0" /><path
       style="fill:#002147"
       d="m 459.543,501.44 c 10.751,9.217 35.713,14.592 35.713,14.592 l 20.447,0 c -22.145,-2.943 -56.71,-15.063 -56.16,-14.592"
       id="path3429"
       clip-path="url(#SVGID_4_)"
       inkscape:connector-curvature="0" /><path
       style="fill:#002147"
       d="m 467.709,516.021 16.285,0.011 c -19.456,-3.711 -45.123,-15.637 -45.123,-15.637 6.528,8.449 28.838,15.626 28.838,15.626"
       id="path3431"
       clip-path="url(#SVGID_4_)"
       inkscape:connector-curvature="0" /><path
       style="fill:#002147"
       d="m 443.931,516.045 10.566,-0.035 c -12.032,-4.353 -32.395,-19.071 -32.395,-19.071 6.528,10.241 21.829,19.106 21.829,19.106"
       id="path3433"
       clip-path="url(#SVGID_4_)"
       inkscape:connector-curvature="0" /><path
       style="fill:#002147"
       d="m 406.998,494.123 c 0,0 4.992,12.032 21.377,21.888 l 9.849,-10e-4 c 0,0 -23.161,-12.415 -31.226,-21.887"
       id="path3435"
       clip-path="url(#SVGID_4_)"
       inkscape:connector-curvature="0" /><path
       style="fill:#002147"
       d="m 397.27,491.306 c 4.48,13.825 17.327,24.703 17.327,24.703 l 8.096,0 c -9.217,-4.224 -25.423,-24.703 -25.423,-24.703"
       id="path3437"
       clip-path="url(#SVGID_4_)"
       inkscape:connector-curvature="0" /><path
       style="fill:#002147"
       d="m 390.103,491.306 c 3.2,10.752 13.798,24.739 13.798,24.739 l 6.017,-0.024 c -5.889,-4.095 -19.815,-24.715 -19.815,-24.715"
       id="path3439"
       clip-path="url(#SVGID_4_)"
       inkscape:connector-curvature="0" /><path
       style="fill:#002147"
       d="m 386.448,496.066 c -0.202,-0.345 -0.313,-0.535 -0.313,-0.535 0.383,6.528 8.808,20.489 8.808,20.489 l 4.857,-0.011 c -2.977,-2.633 -11.634,-17.017 -13.352,-19.943"
       id="path3441"
       clip-path="url(#SVGID_4_)"
       inkscape:connector-curvature="0" /><path
       style="fill:#002147"
       d="m 390.057,515.433 c -2.744,-3.108 -7.122,-12.095 -7.122,-12.095 l -0.384,0 c 1.407,9.345 3.977,12.672 3.977,12.672 l 3.132,0.011 c 0,0 0.922,0.007 0.922,-0.024 -0.002,-0.191 -0.377,-0.396 -0.525,-0.564"
       id="path3443"
       clip-path="url(#SVGID_4_)"
       inkscape:connector-curvature="0" /><path
       style="fill:#002147"
       d="m 343.264,516.175 7.353,-0.184 c 0,0 24.262,-19.944 26.376,-38.876 0,0 -10.937,23.528 -33.729,39.06"
       id="path3445"
       clip-path="url(#SVGID_4_)"
       inkscape:connector-curvature="0" /><path
       style="fill:#002147"
       d="m 364.77,481.802 c -22.058,28.767 -34.55,34.282 -34.55,34.282 l 7.844,-0.055 c 16.359,-11.671 26.706,-34.227 26.706,-34.227"
       id="path3447"
       clip-path="url(#SVGID_4_)"
       inkscape:connector-curvature="0" /><path
       style="fill:#002147"
       d="m 348.778,488.329 c -9.925,12.591 -30.155,27.694 -30.155,27.694 l 6.5,-0.012 c 0.407,-0.306 0.701,-0.582 0.823,-0.678 10.423,-8.163 22.832,-27.004 22.832,-27.004"
       id="path3449"
       clip-path="url(#SVGID_4_)"
       inkscape:connector-curvature="0" /><path
       style="fill:#002147"
       d="m 335.268,490.809 c 0,0 -20.354,20.724 -27.452,25.202 l 7.116,0.018 c 0,0 15.465,-13.272 20.336,-25.22"
       id="path3451"
       clip-path="url(#SVGID_4_)"
       inkscape:connector-curvature="0" /><path
       style="fill:#002147"
       d="m 323.229,492.555 c 0,0 -22.639,20.552 -27.97,23.492 l 6.715,-0.073 c 0,0 14.729,-10.552 21.255,-23.419"
       id="path3453"
       clip-path="url(#SVGID_4_)"
       inkscape:connector-curvature="0" /><path
       style="fill:#002147"
       d="m 309.535,495.957 c 0,0 -19.356,15.754 -30.201,20.073 l 8.954,-0.037 c 0,-0.001 14.63,-8.365 21.247,-20.036"
       id="path3455"
       clip-path="url(#SVGID_4_)"
       inkscape:connector-curvature="0" /><path
       style="fill:#002147"
       d="m 262.427,515.974 8.918,0.036 c 0,0 6.666,-4.522 15.122,-12.702 0,0.001 -16.411,9.267 -24.04,12.666"
       id="path3457"
       clip-path="url(#SVGID_4_)"
       inkscape:connector-curvature="0" /><path
       style="fill:#002147"
       d="m 259.582,423.62 c 0,0 22.422,-13.104 62.994,-4.271 0,0 -32.128,-3.786 -62.994,4.271"
       id="path3459"
       clip-path="url(#SVGID_4_)"
       inkscape:connector-curvature="0" /><path
       style="fill:#002147"
       d="m 320.732,413.331 c 0,0 -33.681,-5.922 -69.885,6.115 0,0 25.527,-17.471 69.885,-6.115"
       id="path3461"
       clip-path="url(#SVGID_4_)"
       inkscape:connector-curvature="0" /><path
       style="fill:#002147"
       d="m 240.849,417.019 c 0,0 20.772,-12.132 66.876,-10.774 0,0 -35.136,-9.609 -66.876,10.774"
       id="path3463"
       clip-path="url(#SVGID_4_)"
       inkscape:connector-curvature="0" /><path
       style="fill:#002147"
       d="m 295.204,400.033 c 0,0 -32.17,-9.593 -61.926,13.589 0,0 27.566,-15.627 61.926,-13.589"
       id="path3465"
       clip-path="url(#SVGID_4_)"
       inkscape:connector-curvature="0" /><path
       style="fill:#002147"
       d="m 288.701,394.695 c -7.332,-1.599 -31.227,-7.557 -61.732,16.209 0,0 27.372,-18.247 61.732,-16.209"
       id="path3467"
       clip-path="url(#SVGID_4_)"
       inkscape:connector-curvature="0" /><path
       style="fill:#002147"
       d="m 280.353,389.065 c -9.532,-2.078 -32.128,-5.824 -61.246,17.763 0,0 24.459,-17.86 61.246,-17.763"
       id="path3469"
       clip-path="url(#SVGID_4_)"
       inkscape:connector-curvature="0" /><path
       style="fill:#002147"
       d="m 218.621,398.965 c 0,0 15.239,-9.803 34.749,-13.006 0,0 -19.218,-3.98 -34.749,13.006"
       id="path3471"
       clip-path="url(#SVGID_4_)"
       inkscape:connector-curvature="0" /><path
       style="fill:#002147"
       d="m 257.155,443.13 c 0,0 32.226,6.989 72.216,-7.28 0,-0.001 -48.145,21.742 -72.216,7.28"
       id="path3473"
       clip-path="url(#SVGID_4_)"
       inkscape:connector-curvature="0" /><path
       style="fill:#002147"
       d="m 248.031,446.236 c 0,0 11.288,7.171 38.535,4.561 27.372,-2.621 54.452,-14.85 54.452,-14.85 0,0 -24.321,15.193 -54.647,18.151 -23.877,2.328 -36.69,-2.426 -38.34,-7.862"
       id="path3475"
       clip-path="url(#SVGID_4_)"
       inkscape:connector-curvature="0" /><path
       style="fill:#002147"
       d="m 254.427,279.976 -0.276,-7.778 c 0,0 -0.909,-1.302 -2.291,-1.263 -1.381,0.039 -2.092,1.106 -2.132,1.935 -0.039,0.828 -0.039,7.186 -0.039,7.186 l 4.738,-0.08 z"
       id="path3477"
       clip-path="url(#SVGID_4_)"
       inkscape:connector-curvature="0" /><path
       style="fill:#002147"
       d="m 257.848,211.978 0.013,-1.567 c 0,0 -4.303,-4.224 -15.871,-4.067 -11.568,0.158 -15.477,4.028 -15.477,4.028 l -0.02,1.011 c 1.074,-0.63 6.235,-3.327 16.129,-3.539 9.147,-0.196 13.799,2.946 15.226,4.134 m 9.331,16.751 -2.606,-0.553 -0.749,-8.528 c 0,0 -0.08,-1.421 -3.278,-2.29 l 0.277,9.239 -2.646,-0.672 -0.3,-9.179 c 0,0 -6.727,-2.665 -14.663,-2.546 -7.361,0.109 -13.858,2.685 -13.858,2.685 l -0.119,0.355 c 0,0 7.423,-0.316 10.582,0.316 0,0 -8.016,0.987 -11.055,3 0,0 7.264,-0.474 10.383,-0.158 0,0 -6.395,0.79 -10.383,3.554 l -0.119,1.46 -3.948,1.224 0.014,-0.186 -1.238,0.186 0.553,-9.002 -0.039,-0.158 c 0,0 -2.329,0.08 -3.238,2.053 -0.908,1.975 -0.513,8.568 -0.513,8.568 l -2.171,1.382 c 0,0 0.118,-9.673 0.711,-10.857 0.539,-1.079 3.338,-3.432 5.892,-4.44 l 0.266,-4.956 c 0,0 3.79,-5.606 17.648,-4.856 13.858,0.75 17.135,5.883 17.135,5.883 l 0.299,4.495 c 0.924,0.273 4.111,1.286 4.952,2.531 0,0 1.026,1.501 1.184,3.04 0.159,1.54 1.027,8.41 1.027,8.41"
       id="path3479"
       clip-path="url(#SVGID_4_)"
       inkscape:connector-curvature="0" /><path
       style="fill:#002147"
       d="m 260.41,235.058 c 0.777,-0.848 4.52,-4.969 4.172,-5.274 -0.389,-0.34 -9.741,-4.536 -21.889,-4.853 -13.006,-0.339 -22.227,5.048 -22.227,5.048 l 3.106,4.707 0.675,0.468 c 1.661,-1.278 6.5,-3.998 17.573,-3.962 11.312,0.037 16.642,2.597 18.59,3.866 m 7.957,120.52 -3.01,0.68 -7.231,-118.466 c -14.171,-4.707 -26.594,7.134 -26.594,7.134 l 0,1.845 c 4.464,-1.213 7.667,-0.292 7.667,-0.292 -6.212,1.068 -8.153,4.029 -8.153,4.029 l -0.146,1.698 c 4.077,-1.261 8.154,-0.242 8.154,-0.242 -5.096,0.437 -8.396,3.64 -8.396,3.64 l -0.098,1.747 c 3.931,-1.262 8.397,0 8.397,0 -5.096,0.291 -8.542,3.106 -8.542,3.106 l -0.194,2.329 c 3.834,-1.019 8.833,0.243 8.833,0.243 -5.291,0.582 -9.173,3.785 -9.173,3.785 l -0.194,1.699 c 5.581,-1.165 8.93,0.291 8.93,0.291 -6.843,0.971 -9.269,3.689 -9.269,3.689 l 0.047,1.843 c 5.824,-1.795 9.61,0.146 9.61,0.146 -7.911,0.971 -10.143,3.398 -10.143,3.398 l -0.049,1.31 c 4.562,-1.068 9.609,0.097 9.609,0.097 -7.425,1.019 -9.657,3.592 -9.657,3.592 l -0.098,1.698 c 5.582,-1.505 9.562,0.049 9.562,0.049 -6.115,0.34 -9.998,3.3 -9.998,3.3 l -0.194,1.601 c 3.834,-1.068 10.434,0.825 10.434,0.825 -7.134,-0.048 -10.579,3.252 -10.579,3.252 l -0.049,1.068 c 6.115,-1.311 10.531,0.339 10.531,0.339 -6.163,0.243 -10.822,4.222 -10.822,4.222 l -0.097,1.359 c 6.746,-1.31 10.53,0.728 10.53,0.728 -8.104,1.262 -10.919,5.533 -10.919,5.533 l -0.242,0.873 c 4.222,-1.456 9.123,-0.388 9.123,-0.388 -7.91,1.844 -9.706,5.775 -9.706,5.775 5.727,-1.845 9.367,-0.388 9.367,-0.388 -8.299,1.651 -9.9,5.338 -9.9,5.338 7.473,-1.844 9.851,-0.291 9.851,-0.291 -9.997,2.426 -9.851,5.873 -9.851,5.873 4.464,-1.747 10.142,0.048 10.142,0.048 -9.705,1.892 -10.531,5.436 -10.531,5.436 6.503,-1.651 10.24,0.485 10.24,0.485 -9.367,0.534 -10.87,5.047 -10.87,5.047 6.745,-1.31 10.87,0.486 10.87,0.486 -9.027,0.728 -11.114,4.61 -11.114,4.61 6.164,-1.505 10.92,0.097 10.92,0.097 -7.862,0.971 -11.211,5.145 -11.211,5.145 6.746,-1.505 10.823,0.291 10.823,0.291 -10.095,1.212 -11.357,4.999 -11.357,4.999 5.824,-1.359 12.036,0.582 12.036,0.582 -8.832,0.777 -11.55,4.465 -11.55,4.465 5.921,-0.777 10.822,0.533 10.822,0.533 -10.143,1.263 -11.744,5.631 -11.744,5.631 6.988,-1.456 11.938,0.436 11.938,0.436 -5.532,0.341 -9.609,3.786 -9.609,3.786 l -4.804,-4.95 6.211,-122.494 -1.019,0.582 -6.697,102.159 -2.912,-1.504 7.037,-99.199 0.115,-2.675 -0.018,0.006 -4.465,-6.019 c -0.485,-0.533 -2.28,-2.717 0.679,-4.222 2.961,-1.504 9.27,-5.192 23.878,-4.901 14.608,0.291 22.083,4.464 23.295,5.629 1.214,1.165 0.049,2.864 0.049,2.864 l -5.452,6.133 6.957,118.447 z"
       id="path3481"
       clip-path="url(#SVGID_4_)"
       inkscape:connector-curvature="0" /><path
       style="fill:#002147"
       d="m 169.022,349.949 c 0,0 -8.404,-9.294 -17.666,-10.872"
       id="path3483"
       clip-path="url(#SVGID_4_)"
       inkscape:connector-curvature="0" /></g><polygon
     style="fill:#002147"
     points="259.003,204.639 358.913,208.061 258.914,201.8 "
     id="polygon3485"
     transform="matrix(1.0401318,0,0,1.0401318,-52.00659,-101.2974)" /><polygon
     style="fill:#002147"
     points="258.769,200.343 357.676,192.845 258.696,197.286 "
     id="polygon3487"
     transform="matrix(1.0401318,0,0,1.0401318,-52.00659,-101.2974)" /><polygon
     style="fill:#002147"
     points="124.433,206.459 226.067,203.458 226.229,200.708 "
     id="polygon3489"
     transform="matrix(1.0401318,0,0,1.0401318,-52.00659,-101.2974)" /><polygon
     style="fill:#002147"
     points="130.985,188.842 226.39,198.929 226.552,196.341 "
     id="polygon3491"
     transform="matrix(1.0401318,0,0,1.0401318,-52.00659,-101.2974)" /></svg>