<?xml version="1.0" encoding="UTF-8" standalone="no"?>
<!-- Generator: Adobe Illustrator 18.0.0, SVG Export Plug-In . SVG Version: 6.00 Build 0)  -->

<svg
     xmlns:dc="http://purl.org/dc/elements/1.1/"
     xmlns:cc="http://creativecommons.org/ns#"
     xmlns:rdf="http://www.w3.org/1999/02/22-rdf-syntax-ns#"
     xmlns:svg="http://www.w3.org/2000/svg"
     xmlns="http://www.w3.org/2000/svg"
     xmlns:sodipodi="http://sodipodi.sourceforge.net/DTD/sodipodi-0.dtd"
     xmlns:inkscape="http://www.inkscape.org/namespaces/inkscape"
     version="1.1"
     x="0px"
     y="0px"
     width="135"
     height="174.56897"
     viewBox="0 0 2048.2759 1582.7586"
     xml:space="preserve"
     id="svg3718"
     inkscape:version="0.48.5 r10040"
     sodipodi:docname="model_icon_large.svg"><metadata
         id="metadata3902"><rdf:RDF><cc:Work
                 rdf:about=""><dc:format>image/svg+xml</dc:format><dc:type
                     rdf:resource="http://purl.org/dc/dcmitype/StillImage" /><dc:title /></cc:Work></rdf:RDF></metadata><defs
         id="defs3900" /><sodipodi:namedview
         pagecolor="#ffffff"
         bordercolor="#666666"
         borderopacity="1"
         objecttolerance="10"
         gridtolerance="10"
         guidetolerance="10"
         inkscape:pageopacity="0"
         inkscape:pageshadow="2"
         inkscape:window-width="1680"
         inkscape:window-height="998"
         id="namedview3898"
         showgrid="false"
         showborder="true"
         inkscape:showpageshadow="false"
         inkscape:zoom="2.1763175"
         inkscape:cx="24.059161"
         inkscape:cy="117.85487"
         inkscape:window-x="1912"
         inkscape:window-y="-8"
         inkscape:window-maximized="1"
         inkscape:current-layer="svg3718"
         inkscape:document-units="in"
         fit-margin-top="0"
         fit-margin-left="0"
         fit-margin-right="0"
         fit-margin-bottom="0"
         units="in"
         borderlayer="true" /><g
         id="model_art"
         transform="matrix(12.963444,0,0,12.857378,-4073.9178,-3167.9152)"><g
             id="g3721"><path
                 style="fill:#f0a565"
                 d="m 435.42,290.434 c 0.193,0.115 0.396,0.216 0.621,0.282 -0.226,-0.067 -0.429,-0.166 -0.621,-0.282 z"
                 id="path3723"
                 inkscape:connector-curvature="0" /><path
                 style="fill:#f0a565"
                 d="m 435.31,290.366 c -0.186,-0.125 -0.36,-0.268 -0.512,-0.439 0.153,0.17 0.325,0.314 0.512,0.439 z"
                 id="path3725"
                 inkscape:connector-curvature="0" /><path
                 style="fill:#f0a565"
                 d="m 432.638,290.58 c -0.08,-0.219 -0.153,-0.449 -0.209,-0.708 0.056,0.259 0.129,0.489 0.209,0.708 z"
                 id="path3727"
                 inkscape:connector-curvature="0" /><path
                 style="fill:#f0a565"
                 d="m 435.063,285.771 c -0.128,2.276 0.408,3.976 2.069,5.162 -0.075,-0.013 -0.149,-0.025 -0.225,-0.038 0.301,0.049 0.602,0.097 0.895,0.176 1.579,0.43 3.392,1.102 4.187,2.31 0.283,0.433 0.463,0.983 0.705,1.465 0.759,1.516 1.277,3.08 2.466,4.13 0.397,0.35 0.889,0.549 1.188,0.888 -2.485,0.25 -3.819,-1.547 -4.624,-3.197 -0.287,-0.589 -0.414,-1.293 -0.751,-1.954 -0.628,-1.235 -2.01,-2.109 -3.435,-2.486 -2.317,-0.612 -4.245,-1.639 -3.656,-4.573 0.089,0.914 0.398,1.692 0.898,2.254 -0.326,-0.37 -0.57,-0.835 -0.724,-1.369 -0.01,-0.079 -0.021,-0.156 -0.021,-0.232 0.002,-0.057 -0.014,-0.101 -0.038,-0.138 0.03,-0.119 -0.059,-0.282 -0.059,-0.406 0,-0.383 -0.286,-0.443 -0.385,-0.1 -0.48,1.649 -0.327,3.265 0.371,4.654 0.239,0.177 0.503,0.338 0.794,0.488 1.157,0.598 2.55,0.822 3.569,1.642 1.017,0.819 1.522,1.783 1.939,3.285 0.331,1.198 1.342,2.56 2.422,2.754 0.443,0.08 1.076,-0.128 1.673,-0.089 1.651,0.108 3.031,0.772 4.318,1.422 1.361,-1.207 2.314,-3.003 2.068,-5.285 -0.223,-2.103 -1.359,-3.544 -2.73,-4.66 -1.414,-1.155 -3.066,-1.863 -5.066,-2.355 -3.041,-0.745 -7.065,-0.654 -7.621,-3.951 0.154,-0.11 0.205,0.193 0.265,0.266 0.017,0.021 0.041,0.037 0.059,0.058 -10e-4,-0.04 -0.128,-0.153 -0.124,-0.192 0.021,-0.362 -0.407,-0.286 -0.427,0.071 z m 3.621,4.19 c 1.264,0.596 2.698,0.627 4.098,0.755 1.843,0.17 3.77,1.063 4.935,2.219 0.808,0.806 1.626,2.136 1.762,3.463 0.158,1.555 -0.277,2.985 -0.794,3.819 -0.142,0.229 -0.286,0.61 -0.485,0.533 0.107,-1.398 -0.535,-2.362 -1.231,-3.064 -1.131,-1.142 -3.452,-1.935 -2.467,-4.263 0.419,0.55 0.916,1.831 1.894,1.776 0.987,-0.056 0.515,-1.25 0.176,-1.688 -1.533,-1.979 -6.709,-1.516 -7.974,-3.597 0.007,0.037 0.035,0.054 0.086,0.047 z"
                 id="path3729"
                 inkscape:connector-curvature="0" /><path
                 style="fill:#f0a565"
                 d="m 439.762,287.34 c -1.688,-0.137 -3.324,-0.508 -4.145,-1.451 0.822,0.943 2.457,1.315 4.145,1.451 z"
                 id="path3731"
                 inkscape:connector-curvature="0" /><path
                 style="fill:#f0a565"
                 d="m 433.371,291.811 c -0.135,-0.147 -0.261,-0.304 -0.371,-0.477 0.11,0.174 0.236,0.33 0.371,0.477 z"
                 id="path3733"
                 inkscape:connector-curvature="0" /><path
                 style="fill:#f0a565"
                 d="m 432.991,291.322 c -0.11,-0.175 -0.204,-0.372 -0.29,-0.58 0.086,0.208 0.18,0.406 0.29,0.58 z"
                 id="path3735"
                 inkscape:connector-curvature="0" /><path
                 style="fill:#f0a565"
                 d="m 433.924,292.314 c -0.168,-0.124 -0.318,-0.261 -0.462,-0.405 0.142,0.144 0.294,0.281 0.462,0.405 z"
                 id="path3737"
                 inkscape:connector-curvature="0" /><path
                 d="m 427.849,284.1 c -4.799,-2.513 -10.577,-4.191 -17.092,-5.018 -2.205,-0.279 -4.456,-0.375 -6.872,-0.488 -4.398,-0.206 -9.05,0.36 -12.776,1.065 -3.972,0.752 -7.605,1.804 -10.792,2.931 14.795,-2.298 34.122,-2.076 47.532,1.51 z"
                 id="path3739"
                 inkscape:connector-curvature="0" /><path
                 d="m 437.539,292.225 c 1.425,0.377 2.807,1.251 3.435,2.486 0.337,0.661 0.464,1.365 0.751,1.954 0.805,1.65 2.139,3.447 4.624,3.197 -0.3,-0.339 -0.791,-0.538 -1.188,-0.888 -1.189,-1.05 -1.707,-2.614 -2.466,-4.13 -0.242,-0.481 -0.422,-1.032 -0.705,-1.465 -0.795,-1.208 -2.608,-1.88 -4.187,-2.31 -0.292,-0.079 -0.594,-0.127 -0.895,-0.176 -0.295,-0.048 -0.589,-0.097 -0.867,-0.179 -0.225,-0.066 -0.428,-0.167 -0.621,-0.282 -0.036,-0.022 -0.073,-0.043 -0.109,-0.067 -0.188,-0.125 -0.359,-0.27 -0.512,-0.439 -0.007,-0.007 -0.013,-0.016 -0.018,-0.022 -0.499,-0.562 -0.809,-1.34 -0.898,-2.254 -0.589,2.936 1.339,3.962 3.656,4.575 z"
                 id="path3741"
                 inkscape:connector-curvature="0" /><path
                 style="fill:#2bb5d7;fill-rule:evenodd"
                 d="m 323.843,302.881 c 0.625,-0.027 1.598,0.487 2.334,0.712 4.79,1.448 9.119,2.708 13.921,4.173 0.747,0.228 1.663,0.701 2.291,0.711 0.365,0.006 0.889,-0.261 1.366,-0.4 2.791,-0.816 5.418,-1.545 8.236,-2.353 0.469,-0.135 1.001,-0.351 1.367,-0.355 0.441,-0.005 1.293,0.633 1.849,0.933 4.309,2.314 8.8,4.768 12.995,7.059 1.93,-2.583 3.893,-4.844 7.004,-6.304 1.555,-0.731 3.506,-1.163 5.595,-0.8 1.436,0.249 2.551,0.713 3.656,1.331 0.31,0.175 0.72,0.55 1.013,0.621 0.379,0.094 0.78,-0.008 1.146,0.09 1.826,0.485 3.268,2.557 2.599,4.796 -0.187,0.63 -0.778,1.055 -0.527,1.954 1.326,-0.388 2.662,-0.943 4.097,-1.466 0.449,-0.165 0.997,-0.49 1.366,-0.488 0.447,10e-4 1.253,0.521 1.805,0.755 3.713,1.582 7.114,2.94 10.837,4.528 0.57,0.243 1.362,0.747 1.806,0.755 0.412,0.008 1.245,-0.492 1.719,-0.71 3.886,-1.789 7.895,-3.493 11.718,-5.284 3.902,2.08 8.322,4.287 12.422,6.482 0.285,0.152 0.652,0.432 0.794,0.444 0.266,0.025 0.821,-0.6 1.1,-0.799 0.834,-0.599 1.92,-1.04 2.292,-2.176 -0.768,-0.563 -1.572,-1.042 -2.335,-1.731 -0.685,-0.621 -1.73,-1.761 -1.455,-2.977 0.147,-0.638 0.584,-1.226 0.838,-1.907 0.252,-0.674 0.482,-1.346 0.573,-2.177 -7.583,-1.702 -14.195,-4.569 -20.439,-7.682 -2.067,-1.028 -4.011,-2.278 -6.082,-3.286 -4.278,-2.079 -9.061,-3.577 -14.315,-4.44 -8.102,-1.328 -18.114,-0.801 -25.507,0.979 -2.46,0.592 -4.742,1.565 -7.18,2.175 -5.132,1.283 -11.071,1.534 -16.521,0.755 -5.389,-0.771 -9.938,-2.214 -14.313,-4.396 -1.044,-0.518 -2.03,-1.125 -3.084,-1.598 -3.176,-1.426 -7.064,-2.637 -11.365,-2.842 -1.104,-0.053 -2.169,-0.023 -3.19,0.069 l 0,1.775 c 1.666,-0.025 3.353,0.103 4.908,0.331 3.144,0.461 6.33,1.198 8.853,2.308 0.729,0.321 1.41,0.841 2.115,1.243 4.889,2.808 10.795,4.819 18.104,5.285 -7.74,0.266 -14.254,-1.121 -19.866,-3.509 -2.601,-1.106 -5.639,-2.28 -9.074,-2.708 -1.631,-0.203 -3.364,-0.242 -5.04,-0.107 l 0,14.615 c 2.646,-1.2 5.551,-2.568 8.3,-3.852 0.397,-0.186 0.97,-0.52 1.274,-0.532 z m 62.949,-8.836 c 9.781,0.459 18.049,2.798 24.317,6.839 0.189,0.123 0.519,0.261 0.439,0.398 -10.52,-4.01 -23.216,-5.949 -37.619,-5.949 -0.923,0 -1.829,0.123 -2.732,0.044 4.78,-0.914 10.004,-1.594 15.595,-1.332 z"
                 id="path3743"
                 inkscape:connector-curvature="0" /><path
                 d="m 446.569,293.513 c 0.339,0.438 0.812,1.632 -0.176,1.688 -0.978,0.055 -1.475,-1.227 -1.894,-1.776 -0.985,2.327 1.336,3.121 2.467,4.263 0.696,0.701 1.338,1.665 1.231,3.064 0.199,0.077 0.344,-0.305 0.485,-0.533 0.517,-0.834 0.952,-2.265 0.794,-3.819 -0.136,-1.327 -0.954,-2.657 -1.762,-3.463 -1.165,-1.156 -3.092,-2.049 -4.935,-2.219 -1.4,-0.128 -2.834,-0.159 -4.098,-0.755 -0.051,0.007 -0.078,-0.01 -0.088,-0.045 1.267,2.079 6.443,1.615 7.976,3.595 z"
                 id="path3745"
                 inkscape:connector-curvature="0" /><path
                 d="m 373.93,295.333 c 14.403,0 27.1,1.94 37.619,5.949 0.079,-0.138 -0.25,-0.275 -0.439,-0.398 -6.269,-4.041 -14.536,-6.38 -24.317,-6.839 -5.591,-0.262 -10.815,0.418 -15.594,1.332 0.902,0.079 1.808,-0.044 2.731,-0.044 z"
                 id="path3747"
                 inkscape:connector-curvature="0" /><path
                 style="fill:#939598"
                 d="m 448.376,303.324 c 0.048,-0.169 -0.27,-0.381 -0.484,-0.576 -0.869,-0.791 -2.235,-1.628 -4.052,-1.511 -0.948,0.064 -1.589,1.027 -0.662,1.644 0.837,-1.698 4.102,-0.099 5.198,0.443 z"
                 id="path3749"
                 inkscape:connector-curvature="0" /><path
                 style="fill:#bcbec0"
                 d="m 444.102,303.324 c -0.118,0.532 -0.182,1.12 -0.262,1.688 0.729,0.153 1.369,0.396 1.937,0.711 0.311,-0.441 0.443,-1.061 0.706,-1.555 -0.523,-0.528 -1.307,-1.017 -2.381,-0.844 z"
                 id="path3751"
                 inkscape:connector-curvature="0" /><path
                 style="fill:#2bb5d7;fill-rule:evenodd;stroke:#008f9a;stroke-width:0.2"
                 d="m 461.458,304.611 c -2.615,2.19 -5.821,3.782 -9.911,4.485 -0.085,0.202 0.184,0.326 0.31,0.489 0.302,0.39 0.761,1.082 0.749,1.819 -0.008,0.415 -0.263,0.878 -0.485,1.377 -0.393,0.88 -0.65,1.743 -0.837,2.798 -0.172,0.961 -0.05,1.934 -0.528,2.531 -1.007,1.246 -3.221,1.251 -5.11,1.109 0.263,0.406 0.416,1.094 0.176,1.644 0.041,0.248 0.357,0.433 0.396,0.843 0.042,0.414 -0.134,0.772 -0.307,1.065 0.48,0.726 0.092,1.605 -0.308,2.044 0.14,0.14 0.136,0.425 0.132,0.71 5.228,2.737 10.469,5.461 15.681,8.214 0.103,-9.619 0.013,-19.431 0.042,-29.128 z"
                 id="path3753"
                 inkscape:connector-curvature="0" /><path
                 style="fill:#9cc87b"
                 d="m 316.222,319.62 c 0.824,-0.26 1.322,0.251 2.07,0.267 0.598,0.014 0.929,-0.288 1.499,-0.223 0.297,0.035 0.459,0.134 0.66,0.268 0.363,0.241 0.425,0.643 0.838,0.888 0.434,0.257 0.959,0.247 1.365,0.488 0.27,0.161 0.638,0.501 0.747,0.888 0.083,0.29 -0.025,0.738 0,1.066 0.063,0.77 0.66,1.925 0.617,2.752 -0.019,0.354 -0.331,0.702 -0.354,1.066 -0.016,0.302 0.205,0.625 0.221,0.931 0.046,0.859 -0.267,1.897 -0.484,2.755 -0.212,0.835 -0.495,1.644 -0.792,2.397 -0.346,0.185 -0.776,0.282 -1.147,0.445 -0.034,0.438 -0.105,0.839 -0.132,1.285 1.389,0.764 2.924,1.377 4.405,2.045 0.129,-0.42 0.372,-0.722 0.485,-1.154 3.314,-1.989 6.842,-3.76 10.969,-4.93 0.242,-1.397 1.061,-2.217 2.247,-2.664 0.135,-0.53 0.246,-1.084 0.44,-1.554 -0.923,-1.1 -1.884,-2.531 -2.026,-4.396 -0.369,-4.831 2.598,-7.886 6.608,-8.438 2.733,-0.374 5.2,0.637 7.136,1.777 0.056,0.586 0.064,1.136 -0.087,1.597 -0.122,0.369 -0.388,0.561 -0.53,0.845 0.221,0.813 0.31,1.761 0.53,2.577 -0.25,0.532 -0.56,1.006 -0.794,1.553 1.021,2.546 -0.579,5.797 -1.32,7.904 -0.534,0.128 -1.092,0.23 -1.543,0.442 -0.363,0.705 0.393,0.903 0.794,1.466 0.308,0.436 0.451,0.932 0.617,1.554 1.466,0.681 2.499,1.802 3.479,2.975 0.581,-0.406 1.083,-0.92 1.675,-1.376 0.56,-0.431 1.226,-0.767 1.762,-1.243 0.331,-0.297 0.658,-0.767 1.013,-1.154 0.345,-0.377 0.658,-0.897 1.014,-1.11 0.512,-0.307 1.781,-0.545 2.422,-0.71 2.489,-0.646 5.183,-1.077 8.019,-1.377 0.469,-0.591 0.956,-1.167 1.587,-1.598 -5.104,-0.497 -9.154,-2.054 -10.53,-6.307 0.42,0.197 1.597,0.451 2.201,0.09 -1.404,-0.729 -2.372,-2.136 -2.378,-4.13 0.759,0.375 1.834,0.711 2.997,0.623 2.383,-0.184 3.9,-1.961 4.89,-3.508 -4.661,-2.48 -9.284,-4.999 -13.965,-7.46 -2.578,1.311 -5.07,2.702 -7.621,4.04 -7.08,-2.143 -14.213,-4.234 -21.277,-6.393 -2.632,2.081 -5.147,4.283 -7.752,6.393 -0.847,-0.473 -1.688,-0.951 -2.529,-1.429 l 0,11.646 c 0.171,-0.032 0.345,-0.061 0.502,-0.14 0.847,-0.418 0.579,-1.454 1.452,-1.729 z"
                 id="path3755"
                 inkscape:connector-curvature="0" /><path
                 style="fill:#bcbec0"
                 d="m 438.288,310.518 c 0.612,-1.853 1.456,-3.476 3.48,-3.906 -1.382,-0.192 -2.944,0.079 -4.098,0.398 0.269,1.192 -0.033,2.559 -0.397,3.508 0.339,0 0.678,0 1.015,0 z"
                 id="path3757"
                 inkscape:connector-curvature="0" /><path
                 style="fill:#bcbec0"
                 d="m 445.292,307.811 c 0.132,-0.06 0.337,-0.047 0.528,-0.045 -0.227,-0.272 -0.648,-0.352 -0.968,-0.533 -0.133,0.129 0.357,0.372 0.44,0.578 z"
                 id="path3759"
                 inkscape:connector-curvature="0" /><path
                 style="fill:#bcbec0"
                 d="m 442.342,307.365 c -1.545,0.171 -2.314,2.043 -2.863,3.196 0.908,0.031 1.651,0.23 2.465,0.357 0.542,-1.127 1.202,-2.135 2.292,-2.71 -0.377,-0.552 -1.12,-0.928 -1.894,-0.843 z"
                 id="path3761"
                 inkscape:connector-curvature="0" /><path
                 style="fill:#945223"
                 d="m 373.975,322.24 c -1.52,1.141 -4.505,1.959 -6.917,1.109 1.305,-0.259 2.282,-0.532 3.127,-1.198 1.084,-0.853 1.563,-2.401 2.247,-3.774 1.316,-2.643 3.315,-4.644 6.21,-5.817 0.656,-0.264 1.493,-0.447 2.248,-0.754 0.931,-0.379 2.195,-0.884 1.851,-2.354 -0.266,-1.124 -2.021,-1.818 -3.173,-1.908 -2.507,-0.197 -4.499,0.953 -5.991,2.086 -2.06,1.566 -3.661,3.571 -5.022,5.684 -0.484,0.752 -0.845,1.474 -1.454,2.086 -1.287,1.299 -3.299,2.378 -5.859,1.999 0.954,1.51 2.613,2.31 4.801,2.575 -0.847,0.861 -2.343,1.305 -3.963,1.244 -0.037,0.227 0.24,0.285 0.396,0.398 1.185,0.854 3.036,1.521 4.978,1.643 2.969,0.186 5.533,-1.108 6.521,-3.019 z"
                 id="path3763"
                 inkscape:connector-curvature="0" /><path
                 style="fill:#bcbec0"
                 d="m 445.776,308.653 c 0.435,1.041 0.621,2.335 0.572,3.863 0.713,0.375 1.389,0.79 2.071,1.198 0.522,-2.418 -0.148,-5.409 -2.643,-5.061 z"
                 id="path3765"
                 inkscape:connector-curvature="0" /><path
                 style="fill:#bcbec0"
                 d="m 444.852,309.143 c -0.786,0.492 -1.287,1.277 -1.808,2.041 0.668,0.29 1.451,0.463 2.071,0.801 0.228,-0.931 -0.026,-2.092 -0.263,-2.842 z"
                 id="path3767"
                 inkscape:connector-curvature="0" /><path
                 style="fill:#f6dbcb"
                 d="m 380.713,314.559 c -1.604,0.329 -3.213,2.122 -3.436,3.907 -0.482,-0.256 -1.442,-1.039 -2.203,-0.444 -0.796,0.624 -0.983,2.526 -0.176,3.464 0.434,0.503 1,0.622 1.674,0.71 -0.03,1.629 -0.369,2.819 -0.97,4.04 -0.174,0.353 -0.55,0.929 -0.483,1.11 0.069,0.188 0.613,0.471 0.925,0.711 2.083,1.609 3.604,3.939 4.095,7.06 0.46,-1.33 0.809,-2.768 1.234,-4.128 -1.87,-1.178 -3.368,-2.733 -4.007,-5.151 1.541,0.871 3.522,2.064 6.121,1.729 0.075,-0.472 0.134,-0.959 0.266,-1.375 -0.762,-0.489 -1.578,-0.927 -1.896,-1.864 0.714,-0.067 1.498,-0.062 2.071,-0.267 -0.18,-0.664 -0.478,-1.205 -0.705,-1.82 0.599,-0.227 1.348,-0.3 2.027,-0.444 -0.422,-1.237 -0.897,-3.135 -0.396,-4.619 0.479,-0.388 1.111,-0.622 1.936,-0.665 -0.136,-1.432 -0.502,-2.63 -1.013,-3.686 -0.852,0.804 -2.067,1.36 -3.523,1.6 -0.476,0.076 -0.997,0.019 -1.541,0.132 z m 1.85,4.883 c -1.116,-0.395 -2.704,-0.702 -4.186,-0.444 0.743,-1.351 2.828,-1.864 4.892,-1.464 -0.233,0.638 -0.489,1.254 -0.706,1.908 z"
                 id="path3769"
                 inkscape:connector-curvature="0" /><path
                 style="fill:#939598"
                 d="m 440.27,314.203 c 0.171,0.641 0.44,1.185 0.617,1.821 1.472,-0.354 2.522,0.39 3.214,1.109 0.528,-0.297 1.131,-0.519 1.719,-0.754 -0.806,-1.731 -2.99,-2.503 -5.55,-2.176 z"
                 id="path3771"
                 inkscape:connector-curvature="0" /><path
                 style="fill:#7b756b"
                 d="m 345.56,316.024 c -0.934,0.492 -1.775,1.083 -2.38,1.909 2.188,-0.267 4.106,-0.805 4.979,-2.398 -2.41,-1.228 -6.092,-0.542 -6.961,1.555 1.051,-0.735 2.504,-1.294 4.362,-1.066 z"
                 id="path3773"
                 inkscape:connector-curvature="0" /><path
                 style="fill:#9cc87b"
                 d="m 384.412,328.411 c 0.01,0.036 0.045,0.045 0.045,0.09 1.268,0.426 2.06,1.328 2.335,2.752 6.007,1.343 14.15,1.083 20.792,0.488 0.591,-1.817 1.961,-3.136 4.361,-2.975 0.301,0.021 0.684,0.217 0.969,0.178 0.323,-0.043 0.779,-0.71 1.146,-0.934 1.462,-0.884 3.778,-0.361 4.934,0.579 4.834,-1.597 9.741,-3.116 14.58,-4.707 0.126,-0.79 0.321,-1.513 0.66,-2.087 -3.93,-2.18 -8.063,-4.158 -12.025,-6.306 -3.114,2.529 -6.051,5.238 -9.119,7.815 -4.517,-1.959 -9.428,-4.146 -14.095,-6.172 -1.595,-0.691 -3.21,-1.277 -4.714,-1.998 -0.042,-0.021 -0.085,-0.113 -0.178,-0.088 -1.718,0.456 -3.438,1.385 -5.198,1.908 -0.209,0.634 -0.692,1.238 -0.836,1.865 -0.211,0.919 -0.091,1.869 -0.221,2.708 -0.439,2.85 -1.426,5.56 -3.436,6.884 z"
                 id="path3775"
                 inkscape:connector-curvature="0" /><path
                 style="fill:#f6dbcb"
                 d="m 419.302,335.383 c 5.999,-1.492 10.73,-4.172 15.064,-7.459 0.262,-0.198 0.69,-0.58 0.883,-0.623 0.25,-0.054 0.564,0.058 0.792,0.045 0.688,-0.039 1.206,-0.303 1.762,-0.444 0.774,-2.518 1.577,-5.648 2.247,-8.524 0.217,-0.926 0.475,-1.758 -0.396,-2.176 -0.037,-0.008 -0.041,0.018 -0.043,0.045 -0.136,2.657 -2.223,3.473 -3.48,5.062 -0.724,0.912 -1.472,2.006 -1.411,3.64 -5.947,1.42 -11.085,3.658 -16.253,5.861 -0.081,1.884 0.285,3.321 0.835,4.573 z"
                 id="path3777"
                 inkscape:connector-curvature="0" /><path
                 style="fill:#f6dbcb"
                 d="m 341.153,326.058 c -0.127,0.55 -0.195,1.075 -0.307,1.6 -0.11,0.513 -0.351,1.047 -0.353,1.553 -0.003,0.637 0.419,1.491 0.705,2.133 0.849,1.895 2.008,3.881 3.171,5.282 0.045,-0.655 0.23,-1.31 0.353,-1.997 0.116,-0.659 0.381,-1.438 0.353,-1.998 -0.049,-0.979 -1.286,-1.953 -2.246,-2.176 -0.263,-0.949 -0.397,-2.028 -0.485,-3.153 0.28,0.329 0.5,0.676 0.793,1.066 0.217,0.289 0.51,0.836 0.837,0.977 0.284,0.122 0.755,0.083 1.145,0.134 1.121,0.141 2.329,0.348 3.216,0.089 0.12,-0.433 0.02,-0.984 -0.175,-1.243 -0.004,-0.279 0.401,-0.35 0.309,-0.578 -0.845,-0.173 -1.476,-0.557 -1.807,-1.243 0.705,0.015 1.371,0.068 2.025,0.134 -0.029,-0.224 0.075,-0.311 0.046,-0.532 -0.455,-0.211 -0.865,-0.462 -1.322,-0.666 0.627,-0.492 1.399,-0.839 2.422,-0.934 -0.317,-1.042 -0.935,-2.165 -0.925,-3.685 0.34,-0.34 0.805,-0.551 1.496,-0.534 0.018,-0.447 -0.213,-1.025 -0.264,-1.554 -0.714,0.391 -1.707,0.871 -2.818,0.578 0.672,-0.479 1.305,-0.993 1.498,-1.953 -0.666,0.677 -1.947,1.439 -3.435,1.553 -1.346,0.105 -2.503,0.164 -2.513,1.555 -0.002,0.391 0.134,0.716 0.265,1.065 -0.348,0.493 -0.763,0.918 -1.145,1.377 -0.546,-0.316 -0.986,-0.733 -1.631,-0.532 -0.465,0.145 -0.822,0.844 -0.792,1.553 0.045,1.054 0.933,1.573 1.584,2.129 z m 6.786,-5.016 c -0.019,0.573 -0.15,1.032 -0.178,1.598 -1.135,-0.117 -2.414,-0.199 -3.523,0 0.471,-1.301 1.878,-1.66 3.701,-1.598 z"
                 id="path3779"
                 inkscape:connector-curvature="0" /><path
                 d="m 378.377,318.998 c 1.482,-0.258 3.07,0.05 4.186,0.444 0.217,-0.654 0.473,-1.271 0.705,-1.908 -2.063,-0.4 -4.148,0.113 -4.891,1.464 z"
                 id="path3781"
                 inkscape:connector-curvature="0" /><path
                 style="fill:#f6dbcb"
                 d="m 444.279,322.817 c 0.926,-0.232 0.732,-1.5 -0.221,-1.554 0.376,-0.235 0.759,-0.289 0.794,-0.711 0.103,-1.301 -3.916,-1.344 -3.879,-0.045 0.014,0.436 0.398,0.569 0.795,0.711 -0.799,0.111 -1.311,1.239 -0.31,1.51 -1.066,0.341 -0.931,1.494 0.134,1.73 -0.357,0.205 -0.776,0.341 -0.751,0.757 0.065,1.016 3.891,1.153 3.746,-0.134 -0.037,-0.329 -0.357,-0.428 -0.662,-0.578 0.974,-0.143 1.582,-1.308 0.354,-1.686 z"
                 id="path3783"
                 inkscape:connector-curvature="0" /><path
                 d="m 347.762,322.64 c 0.027,-0.565 0.159,-1.024 0.178,-1.598 -1.823,-0.061 -3.23,0.297 -3.701,1.598 1.109,-0.2 2.388,-0.117 3.523,0 z"
                 id="path3785"
                 inkscape:connector-curvature="0" /><path
                 style="fill:#a85e2b"
                 d="m 315.252,330.675 c -0.137,1.447 -0.447,2.718 -0.616,4.131 0.863,0.67 2.108,0.954 3.48,1.109 0.157,-0.419 0.171,-0.981 0.264,-1.465 -0.839,-0.636 -1.834,-1.345 -1.719,-2.797 0.602,0.398 1.059,1.484 2.027,1.643 0.829,0.134 1.682,-0.3 2.643,-0.267 0.064,-0.072 -0.124,-0.225 -0.22,-0.311 -0.308,-0.28 -0.786,-0.606 -1.057,-0.933 0.719,0.198 2.038,0.306 2.069,-0.577 -0.768,-0.099 -1.572,-0.162 -2.379,-0.221 0.115,-0.646 0.878,-0.857 1.63,-0.712 -0.107,-0.246 -0.302,-0.405 -0.396,-0.666 0.396,-0.135 0.945,-0.112 1.365,-0.221 -0.141,-1.043 -0.173,-2.193 -0.308,-3.242 0.255,-0.128 0.684,-0.08 0.968,-0.178 -0.11,-0.746 -0.266,-1.45 -0.395,-2.177 -0.976,-0.704 -2.036,0.185 -3.216,0.179 -0.24,-0.002 -0.502,-0.094 -0.75,-0.089 -1.08,0.021 -2.259,0.689 -2.378,1.686 -0.086,0.727 0.236,1.99 -0.616,2.132 -0.521,0.086 -0.921,-0.233 -1.321,-0.044 -0.022,0.01 -0.041,0.029 -0.063,0.043 l 0,2.273 c 0.254,0.335 0.595,0.587 0.988,0.704 z m 5.242,-4.395 c -0.017,0.354 -0.039,0.699 -0.087,1.021 -1.073,-0.175 -2.316,-0.037 -3.216,0.223 0.235,-1.272 1.891,-1.708 3.303,-1.244 z"
                 id="path3787"
                 inkscape:connector-curvature="0" /><path
                 d="m 320.407,327.301 c 0.048,-0.321 0.07,-0.667 0.087,-1.021 -1.412,-0.464 -3.068,-0.028 -3.303,1.243 0.9,-0.259 2.143,-0.397 3.216,-0.222 z"
                 id="path3789"
                 inkscape:connector-curvature="0" /><path
                 style="fill:#9cc87b"
                 d="m 448.859,329.299 c -1.467,-0.73 -2.946,-1.521 -4.359,-2.264 -1.105,0.544 -2.324,0.975 -3.745,1.197 -0.93,2.307 -1.862,4.608 -2.819,6.884 -0.775,0.026 -1.368,-0.132 -1.674,-0.577 0.354,-2.039 0.919,-3.869 1.32,-5.861 -0.518,0.18 -1.328,0.006 -1.937,0.178 -0.47,0.132 -1.082,0.89 -1.544,1.288 -3.529,3.052 -7.213,5.797 -11.85,7.681 -0.085,1.976 -1.053,3.112 -2.554,3.641 -0.35,0.124 -0.751,0.113 -1.145,0.266 -0.43,0.17 -0.916,0.897 -1.365,1.2 -1.54,1.039 -3.938,1.099 -5.639,0.133 -5.95,1.611 -11.844,3.276 -17.796,4.885 -0.716,2.359 -1.685,4.511 -2.776,6.527 -1.086,2.008 -2.414,3.813 -3.656,5.55 26.846,2.276 51.123,7.137 74.138,13.274 0,-12.46 0,-24.924 0,-37.385 -0.607,-0.517 -1.372,-0.78 -2.069,-1.154 -3.413,-1.835 -6.994,-3.701 -10.53,-5.463 z m 1.586,3.374 c 0.774,0.391 1.545,0.782 2.292,1.2 -1.502,6.391 -4.276,11.497 -8.415,15.231 2.84,-4.674 5.353,-9.675 6.123,-16.431 z m 3.965,2.088 c 0.759,0.376 1.815,0.836 2.557,1.377 -1.951,6.822 -5.341,12.438 -10.264,16.251 -1.649,1.276 -3.473,2.441 -5.552,3.196 6.344,-5.002 11.629,-11.069 13.259,-20.824 z m -0.175,16.651 c -2.976,3.573 -6.849,6.565 -12.292,7.502 8.358,-4.482 14.257,-11.44 16.607,-21.977 0.708,0.234 1.494,0.772 2.247,1.109 -1.379,5.148 -3.557,9.756 -6.562,13.366 z"
                 id="path3791"
                 inkscape:connector-curvature="0" /><path
                 style="fill:#f0a565"
                 d="m 344.898,347.681 c -0.201,0.223 -0.619,0.65 -0.66,0.89 -0.063,0.362 0.229,0.716 0.264,1.11 1.055,-1.323 2.317,-2.43 3.877,-3.242 2.184,-3.91 4.765,-7.329 8.194,-9.946 0.941,-0.719 2.071,-1.247 2.686,-2.353 2.755,-0.86 5.757,-1.443 9.075,-1.91 0.464,-0.065 1.043,-0.234 1.366,-0.178 0.434,0.077 1.036,0.762 1.409,1.11 1.309,1.224 2.221,2.753 2.952,4.485 -1.045,-0.56 -2.156,-1.676 -3.217,-2.221 0.11,1.059 0.097,2.242 0.178,3.33 -1.011,-0.805 -2.133,-2.115 -3.13,-2.93 0.15,1.136 0.304,2.27 0.441,3.418 -1.04,-0.77 -2.122,-2.123 -3.171,-2.886 0.223,1.138 0.311,2.409 0.528,3.552 -1.059,-0.768 -2.276,-2.345 -3.262,-3.107 0.048,1.316 0.16,2.564 0.223,3.862 -0.776,-1.615 -1.793,-2.989 -3.129,-4.041 -5.625,4.069 -6.949,12.474 -11.584,17.539 0.951,0.758 1.986,1.431 3.082,2.043 2.906,-1.794 5.721,-4.061 9.118,-5.506 0.485,2.873 0.629,6.22 0.354,9.458 -0.087,1.018 -0.117,2.136 -0.397,2.93 -0.14,0.397 -0.592,0.89 -0.881,1.287 -1.994,2.749 -3.904,5.33 -5.902,8.17 -0.154,0.218 -0.439,0.631 -0.441,0.622 0.012,0.159 0.745,0.532 1.058,0.71 5.443,3.078 12.946,4.449 21.145,4.573 -1.86,-5.4 -2.16,-13.651 -0.926,-19.936 0.309,-1.567 0.699,-3.064 1.19,-4.44 0.485,-1.359 1.159,-2.598 1.676,-3.908 0.517,-1.318 1.003,-2.745 1.409,-4.218 0.401,-1.463 0.817,-3.054 0.924,-4.661 0.101,-1.509 -0.153,-3.084 -0.395,-4.441 -0.476,-2.66 -1.316,-4.95 -2.864,-6.703 -0.707,-0.802 -1.824,-1.691 -2.95,-1.82 -2.103,-0.243 -2.811,1.422 -3.614,2.619 -2.863,0.148 -5.417,0.605 -7.928,1.198 -0.811,0.191 -1.748,0.286 -2.423,0.623 -0.738,0.368 -1.208,1.295 -1.85,1.819 -0.485,0.396 -1.022,0.722 -1.498,1.11 -3.27,2.661 -6.245,5.998 -8.194,10.036 -0.918,0.351 -1.993,1.146 -2.733,1.953 z m 9.736,25.487 c 1.734,-2.441 3.589,-4.998 5.374,-7.237 -1.143,2.694 -2.259,5.418 -3.347,8.169 -0.705,-0.282 -1.338,-0.634 -2.027,-0.932 z m 2.997,1.332 c 1.19,-2.128 2.513,-4.128 3.788,-6.172 -0.637,2.306 -1.307,4.571 -1.982,6.838 -0.645,-0.179 -1.177,-0.471 -1.806,-0.666 z m 4.624,1.42 c -0.625,-0.183 -1.25,-0.367 -1.895,-0.533 0.72,-1.369 1.632,-2.804 2.379,-4.085 0.099,-0.166 0.142,-0.43 0.353,-0.487 -0.32,1.662 -0.568,3.394 -0.837,5.105 z"
                 id="path3793"
                 inkscape:connector-curvature="0" /><path
                 style="fill:#f0a565"
                 d="m 417.935,336.847 c -0.957,-1.749 -2.277,-4.745 -1.365,-7.548 -1.307,-0.463 -2.6,0.124 -2.993,1.109 -1.295,-0.725 -3.325,-0.589 -3.658,0.89 -0.447,1.994 -0.051,4.204 0.749,5.728 0.95,1.804 2.465,2.844 4.315,3.464 0.085,-0.131 -0.122,-0.215 -0.175,-0.268 -1.477,-1.434 -2.402,-4.014 -1.982,-7.148 0.869,2.082 2.075,4.022 5.109,3.773 z"
                 id="path3795"
                 inkscape:connector-curvature="0" /><path
                 style="fill:#f0a565"
                 d="m 383.576,329.743 c -0.306,1.192 -0.573,2.448 -1.059,3.687 -0.199,0.514 -0.438,1.121 -0.703,1.686 -0.244,0.516 -0.72,1.155 -0.793,1.554 -0.161,0.861 0.267,1.597 0.176,2.486 0.254,0.045 0.414,-0.268 0.573,-0.443 1.32,-1.452 3.126,-3.619 2.907,-6.527 -0.079,-1.021 -0.519,-1.795 -1.013,-2.486 -0.051,-0.009 -0.078,0.009 -0.088,0.043 z"
                 id="path3797"
                 inkscape:connector-curvature="0" /><path
                 style="fill:#bcbec0"
                 d="m 340.669,338.002 c 0.16,-1.26 0.479,-2.361 0.97,-3.285 -0.605,-1.039 -1.169,-2.178 -1.63,-3.419 -0.161,-0.44 -0.315,-1.142 -0.528,-1.333 -0.864,0.124 -1.09,0.96 -1.013,2.044 0.157,2.22 1.582,4.451 2.201,5.993 z"
                 id="path3799"
                 inkscape:connector-curvature="0" /><path
                 style="fill:#bcbec0"
                 d="m 327.94,352.877 c 2.016,-3.531 2.242,-10.252 1.101,-14.964 0.763,0.712 1.593,1.976 2.379,2.664 0.026,-1.336 -0.074,-2.283 -0.045,-3.64 0.765,0.769 1.543,2.145 2.292,2.93 -0.015,-1.186 -0.06,-2.34 -0.132,-3.464 0.422,0.306 0.757,0.828 1.145,1.287 0.387,0.459 0.778,0.939 1.189,1.332 -0.057,-1.154 -0.102,-2.323 -0.132,-3.508 0.778,0.83 1.649,2.186 2.422,3.021 -0.211,-2.08 -0.511,-4.072 -0.703,-6.172 -3.88,0.901 -7.213,2.352 -10.132,4.218 -0.083,1.038 -0.796,1.255 -1.543,1.821 -2.825,2.142 -4.683,5.099 -5.814,9.057 -1.65,1.238 -3.293,2.483 -4.054,4.619 0.433,-0.039 0.824,-0.117 1.321,-0.09 0.796,-1.175 1.682,-2.251 2.732,-3.285 0.341,-0.337 0.84,-0.598 1.056,-0.933 0.236,-0.365 0.311,-0.908 0.486,-1.332 1.201,-2.917 2.984,-5.413 5.329,-7.282 0.148,0.373 0.182,0.874 0.266,1.421 0.067,0.454 0.282,1.049 0.22,1.422 -0.059,0.337 -0.717,0.796 -1.014,1.154 -1.019,1.229 -1.651,2.546 -2.116,4.306 -0.595,2.259 -1.402,4.322 -2.685,5.861 1.07,0.757 1.976,1.68 2.643,2.842 1.347,-1.01 2.475,-2.24 3.789,-3.285 z"
                 id="path3801"
                 inkscape:connector-curvature="0" /><path
                 style="fill:#bcbec0"
                 d="m 347.102,333.828 c -0.134,0.301 -0.552,0.807 -0.571,1.065 -0.032,0.358 0.319,0.935 0.439,1.379 0.134,0.499 0.246,0.956 0.264,1.553 0.846,-1.214 1.344,-3.961 0.31,-5.328 -0.061,0.373 -0.255,0.915 -0.442,1.331 z"
                 id="path3803"
                 inkscape:connector-curvature="0" /><path
                 d="m 452.737,333.873 c -0.747,-0.418 -1.518,-0.809 -2.292,-1.2 -0.771,6.756 -3.283,11.757 -6.123,16.431 4.139,-3.734 6.913,-8.84 8.415,-15.231 z"
                 id="path3805"
                 inkscape:connector-curvature="0" /><path
                 style="fill:#f0a565"
                 d="m 382.695,366.33 c 0.508,-3.497 1.732,-6.748 3.039,-9.413 0.678,-1.381 1.563,-2.59 2.292,-3.952 2.161,-4.042 3.703,-8.69 3.917,-14.74 0.631,0.44 1.066,1.212 1.5,1.955 0.435,0.746 0.869,1.545 1.146,2.395 5.264,-0.644 9.457,-2.368 13.789,-3.95 -0.607,-1.377 -1.135,-3.056 -0.97,-5.064 -6.642,0.776 -14.796,0.648 -20.793,-0.621 -0.03,0 -0.06,0 -0.089,0 -0.495,4.442 -2.414,7.453 -5.769,9.013 -0.482,3.145 -1.285,5.92 -2.335,8.57 -0.522,1.318 -1.09,2.58 -1.5,3.952 -0.408,1.377 -0.786,2.82 -1.1,4.352 -1.26,6.145 -0.826,13.988 1.057,19.27 2.48,0.268 4.71,-0.416 6.785,-0.845 -1.224,-3.087 -1.513,-7.178 -0.969,-10.922 z"
                 id="path3807"
                 inkscape:connector-curvature="0" /><path
                 d="m 456.967,336.138 c -0.741,-0.541 -1.798,-1.001 -2.557,-1.377 -1.63,9.755 -6.915,15.822 -13.259,20.824 2.079,-0.755 3.902,-1.92 5.552,-3.196 4.923,-3.814 8.313,-9.429 10.264,-16.251 z"
                 id="path3809"
                 inkscape:connector-curvature="0" /><path
                 style="fill:#bcbec0"
                 d="m 346.132,337.824 c -1.115,1.688 -2.067,3.542 -3.171,5.239 0.047,-1.344 0.199,-2.967 0.264,-4.439 -0.145,-0.139 -0.364,0.394 -0.616,0.442 -2.917,3.313 -5.091,7.858 -6.21,12.965 -1.131,5.147 -3.072,9.814 -5.815,13.366 0.717,0.135 1.383,0.322 2.07,0.487 1.452,-2.513 2.659,-5.035 4.273,-7.548 0.227,-0.353 0.646,-0.753 0.66,-1.021 0.014,-0.255 -0.293,-0.589 -0.396,-0.889 -0.795,-2.309 0.235,-4.696 1.541,-6.039 0.57,-1.839 1.81,-3.011 3.789,-3.462 0.421,-0.097 0.967,-0.047 1.364,-0.223 0.215,-0.096 0.42,-0.452 0.663,-0.712 0.676,-0.726 1.412,-1.327 2.465,-1.598 1.094,-2.864 2.929,-4.982 4.803,-7.058 -0.761,-0.805 -1.616,-1.513 -2.511,-2.177 -0.434,2.05 -1.259,3.705 -2.292,5.15 -0.361,-0.758 -0.589,-1.651 -0.881,-2.483 z"
                 id="path3811"
                 inkscape:connector-curvature="0" /><path
                 d="m 441.943,358.914 c 5.443,-0.937 9.316,-3.929 12.292,-7.502 3.005,-3.61 5.183,-8.218 6.563,-13.365 -0.753,-0.338 -1.539,-0.875 -2.247,-1.109 -2.351,10.536 -8.249,17.494 -16.608,21.976 z"
                 id="path3813"
                 inkscape:connector-curvature="0" /><path
                 style="fill:#f0a565"
                 d="m 340.054,354.075 c -0.461,0.554 -0.856,1.495 -0.616,2.576 0.559,2.518 3.781,4.696 6.739,4.706 2.22,0.007 3.641,-1.36 4.448,-3.287 -3.653,-1.733 -6.717,-4.061 -8.192,-7.992 -0.037,-0.008 -0.041,0.019 -0.044,0.045 -0.174,0.493 -0.313,0.971 -0.352,1.51 -0.274,3.576 1.966,5.559 3.876,7.06 -2.822,-0.487 -4.811,-2.198 -5.859,-4.618 z"
                 id="path3815"
                 inkscape:connector-curvature="0" /><path
                 style="fill:#fadd6d"
                 d="m 322.213,355.719 c -0.879,-1.066 -2.258,-1.917 -3.48,-2.088 -1.3,-0.181 -2.933,0.279 -2.423,1.775 2.081,0.404 3.633,1.342 4.581,2.887 -1.212,-0.617 -3.744,-1.516 -5.064,-0.443 -0.489,0.396 -0.639,0.912 -0.881,1.598 2.951,-0.693 6.052,0.816 5.945,3.997 0.633,-0.229 1.224,-0.898 0.926,-1.776 1.412,0.234 2.038,-0.406 1.938,-1.909 -0.093,-1.399 -0.633,-2.94 -1.542,-4.041 z"
                 id="path3817"
                 inkscape:connector-curvature="0" /><path
                 style="fill:#48afa2"
                 d="m 352.564,358.827 c -1.847,3.228 -3.862,6.623 -5.771,9.945 -0.277,0.481 -0.648,0.99 -0.794,1.42 -0.271,0.814 -0.312,1.833 -0.485,2.753 -0.439,2.354 -0.752,4.385 -1.231,6.883 -0.087,0.452 -0.296,1.001 -0.266,1.332 0.041,0.447 0.484,0.959 0.705,1.376 0.261,0.493 0.436,0.952 0.662,1.421 2.107,-3.231 4.178,-6.504 6.431,-9.591 -0.457,-0.322 -0.916,-0.645 -1.365,-0.976 2.225,-3.249 4.536,-6.409 6.826,-9.592 -1.537,-1.69 -3.121,-3.333 -4.712,-4.971 z"
                 id="path3819"
                 inkscape:connector-curvature="0" /><path
                 style="fill:#f6dbcb"
                 d="m 338.425,359.271 c -2.816,3.48 -5.154,7.445 -7.226,11.679 -1.293,0.821 -2.986,1.838 -4.142,3.15 -0.534,0.608 -1.268,1.822 -0.132,2.265 -0.302,0.8 0.134,1.525 0.838,1.599 0.032,0.751 0.364,1.201 1.232,1.11 0.609,1.577 2.17,0.177 2.643,-0.666 -0.305,1.071 -0.002,2.27 1.19,2.22 -0.416,-2.84 2.04,-4.016 2.026,-6.483 -0.004,-0.587 -0.152,-1.038 -0.396,-1.466 2.921,-3.152 6.043,-6.103 8.502,-9.724 -2.059,-0.676 -3.66,-1.814 -4.535,-3.684 z"
                 id="path3821"
                 inkscape:connector-curvature="0" /><path
                 style="fill:#e39326"
                 d="m 316.046,380.627 c 0.255,0.694 0.773,1.667 1.763,1.198 -0.737,-0.877 -0.53,-2.292 -0.53,-3.642 0,-1.391 -0.441,-2.509 -1.057,-3.329 0.765,-2.595 1.62,-5.467 2.422,-8.214 0.268,-0.916 0.731,-1.857 0.838,-2.708 0.323,-2.568 -2.876,-3.788 -4.626,-2.221 -0.217,0.718 -0.412,1.496 -0.59,2.311 l 0,18.549 c 0.083,-0.04 0.163,-0.093 0.238,-0.169 1.099,0.743 1.606,-0.646 1.542,-1.775 z"
                 id="path3823"
                 inkscape:connector-curvature="0" /><path
                 style="fill:#7b756b"
                 d="m 320.891,386.266 c 0.193,-0.497 0.609,-1.112 0.618,-1.51 0.007,-0.329 -0.285,-0.869 -0.397,-1.288 -0.82,-3.052 -1.031,-6.865 -0.484,-10.478 0.586,-3.87 1.777,-6.963 3.436,-9.901 -0.159,-0.057 -0.417,0.373 -0.838,0.444 -0.281,0.046 -0.595,0.017 -0.837,-0.135 -0.089,1.229 -0.752,1.878 -2.07,1.866 -0.744,2.224 -1.426,4.445 -2.114,6.882 -0.202,0.716 -0.628,1.672 -0.616,2.353 0.006,0.449 0.405,0.959 0.572,1.42 0.653,1.815 -0.354,4.546 0.837,6.083 -0.307,0.49 -0.809,0.784 -1.366,1.022 0.383,1.577 -2.11,2.389 -3.082,1.598 -0.091,0.055 -0.186,0.094 -0.283,0.121 l 0,8.817 c 0.792,1.194 1.61,2.336 2.44,3.404 1.395,-3.442 2.765,-7.049 4.184,-10.698 z"
                 id="path3825"
                 inkscape:connector-curvature="0" /><path
                 style="fill:#bcbec0"
                 d="m 344.987,363.089 c -1.305,1.542 -2.642,3.051 -4.009,4.529 1.147,0.234 2.234,0.529 3.349,0.798 1.282,-1.488 2.199,-3.347 3.171,-5.149 -0.667,-0.134 -1.817,0.104 -2.511,-0.178 z"
                 id="path3827"
                 inkscape:connector-curvature="0" /><path
                 style="fill:#b2805a"
                 d="m 339.612,394.079 c -1.46,-3.5 -2.925,-6.996 -4.404,-10.478 1.827,2.643 3.638,5.688 5.461,8.48 1.116,-1.79 2.113,-3.701 3.216,-5.505 -2.31,-3.872 -4.82,-7.542 -7.751,-10.789 -0.63,1.884 -2.443,2.805 -2.335,5.283 -0.327,0.522 -1.231,0.923 -1.938,0.534 -0.323,1.865 -4.171,1.436 -4.448,-0.045 -0.726,-0.232 -1.252,-0.663 -1.279,-1.599 -0.395,-0.188 -0.646,-0.256 -0.836,-0.488 -0.234,-0.286 -0.144,-0.586 -0.264,-1.066 -0.127,-0.496 -0.565,-0.75 -0.618,-1.421 -0.038,-0.486 0.059,-0.975 0.222,-1.421 0.893,-2.46 3.688,-4.321 5.461,-5.728 -0.993,-1.248 -2.034,-2.448 -3.126,-3.597 -1.526,2.062 -2.785,4.65 -3.35,7.726 -0.577,3.152 -0.469,6.868 0.133,10.124 1.13,6.126 3.454,11.49 5.99,16.073 0.441,0 0.881,0 1.322,0 -0.382,-2.811 -0.782,-5.607 -1.145,-8.437 1.04,2.784 2.041,5.608 3.038,8.437 0.397,0 0.793,0 1.191,0 -0.691,-3.654 -1.389,-7.304 -2.071,-10.967 1.488,3.533 2.865,7.178 4.318,10.745 0.15,-0.465 0.919,-1.226 0.968,-1.775 0.025,-0.276 -0.257,-0.993 -0.396,-1.467 -0.945,-3.186 -2.188,-7.231 -3.039,-10.168 1.608,3.026 3.167,6.102 4.714,9.191 0.397,-0.468 0.614,-1.125 0.966,-1.642 z"
                 id="path3829"
                 inkscape:connector-curvature="0" /><path
                 style="fill:#48afa2"
                 d="m 384.767,368.193 c -0.054,0.689 -0.052,1.377 -0.089,1.732 27.955,4.075 52.575,11.503 76.297,19.848 -15.164,-9.197 -34.227,-15.303 -54.625,-19.537 -5.829,-1.209 -12.059,-2.281 -18.412,-3.195 -0.97,-0.141 -2.058,-0.391 -2.818,-0.4 -0.346,-0.004 -0.309,0.941 -0.353,1.552 z"
                 id="path3831"
                 inkscape:connector-curvature="0" /><path
                 d="m 357.631,374.5 c 0.629,0.195 1.161,0.487 1.806,0.666 0.676,-2.267 1.346,-4.532 1.982,-6.838 -1.275,2.044 -2.598,4.044 -3.788,6.172 z"
                 id="path3833"
                 inkscape:connector-curvature="0" /><path
                 style="fill:#b2805a"
                 d="m 340.141,372.147 c 0.783,2.661 1.488,5.398 2.248,8.081 0.602,-3.153 1.091,-6.419 1.629,-9.636 -1.457,-0.286 -2.963,-0.69 -4.228,-0.976 -0.28,-0.063 -1.114,0.875 -1.322,1.064 -0.471,0.43 -0.869,0.699 -1.19,1.155 0.632,1.139 1.163,2.378 1.762,3.551 0.436,-1.011 0.675,-2.22 1.101,-3.239 z"
                 id="path3835"
                 inkscape:connector-curvature="0" /><path
                 d="m 362.739,371.302 c -0.747,1.281 -1.659,2.716 -2.379,4.085 0.645,0.166 1.27,0.351 1.895,0.533 0.27,-1.711 0.518,-3.443 0.837,-5.105 -0.211,0.057 -0.254,0.321 -0.353,0.487 z"
                 id="path3837"
                 inkscape:connector-curvature="0" /><path
                 style="fill:#48afa2"
                 d="m 394.898,386.266 c 22.164,2.827 44.501,5.904 66.56,8.658 -0.232,-0.314 -0.641,-0.458 -0.968,-0.622 -10.561,-5.303 -22.569,-9.576 -35.108,-12.92 -12.97,-3.459 -26.574,-6.682 -40.572,-9.014 0.132,2.189 0.544,4.099 1.013,5.949 -0.506,0.556 -1.342,0.779 -1.894,1.289 0.56,6.615 0.53,14.534 -0.441,20.646 0.674,0.106 2.118,0.016 2.863,0.045 0.621,-1.596 1.086,-3.346 1.322,-5.329 10.804,1.41 21.521,2.907 32.332,4.308 -10.51,-3.081 -21.049,-6.134 -31.583,-9.191 21.927,3.191 44.001,6.625 65.988,9.901 -19.939,-4.769 -40.211,-9.018 -60.129,-13.764 -0.741,-0.177 0.339,0.009 0.617,0.044 z"
                 id="path3839"
                 inkscape:connector-curvature="0" /><path
                 style="fill:#cd88a4"
                 d="m 339.085,400.12 c 0.457,-0.118 1.121,0.154 1.629,0 0.351,-0.108 0.972,-1.16 1.234,-1.51 1.145,-1.535 2.362,-3.281 3.479,-4.663 -0.822,2.056 -1.647,4.11 -2.51,6.127 0.572,-0.065 1.207,0.24 1.806,0.046 0.31,-0.102 0.828,-1.016 1.059,-1.333 0.976,-1.348 2.079,-2.874 2.995,-4.042 -0.573,1.792 -1.168,3.56 -1.718,5.375 0.68,-0.152 1.272,0.204 1.893,0 0.25,-0.085 0.684,-0.811 0.881,-1.066 0.834,-1.087 1.746,-2.308 2.511,-3.285 -0.418,1.485 -0.918,2.892 -1.409,4.306 7.017,0.104 14.228,0.016 21.319,0.046 2.367,-5.477 3.477,-12.214 3.744,-19.805 -8.767,-0.16 -16.391,-1.477 -22.202,-4.617 -5.429,7.611 -10.188,15.896 -14.711,24.421 z"
                 id="path3841"
                 inkscape:connector-curvature="0" /><path
                 style="fill:#cd88a4"
                 d="m 382.299,379.961 c -0.616,0.029 -1.241,0.054 -1.805,0.133 1.204,6.257 0.666,14.115 -0.53,20.026 0.587,0 1.175,0 1.762,0 1.249,-5.762 1.277,-13.581 0.619,-20.026 0.004,-0.063 0.004,-0.125 -0.046,-0.133 z"
                 id="path3843"
                 inkscape:connector-curvature="0" /><path
                 d="m 319.306,292.758 c 3.435,0.428 6.474,1.602 9.074,2.708 5.612,2.388 12.126,3.774 19.866,3.509 -7.309,-0.466 -13.215,-2.477 -18.104,-5.285 -0.705,-0.402 -1.387,-0.922 -2.115,-1.243 -2.523,-1.109 -5.71,-1.847 -8.853,-2.308 -1.555,-0.228 -3.242,-0.357 -4.908,-0.331 l 0,2.843 c 1.675,-0.135 3.409,-0.096 5.04,0.107 z"
                 id="path3845"
                 inkscape:connector-curvature="0" /><path
                 d="m 314.266,338.181 0,0.741 c 0.183,0.005 0.363,0.01 0.547,0.013 -0.154,-0.262 -0.347,-0.511 -0.547,-0.754 z"
                 id="path3847"
                 inkscape:connector-curvature="0" /><path
                 d="m 324.547,274.065 c 5.551,0.256 10.783,1.328 15.243,2.708 1.1,0.341 2.286,0.677 3.259,1.198 2.963,1.592 6.277,2.728 10.089,3.42 5.065,0.918 11.249,0.827 16.605,0.088 5.065,-0.698 9.633,-2.335 14.493,-3.463 4.935,-1.146 10.076,-1.713 15.815,-2.132 11.478,-0.835 22.657,0.988 31.232,4.041 -3.956,-2.121 -8.451,-3.758 -13.392,-4.84 -4.99,-1.093 -10.525,-1.876 -16.52,-1.731 -8.91,0.215 -16.716,1.474 -23.655,3.685 -4.689,1.494 -9.913,2.353 -15.77,2.353 -5.897,0 -11.141,-1.153 -15.374,-2.886 -2.148,-0.879 -4.115,-1.978 -6.301,-2.842 -4.241,-1.677 -9.413,-2.934 -14.932,-3.33 -3.84,-0.275 -7.585,-0.012 -11.075,0.613 l 0,3.835 c 3.167,-0.65 6.658,-0.884 10.283,-0.717 z"
                 id="path3849"
                 inkscape:connector-curvature="0" /><path
                 d="m 322.477,284.276 c 2.146,0.45 4.044,1.02 5.858,1.732 1.807,0.708 3.407,1.697 5.11,2.486 3.45,1.601 7.242,2.931 11.365,3.819 4.113,0.887 8.874,1.417 13.787,0.798 -5.126,-0.004 -9.546,-1.097 -13.523,-2.441 -3.959,-1.341 -7.577,-3.069 -10.88,-5.15 -3.155,-1.988 -7.004,-3.72 -11.233,-4.751 -2.438,-0.595 -5.656,-1.03 -8.696,-0.912 l 0,3.817 c 2.837,-0.169 5.831,0.105 8.212,0.602 z"
                 id="path3851"
                 inkscape:connector-curvature="0" /><path
                 d="m 463.529,403.626 c 0,-46.09 0,-92.172 0,-138.264 0.004,-0.064 0.008,-0.126 -0.044,-0.133 -49.74,0 -99.479,0 -149.22,0 l 0,4.873 c 4.604,-1.349 10.091,-1.854 15.921,-1.232 3.767,0.401 7.182,1.087 10.396,1.998 1.585,0.449 3.173,0.901 4.626,1.598 4.263,2.046 9.284,3.188 15.152,3.464 6.013,0.282 11.62,-0.785 16.433,-2.042 4.952,-1.295 10.13,-2.333 15.681,-2.976 7.739,-0.895 16.243,-0.667 23.216,0.355 7.144,1.048 13.598,3.177 19.12,5.772 11.286,5.309 20.135,13.153 26.604,23.221 0.103,0.489 0.015,1.17 0.044,1.732 -3.217,2.81 -7.73,4.553 -13.303,4.841 0.056,-0.449 0.248,-0.757 0.353,-1.154 1.411,0.002 2.505,-1.201 1.674,-2.531 0.317,-0.446 0.742,-0.722 1.056,-1.109 0.982,-1.207 1.688,-2.873 1.5,-5.018 -0.219,-2.495 -1.421,-4.489 -2.863,-5.906 -2.18,-2.138 -5.412,-3.55 -9.383,-3.729 -0.243,-0.011 -0.487,-0.025 -0.729,-0.046 -1.688,-0.136 -3.322,-0.508 -4.145,-1.451 -10e-4,-0.001 -0.002,-0.001 -0.002,-0.001 l 0,-10e-4 c -0.018,-0.02 -0.042,-0.037 -0.059,-0.058 -0.059,-0.072 -0.11,-0.376 -0.265,-0.266 0.556,3.297 4.58,3.206 7.621,3.951 2,0.492 3.652,1.2 5.066,2.355 1.37,1.116 2.507,2.558 2.73,4.66 0.245,2.282 -0.707,4.078 -2.068,5.285 -1.287,-0.649 -2.667,-1.314 -4.318,-1.422 -0.597,-0.039 -1.229,0.169 -1.673,0.089 -1.08,-0.194 -2.091,-1.556 -2.422,-2.754 -0.418,-1.502 -0.923,-2.466 -1.939,-3.285 -1.02,-0.819 -2.412,-1.044 -3.569,-1.642 -0.291,-0.15 -0.555,-0.311 -0.794,-0.488 l 0,0 -10e-4,-0.001 c -0.168,-0.124 -0.319,-0.261 -0.462,-0.405 -0.03,-0.031 -0.06,-0.064 -0.091,-0.097 -0.135,-0.147 -0.261,-0.304 -0.371,-0.477 -0.003,-0.004 -0.006,-0.008 -0.009,-0.012 -0.11,-0.175 -0.204,-0.372 -0.29,-0.58 -0.022,-0.053 -0.043,-0.107 -0.064,-0.162 -0.08,-0.219 -0.152,-0.449 -0.209,-0.708 -0.697,1.37 -0.151,2.921 0.573,3.774 0.761,0.895 1.918,1.373 3.039,1.907 1.198,0.573 1.893,1.216 2.247,2.71 0.407,1.721 1.506,2.966 3.392,3.196 -0.341,1.136 0.645,1.91 1.233,2.531 -0.151,0.291 -0.244,0.642 -0.351,0.977 -1.352,-0.124 -3.136,-0.266 -4.495,0.178 -0.526,0.172 -1.194,0.79 -1.541,0.798 -0.528,0.017 -1.343,-0.279 -2.028,-0.443 -0.689,-0.165 -1.382,-0.369 -1.98,-0.532 -6.541,-1.775 -12.288,-4.391 -17.666,-7.281 -2.211,-1.19 -4.404,-2.389 -6.694,-3.331 -4.602,-1.892 -9.986,-3.457 -15.858,-4.128 -5.974,-0.685 -12.465,-0.578 -18.237,0.577 -2.741,0.548 -5.383,1.143 -7.797,2.176 -4.7,2.006 -10.984,2.676 -17.356,2.041 -6.06,-0.603 -11.071,-2.231 -15.728,-4.262 -2.314,-1.01 -4.56,-2.146 -7.048,-2.976 -3.332,-1.109 -7.704,-1.922 -11.867,-1.74 l 0,1.988 c 1.021,-0.093 2.086,-0.122 3.19,-0.069 4.302,0.205 8.189,1.416 11.365,2.842 1.054,0.473 2.04,1.079 3.084,1.598 4.375,2.182 8.925,3.625 14.313,4.396 5.449,0.779 11.389,0.528 16.521,-0.755 2.438,-0.609 4.72,-1.583 7.18,-2.175 7.393,-1.779 17.405,-2.307 25.507,-0.979 5.254,0.863 10.037,2.361 14.315,4.44 2.071,1.008 4.015,2.258 6.082,3.286 6.243,3.112 12.855,5.979 20.439,7.682 -0.091,0.831 -0.321,1.503 -0.573,2.177 -0.254,0.682 -0.691,1.27 -0.838,1.907 -0.275,1.216 0.771,2.355 1.455,2.977 0.763,0.69 1.566,1.168 2.335,1.731 -0.372,1.136 -1.458,1.577 -2.292,2.176 -0.278,0.199 -0.834,0.824 -1.1,0.799 -0.142,-0.013 -0.509,-0.292 -0.794,-0.444 -4.1,-2.195 -8.52,-4.402 -12.422,-6.482 -3.823,1.791 -7.832,3.495 -11.718,5.284 -0.474,0.218 -1.307,0.718 -1.719,0.71 -0.443,-0.008 -1.235,-0.512 -1.806,-0.755 -3.723,-1.588 -7.124,-2.946 -10.837,-4.528 -0.552,-0.234 -1.357,-0.754 -1.805,-0.755 -0.369,-0.002 -0.917,0.323 -1.366,0.488 -1.435,0.523 -2.771,1.078 -4.097,1.466 -0.251,-0.9 0.341,-1.324 0.527,-1.954 0.669,-2.239 -0.773,-4.311 -2.599,-4.796 -0.365,-0.098 -0.767,0.004 -1.146,-0.09 -0.293,-0.071 -0.703,-0.446 -1.013,-0.621 -1.105,-0.618 -2.221,-1.082 -3.656,-1.331 -2.089,-0.363 -4.04,0.068 -5.595,0.8 -3.111,1.46 -5.074,3.721 -7.004,6.304 -4.195,-2.29 -8.686,-4.745 -12.995,-7.059 -0.556,-0.3 -1.407,-0.938 -1.849,-0.933 -0.366,0.004 -0.898,0.22 -1.367,0.355 -2.818,0.809 -5.445,1.537 -8.236,2.353 -0.478,0.14 -1.001,0.406 -1.366,0.4 -0.628,-0.01 -1.544,-0.483 -2.291,-0.711 -4.802,-1.465 -9.131,-2.725 -13.921,-4.173 -0.736,-0.225 -1.709,-0.739 -2.334,-0.712 -0.304,0.012 -0.877,0.346 -1.277,0.532 -2.749,1.284 -5.653,2.652 -8.3,3.852 l 0,2.578 c 0.842,0.478 1.683,0.956 2.529,1.429 2.605,-2.109 5.12,-4.312 7.752,-6.393 7.064,2.158 14.197,4.25 21.277,6.393 2.551,-1.338 5.043,-2.73 7.621,-4.04 4.681,2.461 9.304,4.979 13.965,7.46 -0.989,1.547 -2.507,3.324 -4.89,3.508 -1.163,0.088 -2.238,-0.248 -2.997,-0.623 0.006,1.994 0.974,3.4 2.378,4.13 -0.604,0.361 -1.781,0.108 -2.201,-0.09 1.376,4.253 5.426,5.81 10.53,6.307 -0.631,0.431 -1.118,1.007 -1.587,1.598 -2.836,0.3 -5.529,0.731 -8.019,1.377 -0.641,0.165 -1.91,0.403 -2.422,0.71 -0.355,0.213 -0.669,0.733 -1.014,1.11 -0.354,0.388 -0.682,0.857 -1.013,1.154 -0.536,0.477 -1.202,0.813 -1.762,1.243 -0.592,0.456 -1.094,0.97 -1.675,1.376 -0.98,-1.173 -2.013,-2.294 -3.479,-2.975 -0.166,-0.622 -0.31,-1.118 -0.617,-1.554 -0.4,-0.563 -1.157,-0.761 -0.794,-1.466 0.451,-0.212 1.009,-0.314 1.543,-0.442 0.741,-2.107 2.341,-5.358 1.32,-7.904 0.234,-0.547 0.544,-1.02 0.794,-1.553 -0.221,-0.816 -0.31,-1.765 -0.53,-2.577 0.143,-0.283 0.408,-0.476 0.53,-0.845 0.15,-0.461 0.143,-1.011 0.087,-1.597 -1.936,-1.141 -4.402,-2.151 -7.136,-1.777 -4.011,0.552 -6.978,3.607 -6.608,8.438 0.143,1.864 1.104,3.296 2.026,4.396 -0.193,0.47 -0.305,1.023 -0.44,1.554 -1.186,0.447 -2.005,1.267 -2.247,2.664 -4.127,1.17 -7.654,2.94 -10.969,4.93 -0.113,0.433 -0.356,0.734 -0.485,1.154 -1.481,-0.668 -3.017,-1.281 -4.405,-2.045 0.026,-0.446 0.098,-0.847 0.132,-1.285 0.37,-0.163 0.801,-0.261 1.147,-0.445 0.297,-0.753 0.58,-1.561 0.792,-2.397 0.217,-0.857 0.53,-1.895 0.484,-2.755 -0.016,-0.306 -0.236,-0.629 -0.221,-0.931 0.022,-0.364 0.335,-0.713 0.354,-1.066 0.043,-0.827 -0.554,-1.982 -0.617,-2.752 -0.025,-0.328 0.083,-0.776 0,-1.066 -0.109,-0.387 -0.478,-0.727 -0.747,-0.888 -0.406,-0.241 -0.932,-0.231 -1.365,-0.488 -0.413,-0.245 -0.475,-0.646 -0.838,-0.888 -0.201,-0.134 -0.363,-0.232 -0.66,-0.268 -0.57,-0.065 -0.901,0.236 -1.499,0.223 -0.748,-0.016 -1.246,-0.526 -2.07,-0.267 -0.873,0.274 -0.604,1.311 -1.454,1.73 -0.157,0.078 -0.331,0.107 -0.502,0.14 l 0,6.21 c 0.021,-0.014 0.041,-0.033 0.063,-0.043 0.4,-0.189 0.8,0.13 1.321,0.044 0.853,-0.142 0.53,-1.405 0.616,-2.132 0.119,-0.998 1.298,-1.666 2.378,-1.686 0.248,-0.005 0.51,0.087 0.75,0.089 1.18,0.006 2.24,-0.883 3.216,-0.179 0.13,0.727 0.285,1.431 0.395,2.177 -0.284,0.098 -0.713,0.05 -0.968,0.178 0.135,1.049 0.167,2.199 0.308,3.242 -0.42,0.108 -0.97,0.086 -1.365,0.221 0.094,0.261 0.288,0.42 0.396,0.666 -0.752,-0.145 -1.515,0.066 -1.63,0.712 0.807,0.059 1.61,0.122 2.379,0.221 -0.031,0.883 -1.351,0.775 -2.069,0.577 0.271,0.326 0.749,0.652 1.057,0.933 0.096,0.086 0.284,0.238 0.22,0.311 -0.961,-0.033 -1.814,0.4 -2.643,0.267 -0.969,-0.158 -1.426,-1.244 -2.027,-1.643 -0.115,1.452 0.88,2.161 1.719,2.797 -0.093,0.483 -0.106,1.046 -0.264,1.465 -1.373,-0.155 -2.617,-0.439 -3.48,-1.109 0.169,-1.413 0.48,-2.684 0.616,-4.131 -0.393,-0.117 -0.734,-0.369 -0.986,-0.701 l 0,7.107 c 2.288,0.509 5.315,0.188 6.846,-0.854 1.204,0.519 2.373,1.071 3.569,1.598 -2.371,2.089 -4.249,4.576 -5.552,7.638 -0.182,0.429 -0.292,0.992 -0.528,1.376 -0.225,0.362 -0.776,0.7 -1.145,1.066 -1.161,1.146 -2.17,2.376 -2.689,4.041 -0.177,0.043 -0.344,0.093 -0.502,0.148 l 0,11.929 c 0.178,-0.814 0.373,-1.593 0.59,-2.311 1.75,-1.567 4.949,-0.348 4.626,2.221 -0.106,0.851 -0.569,1.792 -0.838,2.708 -0.802,2.747 -1.657,5.619 -2.422,8.214 0.615,0.82 1.057,1.939 1.057,3.329 0,1.35 -0.207,2.765 0.53,3.642 -0.989,0.469 -1.508,-0.504 -1.763,-1.198 0.064,1.129 -0.442,2.517 -1.542,1.775 -0.075,0.076 -0.155,0.129 -0.238,0.169 l 0,2.173 c 0.097,-0.027 0.192,-0.066 0.283,-0.121 0.972,0.791 3.465,-0.02 3.082,-1.598 0.558,-0.238 1.06,-0.532 1.366,-1.022 -1.191,-1.537 -0.184,-4.268 -0.837,-6.083 -0.167,-0.461 -0.566,-0.971 -0.572,-1.42 -0.012,-0.682 0.414,-1.638 0.616,-2.353 0.688,-2.437 1.37,-4.658 2.114,-6.882 1.318,0.012 1.981,-0.638 2.07,-1.866 0.242,0.151 0.556,0.181 0.837,0.135 0.421,-0.071 0.679,-0.501 0.838,-0.444 -1.659,2.938 -2.851,6.031 -3.436,9.901 -0.547,3.612 -0.336,7.426 0.484,10.478 0.112,0.419 0.404,0.959 0.397,1.288 -0.009,0.397 -0.425,1.013 -0.618,1.51 -1.419,3.649 -2.788,7.256 -4.185,10.7 -0.83,-1.068 -1.648,-2.21 -2.44,-3.404 l 0,10.154 c 49.711,0 99.418,0 149.132,0 0.091,0.012 0.141,-0.012 0.135,-0.092 z M 443.84,305.012 c 0.08,-0.567 0.144,-1.155 0.262,-1.688 1.074,-0.173 1.858,0.315 2.381,0.844 -0.263,0.494 -0.395,1.114 -0.706,1.555 -0.568,-0.315 -1.209,-0.558 -1.937,-0.711 z m 0,-3.775 c 1.816,-0.117 3.183,0.72 4.052,1.511 0.215,0.195 0.532,0.407 0.484,0.576 -1.096,-0.542 -4.361,-2.142 -5.198,-0.443 -0.927,-0.616 -0.286,-1.58 0.662,-1.644 z m 4.58,12.478 c -0.683,-0.408 -1.358,-0.823 -2.071,-1.198 0.049,-1.528 -0.137,-2.822 -0.572,-3.863 2.494,-0.349 3.164,2.642 2.643,5.061 z m -3.832,11.367 c 0.145,1.287 -3.681,1.149 -3.746,0.134 -0.025,-0.416 0.395,-0.552 0.751,-0.757 -1.065,-0.236 -1.2,-1.39 -0.134,-1.73 -1.001,-0.271 -0.489,-1.398 0.31,-1.51 -0.396,-0.142 -0.781,-0.275 -0.795,-0.711 -0.037,-1.299 3.981,-1.256 3.879,0.045 -0.035,0.422 -0.418,0.476 -0.794,0.711 0.953,0.054 1.146,1.321 0.221,1.554 1.227,0.378 0.62,1.543 -0.354,1.686 0.305,0.15 0.625,0.249 0.662,0.578 z m -0.486,-7.948 c -0.691,-0.72 -1.742,-1.463 -3.214,-1.109 -0.178,-0.637 -0.446,-1.181 -0.617,-1.821 2.56,-0.327 4.743,0.444 5.55,2.177 -0.589,0.234 -1.191,0.456 -1.719,0.753 z m 0.75,-7.991 c 0.236,0.75 0.49,1.911 0.264,2.842 -0.62,-0.338 -1.403,-0.511 -2.071,-0.801 0.52,-0.764 1.021,-1.549 1.807,-2.041 z m -2.909,1.775 c -0.814,-0.126 -1.557,-0.325 -2.465,-0.357 0.55,-1.153 1.318,-3.025 2.863,-3.196 0.774,-0.085 1.518,0.291 1.894,0.843 -1.09,0.575 -1.75,1.583 -2.292,2.71 z m 2.909,-3.686 c 0.319,0.181 0.741,0.261 0.968,0.533 -0.191,-0.002 -0.396,-0.015 -0.528,0.045 -0.083,-0.205 -0.573,-0.448 -0.44,-0.578 z m -7.181,-0.222 c 1.153,-0.319 2.716,-0.591 4.098,-0.398 -2.025,0.431 -2.868,2.054 -3.48,3.906 -0.337,0 -0.676,0 -1.014,0 0.363,-0.95 0.664,-2.316 0.396,-3.508 z m 0.66,8.525 c -0.81,-0.412 -1.868,-1.133 -1.938,-2.265 -0.068,-1.148 0.946,-1.436 1.938,-1.465 1.512,-0.042 2.873,0.488 3.965,0.845 -1.956,-0.111 -4.457,0.417 -3.965,2.885 z m -3.612,9.412 c -0.061,-1.634 0.688,-2.728 1.411,-3.64 1.258,-1.589 3.345,-2.404 3.48,-5.062 0.002,-0.027 0.006,-0.053 0.043,-0.045 0.871,0.418 0.613,1.25 0.396,2.176 -0.67,2.876 -1.473,6.007 -2.247,8.524 -0.556,0.142 -1.074,0.405 -1.762,0.444 -0.228,0.013 -0.542,-0.099 -0.792,-0.045 -0.193,0.043 -0.621,0.425 -0.883,0.623 -4.334,3.287 -9.065,5.967 -15.064,7.459 -0.55,-1.252 -0.916,-2.689 -0.836,-4.574 5.169,-2.202 10.306,-4.44 16.254,-5.86 z m -46.65,-6.126 c 0.144,-0.627 0.627,-1.232 0.836,-1.865 1.76,-0.523 3.48,-1.452 5.198,-1.908 0.093,-0.025 0.136,0.067 0.178,0.088 1.504,0.721 3.119,1.307 4.714,1.998 4.667,2.025 9.578,4.213 14.095,6.172 3.068,-2.577 6.005,-5.286 9.119,-7.815 3.963,2.147 8.096,4.126 12.025,6.306 -0.339,0.574 -0.534,1.297 -0.66,2.087 -4.839,1.591 -9.746,3.11 -14.58,4.707 -1.156,-0.94 -3.473,-1.463 -4.934,-0.579 -0.366,0.224 -0.822,0.891 -1.146,0.934 -0.285,0.039 -0.668,-0.157 -0.969,-0.178 -2.4,-0.161 -3.77,1.157 -4.361,2.975 -6.642,0.595 -14.785,0.854 -20.792,-0.488 -0.275,-1.424 -1.067,-2.326 -2.335,-2.752 0,-0.045 -0.035,-0.054 -0.045,-0.09 2.01,-1.324 2.997,-4.034 3.437,-6.882 0.129,-0.841 0.009,-1.791 0.22,-2.71 z m 26.74,21.401 c 0.053,0.053 0.26,0.137 0.175,0.268 -1.851,-0.62 -3.365,-1.66 -4.315,-3.464 -0.8,-1.523 -1.196,-3.733 -0.749,-5.728 0.333,-1.479 2.363,-1.614 3.658,-0.89 0.394,-0.985 1.687,-1.572 2.993,-1.109 -0.912,2.803 0.408,5.799 1.365,7.548 -3.034,0.249 -4.24,-1.69 -5.109,-3.773 -0.421,3.134 0.505,5.714 1.982,7.148 z m -30.131,-8.036 c 0.219,2.908 -1.587,5.075 -2.907,6.527 -0.159,0.176 -0.319,0.488 -0.573,0.443 0.091,-0.89 -0.337,-1.625 -0.176,-2.486 0.073,-0.398 0.549,-1.038 0.793,-1.554 0.266,-0.565 0.504,-1.173 0.703,-1.686 0.485,-1.238 0.753,-2.494 1.059,-3.687 0.01,-0.034 0.037,-0.052 0.089,-0.044 0.493,0.692 0.933,1.465 1.012,2.487 z m 1.101,-19.36 c 0.511,1.056 0.877,2.254 1.013,3.686 -0.825,0.043 -1.458,0.277 -1.936,0.665 -0.501,1.484 -0.026,3.382 0.396,4.619 -0.68,0.145 -1.429,0.218 -2.027,0.444 0.227,0.615 0.525,1.156 0.705,1.82 -0.573,0.205 -1.357,0.199 -2.071,0.267 0.317,0.938 1.134,1.375 1.896,1.864 -0.132,0.416 -0.19,0.903 -0.266,1.375 -2.6,0.335 -4.58,-0.858 -6.121,-1.729 0.639,2.418 2.137,3.974 4.007,5.151 -0.426,1.359 -0.774,2.798 -1.234,4.128 -0.49,-3.121 -2.012,-5.45 -4.095,-7.06 -0.311,-0.24 -0.855,-0.523 -0.925,-0.711 -0.066,-0.182 0.31,-0.757 0.483,-1.11 0.601,-1.221 0.94,-2.411 0.97,-4.04 -0.674,-0.088 -1.24,-0.207 -1.674,-0.71 -0.808,-0.938 -0.62,-2.84 0.176,-3.464 0.761,-0.595 1.721,0.188 2.203,0.444 0.223,-1.785 1.831,-3.578 3.436,-3.907 0.544,-0.112 1.065,-0.056 1.543,-0.133 1.454,-0.239 2.67,-0.795 3.521,-1.599 z m -18.326,12.433 c -1.941,-0.122 -3.793,-0.788 -4.978,-1.643 -0.156,-0.113 -0.434,-0.172 -0.396,-0.398 1.62,0.061 3.116,-0.383 3.963,-1.244 -2.188,-0.266 -3.847,-1.065 -4.801,-2.575 2.561,0.379 4.572,-0.7 5.859,-1.999 0.609,-0.612 0.97,-1.334 1.454,-2.086 1.36,-2.112 2.962,-4.117 5.022,-5.684 1.492,-1.133 3.484,-2.283 5.991,-2.086 1.151,0.09 2.907,0.784 3.173,1.908 0.345,1.47 -0.92,1.975 -1.851,2.354 -0.755,0.307 -1.592,0.49 -2.248,0.754 -2.896,1.174 -4.894,3.175 -6.21,5.817 -0.684,1.373 -1.163,2.921 -2.247,3.774 -0.845,0.666 -1.822,0.939 -3.127,1.198 2.412,0.85 5.397,0.031 6.917,-1.109 -0.987,1.911 -3.551,3.205 -6.521,3.019 z m -11.629,10.434 c 0.477,-0.389 1.013,-0.715 1.498,-1.11 0.642,-0.524 1.111,-1.451 1.85,-1.819 0.675,-0.337 1.612,-0.432 2.423,-0.623 2.511,-0.593 5.064,-1.05 7.928,-1.198 0.803,-1.197 1.512,-2.862 3.614,-2.619 1.126,0.13 2.243,1.019 2.95,1.82 1.549,1.753 2.389,4.043 2.864,6.703 0.242,1.357 0.496,2.933 0.395,4.441 -0.106,1.607 -0.522,3.198 -0.924,4.661 -0.406,1.473 -0.893,2.899 -1.409,4.218 -0.517,1.311 -1.191,2.549 -1.676,3.908 -0.49,1.376 -0.881,2.873 -1.19,4.44 -1.234,6.284 -0.934,14.535 0.926,19.936 -8.198,-0.124 -15.701,-1.495 -21.145,-4.573 -0.313,-0.178 -1.046,-0.551 -1.058,-0.71 0.002,0.009 0.287,-0.404 0.441,-0.622 1.998,-2.84 3.908,-5.421 5.902,-8.17 0.289,-0.397 0.741,-0.89 0.881,-1.287 0.279,-0.794 0.31,-1.911 0.397,-2.93 0.275,-3.238 0.132,-6.585 -0.354,-9.458 -3.397,1.444 -6.212,3.712 -9.118,5.506 -1.096,-0.612 -2.131,-1.285 -3.082,-2.043 4.635,-5.065 5.959,-13.47 11.584,-17.539 1.336,1.052 2.353,2.426 3.129,4.041 -0.063,-1.299 -0.175,-2.546 -0.223,-3.862 0.985,0.763 2.203,2.339 3.262,3.107 -0.217,-1.142 -0.306,-2.414 -0.528,-3.552 1.049,0.763 2.131,2.116 3.171,2.886 -0.138,-1.148 -0.291,-2.282 -0.441,-3.418 0.997,0.814 2.119,2.125 3.13,2.93 -0.081,-1.088 -0.067,-2.271 -0.178,-3.33 1.061,0.545 2.172,1.661 3.217,2.221 -0.731,-1.733 -1.643,-3.262 -2.952,-4.485 -0.373,-0.349 -0.976,-1.033 -1.409,-1.11 -0.323,-0.057 -0.902,0.112 -1.366,0.178 -3.318,0.467 -6.32,1.05 -9.075,1.91 -0.614,1.105 -1.744,1.634 -2.686,2.353 -3.43,2.617 -6.011,6.036 -8.194,9.946 -1.56,0.813 -2.822,1.919 -3.877,3.242 -0.035,-0.395 -0.327,-0.748 -0.264,-1.11 0.041,-0.239 0.459,-0.667 0.66,-0.89 0.739,-0.807 1.815,-1.602 2.732,-1.951 1.95,-4.04 4.926,-7.377 8.195,-10.038 z m -4.009,38.673 c -2.253,3.087 -4.323,6.359 -6.431,9.591 -0.227,-0.469 -0.401,-0.928 -0.662,-1.421 -0.221,-0.417 -0.664,-0.929 -0.705,-1.376 -0.03,-0.331 0.179,-0.88 0.266,-1.332 0.479,-2.498 0.792,-4.528 1.231,-6.883 0.174,-0.92 0.215,-1.939 0.485,-2.753 0.145,-0.43 0.517,-0.939 0.794,-1.42 1.908,-3.322 3.924,-6.718 5.771,-9.945 1.591,1.638 3.175,3.281 4.712,4.972 -2.29,3.183 -4.602,6.343 -6.826,9.592 0.449,0.331 0.908,0.653 1.365,0.975 z m -16.96,-0.221 c 0.014,2.467 -2.442,3.643 -2.026,6.483 -1.192,0.05 -1.495,-1.148 -1.19,-2.22 -0.473,0.843 -2.033,2.243 -2.643,0.666 -0.868,0.091 -1.2,-0.359 -1.232,-1.11 -0.704,-0.073 -1.14,-0.799 -0.838,-1.599 -1.136,-0.442 -0.402,-1.656 0.132,-2.265 1.155,-1.313 2.849,-2.329 4.142,-3.15 2.071,-4.233 4.409,-8.198 7.226,-11.679 0.875,1.87 2.477,3.009 4.536,3.685 -2.459,3.621 -5.581,6.571 -8.502,9.724 0.243,0.426 0.392,0.878 0.395,1.465 z m 7.182,-22.512 c 0.039,-0.539 0.178,-1.017 0.352,-1.51 0.003,-0.026 0.007,-0.053 0.044,-0.045 1.476,3.932 4.539,6.259 8.192,7.992 -0.808,1.927 -2.229,3.294 -4.448,3.287 -2.958,-0.01 -6.181,-2.188 -6.739,-4.706 -0.24,-1.081 0.155,-2.022 0.616,-2.576 1.049,2.42 3.037,4.131 5.859,4.617 -1.91,-1.501 -4.15,-3.483 -3.876,-7.059 z m 5.461,11.634 c -0.972,1.803 -1.889,3.661 -3.171,5.149 -1.114,-0.268 -2.202,-0.563 -3.349,-0.798 1.367,-1.479 2.704,-2.987 4.009,-4.529 0.694,0.282 1.844,0.044 2.511,0.178 z m -9.03,7.414 c 0.208,-0.189 1.042,-1.127 1.322,-1.064 1.265,0.285 2.77,0.689 4.228,0.976 -0.538,3.217 -1.027,6.482 -1.629,9.636 -0.76,-2.683 -1.465,-5.42 -2.248,-8.081 -0.426,1.019 -0.665,2.228 -1.101,3.24 -0.599,-1.173 -1.13,-2.412 -1.762,-3.551 0.321,-0.457 0.719,-0.727 1.19,-1.156 z m 10.837,-35.52 c 0.895,0.664 1.75,1.372 2.511,2.177 -1.874,2.075 -3.709,4.193 -4.803,7.058 -1.053,0.27 -1.789,0.872 -2.465,1.598 -0.243,0.26 -0.448,0.616 -0.663,0.712 -0.397,0.176 -0.943,0.126 -1.364,0.223 -1.979,0.451 -3.219,1.623 -3.789,3.462 -1.306,1.343 -2.336,3.73 -1.541,6.039 0.103,0.3 0.41,0.634 0.396,0.889 -0.014,0.268 -0.434,0.668 -0.66,1.021 -1.614,2.513 -2.821,5.035 -4.273,7.548 -0.688,-0.165 -1.353,-0.353 -2.07,-0.487 2.743,-3.553 4.685,-8.22 5.815,-13.366 1.119,-5.106 3.293,-9.652 6.21,-12.965 0.252,-0.049 0.471,-0.581 0.616,-0.442 -0.064,1.472 -0.217,3.095 -0.264,4.439 1.104,-1.697 2.056,-3.552 3.171,-5.239 0.292,0.832 0.52,1.725 0.881,2.487 1.033,-1.449 1.858,-3.104 2.292,-5.154 z m -2.072,2.663 c -0.018,-0.597 -0.13,-1.054 -0.264,-1.553 -0.12,-0.444 -0.472,-1.021 -0.439,-1.379 0.02,-0.258 0.438,-0.764 0.571,-1.065 0.188,-0.416 0.382,-0.958 0.441,-1.332 1.035,1.368 0.537,4.115 -0.309,5.329 z m 0.927,-22.289 c -0.873,1.594 -2.791,2.132 -4.979,2.398 0.604,-0.826 1.445,-1.417 2.38,-1.909 -1.858,-0.229 -3.311,0.331 -4.361,1.065 0.868,-2.096 4.55,-2.781 6.96,-1.554 z m -8.591,8.392 c -0.03,-0.709 0.327,-1.408 0.792,-1.553 0.645,-0.201 1.085,0.216 1.631,0.532 0.382,-0.459 0.797,-0.884 1.145,-1.377 -0.131,-0.35 -0.267,-0.675 -0.265,-1.065 0.01,-1.391 1.167,-1.449 2.513,-1.555 1.488,-0.114 2.77,-0.876 3.435,-1.553 -0.193,0.96 -0.826,1.474 -1.498,1.953 1.111,0.293 2.104,-0.188 2.818,-0.578 0.051,0.528 0.281,1.107 0.264,1.554 -0.691,-0.017 -1.156,0.194 -1.496,0.534 -0.01,1.52 0.607,2.643 0.925,3.685 -1.023,0.095 -1.795,0.441 -2.422,0.934 0.457,0.204 0.867,0.455 1.322,0.666 0.029,0.222 -0.075,0.309 -0.046,0.532 -0.654,-0.065 -1.32,-0.119 -2.025,-0.134 0.331,0.686 0.962,1.07 1.807,1.243 0.093,0.228 -0.313,0.299 -0.309,0.578 0.194,0.259 0.295,0.811 0.175,1.243 -0.887,0.259 -2.095,0.052 -3.216,-0.089 -0.391,-0.051 -0.861,-0.012 -1.145,-0.134 -0.327,-0.141 -0.62,-0.688 -0.837,-0.977 -0.293,-0.391 -0.513,-0.737 -0.793,-1.066 0.089,1.125 0.223,2.204 0.485,3.153 0.96,0.223 2.197,1.196 2.246,2.176 0.028,0.56 -0.236,1.339 -0.353,1.998 -0.122,0.688 -0.308,1.342 -0.353,1.997 -1.163,-1.401 -2.322,-3.388 -3.171,-5.282 -0.286,-0.642 -0.708,-1.496 -0.705,-2.133 0.002,-0.506 0.242,-1.04 0.353,-1.553 0.111,-0.524 0.18,-1.05 0.307,-1.6 -0.651,-0.554 -1.539,-1.073 -1.584,-2.129 z m -0.089,6.038 c 0.213,0.191 0.367,0.893 0.528,1.333 0.461,1.241 1.024,2.38 1.63,3.419 -0.491,0.924 -0.81,2.025 -0.97,3.285 -0.619,-1.542 -2.044,-3.773 -2.201,-5.993 -0.076,-1.084 0.149,-1.92 1.013,-2.044 z m -17.664,31.703 c 0.298,0.878 -0.293,1.547 -0.926,1.776 0.107,-3.181 -2.994,-4.69 -5.945,-3.997 0.242,-0.686 0.392,-1.202 0.881,-1.598 1.32,-1.072 3.852,-0.174 5.064,0.443 -0.948,-1.545 -2.5,-2.482 -4.581,-2.887 -0.51,-1.496 1.123,-1.956 2.423,-1.775 1.223,0.171 2.602,1.021 3.48,2.088 0.909,1.102 1.449,2.643 1.542,4.04 0.1,1.504 -0.526,2.144 -1.938,1.91 z m -0.307,-8.348 c 1.282,-1.539 2.09,-3.603 2.685,-5.861 0.465,-1.76 1.098,-3.076 2.116,-4.306 0.297,-0.358 0.954,-0.817 1.014,-1.154 0.063,-0.373 -0.152,-0.968 -0.22,-1.422 -0.084,-0.547 -0.117,-1.048 -0.266,-1.421 -2.345,1.869 -4.128,4.365 -5.329,7.282 -0.176,0.424 -0.25,0.967 -0.486,1.332 -0.216,0.335 -0.715,0.596 -1.056,0.933 -1.051,1.034 -1.936,2.11 -2.732,3.285 -0.497,-0.027 -0.889,0.051 -1.321,0.09 0.761,-2.136 2.403,-3.381 4.054,-4.619 1.131,-3.958 2.988,-6.915 5.814,-9.057 0.747,-0.566 1.46,-0.783 1.543,-1.821 2.919,-1.866 6.252,-3.316 10.132,-4.218 0.192,2.1 0.492,4.092 0.703,6.172 -0.773,-0.835 -1.644,-2.191 -2.422,-3.021 0.03,1.185 0.075,2.354 0.132,3.508 -0.41,-0.394 -0.802,-0.873 -1.189,-1.332 -0.388,-0.459 -0.723,-0.981 -1.145,-1.287 0.072,1.124 0.117,2.278 0.132,3.464 -0.749,-0.785 -1.527,-2.161 -2.292,-2.93 -0.029,1.356 0.071,2.304 0.045,3.64 -0.786,-0.688 -1.616,-1.952 -2.379,-2.664 1.142,4.712 0.915,11.433 -1.101,14.964 -1.314,1.045 -2.442,2.275 -3.789,3.285 -0.668,-1.162 -1.573,-2.085 -2.643,-2.842 z m 15.461,43.379 c 0.14,0.474 0.422,1.19 0.396,1.467 -0.049,0.55 -0.818,1.311 -0.968,1.775 -1.453,-3.567 -2.83,-7.212 -4.318,-10.745 0.683,3.663 1.38,7.313 2.071,10.967 -0.397,0 -0.794,0 -1.191,0 -0.997,-2.828 -1.998,-5.652 -3.038,-8.437 0.362,2.83 0.763,5.626 1.145,8.437 -0.441,0 -0.881,0 -1.322,0 -2.536,-4.583 -4.86,-9.947 -5.99,-16.073 -0.602,-3.256 -0.71,-6.972 -0.133,-10.124 0.564,-3.075 1.823,-5.664 3.35,-7.726 1.092,1.148 2.133,2.349 3.126,3.597 -1.773,1.407 -4.568,3.269 -5.461,5.728 -0.163,0.446 -0.26,0.935 -0.222,1.421 0.053,0.671 0.491,0.925 0.618,1.421 0.12,0.48 0.029,0.779 0.264,1.066 0.189,0.232 0.441,0.301 0.836,0.488 0.027,0.936 0.554,1.366 1.279,1.599 0.277,1.481 4.125,1.91 4.448,0.045 0.707,0.389 1.611,-0.012 1.938,-0.534 -0.108,-2.479 1.705,-3.399 2.335,-5.283 2.931,3.247 5.441,6.917 7.751,10.789 -1.103,1.804 -2.1,3.715 -3.216,5.505 -1.823,-2.792 -3.634,-5.837 -5.461,-8.48 1.479,3.481 2.944,6.978 4.404,10.478 -0.353,0.517 -0.569,1.174 -0.968,1.644 -1.547,-3.09 -3.105,-6.165 -4.714,-9.191 0.853,2.935 2.095,6.981 3.041,10.166 z m 35.284,3.421 c -7.091,-0.03 -14.302,0.059 -21.319,-0.046 0.491,-1.413 0.991,-2.82 1.409,-4.306 -0.765,0.977 -1.677,2.198 -2.511,3.285 -0.197,0.256 -0.631,0.982 -0.881,1.066 -0.621,0.204 -1.214,-0.152 -1.893,0 0.55,-1.815 1.145,-3.583 1.718,-5.375 -0.916,1.168 -2.02,2.694 -2.995,4.042 -0.23,0.317 -0.749,1.232 -1.059,1.333 -0.599,0.194 -1.233,-0.111 -1.806,-0.046 0.862,-2.017 1.688,-4.071 2.51,-6.127 -1.116,1.382 -2.334,3.128 -3.479,4.663 -0.263,0.35 -0.884,1.401 -1.234,1.51 -0.508,0.154 -1.172,-0.118 -1.629,0 4.523,-8.525 9.282,-16.811 14.711,-24.422 5.811,3.141 13.435,4.457 22.202,4.617 -0.268,7.592 -1.377,14.33 -3.744,19.806 z m 4.626,-22.023 c -1.883,-5.281 -2.316,-13.125 -1.057,-19.27 0.314,-1.531 0.691,-2.975 1.1,-4.352 0.41,-1.372 0.978,-2.634 1.5,-3.952 1.05,-2.65 1.853,-5.426 2.335,-8.57 3.355,-1.559 5.273,-4.57 5.769,-9.013 0.029,0 0.059,0 0.089,0 5.997,1.27 14.151,1.398 20.793,0.621 -0.165,2.008 0.362,3.686 0.97,5.064 -4.332,1.582 -8.525,3.307 -13.789,3.95 -0.276,-0.851 -0.71,-1.649 -1.146,-2.395 -0.434,-0.743 -0.869,-1.515 -1.5,-1.955 -0.214,6.05 -1.756,10.698 -3.917,14.74 -0.73,1.362 -1.614,2.571 -2.292,3.952 -1.307,2.665 -2.531,5.916 -3.039,9.413 -0.544,3.744 -0.255,7.835 0.97,10.922 -2.076,0.429 -4.306,1.113 -6.786,0.845 z m 11.058,-11.056 c 6.353,0.914 12.583,1.986 18.412,3.195 20.398,4.234 39.461,10.34 54.625,19.537 -23.722,-8.345 -48.342,-15.772 -76.297,-19.848 0.037,-0.355 0.035,-1.043 0.089,-1.732 0.045,-0.611 0.008,-1.557 0.352,-1.553 0.761,0.01 1.849,0.26 2.819,0.401 z m -6.212,33.079 c -0.587,0 -1.175,0 -1.762,0 1.196,-5.911 1.734,-13.77 0.53,-20.026 0.564,-0.079 1.189,-0.104 1.805,-0.133 0.05,0.008 0.05,0.07 0.046,0.133 0.658,6.445 0.63,14.264 -0.619,20.026 z m 12.555,-13.898 c 19.918,4.746 40.189,8.995 60.129,13.764 -21.987,-3.276 -44.062,-6.71 -65.988,-9.901 10.534,3.058 21.073,6.11 31.583,9.191 -10.811,-1.4 -21.528,-2.897 -32.332,-4.308 -0.236,1.983 -0.701,3.733 -1.322,5.329 -0.745,-0.029 -2.189,0.061 -2.863,-0.045 0.972,-6.111 1.001,-14.03 0.441,-20.646 0.552,-0.51 1.388,-0.733 1.894,-1.289 -0.469,-1.851 -0.881,-3.76 -1.013,-5.949 13.998,2.332 27.602,5.555 40.572,9.014 12.539,3.344 24.547,7.617 35.108,12.92 0.327,0.164 0.735,0.308 0.968,0.622 -22.059,-2.754 -44.396,-5.831 -66.56,-8.658 -0.278,-0.035 -1.358,-0.221 -0.617,-0.044 z M 461.458,373.3 c -23.015,-6.138 -47.292,-10.998 -74.138,-13.274 1.242,-1.737 2.57,-3.542 3.656,-5.55 1.092,-2.017 2.06,-4.168 2.776,-6.527 5.952,-1.608 11.846,-3.273 17.796,-4.885 1.701,0.966 4.099,0.906 5.639,-0.133 0.449,-0.304 0.935,-1.03 1.365,-1.2 0.395,-0.152 0.796,-0.142 1.145,-0.266 1.501,-0.528 2.469,-1.665 2.554,-3.641 4.637,-1.884 8.32,-4.629 11.85,-7.681 0.462,-0.398 1.074,-1.156 1.544,-1.288 0.608,-0.172 1.419,0.002 1.937,-0.178 -0.401,1.992 -0.966,3.822 -1.32,5.861 0.306,0.445 0.898,0.604 1.674,0.577 0.957,-2.275 1.89,-4.577 2.819,-6.884 1.421,-0.223 2.64,-0.653 3.745,-1.197 1.413,0.742 2.893,1.533 4.359,2.264 3.535,1.763 7.116,3.628 10.529,5.462 0.697,0.374 1.462,0.637 2.069,1.154 0.001,12.462 0.001,24.926 0.001,37.386 z m -0.044,-39.561 c -5.212,-2.753 -10.452,-5.477 -15.681,-8.214 0.004,-0.285 0.008,-0.57 -0.132,-0.71 0.399,-0.438 0.788,-1.318 0.308,-2.044 0.173,-0.293 0.349,-0.65 0.307,-1.065 -0.039,-0.41 -0.354,-0.595 -0.396,-0.843 0.24,-0.55 0.087,-1.237 -0.176,-1.644 1.89,0.142 4.103,0.137 5.11,-1.109 0.479,-0.598 0.356,-1.57 0.528,-2.531 0.186,-1.055 0.443,-1.918 0.837,-2.798 0.223,-0.499 0.478,-0.962 0.485,-1.377 0.012,-0.737 -0.447,-1.43 -0.749,-1.819 -0.126,-0.163 -0.395,-0.287 -0.31,-0.489 4.09,-0.703 7.296,-2.296 9.911,-4.485 -0.027,9.697 0.063,19.509 -0.042,29.128 z m 0.044,-37.828 c 0,0.87 0,1.681 0,2.441 -5.203,-8.812 -12.262,-16.418 -20.352,-22.423 -0.213,-0.159 -0.718,-0.48 -0.66,-0.577 7.8,4.14 14.728,9.827 19.999,16.694 0.323,0.421 0.936,1.112 1.013,1.466 0.153,0.695 0,1.628 0,2.399 z m 0,-9.103 c 0,0.851 0,1.665 0,2.353 -5.085,-7.218 -11.981,-13.232 -19.865,-17.627 1.916,0.646 3.932,1.51 5.768,2.442 4.915,2.489 9.315,5.694 13.084,9.413 0.345,0.34 0.932,0.729 1.013,1.065 0.159,0.663 0,1.58 0,2.354 z"
                 id="path3853"
                 inkscape:connector-curvature="0" /><path
                 style="fill:#8bcde4"
                 d="m 326.133,287.784 c 2.488,0.829 4.734,1.966 7.048,2.976 4.656,2.031 9.668,3.659 15.728,4.262 6.372,0.635 12.656,-0.035 17.356,-2.041 2.414,-1.032 5.056,-1.628 7.797,-2.176 5.773,-1.155 12.264,-1.262 18.237,-0.577 5.872,0.671 11.257,2.236 15.858,4.128 2.29,0.942 4.483,2.141 6.694,3.331 5.378,2.891 11.125,5.506 17.666,7.281 0.599,0.163 1.291,0.367 1.98,0.532 0.686,0.164 1.5,0.46 2.028,0.443 0.347,-0.008 1.015,-0.626 1.541,-0.798 1.359,-0.443 3.143,-0.302 4.495,-0.178 0.106,-0.335 0.199,-0.686 0.351,-0.977 -0.589,-0.621 -1.574,-1.396 -1.233,-2.531 -1.886,-0.23 -2.984,-1.476 -3.392,-3.196 -0.354,-1.494 -1.049,-2.137 -2.247,-2.71 -1.121,-0.534 -2.278,-1.012 -3.039,-1.907 -0.725,-0.854 -1.271,-2.404 -0.573,-3.774 0.056,0.259 0.129,0.489 0.209,0.708 0.021,0.055 0.042,0.109 0.064,0.162 0.086,0.208 0.18,0.405 0.29,0.58 0.003,0.004 0.006,0.008 0.009,0.012 0.11,0.174 0.236,0.33 0.371,0.477 0.03,0.032 0.06,0.066 0.091,0.097 0.144,0.145 0.294,0.281 0.462,0.405 l 0.001,0.001 0,0 c -0.698,-1.39 -0.852,-3.005 -0.371,-4.654 0.099,-0.344 0.385,-0.283 0.385,0.1 0,0.124 0.089,0.287 0.059,0.406 0.024,0.037 0.04,0.081 0.038,0.138 0,0.076 0.012,0.153 0.021,0.232 0.153,0.534 0.398,0.999 0.724,1.369 0.006,0.007 0.012,0.016 0.018,0.022 0.151,0.17 0.325,0.314 0.512,0.439 0.036,0.024 0.073,0.045 0.109,0.067 0.192,0.116 0.396,0.216 0.621,0.282 0.278,0.082 0.572,0.131 0.867,0.179 0.075,0.013 0.149,0.025 0.225,0.038 -1.661,-1.187 -2.197,-2.886 -2.069,-5.162 0.02,-0.356 0.447,-0.433 0.428,-0.075 -0.004,0.039 0.123,0.152 0.124,0.192 l 0,0 c 0,0 0.001,10e-4 0.002,0.002 0.82,0.942 2.457,1.314 4.145,1.451 0.242,0.021 0.486,0.035 0.729,0.046 3.971,0.179 7.203,1.591 9.383,3.729 1.442,1.417 2.645,3.411 2.863,5.906 0.188,2.145 -0.518,3.811 -1.5,5.018 -0.313,0.388 -0.738,0.663 -1.056,1.109 0.831,1.33 -0.263,2.533 -1.674,2.531 -0.104,0.397 -0.297,0.705 -0.353,1.154 5.573,-0.288 10.086,-2.03 13.303,-4.841 -0.029,-0.562 0.059,-1.242 -0.044,-1.732 -6.47,-10.067 -15.318,-17.912 -26.604,-23.221 -5.523,-2.596 -11.977,-4.725 -19.12,-5.772 -6.973,-1.022 -15.477,-1.25 -23.216,-0.355 -5.551,0.643 -10.729,1.681 -15.681,2.976 -4.813,1.257 -10.42,2.324 -16.433,2.042 -5.868,-0.275 -10.89,-1.418 -15.152,-3.464 -1.453,-0.696 -3.041,-1.148 -4.626,-1.598 -3.214,-0.911 -6.629,-1.597 -10.396,-1.998 -5.83,-0.622 -11.316,-0.116 -15.921,1.232 l 0,0.846 c 3.49,-0.625 7.235,-0.889 11.075,-0.613 5.519,0.396 10.69,1.653 14.932,3.33 2.186,0.864 4.152,1.963 6.301,2.842 4.233,1.733 9.478,2.886 15.374,2.886 5.856,0 11.081,-0.858 15.77,-2.353 6.939,-2.212 14.745,-3.471 23.655,-3.685 5.995,-0.145 11.53,0.639 16.52,1.731 4.94,1.082 9.436,2.719 13.392,4.84 -8.575,-3.053 -19.755,-4.876 -31.232,-4.041 -5.739,0.419 -10.881,0.986 -15.815,2.132 -4.86,1.128 -9.428,2.765 -14.493,3.463 -5.357,0.739 -11.54,0.83 -16.605,-0.088 -3.811,-0.691 -7.126,-1.828 -10.089,-3.42 -0.973,-0.522 -2.159,-0.857 -3.259,-1.198 -4.46,-1.38 -9.692,-2.452 -15.243,-2.708 -3.625,-0.167 -7.116,0.067 -10.281,0.717 l 0,5.075 c 3.04,-0.118 6.259,0.317 8.696,0.912 4.23,1.031 8.078,2.763 11.233,4.751 3.303,2.081 6.921,3.81 10.88,5.15 3.978,1.345 8.397,2.438 13.523,2.441 -4.913,0.619 -9.674,0.089 -13.787,-0.798 -4.123,-0.889 -7.915,-2.219 -11.365,-3.819 -1.703,-0.789 -3.304,-1.778 -5.11,-2.486 -1.814,-0.713 -3.713,-1.282 -5.858,-1.732 -2.382,-0.498 -5.376,-0.771 -8.212,-0.602 l 0,2.369 c 4.162,-0.182 8.534,0.631 11.866,1.74 z m 64.975,-8.125 c 3.727,-0.705 8.378,-1.272 12.776,-1.065 2.416,0.113 4.667,0.209 6.872,0.488 6.515,0.826 12.293,2.505 17.092,5.018 -13.409,-3.586 -32.736,-3.808 -47.532,-1.51 3.187,-1.127 6.821,-2.179 10.792,-2.931 z"
                 id="path3855"
                 inkscape:connector-curvature="0" /><path
                 style="fill:#8bcde4"
                 d="m 460.445,283.39 c -3.768,-3.719 -8.169,-6.924 -13.084,-9.413 -1.837,-0.933 -3.853,-1.796 -5.768,-2.442 7.885,4.395 14.78,10.409 19.865,17.627 0,-0.688 0,-1.503 0,-2.353 0,-0.773 0.159,-1.69 0,-2.353 -0.081,-0.338 -0.668,-0.726 -1.013,-1.066 z"
                 id="path3857"
                 inkscape:connector-curvature="0" /><path
                 style="fill:#8bcde4"
                 d="m 460.445,292.047 c -5.271,-6.867 -12.199,-12.555 -19.999,-16.694 -0.058,0.097 0.447,0.418 0.66,0.577 8.09,6.005 15.148,13.611 20.352,22.423 0,-0.761 0,-1.571 0,-2.441 0,-0.771 0.153,-1.704 0,-2.398 -0.077,-0.355 -0.689,-1.046 -1.013,-1.467 z"
                 id="path3859"
                 inkscape:connector-curvature="0" /><path
                 style="fill:#bcbec0"
                 d="m 442.296,312.65 c -1.092,-0.357 -2.453,-0.887 -3.965,-0.845 -0.991,0.028 -2.006,0.316 -1.938,1.465 0.069,1.132 1.128,1.852 1.938,2.265 -0.492,-2.468 2.009,-2.996 3.965,-2.885 z"
                 id="path3861"
                 inkscape:connector-curvature="0" /><path
                 style="fill:#796e9d"
                 d="m 317.456,347.904 c 0.368,-0.366 0.92,-0.704 1.145,-1.066 0.236,-0.384 0.347,-0.947 0.528,-1.376 1.303,-3.061 3.181,-5.549 5.552,-7.638 -1.196,-0.526 -2.365,-1.079 -3.569,-1.598 -1.53,1.041 -4.558,1.362 -6.846,0.854 l 0,1.101 c 0.2,0.243 0.394,0.492 0.547,0.754 -0.184,-0.003 -0.364,-0.008 -0.547,-0.013 l 0,13.172 c 0.158,-0.056 0.325,-0.105 0.502,-0.148 0.518,-1.666 1.527,-2.896 2.688,-4.042 z"
                 id="path3863"
                 inkscape:connector-curvature="0" /><path
                 d="m 354.634,373.168 c 0.689,0.298 1.322,0.65 2.027,0.932 1.088,-2.751 2.204,-5.475 3.347,-8.169 -1.785,2.239 -3.64,4.796 -5.374,7.237 z"
                 id="path3865"
                 inkscape:connector-curvature="0" /></g></g><g
         id="frame"
         transform="matrix(12.963444,0,0,12.857378,-4073.9178,-3167.9152)"><path
             style="fill:#6cb33f"
             d="m 472.266,410.94 -158,0 0,-206.001 158,0 0,206.001 z m -12,-145.195 -134,0 0,134 134,0 0,-134 z"
             id="path3868"
             inkscape:connector-curvature="0" /><rect
             x="320.267"
             y="210.94"
             style="fill:none;stroke:#ffffff;stroke-width:2"
             width="146"
             height="194"
             id="rect3870" /><g
             id="g3872"><path
                 style="fill:#ffffff"
                 d="m 330.816,220.042 3.274,0 5.324,8.273 5.324,-8.273 3.274,0 0,17.496 -3.074,0 0,-12.548 -5.524,8.248 -0.1,0 -5.474,-8.198 0,12.497 -3.024,0 0,-17.495 z"
                 id="path3874"
                 inkscape:connector-curvature="0" /><path
                 style="fill:#ffffff"
                 d="m 360.116,228.839 0,-0.05 c 0,-4.924 3.799,-9.048 9.173,-9.048 5.374,0 9.122,4.074 9.122,8.998 l 0,0.05 c 0,4.924 -3.799,9.048 -9.173,9.048 -5.373,0 -9.122,-4.074 -9.122,-8.998 z m 15.072,0 0,-0.05 c 0,-3.399 -2.474,-6.223 -5.949,-6.223 -3.474,0 -5.898,2.774 -5.898,6.173 l 0,0.05 c 0,3.399 2.475,6.199 5.949,6.199 3.473,0 5.898,-2.75 5.898,-6.149 z"
                 id="path3876"
                 inkscape:connector-curvature="0" /><path
                 style="fill:#ffffff"
                 d="m 390.516,220.042 6.523,0 c 5.499,0 9.299,3.774 9.299,8.698 l 0,0.05 c 0,4.924 -3.8,8.748 -9.299,8.748 l -6.523,0 0,-17.496 z m 3.074,2.799 0,11.897 3.449,0 c 3.674,0 6.074,-2.475 6.074,-5.898 l 0,-0.05 c 0,-3.424 -2.4,-5.948 -6.074,-5.948 l -3.449,0 z"
                 id="path3878"
                 inkscape:connector-curvature="0" /><path
                 style="fill:#ffffff"
                 d="m 418.441,220.042 12.971,0 0,2.749 -9.896,0 0,4.549 8.772,0 0,2.749 -8.772,0 0,4.699 10.021,0 0,2.749 -13.096,0 0,-17.495 z"
                 id="path3880"
                 inkscape:connector-curvature="0" /><path
                 style="fill:#ffffff"
                 d="m 443.566,220.042 3.074,0 0,14.696 9.197,0 0,2.799 -12.272,0 0,-17.495 z"
                 id="path3882"
                 inkscape:connector-curvature="0" /></g><g
             id="g3884"><path
                 style="fill:#ffffff"
                 d="m 334.931,247.929 -4.217,0 0,-2.166 10.791,0 0,2.166 -4.217,0 0,11.132 -2.356,0 0,-11.132 z"
                 id="path3886"
                 inkscape:connector-curvature="0" /><path
                 style="fill:#ffffff"
                 d="m 349.828,245.764 2.336,0 0,5.528 6.345,0 0,-5.528 2.336,0 0,13.298 -2.336,0 0,-5.604 -6.345,0 0,5.604 -2.336,0 0,-13.298 z"
                 id="path3888"
                 inkscape:connector-curvature="0" /><path
                 style="fill:#ffffff"
                 d="m 370.12,245.764 9.859,0 0,2.089 -7.523,0 0,3.458 6.668,0 0,2.09 -6.668,0 0,3.571 7.618,0 0,2.09 -9.954,0 0,-13.298 z"
                 id="path3890"
                 inkscape:connector-curvature="0" /><path
                 style="fill:#ffffff"
                 d="m 399.227,245.764 2.526,0 3.172,9.859 3.268,-9.897 1.977,0 3.268,9.897 3.172,-9.859 2.451,0 -4.616,13.393 -2.032,0 -3.268,-9.556 -3.267,9.556 -2.014,0 -4.637,-13.393 z"
                 id="path3892"
                 inkscape:connector-curvature="0" /><path
                 style="fill:#ffffff"
                 d="m 430.31,245.669 2.166,0 5.85,13.393 -2.47,0 -1.349,-3.21 -6.288,0 -1.368,3.21 -2.393,0 5.852,-13.393 z m 3.344,8.111 -2.299,-5.319 -2.28,5.319 4.579,0 z"
                 id="path3894"
                 inkscape:connector-curvature="0" /><path
                 style="fill:#ffffff"
                 d="m 448.284,253.818 -5.281,-8.055 2.774,0 3.703,5.87 3.762,-5.87 2.68,0 -5.281,7.998 0,5.3 -2.356,0 0,-5.243 z"
                 id="path3896"
                 inkscape:connector-curvature="0" /></g></g></svg>