<?xml version="1.0" encoding="UTF-8" standalone="no"?>
<!-- Created with Inkscape (http://www.inkscape.org/) -->

<svg
   xmlns:dc="http://purl.org/dc/elements/1.1/"
   xmlns:cc="http://creativecommons.org/ns#"
   xmlns:rdf="http://www.w3.org/1999/02/22-rdf-syntax-ns#"
   xmlns:svg="http://www.w3.org/2000/svg"
   xmlns="http://www.w3.org/2000/svg"
   xmlns:xlink="http://www.w3.org/1999/xlink"
   xmlns:sodipodi="http://sodipodi.sourceforge.net/DTD/sodipodi-0.dtd"
   xmlns:inkscape="http://www.inkscape.org/namespaces/inkscape"
   width="170"
   height="32"
   viewBox="0 0 170 32.000001"
   id="svg3412"
   version="1.1"
   inkscape:version="0.91 r13725">
  <defs
     id="defs3414">
    <clipPath
       id="SVGID_4_">
      <use
         height="100%"
         width="100%"
         y="0"
         x="0"
         xlink:href="#SVGID_3_"
         style="overflow:visible"
         id="use3365" />
    </clipPath>
    <clipPath
       id="SVGID_2_">
      <use
         height="100%"
         width="100%"
         y="0"
         x="0"
         xlink:href="#SVGID_1_"
         style="overflow:visible"
         id="use3345" />
    </clipPath>
  </defs>
  <sodipodi:namedview
     id="base"
     pagecolor="#ffffff"
     bordercolor="#666666"
     borderopacity="1.0"
     inkscape:pageopacity="0.0"
     inkscape:pageshadow="2"
     inkscape:zoom="5.6"
     inkscape:cx="59.956091"
     inkscape:cy="34.378266"
     inkscape:document-units="px"
     inkscape:current-layer="layer1"
     showgrid="false"
     units="px"
     inkscape:window-width="1680"
     inkscape:window-height="1031"
     inkscape:window-x="-4"
     inkscape:window-y="-4"
     inkscape:window-maximized="1" />
  <metadata
     id="metadata3417">
    <rdf:RDF>
      <cc:Work
         rdf:about="">
        <dc:format>image/svg+xml</dc:format>
        <dc:type
           rdf:resource="http://purl.org/dc/dcmitype/StillImage" />
        <dc:title></dc:title>
      </cc:Work>
    </rdf:RDF>
  </metadata>
  <g
     inkscape:label="Layer 1"
     inkscape:groupmode="layer"
     id="layer1"
     transform="translate(0,-1020.3622)">
    <g
       transform="matrix(0.29411766,0,0,0.29411766,-31.97,946.3875)"
       id="g3339"
       style="fill:#ffffff">
      <defs
         id="defs3341">
        <rect
           id="SVGID_1_"
           x="108.698"
           y="252.105"
           width="575.22601"
           height="108.209" />
      </defs>
      <clipPath
         id="clipPath3390">
        <use
           height="100%"
           width="100%"
           y="0"
           x="0"
           xlink:href="#SVGID_1_"
           style="overflow:visible"
           id="use3392" />
      </clipPath>
      <path
         inkscape:connector-curvature="0"
         style="fill:#ffffff"
         d="m 683.924,309.63 0,-23.112 -3.569,0 0,9.217 -14.137,0 0,-9.217 -3.569,0 0,23.112 3.569,0 0,-10.88 14.137,0 0,10.88 3.569,0 z m -36.346,-9.113 c -0.346,1.802 -0.693,2.703 -1.525,3.777 -1.49,1.871 -3.846,2.911 -6.653,2.911 -5.267,0 -8.87,-3.708 -8.87,-9.113 0,-5.509 3.534,-9.148 8.836,-9.148 4.331,0 7.207,2.079 8.004,5.856 l 3.604,0 c -0.485,-2.529 -1.282,-4.158 -2.737,-5.648 -2.079,-2.114 -5.128,-3.222 -8.836,-3.222 -7.623,0 -12.439,4.712 -12.439,12.162 0,7.45 4.782,12.128 12.37,12.128 6.583,0 10.707,-3.361 11.85,-9.702 l -3.604,0 z m -38.046,9.113 0,-19.889 8.905,0 0,-3.222 -21.31,0 0,3.222 8.836,0 0,19.889 3.569,0 z m -25.675,-9.668 -8.524,0 4.227,-9.459 4.297,9.459 z m 1.351,3.015 3.015,6.653 4.297,0 -10.811,-23.112 -4.019,0 -10.742,23.112 4.054,0 3.015,-6.653 11.191,0 z m -28.586,6.653 0,-23.112 -4.955,0 -9.39,19.543 -9.252,-19.543 -5.128,0 0,23.112 3.569,0 0,-18.988 9.078,18.988 3.188,0 9.321,-18.988 0,18.988 3.569,0 z m -64.969,0 0,-19.889 8.905,0 0,-3.222 -21.31,0 0,3.222 8.836,0 0,19.889 3.569,0 z m -22.729,0 0,-23.112 -3.569,0 0,18.642 -15.211,-18.642 -4.47,0 0,23.112 3.569,0 0,-18.815 15.385,18.815 4.296,0 z m -34.754,0 0,-3.222 -15.662,0 0,-6.965 14.449,0 0,-3.222 -14.449,0 0,-6.48 15.35,0 0,-3.222 -18.919,0 0,23.112 19.231,0 z m -29.833,0 0,-3.222 -14.449,0 0,-19.889 -3.569,0 0,23.112 18.018,0 z m -36.66,-9.668 -8.524,0 4.227,-9.459 4.297,9.459 z m 1.351,3.015 3.015,6.653 4.297,0 -10.811,-23.112 -4.019,0 -10.742,23.112 4.054,0 3.015,-6.653 11.191,0 z m -31.774,6.653 0,-19.889 8.905,0 0,-3.222 -21.31,0 0,3.222 8.836,0 0,19.889 3.569,0 z"
         id="path3347"
         clip-path="url(#SVGID_2_)" />
    </g>
    <polygon
       transform="matrix(0.29411766,0,0,0.29411766,-31.97,946.3875)"
       style="fill:#ffffff"
       points="138.056,297.952 163.893,297.952 163.893,283.86 133.359,283.86 133.359,316.743 128.661,316.743 128.661,279.161 168.591,279.161 168.591,302.65 138.056,302.65 "
       id="polygon3349" />
    <polygon
       transform="matrix(0.29411766,0,0,0.29411766,-31.97,946.3875)"
       style="fill:#ffffff"
       points="178.989,279.409 197.778,298.201 178.989,316.991 186.033,316.991 201.3,301.725 240.356,340.222 247.403,340.222 204.823,298.201 250.926,252.356 243.88,252.356 201.3,294.677 186.033,279.409 "
       id="polygon3351" />
    <polygon
       transform="matrix(0.29411766,0,0,0.29411766,-31.97,946.3875)"
       style="fill:#ffffff"
       points="257.376,316.743 252.679,316.743 252.679,283.86 233.888,283.86 233.888,279.161 276.166,279.161 276.166,283.86 257.376,283.86 "
       id="polygon3353" />
    <path
       inkscape:connector-curvature="0"
       style="fill:#ffffff"
       d="m 1.38206,1021.9178 51.74265,0 0,23.31 -51.74265,0 0,-23.31 z M 0,1046.6099 l 54.50618,0 0,-26.0736 -54.50618,0 0,26.0736 z"
       id="path3355" />
    <path
       inkscape:connector-curvature="0"
       style="fill:#ffffff"
       d="m 50.17236,1034.2099 0,-1.1333 0.30558,1.1333 0.26,0 0.30706,-1.1333 0,1.1333 0.27412,0 0,-1.4215 -0.44941,0 -0.26,0.9788 -0.25853,-0.9788 -0.44941,0 0,1.4215 0.27059,0 z m -0.86912,0 0,-1.175 0.42706,0 0,-0.2465 -1.15412,0 0,0.2465 0.43882,0 0,1.175 0.28824,0 z"
       id="path3357" />
    <g
       transform="matrix(0.29411766,0,0,0.29411766,-31.97,946.3875)"
       id="g3359"
       style="fill:#ffffff">
      <defs
         id="defs3361">
        <rect
           id="SVGID_3_"
           x="108.698"
           y="252.105"
           width="575.22601"
           height="108.209" />
      </defs>
      <clipPath
         id="clipPath3403">
        <use
           height="100%"
           width="100%"
           y="0"
           x="0"
           xlink:href="#SVGID_3_"
           style="overflow:visible"
           id="use3405" />
      </clipPath>
      <path
         inkscape:connector-curvature="0"
         style="fill:#ffffff"
         d="m 286.761,357.115 c -1.358,0 -2.317,-0.993 -2.317,-2.376 0,-1.394 0.959,-2.401 2.317,-2.401 1.345,0 2.303,1.007 2.303,2.401 10e-4,1.383 -0.958,2.376 -2.303,2.376 m 3.248,-8.192 -0.944,0 0,3.985 c -0.474,-0.908 -1.358,-1.427 -2.498,-1.427 -1.807,0 -3.066,1.318 -3.066,3.234 0,1.904 1.259,3.249 3.077,3.249 1.14,0 2.013,-0.521 2.487,-1.417 l 0,1.368 0.944,0 0,-8.992 z m -10.399,2.569 c -1.165,0.012 -2.025,0.472 -2.473,1.44 l 0,-1.404 -0.944,0 0,6.385 0.944,0 0,-3.429 c 0.109,-1.213 0.884,-2.038 2.145,-2.049 1.129,0 1.807,0.667 1.807,1.794 l 0,3.684 0.944,0 0,-3.939 c 0,-1.538 -0.895,-2.482 -2.423,-2.482 m -8.606,5.648 c -0.898,0 -1.467,-0.46 -1.467,-1.165 0,-0.703 0.558,-1.031 1.625,-1.031 l 1.99,0 0,0.766 c -0.242,0.884 -1.067,1.43 -2.148,1.43 m 2.16,0.774 0.924,0 -0.013,-4.216 c -0.012,-1.371 -0.886,-2.206 -2.463,-2.206 -1.092,0 -1.784,0.314 -2.607,0.86 l 0.399,0.691 c 0.667,-0.462 1.322,-0.729 2.026,-0.729 1.127,0 1.709,0.559 1.709,1.493 l 0,0.376 -2.099,0 c -1.503,0.012 -2.386,0.713 -2.386,1.828 0,1.104 0.846,1.952 2.168,1.952 1.02,0 1.832,-0.34 2.341,-1.03 l 0,0.981 z m -7.227,-6.386 -0.944,0 0,6.385 0.944,0 0,-3.392 c 0.109,-1.262 0.945,-2.097 2.292,-2.074 l 0,-0.955 c -1.079,0.012 -1.868,0.52 -2.292,1.452 l 0,-1.416 z m -8.521,2.483 2.559,0 c 1.381,0 2.181,0.546 2.181,1.467 0,0.97 -0.8,1.516 -2.181,1.516 l -2.559,0 0,-2.983 z m 0,-3.648 2.559,0 c 1.139,0 1.807,0.485 1.807,1.346 0,0.884 -0.668,1.383 -1.807,1.383 l -2.559,0 0,-2.729 z m -0.968,-0.932 0,8.483 3.637,0 c 1.916,0 3.052,-0.86 3.052,-2.302 0,-1.165 -0.713,-1.964 -1.937,-2.145 0.993,-0.206 1.563,-0.921 1.563,-1.916 0,-1.333 -1.03,-2.12 -2.739,-2.12 l -3.576,0 z m -4.571,2.097 -0.969,0 -2.025,5.272 -2.12,-5.272 -0.993,0 2.642,6.339 -0.267,0.594 c -0.254,0.594 -0.667,0.896 -1.163,0.896 -0.315,0 -0.606,-0.097 -0.896,-0.302 l -0.399,0.787 c 0.388,0.314 0.812,0.472 1.345,0.472 0.848,0 1.515,-0.508 1.914,-1.49 l 2.931,-7.296 z m -11.599,2.787 c 0.147,-1.213 1.02,-2.001 2.232,-2.001 1.247,0 2.072,0.777 2.133,2.001 l -4.365,0 z m 2.232,-2.812 c -1.856,0 -3.163,1.32 -3.163,3.224 0,1.902 1.295,3.222 3.175,3.222 1.068,0 1.964,-0.386 2.569,-1.064 l -0.52,-0.559 c -0.498,0.523 -1.188,0.802 -1.977,0.802 -1.238,0 -2.147,-0.789 -2.317,-2.038 l 5.212,0 c 0.098,-2.169 -0.918,-3.598 -2.979,-3.587 m -4.886,-2.58 -0.944,0 0,8.992 0.944,0 0,-8.992 z m -3.31,2.605 -0.932,0 0,6.385 0.932,0 0,-6.385 z m -0.471,-2.485 c -0.35,0 -0.617,0.279 -0.617,0.653 0,0.376 0.267,0.653 0.617,0.653 0.351,0 0.617,-0.277 0.617,-0.653 0,-0.374 -0.266,-0.653 -0.617,-0.653 m -4.399,8.871 2.848,-8.483 -1.007,0 -2.303,7.357 -2.327,-7.357 -0.969,0.012 -2.303,7.346 -2.327,-7.357 -1.043,0 2.836,8.483 0.993,0 2.315,-7.151 2.29,7.151 0.997,0 z m -15.406,-3.078 -3.805,0 1.891,-4.303 1.914,4.303 z m 0.412,0.933 0.945,2.145 1.054,0 -3.793,-8.483 -1.007,0 -3.805,8.483 1.031,0 0.944,-2.145 4.631,0 z"
         id="path3367"
         clip-path="url(#SVGID_4_)" />
    </g>
  </g>
</svg>
