<?xml version="1.0" encoding="utf-8"?>
<!-- Generator: Adobe Illustrator 19.1.0, SVG Export Plug-In . SVG Version: 6.00 Build 0)  -->
<svg width="5in" version="1.1" id="Layer_1" xmlns="http://www.w3.org/2000/svg" xmlns:xlink="http://www.w3.org/1999/xlink" x="0px" y="0px"
	 viewBox="0 0 360.3 119.7" style="enable-background:new 0 0 360.3 119.7;" xml:space="preserve">
<style type="text/css">
	.st0{fill:none;}
	.st1{fill:#00B9BE;}
	.st2{fill:#9A9A9A;}
	.st3{fill:#087F90;}
</style>
<rect x="0.7" y="1.2" class="st0" width="360" height="119"/>
<path class="st1" d="M39.1,58.9c2.9,0,4.5-1.3,4.5-3.8c0-2.4-1.6-3.8-4.5-3.8h-7.9v7.6H39.1z M24.6,46h15.8c2.7,0,4.7,0.6,6.4,1.7
	c2.3,1.7,3.7,4.3,3.7,7.2c0,3.3-1.7,6.3-4.5,7.7c-2,1-4.6,1.6-7.3,1.6h-7.5v8h-6.6V46z"/>
<polygon class="st1" points="110.1,72.2 103.5,72.2 103.5,51.3 94.5,51.3 94.5,46 119.2,46 119.2,51.3 110.1,51.3 "/>
<polygon class="st1" points="172.5,72.2 172.5,46 196.5,46 196.5,51.3 179.1,51.3 179.1,55.8 194.5,55.8 194.5,61.1 179.1,61.1 
	179.1,66.9 196.5,66.9 196.5,72.2 "/>
<path class="st1" d="M155.9,53.8c-0.5-1.6-1-2.4-2.2-3c-1.2-0.6-2.7-0.9-4.6-0.9c-3.9,0-6.2,1.2-6.2,3.1c0,1.5,1,2.2,3.8,2.4
	l6.4,0.7c3.4,0.3,5.2,0.7,7,1.7c2.4,1.2,3.9,3.6,3.9,6.4c0,3.1-1.8,5.8-4.8,7.2c-2.5,1.2-5.5,1.7-9.7,1.7c-5.3,0-9.1-1-11.5-3.1
	c-1.8-1.6-2.5-3.3-2.8-6.8h6.9c0.2,1.7,0.7,2.6,1.7,3.5c1.5,1.1,3.3,1.6,6,1.6c4.3,0,6.8-1.3,6.8-3.4c0-1.7-1.3-2.6-4.4-2.9
	l-7.4-0.7c-5.7-0.6-8.8-3.2-8.8-7.4c0-5.5,5-8.8,13.2-8.8c4.1,0,7.9,0.9,10.2,2.6c2,1.4,2.9,3.1,3.5,6.2H155.9z"/>
<polygon class="st1" points="205.2,72.2 205.2,46 211.7,46 211.7,66.9 225.4,66.9 225.4,72.2 "/>
<polygon class="st1" points="233.1,72.2 233.1,46 257.1,46 257.1,51.3 239.7,51.3 239.7,55.8 255.1,55.8 255.1,61.1 239.7,61.1 
	239.7,66.9 257.1,66.9 257.1,72.2 "/>
<polygon class="st2" points="52.5,72.8 61.3,72.8 70.8,63.8 98.9,91.9 108.2,91.9 70.9,54.5 "/>
<path class="st1" d="M296.1,62c-1.9,7.5-7,11.2-15.5,11.2c-4.8,0-8.6-1.2-11.3-3.6c-2.9-2.5-4.4-6.1-4.4-10.2
	c0-8.6,6.3-14.3,15.9-14.3c4.6,0,8.2,1.2,11,3.8c2.1,1.8,3.3,3.7,3.9,6.3h-7.1c-1.3-3.3-3.9-5-7.8-5c-5.3,0-9,3.7-9,9
	c0,5.2,3.6,8.8,8.8,8.8c4.2,0,6.7-1.8,8.2-6.1H296.1z"/>
<polygon class="st1" points="317.1,72.2 310.5,72.2 310.5,51.3 301.5,51.3 301.5,46 326.1,46 326.1,51.3 317.1,51.3 "/>
<path class="st1" d="M328.1,46v0.6h1.1v2.8h0.7v-2.8h1V46H328.1z M333.6,46l-0.6,2.4l-0.6-2.4h-1.1v3.4h0.7v-2.7l0.7,2.7h0.6
	l0.7-2.7v2.7h0.7V46H333.6z"/>
<polygon class="st1" points="52.5,45.5 61.3,45.5 70.8,54.5 98.9,26.4 108.2,26.4 70.8,63.8 "/>
<polygon class="st3" points="70.8,54.5 66.2,59.2 70.8,63.8 75.5,59.1 "/>
<g>
	<path class="st1" d="M241.8,97.1l-1.2-3.3h-4.1l-1.2,3.3h-1.5l4.1-10.8h1.5l3.9,10.8H241.8z M238.6,88.1l-1.6,4.5h3.2L238.6,88.1z"
		/>
	<path class="st1" d="M259.6,97.1h-1.4l-2.8-8.9l-2.7,8.9h-1.4l-3.3-10.8h1.5l2.5,8.9l2.7-8.9h1.4l2.8,8.9l2.5-8.9h1.5L259.6,97.1z"
		/>
	<path class="st1" d="M263.6,87.8v-1.4h1.2v1.4H263.6z M263.6,97.1v-7.2h1.2v7.2H263.6z"/>
	<path class="st1" d="M266.8,97.1V86.4h1.2v10.8H266.8z"/>
	<path class="st1" d="M270.8,93.8c0,1.1,0.6,2.6,2.3,2.6c1.3,0,1.7-1,1.9-1.7l1.2,0.2c-0.2,0.5-0.8,2.4-3.2,2.4
		c-1.8,0-3.5-1.1-3.5-3.9c0-2.7,2-3.8,3.5-3.8c1.6,0,3.3,1.1,3.3,3.8v0.2L270.8,93.8L270.8,93.8z M274.9,92.9c0-1.2-0.8-2.2-2.1-2.2
		c-1.3,0-1.9,1.1-2,2.2H274.9z"/>
	<path class="st1" d="M283.3,89.9l-3,8.5c-0.6,1.6-1,2.2-2.2,2.2c-0.2,0-0.6,0-1.1-0.2v-1.1c0.2,0.1,0.4,0.1,0.8,0.1
		c0.7,0,1-0.3,1.4-1.5l0.3-0.9l-2.4-7.2h1.3l1.8,5.7l1.9-5.7H283.3z"/>
	<path class="st1" d="M288.8,86.4h5.2c1.5,0,3.1,1,3.1,2.8c0,1.1-0.6,2-1.6,2.3c0.9,0.3,2,0.9,2,2.7c0,2.4-2,3-3.4,3h-5.2V86.4z
		 M293.3,90.9c1,0,2.2-0.2,2.2-1.7c0-0.9-0.5-1.6-1.8-1.6h-3.5v3.3H293.3z M293.6,95.9c1.1,0,2.3-0.2,2.3-1.8c0-1.3-0.9-1.9-2.2-1.9
		h-3.5v3.7H293.6z"/>
	<path class="st1" d="M300.3,89.9v1.3c0.2-0.3,0.4-0.6,0.7-0.8c0.3-0.2,0.9-0.6,1.8-0.6v1.3c-0.2,0-0.3,0-0.5,0
		c-0.9,0-1.6,0.5-1.9,1.4c-0.1,0.4-0.1,0.6-0.1,1.3v3.3h-1.2v-7.2H300.3z"/>
	<path class="st1" d="M308.1,92.6c0-0.7,0-1.9-1.6-1.9c-1,0-1.6,0.5-1.6,1.4v0.1l-1.3-0.1c0-0.3,0.2-2.4,2.8-2.4
		c0.4,0,1.2,0.1,1.8,0.4c1,0.6,1.1,1.3,1.1,2.6v2.5c0,0.4,0,0.8,0.5,0.8c0.2,0,0.2,0,0.4-0.1v1c-0.4,0.1-0.6,0.1-0.8,0.1
		c-0.1,0-0.5,0-0.8-0.2c-0.3-0.2-0.5-0.7-0.5-0.9c-0.3,0.4-1.1,1.2-2.5,1.2c-1.4,0-2.4-0.8-2.4-2.1c0-0.3,0.1-1,0.8-1.6
		c0.7-0.5,2-0.7,2.9-0.8l1.1-0.1V92.6z M305.6,94.1c-0.2,0.1-0.9,0.4-0.9,1.1c0,0.5,0.4,1.1,1.4,1.1c0.7,0,2.1-0.3,2.1-2.1v-0.6
		C307.6,93.7,306.1,93.9,305.6,94.1z"/>
	<path class="st1" d="M316.2,97.1v-4.7c0-1.1-0.8-1.6-1.6-1.6c-1,0-1.9,0.7-1.9,2v4.3h-1.2v-7.2h1.2V91c0.3-0.5,1-1.3,2.3-1.3
		c0.3,0,1.4,0.1,2,1c0.4,0.6,0.4,1.2,0.4,1.9v4.5H316.2z"/>
	<path class="st1" d="M324.8,97.1v-0.9c-0.4,0.4-1,1.1-2.5,1.1c-2.1,0-3.3-1.6-3.3-3.8c0-2.8,1.8-3.8,3.3-3.8c1.3,0,2.2,0.8,2.5,1.2
		v-4.5h1.2v10.8H324.8z M322.6,96.3c1.1,0,2.2-0.6,2.2-2.8c0-1.5-0.9-2.6-2.2-2.6c-1.6,0-2.3,1.4-2.3,2.7
		C320.3,94.8,320.8,96.3,322.6,96.3z"/>
</g>
</svg>
