<?xml version="1.0" encoding="iso-8859-1"?>
<!-- Generator: Adobe Illustrator 19.1.0, SVG Export Plug-In . SVG Version: 6.00 Build 0)  -->
<svg version="1.1" id="Layer_1" xmlns="http://www.w3.org/2000/svg" xmlns:xlink="http://www.w3.org/1999/xlink" x="0px" y="0px"
	height="0.25in" width="1.184in" viewBox="-191 165.012 575.971 121.608" style="enable-background:new -191 165.012 575.971 121.608;" xml:space="preserve">
<path d="M-64.79,286.619h0.824l40.544-101.038c3.957-9.724,7.583-14.509,11.212-16.642v-0.991h-24.397v0.991
	c5.113,2.797,6.264,10.383,2.802,19.112l-24.888,62.306l-33.797-82.744h-0.814l-35.606,82.582l-25.553-64.948
	c-2.964-7.742-2.138-13.513,2.637-16.309v-0.991h-35.596v0.991c3.792,1.975,6.589,6.09,10.052,14.501l41.87,103.181h0.818
	l35.272-83.571L-64.79,286.619z M197.942,228.768v-32.8h34.283c15.657,0,21.591,2.47,27.198,10.382l0.989-0.33l-1.984-18.132
	h-85.707l-0.165,0.828c5.115,3.13,6.599,7.742,6.599,14.332v64.946c0,6.765-1.484,11.208-6.599,14.338l0.165,0.99h90.161
	l3.302-19.445l-0.836-0.331c-5.766,7.749-12.682,11.7-28.179,11.7h-39.227v-38.737h26.215c11.196,0,16.802,1.813,19.77,6.597h1.151
	v-20.771l-1.151-0.163c-2.968,4.778-8.574,6.595-19.77,6.595h-26.215V228.768z M312.822,282.332l0.159,0.99h32.977v-0.99
	c-5.447-3.13-7.09-8.082-7.09-15.99v-22.413l29.01-41.371c5.276-7.582,9.724-12.199,13.516-13.842v-0.828h-25.715v0.828
	c4.616,2.636,5.268,9.064,0.333,16.144l-21.261,30.666l-23.41-34.451c-3.629-5.277-2.969-10.057,1.325-12.359v-0.828h-36.107v0.828
	c4.294,1.807,6.931,4.277,11.54,10.872l31.977,45.664v21.091C320.074,274.251,318.262,279.202,312.822,282.332 M153.768,283.322
	l4.612-20.106l-0.989-0.332c-5.608,8.735-14.178,12.362-26.873,12.362H93.274v-70.541c0-8.086,1.98-12.697,7.579-15.99v-0.828
	H68.062l-0.167,0.828c5.11,3.13,6.589,7.742,6.589,14.332v64.946c0,6.765-1.479,11.208-6.589,14.338l0.167,0.99H153.768z
	 M8.555,267.166c0,7.426-1.649,12.206-6.926,15.167v0.99h32.642v-0.99c-5.275-2.961-6.918-7.741-6.918-15.167v-63.292
	c0-7.252,1.643-12.027,6.918-15.157v-0.828H1.629v0.828c5.277,3.13,6.926,7.904,6.926,15.157V267.166z"/>
</svg>
